# Created by Kenney (www.kenney.nl)

mtllib brickWall.mtl

g brickWall

v 0.5 0.11 -0.352914
v 0.5 0.11 -0.327
v -0.5 0.11 -0.352914
v -0.5 0.11 -0.327
v -0.5 0.601914 -0.477086
v 0.5 0.601914 -0.477086
v -0.5 0.701914 -0.477086
v 0.5 0.701914 -0.477086
v 0.5 0 -0.32
v 0.5 0 -0.5
v -0.5 0 -0.32
v -0.5 0 -0.5
v 0.5 0.701914 -0.342914
v -0.5 0.701914 -0.342914
v 0.5 0.09 -0.32
v -0.5 0.09 -0.32
v 0.5 0.11 -0.493
v 0.5 0.11 -0.467086
v -0.5 0.11 -0.493
v -0.5 0.11 -0.467086
v -0.5 0.09 -0.5
v 0.5 0.09 -0.5
v 0.5 0.601914 -0.467086
v -0.5 0.601914 -0.467086
v 0.5 0.601914 -0.342914
v 0.5 0.601914 -0.352914
v -0.5 0.601914 -0.342914
v -0.5 0.601914 -0.352914

vn 0 1 0
vn 0 0 -1
vn 0 -1 0
vn 0 0.3303504 0.9438583
vn 0 0.3303504 -0.9438583
vn 0 0 1
vn 1 0 0
vn -1 0 0

vt -19.68504 -13.89425
vt -19.68504 -12.87402
vt 19.68504 -13.89425
vt 19.68504 -12.87402
vt 19.68504 23.6974
vt -19.68504 23.6974
vt 19.68504 27.63441
vt -19.68504 27.63441
vt 19.68504 -12.59842
vt 19.68504 -19.68504
vt -19.68504 -12.59842
vt -19.68504 -19.68504
vt -19.68504 -18.78291
vt -19.68504 -13.50055
vt 19.68504 -18.78291
vt 19.68504 -13.50055
vt 19.68504 7.506275
vt -19.68504 7.506275
vt 19.68504 8.340512
vt -19.68504 8.340512
vt -19.68504 -19.40945
vt -19.68504 -18.38921
vt 19.68504 -19.40945
vt 19.68504 -18.38921
vt 19.68504 -3.158581
vt -19.68504 -3.158581
vt 19.68504 -2.324344
vt -19.68504 -2.324344
vt 18.78291 27.63441
vt 18.78291 23.6974
vt 13.50055 27.63441
vt 18.38921 23.6974
vt 13.89425 23.6974
vt 13.50055 23.6974
vt 19.68504 -1.578984E-13
vt -19.68504 -1.578984E-13
vt 19.68504 3.543307
vt -19.68504 3.543307
vt 19.68504 0
vt -19.68504 0
vt -18.78291 23.6974
vt -18.78291 27.63441
vt -18.38921 23.6974
vt -13.50055 27.63441
vt -13.89425 23.6974
vt -13.50055 23.6974
vt -12.59842 0
vt -19.40945 4.330709
vt -18.38921 4.330709
vt -13.89425 4.330709
vt -12.87402 4.330709
vt -12.59842 3.543307
vt 12.59842 0
vt 19.40945 4.330709
vt 18.38921 4.330709
vt 13.89425 4.330709
vt 12.87402 4.330709
vt 12.59842 3.543307
vt 19.68504 4.330709
vt -19.68504 4.330709

usemtl stone

f 3/3/1 2/2/1 1/1/1
f 2/2/1 3/3/1 4/4/1
f 7/7/2 6/6/2 5/5/2
f 6/6/2 7/7/2 8/8/2
f 11/11/3 10/10/3 9/9/3
f 10/10/3 11/11/3 12/12/3
f 7/15/1 13/14/1 8/13/1
f 13/14/1 7/15/1 14/16/1
f 2/19/4 16/18/4 15/17/4
f 16/18/4 2/19/4 4/20/4
f 19/23/1 18/22/1 17/21/1
f 18/22/1 19/23/1 20/24/1
f 19/27/5 22/26/5 21/25/5
f 22/26/5 19/27/5 17/28/5
f 24/22/3 6/15/3 23/24/3
f 6/15/3 24/22/3 5/13/3
f 27/14/3 26/3/3 25/16/3
f 26/3/3 27/14/3 28/1/3
f 13/7/6 27/6/6 25/5/6
f 27/6/6 13/7/6 14/8/6
f 13/31/7 6/30/7 8/29/7
f 6/30/7 13/31/7 23/32/7
f 23/32/7 13/31/7 26/33/7
f 26/33/7 13/31/7 25/34/7
f 21/37/2 10/36/2 12/35/2
f 10/36/2 21/37/2 22/38/2
f 15/37/6 11/40/6 9/39/6
f 11/40/6 15/37/6 16/38/6
f 24/43/8 7/42/8 5/41/8
f 7/42/8 24/43/8 14/44/8
f 14/44/8 24/43/8 28/45/8
f 14/44/8 28/45/8 27/46/8
f 11/47/8 21/38/8 12/40/8
f 21/38/8 11/47/8 19/48/8
f 19/48/8 11/47/8 20/49/8
f 20/49/8 11/47/8 3/50/8
f 3/50/8 11/47/8 4/51/8
f 4/51/8 11/47/8 16/52/8
f 22/37/7 9/53/7 10/39/7
f 9/53/7 22/37/7 17/54/7
f 9/53/7 17/54/7 18/55/7
f 9/53/7 18/55/7 1/56/7
f 9/53/7 1/56/7 2/57/7
f 9/53/7 2/57/7 15/58/7

usemtl brick

f 26/5/6 3/60/6 1/59/6
f 3/60/6 26/5/6 28/6/6
f 24/5/2 18/60/2 20/59/2
f 18/60/2 24/5/2 23/6/2
f 20/49/8 28/45/8 24/43/8
f 28/45/8 20/49/8 3/50/8
f 26/33/7 18/55/7 23/32/7
f 18/55/7 26/33/7 1/56/7

