# Created by Kenney (www.kenney.nl)

mtllib coffin.mtl

g coffin

v 0.220247 0.0352 -0.009771725
v 0.190973 0.0352 -0.01633473
v 0.220247 0.1865 -0.009771725
v 0.190973 0.1865 -0.01633473
v 0.273125 0.1865 -0.2456257
v 0.266399 0.1865 -0.2156257
v 0.252947 0.1865 -0.2756257
v 0.236399 0.1865 -0.2156257
v 0.236399 0.1865 -0.2756257
v 0.097021 0.0352 -0.4782457
v 0.097021 0.1865 -0.4782457
v 0.097021 0.0352 -0.4182457
v 0.097021 0.1865 -0.4182457
v 0.236399 0.0352 -0.2756257
v 0.252947 0.0352 -0.2756257
v -0.236399 0.1865 -0.2756257
v -0.236399 0.0352 -0.2756257
v -0.236399 0.1865 -0.2156257
v -0.236399 0.0352 -0.2156257
v -0.266399 0.0352 -0.2156257
v -0.266399 0.1865 -0.2156257
v 0.266399 0.0352 -0.2156257
v 0.236399 0.0352 -0.2156257
v 0.237748 0.1865 -0.08783372
v 0.208475 0.1865 -0.09439673
v 0.208475 0.0352 -0.09439673
v 0.237748 0.0352 -0.08783372
v -0.252947 0.1865 -0.2756257
v -0.273125 0.1865 -0.2456257
v -0.252947 0.0352 -0.2756257
v -0.237748 0.0352 -0.08783372
v -0.208475 0.0352 -0.09439673
v -0.237748 0.1865 -0.08783372
v -0.208475 0.1865 -0.09439673
v 0.055532 0.0352 0.4544553
v 0.055532 0.1865 0.4544553
v 0.055532 0.0352 0.4782463
v 0.055532 0.1865 0.4782463
v 0.116167 0.0352 0.4544553
v 0.116167 0.1865 0.4544553
v 0.110833 0.1865 0.4782463
v -0.190973 0.0352 -0.01633473
v -0.220247 0.0352 -0.009771725
v -0.190973 0.1865 -0.01633473
v -0.220247 0.1865 -0.009771725
v -0.093795 0.1865 -0.4782457
v -0.093795 0.0352 -0.4782457
v -0.093795 0.1865 -0.4230417
v -0.093795 0.0352 -0.4230417
v -0.055532 0.1865 0.4544553
v -0.055532 0.1865 0.4782463
v -0.116167 0.1865 0.4544553
v -0.110833 0.1865 0.4782463
v -0.055532 0.0352 0.4544553
v -0.055532 0.0352 0.4782463
v 0.157021 0.1865 -0.4182457
v 0.116665 0.1865 -0.4782457
v -0.116167 0.0352 0.4544553
v -0.116665 0.1865 -0.4782457
v -0.153795 0.1865 -0.4230417
v 0.157021 0.0352 -0.4182457
v -0.153795 0.0352 -0.4230417
v -0.12825 0 -0.4999997
v -0.12825 0.2052 -0.4999997
v -0.2964 0 -0.2499997
v -0.2964 0.2052 -0.2499997
v 0.12825 0.2052 -0.4999997
v 0.12825 0 -0.4999997
v 0.2964 0.2052 -0.2499997
v 0.2964 0 -0.2499997
v 0.12825 0.2052 0.5000003
v 0.12825 0 0.5000003
v -0.273125 0.2052 -0.2456257
v -0.110833 0.2052 0.4782463
v 0.110833 0.2052 0.4782463
v 0.273125 0.2052 -0.2456257
v -0.12825 0 0.5000003
v -0.12825 0.2052 0.5000003
v 0.116665 0.2052 -0.4782457
v -0.116665 0.2052 -0.4782457

vn -0.2187618 0 0.9757783
vn 0 1 0
vn -1 0 0
vn 0 0 -1
vn 1 0 0
vn 0 0 1
vn 0.2187689 0 -0.9757767
vn -0.2187689 0 -0.9757767
vn 0.2187618 0 0.9757783
vn 0.9757754 0 -0.2187751
vn -0.9757754 0 -0.2187751
vn -0.8297711 0 -0.558104
vn 0.8297711 0 -0.558104
vn 0.9757766 0 0.2187691
vn 0.9757767 -3.703253E-07 -0.218769
vn -0.9757767 -3.703253E-07 -0.218769
vn 0 -1 0
vn -0.9757766 0 0.2187691
vn -0.8297714 0 0.5581034
vn 0.8297712 3.619659E-07 0.5581036

vt 8.376951 1.385827
vt 7.195823 1.385827
vt 8.376951 7.34252
vt 7.195823 7.34252
vt -10.75295 -9.670304
vt -10.48815 -8.489202
vt -9.958544 -10.85141
vt -9.307047 -8.489202
vt -9.307047 -10.85141
vt -18.82857 1.385827
vt -18.82857 7.34252
vt -16.46637 1.385827
vt -16.46637 7.34252
vt -9.307047 1.385827
vt -9.958544 1.385827
vt -9.307047 7.34252
vt -9.958544 7.34252
vt 10.85141 7.34252
vt 10.85141 1.385827
vt 8.489202 7.34252
vt 8.489202 1.385827
vt -10.48815 1.385827
vt -10.48815 7.34252
vt 10.48815 1.385827
vt 9.307047 1.385827
vt 10.48815 7.34252
vt 9.307047 7.34252
vt -9.360157 -3.458021
vt -8.671142 -0.3847136
vt -8.207677 -3.716407
vt -7.518622 -0.6430994
vt -7.195826 1.385827
vt -8.376916 1.385827
vt -7.195826 7.34252
vt -8.376916 7.34252
vt 9.307047 -10.85141
vt 9.307047 -8.489202
vt 9.958544 -10.85141
vt 10.48815 -8.489202
vt 10.75295 -9.670304
vt -10.85141 1.385827
vt -10.85141 7.34252
vt -8.489202 1.385827
vt -8.489202 7.34252
vt 9.958544 1.385827
vt 9.958544 7.34252
vt 8.376916 1.385827
vt 7.195826 1.385827
vt 8.376916 7.34252
vt 7.195826 7.34252
vt 17.89194 1.385827
vt 17.89194 7.34252
vt 18.82859 1.385827
vt 18.82859 7.34252
vt -2.186299 1.385827
vt -4.573504 1.385827
vt -2.186299 7.34252
vt -4.573504 7.34252
vt -4.573504 17.89194
vt -4.363504 18.82859
vt -2.186299 17.89194
vt -2.186299 18.82859
vt -7.195823 1.385827
vt -8.376951 1.385827
vt -7.195823 7.34252
vt -8.376951 7.34252
vt 5.422013 7.34252
vt 5.422013 1.385827
vt 2.272408 7.34252
vt 2.272408 1.385827
vt 18.82857 7.34252
vt 18.82857 1.385827
vt 16.65519 7.34252
vt 16.65519 1.385827
vt 2.186299 17.89194
vt 2.186299 18.82859
vt 4.573504 17.89194
vt 4.363504 18.82859
vt -5.422013 1.385827
vt -5.422013 7.34252
vt -2.272408 1.385827
vt -2.272408 7.34252
vt -17.89194 7.34252
vt -17.89194 1.385827
vt -18.82859 7.34252
vt -18.82859 1.385827
vt 7.518622 -0.6430994
vt 8.671142 -0.3847136
vt 8.207677 -3.716407
vt 9.360157 -3.458021
vt -6.181929 -16.46637
vt -3.819724 -16.46637
vt -4.59311 -18.82857
vt -3.819724 -18.82857
vt 4.573504 1.385827
vt 2.186299 1.385827
vt 4.573504 7.34252
vt 2.186299 7.34252
vt 3.692717 -18.82857
vt 3.692717 -16.65519
vt 4.59311 -18.82857
vt 6.054921 -16.65519
vt 6.181929 1.385827
vt 3.819724 1.385827
vt 6.181929 7.34252
vt 3.819724 7.34252
vt -3.692717 1.385827
vt -6.054921 1.385827
vt -3.692717 7.34252
vt -6.054921 7.34252
vt -13.51608 0
vt -13.51608 8.07874
vt -1.654351 0
vt -1.654351 8.07874
vt 13.51608 8.07874
vt 13.51608 0
vt 1.654351 8.07874
vt 1.654351 0
vt 12.15697 8.07874
vt 12.15697 0
vt -18.1036 8.07874
vt -18.1036 0
vt 11.78847 8.078737
vt 11.78847 7.342516
vt -17.4179 8.078737
vt 10.57805 7.342516
vt 5.421968 7.342516
vt 10.57805 1.385824
vt 2.272371 7.342516
vt 2.272371 1.385824
vt -16.458 7.342516
vt -17.4179 7.342516
vt -16.458 1.385824
vt 5.421968 1.385824
vt -10.57805 1.385824
vt -10.57805 7.342516
vt -5.421968 1.385824
vt -5.421968 7.342516
vt 17.4179 8.078737
vt -11.78847 8.078737
vt -11.78847 7.342516
vt -2.272371 7.342516
vt 16.458 7.342516
vt 16.458 1.385824
vt -2.272371 1.385824
vt 17.4179 7.342516
vt 5.049212 0
vt -5.049212 0
vt 5.049212 8.07874
vt -5.049212 8.07874
vt 4.363504 7.34252
vt 4.363504 8.07874
vt -4.363504 7.34252
vt -4.363504 8.07874
vt 4.59311 7.34252
vt 4.59311 8.07874
vt -4.59311 7.34252
vt -4.59311 8.07874
vt 11.66929 -9.842509
vt 5.049212 -19.68503
vt 5.049212 19.68505
vt -5.049212 19.68505
vt -5.049212 -19.68503
vt -11.66929 -9.842509
vt -12.15697 0
vt -12.15697 8.07874
vt 18.1036 0
vt 18.1036 8.07874
vt -10.21317 1.385826
vt -10.21317 7.342519
vt -3.44629 1.385826
vt -3.44629 7.342519
vt -2.022883 8.078739
vt -13.05998 8.078739
vt -13.05998 7.342519
vt -2.022883 7.342519
vt 13.05998 8.078745
vt 13.05998 7.342525
vt 2.022879 8.078745
vt 10.44072 7.342525
vt 3.446286 7.342525
vt 10.44072 1.385832
vt 2.022879 7.342525
vt 3.446286 1.385832

usemtl woodDark

f 3/3/1 2/2/1 1/1/1
f 2/2/1 3/3/1 4/4/1
f 7/7/2 6/6/2 5/5/2
f 6/6/2 7/7/2 8/8/2
f 8/8/2 7/7/2 9/9/2
f 12/12/3 11/11/3 10/10/3
f 11/11/3 12/12/3 13/13/3
f 9/16/4 15/15/4 14/14/4
f 15/15/4 9/16/4 7/17/4
f 18/20/5 17/19/5 16/18/5
f 17/19/5 18/20/5 19/21/5
f 18/16/6 20/22/6 19/14/6
f 20/22/6 18/16/6 21/23/6
f 6/26/6 23/25/6 22/24/6
f 23/25/6 6/26/6 8/27/6
f 25/30/2 3/29/2 24/28/2
f 3/29/2 25/30/2 4/31/2
f 25/34/7 27/33/7 26/32/7
f 27/33/7 25/34/7 24/35/7
f 28/38/2 18/37/2 16/36/2
f 18/37/2 28/38/2 21/39/2
f 21/39/2 28/38/2 29/40/2
f 23/43/3 9/42/3 14/41/3
f 9/42/3 23/43/3 8/44/3
f 28/46/4 17/25/4 30/45/4
f 17/25/4 28/46/4 16/27/4
f 33/49/8 32/48/8 31/47/8
f 32/48/8 33/49/8 34/50/8
f 37/53/3 36/52/3 35/51/3
f 36/52/3 37/53/3 38/54/3
f 36/57/4 39/56/4 35/55/4
f 39/56/4 36/57/4 40/58/4
f 36/61/2 41/60/2 40/59/2
f 41/60/2 36/61/2 38/62/2
f 44/65/9 43/64/9 42/63/9
f 43/64/9 44/65/9 45/66/9
f 44/69/10 32/68/10 34/67/10
f 32/68/10 44/69/10 42/70/10
f 48/73/5 47/72/5 46/71/5
f 47/72/5 48/73/5 49/74/5
f 52/77/2 51/76/2 50/75/2
f 51/76/2 52/77/2 53/78/2
f 2/81/11 25/80/11 26/79/11
f 25/80/11 2/81/11 4/82/11
f 51/85/5 54/84/5 50/83/5
f 54/84/5 51/85/5 55/86/5
f 34/89/2 45/88/2 44/87/2
f 45/88/2 34/89/2 33/90/2
f 57/93/2 13/92/2 56/91/2
f 13/92/2 57/93/2 11/94/2
f 52/97/4 54/96/4 58/95/4
f 54/96/4 52/97/4 50/98/4
f 59/101/2 48/100/2 46/99/2
f 48/100/2 59/101/2 60/102/2
f 56/105/6 12/104/6 61/103/6
f 12/104/6 56/105/6 13/106/6
f 48/109/6 62/108/6 49/107/6
f 62/108/6 48/109/6 60/110/6

usemtl wood

f 65/113/12 64/112/12 63/111/12
f 64/112/12 65/113/12 66/114/12
f 69/117/13 68/116/13 67/115/13
f 68/116/13 69/117/13 70/118/13
f 71/121/14 70/120/14 69/119/14
f 70/120/14 71/121/14 72/122/14
f 74/125/15 29/124/15 73/123/15
f 29/124/15 74/125/15 21/126/15
f 21/126/15 74/125/15 33/127/15
f 21/126/15 33/127/15 20/128/15
f 33/127/15 74/125/15 45/129/15
f 45/129/15 74/125/15 43/130/15
f 43/130/15 74/125/15 52/131/15
f 52/131/15 74/125/15 53/132/15
f 58/133/15 43/130/15 52/131/15
f 31/134/15 20/128/15 33/127/15
f 27/137/16 6/136/16 22/135/16
f 24/138/16 6/136/16 27/137/16
f 75/139/16 6/136/16 24/138/16
f 76/140/16 6/136/16 75/139/16
f 6/136/16 76/140/16 5/141/16
f 75/139/16 24/138/16 3/142/16
f 75/139/16 3/142/16 40/143/16
f 40/143/16 3/142/16 39/144/16
f 39/144/16 3/142/16 1/145/16
f 75/139/16 40/143/16 41/146/16
f 71/149/6 77/148/6 72/147/6
f 77/148/6 71/149/6 78/150/6
f 64/149/4 68/148/4 63/147/4
f 68/148/4 64/149/4 67/150/4
f 74/152/4 51/98/4 53/151/4
f 51/98/4 74/152/4 38/57/4
f 38/57/4 74/152/4 41/153/4
f 41/153/4 74/152/4 75/154/4
f 37/55/4 51/98/4 38/57/4
f 51/98/4 37/55/4 55/96/4
f 79/156/6 11/106/6 57/155/6
f 11/106/6 79/156/6 46/109/6
f 46/109/6 79/156/6 59/157/6
f 59/157/6 79/156/6 80/158/6
f 47/107/6 11/106/6 46/109/6
f 11/106/6 47/107/6 10/104/6
f 72/161/17 68/160/17 70/159/17
f 68/160/17 72/161/17 77/162/17
f 68/160/17 77/162/17 63/163/17
f 63/163/17 77/162/17 65/164/17
f 77/167/18 66/166/18 65/165/18
f 66/166/18 77/167/18 78/168/18
f 15/171/19 56/170/19 61/169/19
f 7/172/19 56/170/19 15/171/19
f 76/173/19 56/170/19 7/172/19
f 79/174/19 56/170/19 76/173/19
f 56/170/19 79/174/19 57/175/19
f 76/173/19 7/172/19 5/176/19
f 61/91/2 14/9/2 15/7/2
f 14/9/2 61/91/2 23/8/2
f 23/8/2 61/91/2 26/30/2
f 26/30/2 61/91/2 2/31/2
f 39/59/2 2/31/2 61/91/2
f 2/31/2 39/59/2 1/29/2
f 39/59/2 61/91/2 12/92/2
f 39/59/2 12/92/2 35/61/2
f 27/28/2 23/8/2 26/30/2
f 23/8/2 27/28/2 22/6/2
f 12/92/2 47/99/2 35/61/2
f 47/99/2 12/92/2 10/94/2
f 35/61/2 47/99/2 37/62/2
f 37/62/2 47/99/2 54/75/2
f 54/75/2 47/99/2 49/100/2
f 54/75/2 49/100/2 58/77/2
f 58/77/2 49/100/2 62/102/2
f 58/77/2 62/102/2 42/87/2
f 58/77/2 42/87/2 43/88/2
f 62/102/2 17/36/2 42/87/2
f 17/36/2 62/102/2 30/38/2
f 42/87/2 17/36/2 32/89/2
f 19/37/2 32/89/2 17/36/2
f 32/89/2 19/37/2 31/90/2
f 31/90/2 19/37/2 20/39/2
f 55/76/2 37/62/2 54/75/2
f 73/179/20 59/178/20 80/177/20
f 59/178/20 73/179/20 60/180/20
f 60/180/20 73/179/20 28/181/20
f 60/180/20 28/181/20 62/182/20
f 28/181/20 73/179/20 29/183/20
f 30/184/20 62/182/20 28/181/20
f 67/163/2 76/5/2 69/164/2
f 76/5/2 67/163/2 79/93/2
f 79/93/2 67/163/2 64/160/2
f 79/93/2 64/160/2 80/101/2
f 80/101/2 64/160/2 73/40/2
f 73/40/2 64/160/2 66/159/2
f 76/5/2 71/162/2 69/164/2
f 71/162/2 76/5/2 75/60/2
f 71/162/2 75/60/2 78/161/2
f 78/161/2 73/40/2 66/159/2
f 78/161/2 75/60/2 74/78/2
f 78/161/2 74/78/2 73/40/2

g lid

v 0.2964 0.244188 -0.2500001
v 0.2964 0.2052 -0.2500001
v 0.12825 0.244188 0.5000003
v -0.12825 0.244188 0.5000003
v -0.12825 0.2052 -0.5000003
v -0.12825 0.244188 -0.5000003
v -0.2964 0.2052 -0.2500001
v -0.2964 0.244188 -0.2500001
v 0.12825 0.244188 -0.5000003
v 0.12825 0.2052 -0.5000003
v 0.25569 0.244188 -0.1310324
v 0.1820745 0.244188 0.1973157
v -0.25569 0.244188 -0.1310324
v -0.1820745 0.244188 0.1973157
v 0.2823626 0.244188 -0.2500001
v -0.2823626 0.244188 -0.2500001
v 0.1565402 0.244188 0.3112065
v -0.1565402 0.244188 0.3112065
v 0.2823626 0.264188 -0.2500001
v 0.25569 0.264188 -0.1310324
v -0.2823626 0.264188 -0.2500001
v -0.25569 0.264188 -0.1310324
v 0.1820745 0.264188 0.1973157
v 0.1565402 0.264188 0.3112065
v -0.1820745 0.264188 0.1973157
v -0.1565402 0.264188 0.3112065

vn 0.5558152 0 0.1281517
vn 0 0 0.578035
vn -0.470892 0 -0.325714
vn 0.470892 0 -0.325714
vn 0 0 -0.578035
vn 0 -0.1083 0
vn 0 0.1083 0
vn -0.5558152 0 0.1281517
vn 0.5558152 0 0.1281516
vn -0.5558152 0 0.1281516
vn 0.5558152 0 0.1281518
vn -0.5558152 0 0.1281518

vt 21.1426 14.17323
vt 21.1426 0
vt -31.24374 14.17323
vt -31.24374 0
vt 8.858268 0
vt -8.858268 0
vt 8.858268 14.17323
vt -8.858268 14.17323
vt -23.14233 0
vt -23.14233 14.17323
vt -2.531001 0
vt -2.531001 14.17323
vt 23.14233 14.17323
vt 23.14233 0
vt 2.531001 14.17323
vt 2.531001 0
vt 20.47244 -17.02756
vt 8.858268 -34.05512
vt 8.858268 34.05512
vt -8.858268 34.05512
vt -8.858268 -34.05512
vt -20.47244 -17.02756
vt -17.66059 -8.924645
vt -12.57594 13.43921
vt 17.66059 -8.924645
vt 12.57594 13.43921
vt -19.50287 -17.02756
vt 19.50287 -17.02756
vt -10.81228 21.19634
vt 10.81228 21.19634
vt 17.66059 14.17323
vt -17.66059 14.17323
vt 17.66059 21.44378
vt -17.66059 21.44378
vt 19.50287 14.17323
vt -19.50287 14.17323
vt 19.50287 21.44378
vt -19.50287 21.44378
vt 12.57594 14.17323
vt -12.57594 14.17323
vt 12.57594 21.44378
vt -12.57594 21.44378
vt 10.81228 14.17323
vt -10.81228 14.17323
vt 10.81228 21.44378
vt -10.81228 21.44378
vt -21.1426 0
vt -21.1426 14.17323
vt 31.24374 0
vt 31.24374 14.17323
vt -10.31666 21.44378
vt -10.31666 14.17323
vt -18.27175 21.44378
vt -18.27175 14.17323
vt 10.31666 14.17323
vt 10.31666 21.44378
vt 18.27175 14.17323
vt 18.27175 21.44378
vt 20.92765 21.44378
vt 20.92765 14.17323
vt 12.61795 21.44378
vt 12.61795 14.17323
vt -20.92765 14.17323
vt -20.92765 21.44378
vt -12.61795 14.17323
vt -12.61795 21.44378

usemtl wood

f 83/187/21 82/186/21 81/185/21
f 82/186/21 83/187/21 71/188/21
f 83/191/22 78/190/22 71/189/22
f 78/190/22 83/191/22 84/192/22
f 87/195/23 86/194/23 85/193/23
f 86/194/23 87/195/23 88/196/23
f 81/199/24 90/198/24 89/197/24
f 90/198/24 81/199/24 82/200/24
f 86/191/25 90/190/25 85/189/25
f 90/190/25 86/191/25 89/192/25
f 71/203/26 90/202/26 82/201/26
f 90/202/26 71/203/26 78/204/26
f 90/202/26 78/204/26 85/205/26
f 85/205/26 78/204/26 87/206/26
f 93/209/27 92/208/27 91/207/27
f 92/208/27 93/209/27 94/210/27
f 83/204/27 91/207/27 92/208/27
f 83/204/27 95/211/27 91/207/27
f 95/211/27 83/204/27 81/206/27
f 89/205/27 95/211/27 81/206/27
f 95/211/27 89/205/27 96/212/27
f 96/212/27 89/205/27 86/202/27
f 96/212/27 86/202/27 88/201/27
f 88/201/27 94/210/27 93/209/27
f 88/201/27 93/209/27 96/212/27
f 83/204/27 92/208/27 97/213/27
f 83/204/27 97/213/27 98/214/27
f 88/201/27 98/214/27 94/210/27
f 83/204/27 98/214/27 84/203/27
f 84/203/27 98/214/27 88/201/27
f 101/212/27 100/207/27 99/211/27
f 100/207/27 101/212/27 102/209/27
f 100/217/22 93/216/22 91/215/22
f 93/216/22 100/217/22 102/218/22
f 101/221/25 95/220/25 96/219/25
f 95/220/25 101/221/25 99/222/25
f 105/210/27 104/213/27 103/208/27
f 104/213/27 105/210/27 106/214/27
f 105/225/25 92/224/25 94/223/25
f 92/224/25 105/225/25 103/226/25
f 104/229/22 98/228/22 97/227/22
f 98/228/22 104/229/22 106/230/22
f 78/233/28 88/232/28 87/231/28
f 88/232/28 78/233/28 84/234/28
f 104/237/29 92/236/29 103/235/29
f 92/236/29 104/237/29 97/238/29
f 98/241/30 105/240/30 94/239/30
f 105/240/30 98/241/30 106/242/30
f 100/245/31 95/244/31 99/243/31
f 95/244/31 100/245/31 91/246/31
f 93/249/32 101/248/32 96/247/32
f 101/248/32 93/249/32 102/250/32

