# Created by Kenney (www.kenney.nl)

mtllib columnLarge.mtl

g columnLarge

v 0.102579 0.8200001 0.120306
v -0.102579 0.8200001 0.120306
v 0.102579 0.92 0.120306
v -0.102579 0.92 0.120306
v 0.102579 0.8200001 0.102579
v -0.102579 0.8200001 0.102579
v -0.120306 0.8200001 0.102579
v -0.102579 0.8200001 -0.102579
v -0.102579 0.8200001 -0.120306
v -0.120306 0.8200001 -0.102579
v 0.102579 0.8200001 -0.120306
v 0.120306 0.8200001 -0.102579
v 0.120306 0.8200001 0.102579
v 0.102579 0.8200001 -0.102579
v 0.102579 0.33 0.120306
v 0.102579 0.33 0.102579
v -0.102579 0.33 0.120306
v -0.102579 0.33 0.102579
v -0.120306 0.33 0.102579
v -0.102579 0.33 -0.102579
v -0.102579 0.33 -0.120306
v -0.120306 0.33 -0.102579
v 0.102579 0.33 -0.120306
v 0.120306 0.33 -0.102579
v 0.120306 0.33 0.102579
v 0.102579 0.33 -0.102579
v 0.120306 0.92 -0.102579
v 0.120306 0.92 0.102579
v -0.102579 0.43 -0.120306
v 0.102579 0.43 -0.120306
v 0.120306 0.43 -0.102579
v 0.120306 0.43 0.102579
v 0.102579 0.43 0.120306
v -0.102579 0.43 0.120306
v -0.120306 0.43 -0.102579
v -0.120306 0.43 0.102579
v -0.102579 0.92 -0.120306
v 0.102579 0.92 -0.120306
v -0.120306 0.92 -0.102579
v -0.120306 0.92 0.102579
v 0.102579 0.92 -0.102579
v -0.102579 0.92 -0.102579
v -0.102579 0.92 0.102579
v 0.102579 0.92 0.102579
v 0.102579 0.43 -0.102579
v -0.102579 0.43 -0.102579
v -0.102579 0.43 0.102579
v 0.102579 0.43 0.102579
v -0.102579 1.02 -0.102579
v 0.102579 1.02 -0.102579
v -0.102579 0.23 -0.102579
v 0.102579 0.23 -0.102579
v 0.19 0 0.19
v 0.19 0 -0.19
v -0.19 0 0.19
v -0.19 0 -0.19
v 0.130306 1.1 -0.130306
v 0.130306 1.1 0.130306
v -0.130306 1.1 -0.130306
v -0.130306 1.1 0.130306
v 0.102579 0.23 0.102579
v -0.102579 0.23 0.102579
v -0.130306 0.13 -0.130306
v 0.130306 0.13 -0.130306
v -0.130306 0.23 -0.130306
v 0.130306 0.23 -0.130306
v -0.130306 1.02 -0.130306
v 0.130306 1.02 -0.130306
v 0.130306 0.23 0.130306
v 0.130306 0.13 0.130306
v 0.130306 1.02 0.130306
v -0.130306 1.02 0.130306
v -0.130306 0.23 0.130306
v -0.1691 0.13 -0.1691
v 0.1691 0.13 -0.1691
v 0.1691 0.13 0.1691
v -0.130306 0.13 0.130306
v -0.1691 0.13 0.1691
v 0.102579 1.02 0.102579
v -0.102579 1.02 0.102579

vn 0 0 1
vn 0 -1 0
vn 1 0 0
vn 0 0 -1
vn -1 0 0
vn 0 1 0
vn -0.7071068 0 -0.7071068
vn -0.7071068 0 0.7071068
vn 0.7071068 0 0.7071068
vn 0.7071068 0 -0.7071068
vn 0 0.158731 -0.9873219
vn -0.9873219 0.158731 0
vn 0.9873219 0.158731 0
vn 0 0.158731 0.9873219

vt 4.038543 32.28347
vt -4.038543 32.28347
vt 4.038543 36.22047
vt -4.038543 36.22047
vt 4.038543 4.736457
vt 4.038543 4.038543
vt -4.038543 4.736457
vt -4.038543 4.038543
vt -4.736457 4.038543
vt -4.038543 -4.038543
vt -4.038543 -4.736457
vt -4.736457 -4.038543
vt 4.038543 -4.736457
vt 4.736457 -4.038543
vt 4.736457 4.038543
vt 4.038543 -4.038543
vt 4.038543 12.99213
vt -4.038543 12.99213
vt 4.038543 16.92913
vt -4.038543 16.92913
vt -0.4934993 32.28347
vt -0.4934993 36.22047
vt 0.4934993 32.28347
vt 0.4934993 36.22047
vt 0.4934993 16.92913
vt 0.4934993 12.99213
vt -0.4934993 16.92913
vt -0.4934993 12.99213
vt 4.038543 40.15748
vt -4.038543 40.15748
vt 4.038543 9.055119
vt -4.038543 9.055119
vt 7.480315 7.480315
vt 7.480315 -7.480315
vt -7.480315 7.480315
vt -7.480315 -7.480315
vt -5.130157 -5.130157
vt -5.130157 5.130157
vt 5.130157 -5.130157
vt 5.130157 5.130157
vt 5.130157 5.11811
vt -5.130157 5.11811
vt 5.130157 9.055119
vt -5.130157 9.055119
vt 5.130157 40.15748
vt -5.130157 40.15748
vt 5.130157 43.30709
vt -5.130157 43.30709
vt 7.480315 -1.187358
vt -7.480315 -1.187358
vt 6.65748 3.996474
vt -6.65748 3.996474
vt -6.65748 6.65748
vt -6.65748 -6.65748
vt 6.65748 -6.65748
vt 6.65748 6.65748

usemtl wood

f 3/3/1 2/2/1 1/1/1
f 2/2/1 3/3/1 4/4/1
f 2/7/2 5/6/2 1/5/2
f 5/6/2 2/7/2 6/8/2
f 6/8/2 2/7/2 7/9/2
f 6/8/2 7/9/2 8/10/2
f 8/10/2 7/9/2 9/11/2
f 9/11/2 7/9/2 10/12/2
f 11/13/2 1/5/2 5/6/2
f 11/13/2 8/10/2 9/11/2
f 12/14/2 1/5/2 11/13/2
f 1/5/2 12/14/2 13/15/2
f 11/13/2 5/6/2 14/16/2
f 11/13/2 14/16/2 8/10/2
f 17/7/2 16/6/2 15/5/2
f 16/6/2 17/7/2 18/8/2
f 18/8/2 17/7/2 19/9/2
f 18/8/2 19/9/2 20/10/2
f 20/10/2 19/9/2 21/11/2
f 21/11/2 19/9/2 22/12/2
f 23/13/2 15/5/2 16/6/2
f 23/13/2 20/10/2 21/11/2
f 24/14/2 15/5/2 23/13/2
f 15/5/2 24/14/2 25/15/2
f 23/13/2 16/6/2 26/16/2
f 23/13/2 26/16/2 20/10/2
f 28/4/3 12/1/3 27/3/3
f 12/1/3 28/4/3 13/2/3
f 29/19/4 23/18/4 21/17/4
f 23/18/4 29/19/4 30/20/4
f 32/20/3 24/17/3 31/19/3
f 24/17/3 32/20/3 25/18/3
f 33/19/1 17/18/1 15/17/1
f 17/18/1 33/19/1 34/20/1
f 19/17/5 35/20/5 22/18/5
f 35/20/5 19/17/5 36/19/5
f 37/3/4 11/2/4 9/1/4
f 11/2/4 37/3/4 38/4/4
f 7/1/5 39/4/5 10/2/5
f 39/4/5 7/1/5 40/3/5
f 37/13/6 41/10/6 38/11/6
f 41/10/6 37/13/6 42/16/6
f 42/16/6 37/13/6 39/14/6
f 42/16/6 39/14/6 43/6/6
f 43/6/6 39/14/6 4/5/6
f 4/5/6 39/14/6 40/15/6
f 3/7/6 38/11/6 41/10/6
f 3/7/6 43/6/6 4/5/6
f 28/9/6 38/11/6 3/7/6
f 38/11/6 28/9/6 27/12/6
f 3/7/6 41/10/6 44/8/6
f 3/7/6 44/8/6 43/6/6
f 10/23/7 37/22/7 9/21/7
f 37/22/7 10/23/7 39/24/7
f 2/23/8 40/22/8 7/21/8
f 40/22/8 2/23/8 4/24/8
f 3/22/9 13/23/9 28/24/9
f 13/23/9 3/22/9 1/21/9
f 27/22/10 11/23/10 38/24/10
f 11/23/10 27/22/10 12/21/10
f 29/13/6 45/10/6 30/11/6
f 45/10/6 29/13/6 46/16/6
f 46/16/6 29/13/6 35/14/6
f 46/16/6 35/14/6 47/6/6
f 47/6/6 35/14/6 34/5/6
f 34/5/6 35/14/6 36/15/6
f 33/7/6 30/11/6 45/10/6
f 33/7/6 47/6/6 34/5/6
f 32/9/6 30/11/6 33/7/6
f 30/11/6 32/9/6 31/12/6
f 33/7/6 45/10/6 48/8/6
f 33/7/6 48/8/6 47/6/6
f 33/27/9 25/26/9 32/25/9
f 25/26/9 33/27/9 15/28/9
f 31/27/10 23/26/10 30/25/10
f 23/26/10 31/27/10 24/28/10
f 17/26/8 36/27/8 19/28/8
f 36/27/8 17/26/8 34/25/8
f 22/26/7 29/27/7 21/28/7
f 29/27/7 22/26/7 35/25/7

usemtl stone

f 5/1/1 47/20/1 48/19/1
f 47/20/1 5/1/1 6/2/1
f 49/29/4 41/4/4 42/3/4
f 41/4/4 49/29/4 50/30/4
f 20/17/4 52/32/4 51/31/4
f 52/32/4 20/17/4 26/18/4
f 47/19/5 8/2/5 46/20/5
f 8/2/5 47/19/5 6/1/5
f 55/35/2 54/34/2 53/33/2
f 54/34/2 55/35/2 56/36/2
f 8/1/4 45/20/4 46/19/4
f 45/20/4 8/1/4 14/2/4
f 59/39/6 58/38/6 57/37/6
f 58/38/6 59/39/6 60/40/6
f 16/17/1 62/32/1 61/31/1
f 62/32/1 16/17/1 18/18/1
f 65/43/4 64/42/4 63/41/4
f 64/42/4 65/43/4 66/44/4
f 59/47/4 68/46/4 67/45/4
f 68/46/4 59/47/4 57/48/4
f 69/44/3 64/41/3 66/43/3
f 64/41/3 69/44/3 70/42/3
f 58/47/1 72/46/1 71/45/1
f 72/46/1 58/47/1 60/48/1
f 66/37/6 52/10/6 69/38/6
f 52/10/6 66/37/6 65/39/6
f 52/10/6 65/39/6 51/16/6
f 51/16/6 65/39/6 62/6/6
f 61/8/6 69/38/6 52/10/6
f 69/38/6 61/8/6 73/40/6
f 73/40/6 61/8/6 62/6/6
f 73/40/6 62/6/6 65/39/6
f 74/51/11 54/50/11 56/49/11
f 54/50/11 74/51/11 75/52/11
f 75/54/6 64/37/6 76/53/6
f 64/37/6 75/54/6 74/55/6
f 64/37/6 74/55/6 63/39/6
f 63/39/6 74/55/6 77/40/6
f 70/38/6 76/53/6 64/37/6
f 76/53/6 70/38/6 78/56/6
f 78/56/6 70/38/6 77/40/6
f 78/56/6 77/40/6 74/55/6
f 55/49/12 74/52/12 56/50/12
f 74/52/12 55/49/12 78/51/12
f 79/29/1 43/4/1 44/3/1
f 43/4/1 79/29/1 80/30/1
f 75/51/13 53/50/13 54/49/13
f 53/50/13 75/51/13 76/52/13
f 72/45/5 59/48/5 67/46/5
f 59/48/5 72/45/5 60/47/5
f 62/31/5 20/18/5 51/32/5
f 20/18/5 62/31/5 18/17/5
f 16/18/3 52/31/3 26/17/3
f 52/31/3 16/18/3 61/32/3
f 79/30/3 41/3/3 50/29/3
f 41/3/3 79/30/3 44/4/3
f 43/3/5 49/30/5 42/4/5
f 49/30/5 43/3/5 80/29/5
f 58/48/3 68/45/3 57/47/3
f 68/45/3 58/48/3 71/46/3
f 76/51/14 55/50/14 53/49/14
f 55/50/14 76/51/14 78/52/14
f 71/40/2 79/6/2 68/39/2
f 79/6/2 71/40/2 72/38/2
f 79/6/2 72/38/2 80/8/2
f 80/8/2 72/38/2 49/10/2
f 50/16/2 68/39/2 79/6/2
f 68/39/2 50/16/2 67/37/2
f 67/37/2 50/16/2 49/10/2
f 67/37/2 49/10/2 72/38/2
f 77/41/5 65/44/5 63/42/5
f 65/44/5 77/41/5 73/43/5
f 5/2/3 45/19/3 14/1/3
f 45/19/3 5/2/3 48/20/3
f 69/43/1 77/42/1 70/41/1
f 77/42/1 69/43/1 73/44/1

