# Created by Kenney (www.kenney.nl)

mtllib crossWood.mtl

g crossWood

v -0.215 0 -0.215
v 0.215 0 -0.215
v -0.215 0.05 -0.215
v 0.215 0.05 -0.215
v 0.215 0.05 0.215
v 0.215 0 0.215
v -0.215 0 0.215
v -0.215 0.05 0.215
v -0.1720246 0.05 -0.1720246
v -0.1720246 0.31 -0.1720246
v -0.1720246 0.05 0.1720246
v -0.1720246 0.31 0.1720246
v 0.1720246 0.05 0.1720246
v 0.1720246 0.31 0.1720246
v 0.1720246 0.31 -0.1720246
v 0.1720246 0.05 -0.1720246
v 0.215 0.335 0.215
v -0.215 0.335 0.215
v 0.215 0.41 0.215
v 0.1407971 0.41 -0.1407971
v 0.215 0.41 -0.215
v -0.215 0.41 -0.215
v -0.1407971 0.41 -0.1407971
v -0.1407971 0.41 0.1407971
v 0.1407971 0.41 0.1407971
v -0.215 0.41 0.215
v -0.215 0.335 -0.215
v 0.215 0.335 -0.215
v 0.1407971 0.38 0.1407971
v 0.0384 0.38 -0.0284
v 0.1407971 0.38 -0.1407971
v -0.1407971 0.38 -0.1407971
v -0.0384 0.38 -0.0284
v -0.0384 0.38 0.0284
v 0.0384 0.38 0.0284
v -0.1407971 0.38 0.1407971
v -0.0384 0.9579999 -0.0284
v 0.0384 0.9579999 -0.0284
v -0.0384 1.0648 -0.0284
v 0.0384 1.0648 -0.0284
v 0.1452 0.9579999 -0.0284
v -0.1452 0.9579999 -0.0284
v 0.1452 0.8812 -0.0284
v 0.0384 0.8812 -0.0284
v -0.0384 0.8812 -0.0284
v -0.1452 0.8812 -0.0284
v -0.0384 0.8812 0.0284
v -0.1452 0.8812 0.0284
v 0.0384 1.0648 0.0284
v -0.0384 1.0648 0.0284
v 0.1452 0.8812 0.0284
v 0.0384 0.8812 0.0284
v 0.1452 0.9579999 0.0284
v 0.0384 0.9579999 0.0284
v -0.0384 0.9579999 0.0284
v -0.1452 0.9579999 0.0284

vn 0 0 -1
vn 1 0 0
vn -1 0 0
vn 0 0 1
vn 0 1 0
vn 0 -0.8643821 0.5028356
vn 0 -0.8643821 -0.5028356
vn -0.5028356 -0.8643821 0
vn 0.5028356 -0.8643821 0
vn 0 -1 0

vt 8.464567 0
vt -8.464567 0
vt 8.464567 1.968504
vt -8.464567 1.968504
vt -6.772623 1.968504
vt -6.772623 12.20472
vt 6.772623 1.968504
vt 6.772623 12.20472
vt -8.464567 8.464567
vt -6.772623 -6.772623
vt -8.464567 -8.464567
vt 8.464567 -8.464567
vt 6.772623 -6.772623
vt 6.772623 6.772623
vt -6.772623 6.772623
vt 8.464567 8.464567
vt 8.464567 13.94851
vt 6.772623 11.9911
vt -8.464567 13.94851
vt -6.772623 11.9911
vt -5.543193 -5.543193
vt 5.543193 -5.543193
vt 5.543193 5.543193
vt -5.543193 5.543193
vt -8.464567 13.18898
vt -8.464567 16.14173
vt 8.464567 13.18898
vt 8.464567 16.14173
vt -1.511811 -1.11811
vt 1.511811 -1.11811
vt 1.511811 1.11811
vt -1.511811 1.11811
vt 5.543193 16.14173
vt 5.543193 14.96063
vt -5.543193 16.14173
vt -5.543193 14.96063
vt 1.511811 37.71653
vt -1.511811 37.71653
vt 1.511811 41.92126
vt -1.511811 41.92126
vt -5.716536 37.71653
vt 5.716536 37.71653
vt -5.716536 34.69291
vt -1.511811 34.69291
vt 1.511811 34.69291
vt 5.716536 34.69291
vt -1.511811 14.96063
vt 1.511811 14.96063
vt -5.716536 1.11811
vt -5.716536 -1.11811
vt 5.716536 1.11811
vt 5.716536 -1.11811
vt 1.11811 34.69291
vt 1.11811 14.96063
vt -1.11811 34.69291
vt -1.11811 14.96063
vt -1.11811 37.71653
vt -1.11811 41.92126
vt 1.11811 37.71653
vt 1.11811 41.92126

usemtl stone

f 3/3/1 2/2/1 1/1/1
f 2/2/1 3/3/1 4/4/1
f 5/4/2 2/1/2 4/3/2
f 2/1/2 5/4/2 6/2/2
f 7/1/3 3/4/3 1/2/3
f 3/4/3 7/1/3 8/3/3
f 5/3/4 7/2/4 6/1/4
f 7/2/4 5/3/4 8/4/4
f 11/7/3 10/6/3 9/5/3
f 10/6/3 11/7/3 12/8/3
f 14/8/4 11/5/4 13/7/4
f 11/5/4 14/8/4 12/6/4
f 14/6/2 16/7/2 15/8/2
f 16/7/2 14/6/2 13/5/2
f 4/11/5 16/10/5 5/9/5
f 16/10/5 4/11/5 3/12/5
f 16/10/5 3/12/5 9/13/5
f 9/13/5 3/12/5 11/14/5
f 13/15/5 5/9/5 16/10/5
f 5/9/5 13/15/5 8/16/5
f 8/16/5 13/15/5 11/14/5
f 8/16/5 11/14/5 3/12/5
f 18/19/6 14/18/6 17/17/6
f 14/18/6 18/19/6 12/20/6
f 21/11/5 20/21/5 19/9/5
f 20/21/5 21/11/5 22/12/5
f 20/21/5 22/12/5 23/22/5
f 23/22/5 22/12/5 24/23/5
f 25/24/5 19/9/5 20/21/5
f 19/9/5 25/24/5 26/16/5
f 26/16/5 25/24/5 24/23/5
f 26/16/5 24/23/5 22/12/5
f 18/27/3 22/26/3 27/25/3
f 22/26/3 18/27/3 26/28/3
f 15/20/7 27/17/7 28/19/7
f 27/17/7 15/20/7 10/18/7
f 22/28/1 28/25/1 27/27/1
f 28/25/1 22/28/1 21/26/1
f 19/28/4 18/25/4 17/27/4
f 18/25/4 19/28/4 26/26/4
f 19/26/2 28/27/2 21/28/2
f 28/27/2 19/26/2 17/25/2
f 18/17/8 10/20/8 12/18/8
f 10/20/8 18/17/8 27/19/8
f 14/20/9 28/17/9 17/19/9
f 28/17/9 14/20/9 15/18/9
f 10/8/1 16/5/1 9/7/1
f 16/5/1 10/8/1 15/6/1
f 7/9/10 2/12/10 6/16/10
f 2/12/10 7/9/10 1/11/10
f 31/21/5 30/29/5 29/24/5
f 30/29/5 31/21/5 32/22/5
f 30/29/5 32/22/5 33/30/5
f 33/30/5 32/22/5 34/31/5
f 35/32/5 29/24/5 30/29/5
f 29/24/5 35/32/5 36/23/5
f 36/23/5 35/32/5 34/31/5
f 36/23/5 34/31/5 32/22/5
f 24/35/2 32/34/2 23/33/2
f 32/34/2 24/35/2 36/36/2
f 24/33/1 29/36/1 36/34/1
f 29/36/1 24/33/1 25/35/1
f 29/34/3 20/35/3 31/36/3
f 20/35/3 29/34/3 25/33/3
f 20/33/4 32/36/4 31/34/4
f 32/36/4 20/33/4 23/35/4

usemtl wood

f 39/39/1 38/38/1 37/37/1
f 38/38/1 39/39/1 40/40/1
f 41/41/1 37/37/1 38/38/1
f 41/41/1 42/42/1 37/37/1
f 43/43/1 42/42/1 41/41/1
f 44/44/1 42/42/1 43/43/1
f 45/45/1 42/42/1 44/44/1
f 42/42/1 45/45/1 46/46/1
f 30/47/1 45/45/1 44/44/1
f 45/45/1 30/47/1 33/48/1
f 48/49/10 45/29/10 47/32/10
f 45/29/10 48/49/10 46/50/10
f 39/30/5 49/32/5 40/29/5
f 49/32/5 39/30/5 50/31/5
f 52/31/10 43/52/10 51/51/10
f 43/52/10 52/31/10 44/30/10
f 52/55/2 30/54/2 44/53/2
f 30/54/2 52/55/2 35/56/2
f 38/29/5 53/49/5 41/50/5
f 53/49/5 38/29/5 54/32/5
f 42/52/5 55/31/5 37/30/5
f 55/31/5 42/52/5 56/51/5
f 55/59/3 39/58/3 37/57/3
f 39/58/3 55/59/3 50/60/3
f 53/57/2 43/53/2 41/59/2
f 43/53/2 53/57/2 51/55/2
f 49/39/4 55/38/4 54/37/4
f 55/38/4 49/39/4 50/40/4
f 56/41/4 54/37/4 55/38/4
f 56/41/4 53/42/4 54/37/4
f 48/43/4 53/42/4 56/41/4
f 47/44/4 53/42/4 48/43/4
f 52/45/4 53/42/4 47/44/4
f 53/42/4 52/45/4 51/46/4
f 34/47/4 52/45/4 47/44/4
f 52/45/4 34/47/4 35/48/4
f 49/58/2 38/59/2 40/60/2
f 38/59/2 49/58/2 54/57/2
f 34/54/3 45/55/3 33/56/3
f 45/55/3 34/54/3 47/53/3
f 48/53/3 42/57/3 46/55/3
f 42/57/3 48/53/3 56/59/3

