# Created by Kenney (www.kenney.nl)

mtllib crypt.mtl

g crypt

v 0.2347022 0.3304 -0.3863698
v 0.2347022 0.0784 -0.4255697
v 0.2347022 0.0784 -0.3863698
v 0.2347022 0.3696 -0.4255697
v 0.2347022 0.3696 0.4255697
v 0.2347022 0.3304 0.3863698
v 0.2347022 0.0784 0.3863698
v 0.2347022 0.0784 0.4255697
v 0.2827697 0.392 -0.4392242
v 0.2827697 0.3696 -0.4392242
v 0.2827697 0.392 0.4392242
v 0.2827697 0.3696 0.4392242
v -0.2356374 0.0784 -0.4255697
v -0.1964374 0.0784 -0.4255697
v -0.2356374 0.3696 -0.4255697
v -0.1964374 0.3304 -0.4255697
v 0.1955022 0.3304 -0.4255697
v 0.1955022 0.0784 -0.4255697
v 0.1818477 0.056 -0.4392242
v 0.2483567 0.056 -0.4392242
v 0.1818477 0.0784 -0.4392242
v 0.2483567 0.0784 -0.4392242
v 0.2347022 0.392 -0.4392242
v 0.2347022 0.392 0.4392242
v -0.2492924 0.056 0.3727153
v -0.2492924 0.0784 0.3727153
v -0.2492924 0.056 0.4392242
v -0.2492924 0.0784 0.4392242
v -0.2155698 0.0784 -0.3863698
v -0.2356374 0.0784 -0.3863698
v -0.2155698 0.3304 -0.3863698
v -0.2356374 0.3304 -0.3863698
v -0.2827697 0.3696 0.4392242
v -0.2356374 0.3696 0.4255697
v -0.2827697 0.3696 -0.4392242
v -0.0004675984 0.532 -0.4392242
v -0.0004675984 0.532 0.4392242
v -0.2356374 0.392 -0.4392242
v -0.2356374 0.392 0.4392242
v 0.1955022 0.0784 0.4059698
v 0.1818477 0.0784 0.4059698
v 0.1955022 0.3304 0.4059698
v -0.1827829 0.0784 0.4059698
v -0.1964374 0.0784 0.4059698
v -0.1964374 0.3304 0.4059698
v -0.1827829 0.056 0.4059698
v 0.1818477 0.056 0.4059698
v 0.2483567 0.0784 0.4392242
v 0.2483567 0.0784 0.3727153
v 0.2155698 0.0784 0.3727153
v 0.2155698 0.0784 0.3863698
v 0.1818477 0.0784 0.4392242
v 0.1955022 0.0784 0.4255697
v -0.2155698 0.3304 0.3863698
v -0.2356374 0.3304 0.3863698
v 0.1955022 0.3304 0.4255697
v 0.2155698 0.0784 -0.3863698
v 0.2155698 0.3304 -0.3863698
v 0.1955022 0.0784 -0.4059698
v 0.1955022 0.3304 -0.4059698
v 0.2483567 0.056 0.3727153
v 0.2483567 0.056 0.4392242
v 0.1818477 0.056 0.4392242
v -0.2827697 0.392 0.4392242
v -0.2155698 0.056 0.3727153
v -0.2155698 0.0784 0.3727153
v -0.1827829 0.056 0.4392242
v -0.1827829 0.0784 0.4392242
v -0.1827829 0.0784 -0.4059698
v -0.1964374 0.0784 -0.4059698
v -0.1827829 0.0784 -0.4392242
v -0.2492924 0.0784 -0.4392242
v -0.2492924 0.0784 -0.3727153
v -0.2155698 0.0784 -0.3727153
v -0.2155698 0.0784 0.3863698
v -0.2356374 0.0784 0.3863698
v -0.2356374 0.0784 0.4255697
v -0.1964374 0.0784 0.4255697
v -0.2492924 0.056 -0.4392242
v -0.1827829 0.056 -0.4392242
v -0.1827829 0.056 -0.4059698
v -0.1964374 0.3304 -0.4059698
v 0.2483567 0.0784 -0.3727153
v 0.1818477 0.0784 -0.4059698
v 0.2155698 0.0784 -0.3727153
v 0.2483567 0.056 -0.3727153
v 0.2155698 0.056 -0.3727153
v 0.2155698 0.056 0.3727153
v -0.2492924 0.056 -0.3727153
v -0.2155698 0.056 -0.3727153
v 0.2155698 0.3304 0.3863698
v -0.2827697 0.392 -0.4392242
v -0.1964374 0.3304 0.4255697
v 0.3752 0 0.5264
v 0.3752 0 -0.5264
v 0.336 0 0.5656
v 0.336 0 -0.5656
v -0.336 0 0.5656
v -0.336 0 -0.5656
v -0.3752 0 0.5264
v -0.3752 0 -0.5264
v -0.336 0.0336 -0.5656
v 0.336 0.0336 -0.5656
v 0.3752 0.0336 -0.5264
v 0.1818477 0.056 -0.4059698
v 0.336 0.0336 0.5656
v -0.336 0.0336 0.5656
v 0.3752 0.0336 0.5264
v -0.2827697 0.0336 -0.4731697
v 0.2827697 0.0336 -0.4731697
v -0.2827697 0.056 -0.4731697
v 0.2827697 0.056 -0.4731697
v -0.3752 0.0336 0.5264
v -0.2827697 0.0336 0.4731697
v 0.2827697 0.0336 0.4731697
v -0.3752 0.0336 -0.5264
v 0.2827697 0.056 0.4731697
v -0.2827697 0.056 0.4731697

vn 1 0 0
vn 0 0 -1
vn 0 1 0
vn -1 0 0
vn 0 0 1
vn 0 -1 0
vn -0.5115324 0.859264 0
vn 0.7071068 0 -0.7071068
vn 0.5115324 0.859264 0
vn 0.7071068 0 0.7071068
vn -0.7071068 0 0.7071068
vn -0.7071068 0 -0.7071068

vt 15.21141 13.00787
vt 16.75471 3.086614
vt 15.21141 3.086614
vt 16.75471 14.55118
vt -16.75471 14.55118
vt -15.21141 13.00787
vt -15.21141 3.086614
vt -16.75471 3.086614
vt 17.29229 15.43307
vt 17.29229 14.55118
vt -17.29229 15.43307
vt -17.29229 14.55118
vt 9.277061 3.086614
vt 7.733754 3.086614
vt 9.277061 14.55118
vt 7.733754 13.00787
vt -7.696936 13.00787
vt -9.240243 14.55118
vt -9.240243 3.086614
vt -7.696936 3.086614
vt -7.159358 2.204724
vt -9.777821 2.204724
vt -7.159358 3.086614
vt -9.777821 3.086614
vt -11.13267 -17.29229
vt -11.13267 17.29229
vt -9.240243 -17.29229
vt -9.240243 17.29229
vt 14.67383 2.204724
vt 14.67383 3.086614
vt 17.29229 2.204724
vt 17.29229 3.086614
vt -8.486999 3.086614
vt -9.277061 3.086614
vt -8.486999 13.00787
vt -9.277061 13.00787
vt 11.13267 -17.29229
vt 9.240243 16.75471
vt 11.13267 17.29229
vt -9.277061 16.75471
vt -9.277061 -16.75471
vt 9.240243 -16.75471
vt -17.29229 10.69817
vt 17.29229 10.69817
vt -17.29229 -0.07692858
vt 17.29229 -0.07692858
vt 7.696936 3.086614
vt 7.159358 3.086614
vt 7.696936 13.00787
vt -7.196177 3.086614
vt -7.733754 3.086614
vt -7.733754 13.00787
vt -7.196177 2.204724
vt 7.159358 2.204724
vt -9.777821 17.29229
vt -9.240243 15.21141
vt -9.777821 14.67383
vt -8.486999 14.67383
vt -8.486999 15.21141
vt -9.240243 16.75471
vt -7.159358 17.29229
vt -7.696936 16.75471
vt -7.159358 15.98306
vt -7.696936 15.98306
vt -8.486999 -15.21141
vt -9.277061 15.21141
vt -9.277061 -15.21141
vt 15.98306 3.086614
vt 15.98306 13.00787
vt 16.75471 13.00787
vt 9.240243 3.086614
vt 8.486999 3.086614
vt 9.240243 13.00787
vt 8.486999 13.00787
vt -16.75471 13.00787
vt -15.98306 3.086614
vt -15.98306 13.00787
vt -14.67383 3.086614
vt -14.67383 2.204724
vt -17.29229 3.086614
vt -17.29229 2.204724
vt 15.98306 2.204724
vt 11.13267 14.55118
vt -11.13267 14.55118
vt 11.13267 15.43307
vt -11.13267 15.43307
vt 9.240243 15.43307
vt -9.277061 15.43307
vt -0.01840945 20.94488
vt 9.814661 2.204724
vt 8.486999 2.204724
vt 9.814661 3.086614
vt -9.814661 2.204724
vt -9.814661 3.086614
vt 7.733754 -16.75471
vt 7.196177 -15.98306
vt 7.733754 -15.98306
vt 7.196177 -17.29229
vt 9.814661 -17.29229
vt 9.277061 -16.75471
vt 9.277061 -15.21141
vt 9.814661 -14.67383
vt 8.486999 -14.67383
vt 8.486999 -15.21141
vt 9.777821 2.204724
vt 9.777821 3.086614
vt 8.486999 14.67383
vt 8.486999 15.21141
vt 9.814661 14.67383
vt 9.277061 15.21141
vt 9.277061 16.75471
vt 9.814661 17.29229
vt 7.733754 16.75471
vt 7.196177 17.29229
vt 7.733754 15.98306
vt 7.196177 15.98306
vt 7.196177 2.204724
vt 7.196177 3.086614
vt 9.277061 13.00787
vt -9.777821 -14.67383
vt -9.240243 -16.75471
vt -9.777821 -17.29229
vt -7.159358 -17.29229
vt -7.696936 -16.75471
vt -7.696936 -15.98306
vt -7.159358 -15.98306
vt -9.240243 -15.21141
vt -8.486999 -14.67383
vt -8.486999 2.204724
vt -9.240243 13.00787
vt 9.277061 15.43307
vt -9.240243 15.43307
vt 0.01840945 20.94488
vt -15.98306 2.204724
vt 7.696936 16.75471
vt 7.696936 15.98306
vt -7.733754 16.75471
vt -7.733754 15.98306
vt 14.77165 20.72441
vt 14.77165 -20.72441
vt 13.22835 22.26772
vt 13.22835 -22.26772
vt -13.22835 22.26772
vt -13.22835 -22.26772
vt -14.77165 20.72441
vt -14.77165 -20.72441
vt 13.22835 0
vt -13.22835 0
vt 13.22835 1.322835
vt -13.22835 1.322835
vt 6.3918 1.322835
vt 6.3918 0
vt 4.209234 1.322835
vt 4.209234 0
vt 17.29229 -0.04529142
vt -17.29229 -0.04529142
vt 17.29229 10.7298
vt -17.29229 10.7298
vt 20.72441 1.322835
vt 20.72441 0
vt -20.72441 1.322835
vt -20.72441 0
vt -4.209234 1.322835
vt -4.209234 0
vt -6.3918 1.322835
vt -6.3918 0
vt 11.13267 1.322835
vt -11.13267 1.322835
vt 11.13267 2.204724
vt -11.13267 2.204724
vt -11.13267 -18.62873
vt 11.13267 -18.62873
vt 11.13267 18.62873
vt -11.13267 18.62873
vt 9.240243 14.55118
vt -9.277061 14.55118
vt 18.62873 2.204724
vt 18.62873 1.322835
vt -18.62873 2.204724
vt -18.62873 1.322835
vt 9.240243 15.21141
vt 9.240243 -15.21141
vt 7.696936 -15.98306
vt 7.696936 -16.75471
vt -7.733754 -15.98306
vt -7.733754 -16.75471
vt 9.277061 -17.29229
vt 9.277061 17.29229

usemtl stone

f 3/3/1 2/2/1 1/1/1
f 4/4/1 1/1/1 2/2/1
f 1/1/1 4/4/1 5/5/1
f 1/1/1 5/5/1 6/6/1
f 6/6/1 5/5/1 7/7/1
f 7/7/1 5/5/1 8/8/1
f 11/11/1 10/10/1 9/9/1
f 10/10/1 11/11/1 12/12/1
f 15/15/2 14/14/2 13/13/2
f 14/14/2 15/15/2 16/16/2
f 16/16/2 15/15/2 17/17/2
f 4/18/2 17/17/2 15/15/2
f 2/19/2 17/17/2 4/18/2
f 17/17/2 2/19/2 18/20/2
f 21/23/2 20/22/2 19/21/2
f 20/22/2 21/23/2 22/24/2
f 23/27/3 11/26/3 9/25/3
f 11/26/3 23/27/3 24/28/3
f 27/31/4 26/30/4 25/29/4
f 26/30/4 27/31/4 28/32/4
f 31/35/5 30/34/5 29/33/5
f 30/34/5 31/35/5 32/36/5
f 12/39/6 5/38/6 10/37/6
f 5/38/6 12/39/6 33/26/6
f 5/38/6 33/26/6 34/40/6
f 34/40/6 33/26/6 15/41/6
f 4/42/6 10/37/6 5/38/6
f 10/37/6 4/42/6 35/25/6
f 35/25/6 4/42/6 15/41/6
f 35/25/6 15/41/6 33/26/6
f 38/45/7 37/44/7 36/43/7
f 37/44/7 38/45/7 39/46/7
f 42/49/5 41/48/5 40/47/5
f 41/48/5 42/49/5 43/50/5
f 43/50/5 42/49/5 44/51/5
f 44/51/5 42/49/5 45/52/5
f 46/53/5 41/48/5 43/50/5
f 41/48/5 46/53/5 47/54/5
f 49/57/3 7/56/3 48/55/3
f 7/56/3 49/57/3 50/58/3
f 7/56/3 50/58/3 51/59/3
f 8/60/3 48/55/3 7/56/3
f 48/55/3 8/60/3 52/61/3
f 52/61/3 8/60/3 53/62/3
f 52/61/3 53/62/3 41/63/3
f 41/63/3 53/62/3 40/64/3
f 55/66/6 31/65/6 54/59/6
f 31/65/6 55/66/6 32/67/6
f 53/2/4 42/69/4 40/68/4
f 42/69/4 53/2/4 56/70/4
f 1/73/5 57/72/5 3/71/5
f 57/72/5 1/73/5 58/74/5
f 59/76/4 17/75/4 18/8/4
f 17/75/4 59/76/4 60/77/4
f 48/80/1 61/79/1 49/78/1
f 61/79/1 48/80/1 62/81/1
f 63/31/4 41/68/4 47/82/4
f 41/68/4 63/31/4 52/32/4
f 11/85/5 33/84/5 12/83/5
f 33/84/5 11/85/5 64/86/5
f 64/86/5 11/85/5 24/87/5
f 64/86/5 24/87/5 39/88/5
f 37/89/5 39/88/5 24/87/5
f 26/92/2 65/91/2 25/90/2
f 65/91/2 26/92/2 66/72/2
f 68/50/5 27/93/5 67/53/5
f 27/93/5 68/50/5 28/94/5
f 70/97/3 69/96/3 14/95/3
f 71/98/3 14/95/3 69/96/3
f 14/95/3 71/98/3 72/99/3
f 14/95/3 72/99/3 13/100/3
f 13/100/3 72/99/3 30/101/3
f 73/102/3 30/101/3 72/99/3
f 74/103/3 30/101/3 73/102/3
f 30/101/3 74/103/3 29/104/3
f 48/106/5 63/54/5 62/105/5
f 63/54/5 48/106/5 52/48/5
f 26/109/3 75/108/3 66/107/3
f 75/108/3 26/109/3 76/110/3
f 76/110/3 26/109/3 77/111/3
f 28/112/3 77/111/3 26/109/3
f 28/112/3 78/113/3 77/111/3
f 68/114/3 78/113/3 28/112/3
f 68/114/3 44/115/3 78/113/3
f 44/115/3 68/114/3 43/116/3
f 72/92/2 80/117/2 79/90/2
f 80/117/2 72/92/2 71/118/2
f 55/119/2 75/72/2 76/13/2
f 75/72/2 55/119/2 54/74/2
f 69/68/1 80/31/1 71/32/1
f 80/31/1 69/68/1 81/82/1
f 82/69/1 14/2/1 16/70/1
f 14/2/1 82/69/1 70/68/1
f 22/122/3 2/121/3 83/120/3
f 2/121/3 22/122/3 21/123/3
f 2/121/3 21/123/3 18/124/3
f 18/124/3 21/123/3 59/125/3
f 59/125/3 21/123/3 84/126/3
f 3/127/3 83/120/3 2/121/3
f 83/120/3 3/127/3 85/128/3
f 85/128/3 3/127/3 57/65/3
f 83/106/5 87/91/5 86/105/5
f 87/91/5 83/106/5 85/72/5
f 50/33/2 61/22/2 88/129/2
f 61/22/2 50/33/2 49/24/2
f 83/30/1 20/31/1 22/32/1
f 20/31/1 83/30/1 86/29/1
f 89/79/4 72/80/4 79/81/4
f 72/80/4 89/79/4 73/78/4
f 65/29/4 74/78/4 90/79/4
f 66/30/4 74/78/4 65/29/4
f 54/1/4 74/78/4 66/30/4
f 31/6/4 74/78/4 54/1/4
f 74/78/4 31/6/4 29/7/4
f 54/1/4 66/30/4 75/3/4
f 91/35/2 7/19/2 51/33/2
f 7/19/2 91/35/2 6/130/2
f 88/79/1 87/29/1 50/78/1
f 87/29/1 91/6/1 50/78/1
f 85/30/1 91/6/1 87/29/1
f 57/3/1 91/6/1 85/30/1
f 91/6/1 57/3/1 58/1/1
f 50/78/1 91/6/1 51/7/1
f 36/133/2 23/132/2 38/131/2
f 9/86/2 38/131/2 23/132/2
f 9/86/2 92/85/2 38/131/2
f 10/84/2 92/85/2 9/86/2
f 92/85/2 10/84/2 35/83/2
f 77/2/4 55/1/4 76/3/4
f 34/4/4 55/1/4 77/2/4
f 34/4/4 32/6/4 55/1/4
f 15/5/4 32/6/4 34/4/4
f 15/5/4 30/7/4 32/6/4
f 30/7/4 15/5/4 13/8/4
f 68/80/1 46/134/1 43/76/1
f 46/134/1 68/80/1 67/81/1
f 33/10/4 92/11/4 35/12/4
f 92/11/4 33/10/4 64/9/4
f 93/137/6 42/136/6 56/135/6
f 42/136/6 93/137/6 45/138/6
f 74/33/5 89/93/5 90/129/5
f 89/93/5 74/33/5 73/94/5
f 93/75/1 44/76/1 45/77/1
f 44/76/1 93/75/1 78/8/1
f 96/141/6 95/140/6 94/139/6
f 95/140/6 96/141/6 97/142/6
f 97/142/6 96/141/6 98/143/6
f 97/142/6 98/143/6 99/144/6
f 99/144/6 98/143/6 100/145/6
f 99/144/6 100/145/6 101/146/6
f 102/149/2 97/148/2 99/147/2
f 97/148/2 102/149/2 103/150/2
f 104/153/8 97/152/8 103/151/8
f 97/152/8 104/153/8 95/154/8
f 36/157/9 24/156/9 23/155/9
f 24/156/9 36/157/9 37/158/9
f 82/16/2 69/118/2 70/14/2
f 69/118/2 82/16/2 84/23/2
f 84/23/2 82/16/2 59/20/2
f 59/20/2 82/16/2 60/17/2
f 105/21/2 69/118/2 84/23/2
f 69/118/2 105/21/2 81/117/2
f 106/149/5 98/148/5 96/147/5
f 98/148/5 106/149/5 107/150/5
f 108/161/1 95/160/1 104/159/1
f 95/160/1 108/161/1 94/162/1
f 106/165/10 94/164/10 108/163/10
f 94/164/10 106/165/10 96/166/10
f 111/169/2 110/168/2 109/167/2
f 110/168/2 111/169/2 112/170/2
f 98/152/11 113/153/11 100/154/11
f 113/153/11 98/152/11 107/151/11
f 103/144/3 108/145/3 104/146/3
f 108/145/3 103/144/3 106/143/3
f 106/143/3 103/144/3 110/171/3
f 110/171/3 103/144/3 102/142/3
f 110/171/3 102/142/3 109/172/3
f 109/172/3 102/142/3 114/173/3
f 115/174/3 106/143/3 110/171/3
f 106/143/3 115/174/3 107/141/3
f 107/141/3 115/174/3 114/173/3
f 107/141/3 114/173/3 102/142/3
f 107/141/3 102/142/3 116/140/3
f 107/141/3 116/140/3 113/139/3
f 100/160/4 116/161/4 101/162/4
f 116/161/4 100/160/4 113/159/4
f 117/169/5 114/168/5 115/167/5
f 114/168/5 117/169/5 118/170/5
f 5/175/5 53/47/5 8/71/5
f 53/47/5 5/175/5 56/49/5
f 56/49/5 5/175/5 93/52/5
f 34/176/5 93/52/5 5/175/5
f 77/34/5 93/52/5 34/176/5
f 93/52/5 77/34/5 78/51/5
f 117/179/1 110/178/1 112/177/1
f 110/178/1 117/179/1 115/180/1
f 101/164/12 102/165/12 99/166/12
f 102/165/12 101/164/12 116/163/12
f 91/108/6 1/182/6 6/181/6
f 1/182/6 91/108/6 58/104/6
f 114/178/4 111/179/4 109/180/4
f 111/179/4 114/178/4 118/177/4
f 82/185/6 17/184/6 60/183/6
f 17/184/6 82/185/6 16/186/6
f 105/134/4 21/80/4 19/81/4
f 21/80/4 105/134/4 84/76/4
f 87/128/3 61/57/3 86/120/3
f 61/57/3 87/128/3 88/58/3
f 62/55/3 86/120/3 61/57/3
f 62/55/3 20/122/3 86/120/3
f 62/55/3 117/174/3 20/122/3
f 112/171/3 20/122/3 117/174/3
f 20/122/3 112/171/3 111/172/3
f 20/122/3 111/172/3 19/123/3
f 19/123/3 111/172/3 105/126/3
f 105/126/3 111/172/3 80/98/3
f 80/98/3 111/172/3 79/99/3
f 79/99/3 111/172/3 89/102/3
f 89/102/3 111/172/3 25/109/3
f 25/109/3 111/172/3 27/112/3
f 117/174/3 62/55/3 118/173/3
f 118/173/3 27/112/3 111/172/3
f 118/173/3 62/55/3 63/61/3
f 118/173/3 63/61/3 67/114/3
f 118/173/3 67/114/3 27/112/3
f 67/114/3 63/61/3 46/116/3
f 46/116/3 63/61/3 47/63/3
f 65/107/3 89/102/3 25/109/3
f 89/102/3 65/107/3 90/103/3
f 81/96/3 105/126/3 80/98/3
f 92/37/3 39/188/3 38/187/3
f 39/188/3 92/37/3 64/39/3

