# Created by Kenney (www.kenney.nl)

mtllib debris.mtl

g debris

v 0.0452888 0.08 0.1894516
v 0.0115568 0.08 0.1724124
v 0.0452888 0.16 0.1894516
v -0.1189472 0.08 0.10649
v -0.1189472 0.16 0.10649
v 0.04726 0 0.0540404
v 0.1742224 0 0.0377764
v 0.04726 0.08 0.0540404
v 0.1742224 0.08 0.0377764
v 0.0583096 0.08 0.0526252
v 0.007371198 0 -0.1889268
v 0.007371198 0.08 -0.1889268
v 0.0405 0 -0.0652884
v 0.0344848 0.08 -0.0877388
v 0.0405 0.08 -0.0652884
v -0.099088 0.08 0.0671756
v -0.147276 0.08 0.0542636
v -0.1804048 0.08 0.177902
v -0.002674401 0.08 0.2255252
v -0.0612352 0.08 -0.007761201
v -0.0612352 0.16 -0.007761201
v -0.0685776 0.08 0.0067748
v 0.1030008 0.16 0.07520041
v 0.1030008 0.08 0.07520041
v 0.0606984 0.08 0.1589452
v 0.0304544 0.08 0.1018868
v -0.0474464 0.08 -0.0007955991
v -0.0469696 0.08 0.0009844005
v -0.0469696 0 0.0009844005
v -0.094592 0 -0.176746
v -0.170608 0 0.0341132
v -0.2182304 0 -0.1436172
v 0.07064 0.08 0.2365492
v 0.1976024 0.08 0.2202852
v 0.0129632 0.16 -0.2231148
v 0.0129632 0.08 -0.2231148
v 0.0769632 0.16 -0.1122636
v 0.0293072 0.08 -0.1948044
v 0.0769632 0.08 -0.1122636
v 0.0304544 0 0.1018868
v -0.147276 0 0.0542636
v -0.002674401 0 0.2255252
v -0.1804048 0 0.177902
v -0.1463856 0.08 -0.1311148
v -0.0909424 0.08 -0.1631252
v -0.1463856 0.16 -0.1311148
v 0.1851016 0.08 -0.2365492
v 0.2182304 0.08 -0.1129108
v -0.0823856 0.08 -0.0202636
v -0.0823856 0.16 -0.0202636
v -0.094592 0.08 -0.176746
v -0.2182304 0.08 -0.1436172
v -0.170608 0.08 0.0341132
v -0.0566448 0.08 -0.0351252
v 0.2182304 0 -0.1129108
v 0.1851016 0 -0.2365492
v 0.1976024 0 0.2202852
v 0.07064 0 0.2365492

vn -0.4508777 0 0.8925857
vn -0.1270631 9.793414E-07 -0.9918947
vn -0.9659257 1.375388E-06 0.2588195
vn 0 1 0
vn -0.8925871 -1.170965E-06 -0.450875
vn 0.8925871 -6.303545E-07 0.450875
vn 0 -1 0
vn 0.4508771 -8.572853E-07 -0.892586
vn 0.8660247 -3.555667E-06 -0.5000012
vn -0.4999996 9.907839E-07 -0.8660257
vn 0.2588215 -2.589987E-07 -0.9659252
vn -0.2588215 0 0.9659252
vn -0.8660253 0 0.5000002
vn 0.9659261 -7.846706E-07 -0.2588179
vn 0.4999996 -6.716236E-07 0.8660256
vn 0.9659258 0 -0.258819
vn 0.9659258 1.315008E-06 0.2588191
vn 0.1270626 0 0.9918947
vn 0.9918944 0 -0.1270651
vn 0.2588174 0 0.9659263
vn -0.9659258 0 -0.258819
vn -0.9918944 -1.082151E-06 0.127065
vn -0.2588176 3.468997E-07 -0.9659262
vn -0.9659263 0 0.2588174
vn -0.258819 0 -0.9659258
vn 0.2588181 -2.088439E-06 0.9659261

vt 4.954474 3.149605
vt 3.466628 3.149605
vt 4.954474 6.299212
vt -2.28963 3.149605
vt -2.28963 6.299212
vt -1.575212 2.298267E-06
vt -6.614578 2.298269E-06
vt -1.575212 3.149609
vt -6.614578 3.149609
vt -2.01379 3.149609
vt -7.109506 3.033324E-06
vt -7.109506 3.149609
vt -2.07014 3.03332E-06
vt -2.98519 3.149609
vt -2.07014 3.149609
vt 3.901102 2.644709
vt 4.682961 4.19252
vt 5.798268 2.136362
vt 7.102551 7.004016
vt 0.1052913 8.878945
vt -0.4549921 6.78789
vt 0.8142469 3.149609
vt 0.8142469 6.299215
vt 1.455395 3.149609
vt 5.853619 6.299215
vt 4.119542 3.149609
vt 5.853619 3.149609
vt -0.8142685 6.299216
vt -0.8142685 3.149609
vt -5.853641 6.299216
vt -4.508072 3.149609
vt -5.853641 3.149609
vt 2.389701 6.257685
vt 1.86063 2.127575
vt 1.783024 7.458724
vt 1.198992 4.011292
vt 0.4549921 6.78789
vt -1.867969 -0.03132283
vt 2.295654 2.071858
vt -1.849197 0.0387559
vt -3.901102 2.644709
vt -2.699905 0.2667244
vt -3.724094 -6.958504
vt -6.71685 1.343039
vt -8.591748 -5.654221
vt 2.289647 3.149606
vt 1.681445 3.149606
vt 2.289647 6.299212
vt -2.983222 3.149606
vt -4.954457 3.149606
vt -4.954457 6.299212
vt -6.859149 1.48726
vt -4.05515 2.960646
vt -2.295654 2.071858
vt -2.781102 9.312961
vt -7.779622 8.672646
vt -2.389701 6.257685
vt 7.352021 6.29923
vt 7.352021 3.149623
vt 2.312652 6.29923
vt 6.065032 3.149623
vt 2.312652 3.149623
vt -5.798268 2.136362
vt -0.1052913 8.878945
vt -7.102551 7.004016
vt 2.410092 3.149599
vt -0.110397 3.149599
vt 2.410092 6.299205
vt -4.834007 3.149599
vt -4.834007 6.299205
vt 5.047756 -9.231446E-07
vt -2.196345 -9.231445E-07
vt 5.047756 3.149605
vt -2.196345 3.149605
vt 3.083665 3.149605
vt -7.287465 -9.312961
vt -3.030047 -4.419827
vt -1.153827 -7.669465
vt -1.594488 -2.57041
vt -8.591748 -4.445307
vt -1.357669 -3.454283
vt 2.196358 0
vt -5.047743 0
vt 2.196358 3.149606
vt -5.047743 3.149606
vt -7.35203 3.149606
vt -7.35203 6.299212
vt -2.312662 3.149606
vt -2.312662 6.299212
vt 3.58041 -6.422252
vt 5.763213 -5.162
vt 3.724094 -6.958504
vt 8.591748 -5.654221
vt 6.71685 1.343039
vt 3.243528 -0.7977795
vt 2.699905 0.2667244
vt 2.410835 -0.3055591
vt 2.23011 -1.382882
vt 1.867969 -0.03132283
vt 1.357669 -3.454283
vt 0.2902047 -7.438063
vt -2.23011 -1.382882
vt -3.58041 -6.422252
vt 0.5103622 -8.784047
vt 1.153827 -7.669465
vt -1.783024 7.458724
vt 7.685263 3.149605
vt 7.685263 -1.409437E-06
vt 7.130095 3.149605
vt 0.44117 -1.40944E-06
vt 1.912954 3.149605
vt 0.5137193 3.149605
vt 0.44117 3.149605
vt 4.83401 3.149605
vt 2.902917 3.149605
vt 4.83401 6.299211
vt -1.239892 3.149605
vt -2.410089 3.149605
vt -2.410089 6.299211
vt 8.591748 -4.445307
vt 7.287465 -9.312961
vt 1.594488 -2.57041
vt 7.109495 3.149606
vt 7.109495 0
vt 2.07013 3.149606
vt 2.07013 0
vt -0.5103622 -8.784047
vt -3.564288 3.149603
vt -3.564288 -2.8882E-06
vt -6.438838 3.149603
vt -8.603654 -2.888201E-06
vt -8.603654 3.149603
vt 7.779622 8.672646
vt 6.859149 1.48726
vt 2.781102 9.312961
vt 6.614597 0
vt 1.575232 0
vt 6.614597 3.149606
vt 1.575232 3.149606
vt -2.346763 3.149606
vt -2.346763 0
vt -9.590867 3.149606
vt -9.590867 0
vt 9.449518 0
vt 2.205425 0
vt 9.449518 3.149606
vt 2.205425 3.149606
vt 3.564269 0
vt 3.564269 3.149606
vt 8.603635 0
vt 8.603635 3.149606
vt 2.34675 -1.704614E-06
vt 2.34675 3.149605
vt 9.590855 -1.704614E-06
vt 6.51061 3.149605
vt 9.590855 3.149605
vt -2.205418 -2.466287E-06
vt -9.449511 -2.466287E-06
vt -2.205418 3.149604
vt -9.449511 3.149604
vt -3.099504 3.149604
vt -7.685254 0
vt -7.685254 3.149606
vt -0.441161 0
vt -0.441161 3.149606
vt 6.835572 0
vt 1.796206 0
vt 6.835572 3.149606
vt 1.796206 3.149606
vt -1.796218 -9.213577E-07
vt -6.835584 -9.213487E-07
vt -1.796218 3.149605
vt -6.835584 3.149605
vt -2.676942 3.149605

usemtl stone

f 3/3/1 2/2/1 1/1/1
f 2/2/1 3/3/1 4/4/1
f 4/4/1 3/3/1 5/5/1
f 8/8/2 7/7/2 6/6/2
f 7/7/2 8/8/2 9/9/2
f 9/9/2 8/8/2 10/10/2
f 13/13/3 12/12/3 11/11/3
f 12/12/3 13/13/3 14/14/3
f 14/14/3 13/13/3 15/15/3
f 17/18/4 4/17/4 16/16/4
f 18/19/4 4/17/4 17/18/4
f 19/20/4 4/17/4 18/19/4
f 4/17/4 19/20/4 2/21/4
f 22/24/5 21/23/5 20/22/5
f 21/23/5 22/24/5 5/25/5
f 5/25/5 22/24/5 16/26/5
f 5/25/5 16/26/5 4/27/5
f 3/30/6 24/29/6 23/28/6
f 24/29/6 3/30/6 25/31/6
f 25/31/6 3/30/6 1/32/6
f 1/35/7 8/34/7 25/33/7
f 26/36/7 8/34/7 1/35/7
f 2/37/7 26/36/7 1/35/7
f 27/38/7 8/34/7 26/36/7
f 8/34/7 27/38/7 10/39/7
f 27/38/7 26/36/7 28/40/7
f 16/41/7 28/40/7 26/36/7
f 28/40/7 16/41/7 22/42/7
f 31/44/7 30/43/7 29/40/7
f 30/43/7 31/44/7 32/45/7
f 21/48/8 27/47/8 20/46/8
f 27/47/8 21/48/8 10/49/8
f 10/49/8 21/48/8 24/50/8
f 24/50/8 21/48/8 23/51/8
f 10/54/4 24/53/4 9/52/4
f 33/55/4 9/52/4 24/53/4
f 9/52/4 33/55/4 34/56/4
f 33/55/4 24/53/4 25/57/4
f 37/60/9 36/59/9 35/58/9
f 36/59/9 37/60/9 38/61/9
f 38/61/9 37/60/9 39/62/9
f 42/64/7 41/63/7 40/36/7
f 41/63/7 42/64/7 43/65/7
f 46/68/10 45/67/10 44/66/10
f 45/67/10 46/68/10 36/69/10
f 36/69/10 46/68/10 35/70/10
f 17/73/11 40/72/11 41/71/11
f 40/72/11 17/73/11 26/74/11
f 26/74/11 17/73/11 16/75/11
f 38/78/4 39/77/4 47/76/4
f 15/79/4 47/76/4 39/77/4
f 47/76/4 15/79/4 48/80/4
f 15/79/4 39/77/4 14/81/4
f 19/84/12 43/83/12 42/82/12
f 43/83/12 19/84/12 18/85/12
f 49/88/13 46/87/13 44/86/13
f 46/87/13 49/88/13 50/89/13
f 51/92/4 44/91/4 45/90/4
f 44/91/4 51/92/4 52/93/4
f 44/91/4 52/93/4 53/94/4
f 53/94/4 49/95/4 44/91/4
f 22/96/4 49/95/4 53/94/4
f 20/97/4 49/95/4 22/96/4
f 20/97/4 54/98/4 49/95/4
f 54/98/4 20/97/4 27/99/4
f 54/102/7 12/101/7 14/100/7
f 45/103/7 12/101/7 54/102/7
f 36/104/7 12/101/7 45/103/7
f 12/101/7 36/104/7 38/105/7
f 21/97/4 3/106/4 23/53/4
f 3/106/4 21/97/4 5/17/4
f 45/109/14 30/108/14 51/107/14
f 30/108/14 45/109/14 29/110/14
f 29/110/14 45/109/14 54/111/14
f 29/110/14 54/111/14 27/112/14
f 29/110/14 27/112/14 28/113/14
f 37/116/15 14/115/15 39/114/15
f 14/115/15 37/116/15 54/117/15
f 54/117/15 37/116/15 49/118/15
f 49/118/15 37/116/15 50/119/15
f 13/122/7 56/121/7 55/120/7
f 56/121/7 13/122/7 11/101/7
f 48/125/16 56/124/16 47/123/16
f 56/124/16 48/125/16 55/126/16
f 35/127/4 50/95/4 37/77/4
f 50/95/4 35/127/4 46/91/4
f 2/130/17 40/129/17 26/128/17
f 40/129/17 2/130/17 42/131/17
f 42/131/17 2/130/17 19/132/17
f 58/135/7 7/134/7 57/133/7
f 7/134/7 58/135/7 6/34/7
f 34/138/18 58/137/18 57/136/18
f 58/137/18 34/138/18 33/139/18
f 34/142/19 7/141/19 9/140/19
f 7/141/19 34/142/19 57/143/19
f 48/146/20 13/145/20 55/144/20
f 13/145/20 48/146/20 15/147/20
f 43/150/21 17/149/21 41/148/21
f 17/149/21 43/150/21 18/151/21
f 58/154/22 8/153/22 6/152/22
f 8/153/22 58/154/22 25/155/22
f 25/155/22 58/154/22 33/156/22
f 12/159/23 56/158/23 11/157/23
f 56/158/23 12/159/23 47/160/23
f 47/160/23 12/159/23 38/161/23
f 31/164/24 52/163/24 32/162/24
f 52/163/24 31/164/24 53/165/24
f 52/168/25 30/167/25 32/166/25
f 30/167/25 52/168/25 51/169/25
f 28/172/26 31/171/26 29/170/26
f 31/171/26 28/172/26 53/173/26
f 53/173/26 28/172/26 22/174/26

