# Created by Kenney (www.kenney.nl)

mtllib detailPlate.mtl

g detailPlate

v 0.08745584 0.031892 0
v 0.05772133 0.015946 0
v 0.08447553 0.031892 -0.02263535
v 0.05575359 0.015946 -0.01493981
v 0.1267707 0.031892 0
v 0.1224509 0.031892 -0.03281049
v 0.07973 0 0
v 0.07701281 0 -0.02063572
v 0.07573871 0.031892 0.04372872
v 0.06184018 0.031892 0.06184018
v 0.04998752 0.015946 0.02886067
v 0.04081538 0.015946 0.04081538
v -0.04081538 0.015946 0.04081538
v -0.06184018 0.031892 0.06184018
v -0.04998752 0.015946 0.02886067
v -0.07573871 0.031892 0.04372872
v -0.039865 0 0.06904778
v -0.05637708 0 0.05637708
v -0.06338535 0.031892 0.1097866
v -0.08964044 0.031892 0.08964044
v -0.05637708 0 -0.05637708
v -0.08964044 0.031892 -0.08964044
v -0.06904777 0 -0.039865
v -0.1097866 0.031892 -0.06338535
v 0.04372872 0.031892 -0.07573871
v 0.02886067 0.015946 -0.04998752
v 0.02263535 0.031892 -0.08447553
v 0.0149398 0.015946 -0.05575359
v 0.06338535 0.031892 0.1097866
v 0.039865 0 0.06904778
v 0.03281049 0.031892 0.1224509
v 0.02063572 0 0.07701281
v 0.1097866 0.031892 -0.06338535
v 0.06904778 0 -0.039865
v -0.04998752 0.015946 -0.02886067
v -0.05575359 0.015946 -0.01493981
v -0.07573871 0.031892 -0.04372872
v -0.08447553 0.031892 -0.02263535
v -0.05575359 0.015946 0.01493981
v -0.08447553 0.031892 0.02263535
v -0.05772133 0.015946 0
v -0.08745583 0.031892 0
v 0.07573871 0.031892 -0.04372872
v 0.04998752 0.015946 -0.02886067
v 0.06184018 0.031892 -0.06184018
v 0.04081538 0.015946 -0.04081538
v -0.039865 0 -0.06904777
v -0.06338535 0.031892 -0.1097866
v 0.06338535 0.031892 -0.1097866
v 0.03281049 0.031892 -0.1224509
v 0.039865 0 -0.06904777
v 0.02063572 0 -0.0770128
v 0 0.031892 -0.1267707
v 0 0 -0.07973
v 0.1224509 0.031892 0.03281049
v 0.07701281 0 0.02063572
v 0.1097866 0.031892 0.06338535
v 0.06904778 0 0.039865
v -0.0770128 0 -0.02063572
v -0.1224509 0.031892 -0.03281049
v -0.02886067 0.015946 0.04998752
v -0.04372872 0.031892 0.07573871
v -0.01493981 0.015946 -0.05575359
v -0.02886067 0.015946 -0.04998752
v -0.02263535 0.031892 -0.08447553
v -0.04372872 0.031892 -0.07573871
v -0.04081538 0.015946 -0.04081538
v -0.06184018 0.031892 -0.06184018
v 0.08964044 0.031892 0.08964044
v 0.05637708 0 0.05637708
v -0.01493981 0.015946 0.05575359
v -0.02263535 0.031892 0.08447553
v 0.04372872 0.031892 0.07573871
v 0.02886067 0.015946 0.04998752
v -0.02063572 0 -0.0770128
v -0.03281049 0.031892 -0.1224509
v 0.08964044 0.031892 -0.08964044
v 0.05637708 0 -0.05637708
v 0 0.031892 -0.08745582
v 0 0.015946 -0.05772133
v 0.02263535 0.031892 0.08447553
v 0.0149398 0.015946 0.05575359
v -0.03281049 0.031892 0.1224509
v 0 0.031892 0.1267707
v 0 0.031892 0.08745584
v 0.08447553 0.031892 0.02263535
v -0.1097866 0.031892 0.06338535
v -0.1224509 0.031892 0.03281049
v -0.1267707 0.031892 0
v 0.05575359 0.015946 0.01493981
v 0 0.015946 0.05772133
v -0.06904777 0 0.039865
v -0.0770128 0 0.02063572
v -0.07973 0 0
v 0 0 0.07973
v -0.02063572 0 0.07701281

vn -0.4726034 0.8812752 0
vn -0.4564998 0.8812748 0.1223215
vn -0.4564993 0.8812749 0.1223233
vn 0.5611567 -0.8277096 0
vn 0.5420357 -0.8277094 -0.1452394
vn 0.5420355 -0.8277093 -0.1452403
vn -0.4092877 0.8812744 -0.2363027
vn -0.3341856 0.8812718 -0.3341856
vn -0.4092886 0.8812744 -0.2363012
vn 0.3341856 0.8812718 -0.3341856
vn 0.4092886 0.8812744 -0.2363012
vn 0.4092877 0.8812744 -0.2363027
vn -0.2805777 -0.8277109 0.485974
vn -0.3967958 -0.8277113 0.3967958
vn -0.2805773 -0.8277109 0.4859742
vn -0.3967958 -0.8277113 -0.3967958
vn -0.485974 -0.8277109 -0.2805777
vn -0.4859742 -0.8277109 -0.2805773
vn -0.2363027 0.8812744 0.4092877
vn -0.2363012 0.8812744 0.4092886
vn -0.1223215 0.8812748 0.4564998
vn -0.1223233 0.8812749 0.4564993
vn 0.2805773 -0.8277109 0.4859742
vn 0.2805777 -0.8277109 0.485974
vn 0.1452394 -0.8277094 0.5420357
vn 0.1452403 -0.8277093 0.5420355
vn 0.4859742 -0.8277109 -0.2805773
vn 0.485974 -0.8277109 -0.2805777
vn 0.4092886 0.8812744 0.2363012
vn 0.4564993 0.8812749 0.1223233
vn 0.4092877 0.8812744 0.2363027
vn 0.4564998 0.8812748 0.1223215
vn 0.4564993 0.8812749 -0.1223233
vn 0.4564998 0.8812748 -0.1223215
vn 0.4726034 0.8812752 0
vn -0.4092877 0.8812744 0.2363027
vn -0.4092886 0.8812744 0.2363012
vn -0.3341856 0.8812718 0.3341856
vn -0.2805777 -0.8277109 -0.485974
vn -0.2805773 -0.8277109 -0.4859742
vn 0.2805773 -0.8277109 -0.4859742
vn 0.1452394 -0.8277094 -0.5420357
vn 0.2805777 -0.8277109 -0.485974
vn 0.1452403 -0.8277093 -0.5420355
vn 0 -0.8277096 -0.5611567
vn 0.5420357 -0.8277094 0.1452394
vn 0.5420355 -0.8277093 0.1452403
vn 0.4859742 -0.8277109 0.2805773
vn 0.485974 -0.8277109 0.2805777
vn -0.5420355 -0.8277093 -0.1452403
vn -0.5420357 -0.8277094 -0.1452394
vn 0.2363012 0.8812744 -0.4092886
vn 0.2363027 0.8812744 -0.4092877
vn 0.1223233 0.8812749 0.4564993
vn 0.2363012 0.8812744 0.4092886
vn 0.1223215 0.8812748 0.4564998
vn 0.2363027 0.8812744 0.4092877
vn 0.3341856 0.8812718 0.3341856
vn 0.3967958 -0.8277113 0.3967958
vn 0.1223233 0.8812749 -0.4564993
vn 0.1223215 0.8812748 -0.4564998
vn -0.2363027 0.8812744 -0.4092877
vn -0.2363012 0.8812744 -0.4092886
vn -0.1452403 -0.8277093 -0.5420355
vn -0.1452394 -0.8277094 -0.5420357
vn 0.3967958 -0.8277113 -0.3967958
vn 0 0.8812752 0.4726034
vn -0.1223215 0.8812748 -0.4564998
vn -0.1223233 0.8812749 -0.4564993
vn 0 1 0
vn -0.485974 -0.8277109 0.2805777
vn -0.4859742 -0.8277109 0.2805773
vn -0.5420355 -0.8277093 0.1452403
vn -0.5420357 -0.8277094 0.1452394
vn -0.5611567 -0.8277096 0
vn -0.4564998 0.8812748 -0.1223215
vn -0.4564993 0.8812749 -0.1223233
vn 0 -1 0
vn 0 0.8812752 -0.4726034
vn 0 -0.8277096 0.5611567
vn -0.1452403 -0.8277093 0.5420355
vn -0.1452394 -0.8277094 0.5420357

vt 0.4495116 3.599941
vt 0.2966802 2.2804
vt -0.4493351 3.599952
vt -0.2965811 2.280384
vt -0.651503 4.793327
vt 0.651396 4.793332
vt -0.4097503 2.568928
vt 0.4096923 2.56892
vt -0.4494249 3.599955
vt 0.4493816 3.599932
vt -0.2966286 2.280384
vt 0.2965981 2.280418
vt -0.2965981 2.280418
vt -0.4493816 3.599932
vt 0.2966286 2.280384
vt 0.4494249 3.599955
vt 0.4097226 2.568926
vt -0.4097004 2.568915
vt 0.6514747 4.793336
vt -0.65143 4.793343
vt 0.4494951 3.599951
vt 0.2966568 2.280385
vt -0.4493696 3.59995
vt -0.2965627 2.280388
vt 0.6514739 4.793332
vt 0.4097382 2.568919
vt -0.651436 4.79333
vt -0.4096958 2.568922
vt -0.4097226 2.568926
vt -0.6514747 4.793336
vt 0.4097004 2.568915
vt 0.65143 4.793343
vt -0.6514739 4.793332
vt 0.651436 4.79333
vt -0.4097382 2.568919
vt 0.4096958 2.568922
vt -0.651396 4.793332
vt 0.651503 4.793327
vt -0.4096923 2.56892
vt 0.4097503 2.568928
vt -0.2966568 2.280385
vt -0.4494951 3.599951
vt 0.2965627 2.280388
vt 0.4493696 3.59995
vt -4.990973 1.776357E-15
vt -4.820903 1.291752
vt -4.820903 -1.291752
vt -4.322308 -2.495486
vt -4.322308 2.495486
vt -3.529151 -3.529151
vt -3.529151 3.529151
vt -3.443143 1.776357E-15
vt -3.325808 -0.8911554
vt -2.495486 -4.322308
vt -2.981839 -1.721603
vt -2.434653 -2.434653
vt -1.291752 -4.820903
vt -1.721603 -2.981839
vt -0.8911554 -3.325808
vt -1.065814E-14 -4.990973
vt -1.065814E-14 -3.443143
vt 1.291752 -4.820903
vt 0.8911554 -3.325808
vt 1.721603 -2.981839
vt 2.495486 -4.322308
vt 2.434653 -2.434653
vt 2.981839 -1.721603
vt 3.529151 -3.529151
vt 3.325808 -0.8911554
vt 3.443143 1.776357E-15
vt 3.529151 3.529151
vt 3.325808 0.8911554
vt 2.981839 1.721603
vt 2.495486 4.322308
vt 2.434653 2.434653
vt 1.721603 2.981839
vt 1.291752 4.820903
vt 0.8911554 3.325808
vt -1.065814E-14 4.990973
vt -1.065814E-14 3.443143
vt -0.8911554 3.325808
vt -1.291752 4.820903
vt -1.721603 2.981839
vt -2.434653 2.434653
vt -2.495486 4.322308
vt -2.981839 1.721603
vt -3.325808 0.8911554
vt 4.322308 -2.495486
vt 4.322308 2.495486
vt 4.820903 -1.291752
vt 4.820903 1.291752
vt 4.990973 1.776357E-15
vt -2.272493 1.776357E-15
vt -2.195023 0.5881814
vt -2.195023 -0.5881814
vt -1.968013 -1.136247
vt -1.968013 1.136247
vt -1.606905 -1.606905
vt -1.606905 1.606905
vt -1.136247 -1.968013
vt -1.136247 1.968013
vt -0.5881814 -2.195023
vt -0.5881814 2.195023
vt -1.065814E-14 -2.272493
vt -1.065814E-14 2.272493
vt 0.5881814 -2.195023
vt 0.5881814 2.195023
vt 1.136247 -1.968013
vt 1.136247 1.968013
vt 1.606905 -1.606905
vt 1.606905 1.606905
vt 1.968013 -1.136247
vt 1.968013 1.136247
vt 2.195023 -0.5881814
vt 2.195023 0.5881814
vt 2.272493 1.776357E-15
vt -0.4495116 3.599941
vt 0.4493351 3.599952
vt -0.2966802 2.2804
vt 0.2965811 2.280384
vt 3.138976 1.776357E-15
vt 3.032 -0.8124298
vt 3.032 0.8124298
vt 2.718416 1.569488
vt 2.718416 -1.569488
vt 2.21957 2.21957
vt 2.21957 -2.21957
vt 1.569488 2.718416
vt 1.569488 -2.718416
vt 0.8124298 3.032
vt 0.8124298 -3.032
vt 1.065814E-14 3.138976
vt 1.065814E-14 -3.138976
vt -0.8124298 3.032
vt -0.8124298 -3.032
vt -1.569488 2.718416
vt -1.569488 -2.718416
vt -2.21957 2.21957
vt -2.21957 -2.21957
vt -2.718416 1.569488
vt -2.718416 -1.569488
vt -3.032 0.8124298
vt -3.032 -0.8124298
vt -3.138976 1.776357E-15

usemtl gold

f 3/3/2 2/2/1 1/1/1
f 2/2/1 3/3/2 4/4/3
f 7/7/4 6/6/5 5/5/4
f 6/6/5 7/7/4 8/8/6
f 11/11/9 10/10/8 9/9/7
f 10/10/8 11/11/9 12/12/8
f 15/15/11 14/14/10 13/13/10
f 14/14/10 15/15/11 16/16/12
f 19/19/15 18/18/14 17/17/13
f 18/18/14 19/19/15 20/20/14
f 23/17/17 22/20/16 21/18/16
f 22/20/16 23/17/17 24/19/18
f 27/23/21 26/22/20 25/21/19
f 26/22/20 27/23/21 28/24/22
f 31/27/25 30/26/24 29/25/23
f 30/26/24 31/27/25 32/28/26
f 8/28/6 33/25/27 6/27/5
f 33/25/27 8/28/6 34/26/28
f 37/21/31 36/24/30 35/22/29
f 36/24/30 37/21/31 38/23/32
f 41/2/35 40/3/34 39/4/33
f 40/3/34 41/2/35 42/1/35
f 45/14/38 44/15/37 43/16/36
f 44/15/37 45/14/38 46/13/38
f 21/31/16 48/30/40 47/29/39
f 48/30/40 21/31/16 22/32/16
f 51/35/43 50/34/42 49/33/41
f 50/34/42 51/35/43 52/36/44
f 52/39/44 53/38/45 50/37/42
f 53/38/45 52/39/44 54/40/45
f 57/33/48 56/36/47 55/34/46
f 56/36/47 57/33/48 58/35/49
f 39/43/33 16/42/12 15/41/11
f 16/42/12 39/43/33 40/44/34
f 59/36/50 24/33/18 23/35/17
f 24/33/18 59/36/50 60/34/51
f 55/37/46 7/40/4 5/38/4
f 7/40/4 55/37/46 56/39/47
f 13/12/10 62/9/53 61/11/52
f 62/9/53 13/12/10 14/10/10
f 65/44/56 64/41/55 63/43/54
f 64/41/55 65/44/56 66/42/57
f 25/9/19 46/12/38 45/10/38
f 46/12/38 25/9/19 26/11/20
f 66/16/57 67/13/58 64/15/55
f 67/13/58 66/16/57 68/14/58
f 69/20/59 58/17/49 57/19/48
f 58/17/49 69/20/59 70/18/59
f 61/22/52 72/23/61 71/24/60
f 72/23/61 61/22/52 62/21/53
f 12/13/8 73/16/62 10/14/8
f 73/16/62 12/13/8 74/15/63
f 75/8/64 53/5/45 54/7/45
f 53/5/45 75/8/64 76/6/65
f 34/29/28 77/32/66 33/30/27
f 77/32/66 34/29/28 78/31/66
f 65/3/56 80/2/67 79/1/67
f 80/2/67 65/3/56 63/4/54
f 74/41/63 81/44/68 73/42/62
f 81/44/68 74/41/63 82/43/69
f 6/47/70 55/46/70 5/45/70
f 55/46/70 6/47/70 33/48/70
f 55/46/70 33/48/70 57/49/70
f 57/49/70 33/48/70 77/50/70
f 57/49/70 77/50/70 69/51/70
f 69/51/70 77/50/70 1/52/70
f 1/52/70 77/50/70 3/53/70
f 3/53/70 77/50/70 49/54/70
f 3/53/70 49/54/70 43/55/70
f 43/55/70 49/54/70 45/56/70
f 45/56/70 49/54/70 50/57/70
f 45/56/70 50/57/70 25/58/70
f 25/58/70 50/57/70 27/59/70
f 27/59/70 50/57/70 53/60/70
f 27/59/70 53/60/70 79/61/70
f 79/61/70 53/60/70 76/62/70
f 79/61/70 76/62/70 65/63/70
f 65/63/70 76/62/70 66/64/70
f 66/64/70 76/62/70 48/65/70
f 66/64/70 48/65/70 68/66/70
f 68/66/70 48/65/70 37/67/70
f 37/67/70 48/65/70 22/68/70
f 37/67/70 22/68/70 38/69/70
f 38/69/70 22/68/70 42/70/70
f 20/71/70 42/70/70 22/68/70
f 20/71/70 40/72/70 42/70/70
f 20/71/70 16/73/70 40/72/70
f 19/74/70 16/73/70 20/71/70
f 19/74/70 14/75/70 16/73/70
f 19/74/70 62/76/70 14/75/70
f 83/77/70 62/76/70 19/74/70
f 83/77/70 72/78/70 62/76/70
f 84/79/70 72/78/70 83/77/70
f 84/79/70 85/80/70 72/78/70
f 84/79/70 81/81/70 85/80/70
f 31/82/70 81/81/70 84/79/70
f 31/82/70 73/83/70 81/81/70
f 31/82/70 10/84/70 73/83/70
f 29/85/70 10/84/70 31/82/70
f 29/85/70 9/86/70 10/84/70
f 29/85/70 86/87/70 9/86/70
f 69/51/70 86/87/70 29/85/70
f 86/87/70 69/51/70 1/52/70
f 20/71/70 22/68/70 24/88/70
f 20/71/70 24/88/70 87/89/70
f 87/89/70 24/88/70 60/90/70
f 87/89/70 60/90/70 88/91/70
f 88/91/70 60/90/70 89/92/70
f 4/95/70 90/94/70 2/93/70
f 90/94/70 4/95/70 44/96/70
f 90/94/70 44/96/70 11/97/70
f 11/97/70 44/96/70 46/98/70
f 11/97/70 46/98/70 12/99/70
f 12/99/70 46/98/70 26/100/70
f 12/99/70 26/100/70 74/101/70
f 74/101/70 26/100/70 28/102/70
f 74/101/70 28/102/70 82/103/70
f 82/103/70 28/102/70 80/104/70
f 82/103/70 80/104/70 91/105/70
f 91/105/70 80/104/70 63/106/70
f 91/105/70 63/106/70 71/107/70
f 71/107/70 63/106/70 64/108/70
f 71/107/70 64/108/70 61/109/70
f 61/109/70 64/108/70 67/110/70
f 61/109/70 67/110/70 13/111/70
f 13/111/70 67/110/70 35/112/70
f 13/111/70 35/112/70 15/113/70
f 15/113/70 35/112/70 36/114/70
f 15/113/70 36/114/70 39/115/70
f 39/115/70 36/114/70 41/116/70
f 29/30/23 70/31/59 69/32/59
f 70/31/59 29/30/23 30/29/24
f 43/42/36 4/43/3 3/44/2
f 4/43/3 43/42/36 44/41/37
f 78/18/66 49/19/41 77/20/66
f 49/19/41 78/18/66 51/17/43
f 20/32/14 92/29/71 18/31/14
f 92/29/71 20/32/14 87/30/72
f 87/25/72 93/28/73 92/26/71
f 93/28/73 87/25/72 88/27/74
f 88/6/74 94/7/75 93/8/73
f 94/7/75 88/6/74 89/5/75
f 2/119/1 86/118/76 1/117/1
f 86/118/76 2/119/1 90/120/77
f 38/118/32 41/119/35 36/120/30
f 41/119/35 38/118/32 42/117/35
f 90/24/77 9/21/7 86/23/76
f 9/21/7 90/24/77 11/22/9
f 68/10/58 35/11/29 67/12/58
f 35/11/29 68/10/58 37/9/31
f 56/123/78 8/122/78 7/121/78
f 8/122/78 56/123/78 58/124/78
f 8/122/78 58/124/78 34/125/78
f 34/125/78 58/124/78 70/126/78
f 34/125/78 70/126/78 78/127/78
f 78/127/78 70/126/78 30/128/78
f 78/127/78 30/128/78 51/129/78
f 51/129/78 30/128/78 32/130/78
f 51/129/78 32/130/78 52/131/78
f 52/131/78 32/130/78 95/132/78
f 52/131/78 95/132/78 54/133/78
f 54/133/78 95/132/78 96/134/78
f 54/133/78 96/134/78 75/135/78
f 75/135/78 96/134/78 17/136/78
f 75/135/78 17/136/78 47/137/78
f 47/137/78 17/136/78 18/138/78
f 47/137/78 18/138/78 21/139/78
f 21/139/78 18/138/78 92/140/78
f 21/139/78 92/140/78 23/141/78
f 23/141/78 92/140/78 93/142/78
f 23/141/78 93/142/78 59/143/78
f 59/143/78 93/142/78 94/144/78
f 47/26/39 76/27/65 75/28/64
f 76/27/65 47/26/39 48/25/40
f 82/4/69 85/1/79 81/3/68
f 85/1/79 82/4/69 91/2/79
f 84/5/80 32/8/26 31/6/25
f 32/8/26 84/5/80 95/7/80
f 83/34/82 17/35/13 96/36/81
f 17/35/13 83/34/82 19/33/15
f 79/117/67 28/120/22 27/118/21
f 28/120/22 79/117/67 80/119/67
f 71/120/60 85/117/79 91/119/79
f 85/117/79 71/120/60 72/118/61
f 94/40/75 60/37/51 59/39/50
f 60/37/51 94/40/75 89/38/75
f 83/37/82 95/40/80 84/38/80
f 95/40/80 83/37/82 96/39/81

