# Created by Kenney (www.kenney.nl)

mtllib fence.mtl

g fence

v 0.3333333 0.59 -0.515
v 0.3333333 0.59 -0.485
v 0.25 0.5185714 -0.515
v 0.25 0.5185714 -0.485
v 0.5 0.59 -0.53
v 0.5 0 -0.53
v 0.5 0.59 -0.47
v 0.5 0 -0.47
v 0.4166667 0 -0.53
v 0.4166667 0.5185714 -0.53
v 0.4166667 0 -0.515
v 0.4166667 0.5185714 -0.515
v 0.4166667 0 -0.47
v 0.4166667 0.5185714 -0.47
v 0.4166667 0.5185714 -0.485
v -0.4166667 0 -0.47
v -0.4166667 0 -0.485
v -0.5 0 -0.47
v -0.4166667 0 -0.515
v -0.5 0 -0.53
v -0.4166667 0 -0.53
v -0.25 0 -0.515
v -0.25 0 -0.485
v -0.25 0 -0.53
v -0.25 0 -0.47
v -0.08333334 0 -0.53
v -0.08333334 0 -0.47
v -0.08333334 0 -0.515
v -0.08333334 0 -0.485
v 0.08333334 0 -0.515
v 0.08333334 0 -0.485
v 0.08333334 0 -0.53
v 0.08333334 0 -0.47
v 0.25 0 -0.53
v 0.25 0 -0.47
v 0.25 0 -0.515
v 0.25 0 -0.485
v 0.4166667 0 -0.485
v -0.4166667 0.5185714 -0.47
v -0.5 0.59 -0.47
v -0.5 0.59 -0.53
v -0.4166667 0.5185714 -0.485
v -0.4166667 0.5185714 -0.53
v -0.25 0.5185714 -0.485
v -0.3333333 0.59 -0.485
v -0.25 0.5185714 -0.53
v -0.08333334 0.5185714 -0.53
v -0.1666667 0.59 -0.53
v -0.4166667 0.5185714 -0.515
v -0.1666667 0.59 -0.47
v -0.25 0.5185714 -0.47
v -0.25 0.5185714 -0.515
v -0.08333334 0.5185714 -0.515
v -0.3333333 0.59 -0.515
v -0.08333334 0.5185714 -0.485
v -0.08333334 0.5185714 -0.47
v 0.25 0.5185714 -0.47
v 0.08333334 0.5185714 -0.47
v 0.1666667 0.59 -0.47
v 0.08333334 0.5185714 -0.515
v 0 0.59 -0.515
v 0.08333334 0.5185714 -0.53
v 0.25 0.5185714 -0.53
v 0.1666667 0.59 -0.53
v 0.08333334 0.5185714 -0.485
v 0 0.59 -0.485

vn -0.6507913 0.7592566 0
vn 1 0 0
vn -1 0 0
vn 0 0 1
vn 0 -1 0
vn 0 0 -1
vn 0.6507913 0.7592566 0
vn 0.6507913 -0.7592566 0
vn 0 1 0
vn -0.6507913 -0.7592566 0

vt -20.27559 25.0808
vt -19.09449 25.0808
vt -20.27559 20.75968
vt -19.09449 20.75968
vt 20.86614 23.22835
vt 20.86614 -4.014366E-14
vt 18.50394 23.22835
vt 18.50394 -4.014366E-14
vt -20.86614 1.141827E-14
vt -20.86614 20.4162
vt -20.27559 1.141827E-14
vt -20.27559 20.4162
vt 19.68504 0
vt 16.4042 0
vt 19.68504 23.22835
vt 16.4042 20.4162
vt -20.86614 30.0628
vt -18.50394 30.0628
vt -20.86614 25.74168
vt -18.50394 25.74168
vt -20.27559 25.74168
vt -19.09449 25.74168
vt -16.4042 -18.50394
vt -16.4042 -19.09449
vt -19.68504 -18.50394
vt -16.4042 -20.27559
vt -19.68504 -20.86614
vt -16.4042 -20.86614
vt -9.84252 -20.27559
vt -9.84252 -19.09449
vt -9.84252 -20.86614
vt -9.84252 -18.50394
vt -3.28084 -20.86614
vt -3.28084 -18.50394
vt -3.28084 -20.27559
vt -3.28084 -19.09449
vt 3.28084 -20.27559
vt 3.28084 -19.09449
vt 3.28084 -20.86614
vt 3.28084 -18.50394
vt 9.84252 -20.86614
vt 9.84252 -18.50394
vt 9.84252 -20.27559
vt 9.84252 -19.09449
vt 16.4042 -20.27559
vt 16.4042 -19.09449
vt 16.4042 -20.86614
vt 16.4042 -18.50394
vt 19.68504 -20.86614
vt 19.68504 -18.50394
vt -19.09449 1.141827E-14
vt -19.09449 20.4162
vt -18.50394 1.141827E-14
vt -18.50394 20.4162
vt -16.4042 0
vt -19.68504 0
vt -16.4042 20.4162
vt -19.68504 23.22835
vt -20.86614 4.817239E-14
vt -20.86614 23.22835
vt -18.50394 4.817239E-14
vt -18.50394 23.22835
vt 19.09449 20.4162
vt 19.09449 0
vt 18.50394 20.4162
vt 18.50394 0
vt -9.84252 0
vt -9.84252 20.4162
vt -13.12336 23.22835
vt 20.27559 0.8316888
vt 19.09449 0.8316888
vt 20.27559 5.15281
vt 19.09449 5.15281
vt 9.84252 0
vt 9.84252 20.4162
vt 13.12336 23.22835
vt 3.28084 0
vt 3.28084 20.4162
vt 6.56168 23.22835
vt 20.86614 25.74168
vt 20.27559 25.74168
vt 20.86614 30.0628
vt 19.09449 25.74168
vt 18.50394 30.0628
vt 18.50394 25.74168
vt -20.86614 10.13481
vt -18.50394 10.13481
vt -20.86614 5.813687
vt -18.50394 5.813687
vt -20.27559 5.813687
vt -19.09449 5.813687
vt 20.86614 20.4162
vt 20.86614 -2.283654E-15
vt 20.27559 20.4162
vt 20.27559 -2.283654E-15
vt 20.27559 20.75968
vt 19.09449 20.75968
vt 20.27559 25.0808
vt 19.09449 25.0808
vt 19.09449 -2.283654E-15
vt 18.50394 -2.283654E-15
vt -20.86614 -6.850963E-15
vt -20.27559 -6.850963E-15
vt 19.09449 1.370193E-14
vt 18.50394 1.370193E-14
vt -3.28084 0
vt -3.28084 20.4162
vt -6.56168 23.22835
vt -20.27559 5.15281
vt -19.09449 5.15281
vt -20.27559 0.8316888
vt -19.09449 0.8316888
vt 1.136868E-13 23.22835
vt 20.27559 10.79569
vt 19.09449 10.79569
vt 20.27559 15.11681
vt 19.09449 15.11681
vt 20.86614 0
vt 20.27559 0
vt -20.86614 20.09881
vt -18.50394 20.09881
vt -20.86614 15.77769
vt -20.27559 15.77769
vt -19.09449 15.77769
vt -18.50394 15.77769
vt -1.136868E-13 23.22835
vt -20.86614 2.283654E-15
vt -20.27559 2.283654E-15
vt -19.09449 2.283654E-15
vt -18.50394 2.283654E-15
vt 20.86614 1.370193E-14
vt 20.27559 1.370193E-14
vt -20.27559 15.11681
vt -19.09449 15.11681
vt -20.27559 10.79569
vt -19.09449 10.79569
vt 20.86614 15.77769
vt 20.27559 15.77769
vt 20.86614 20.09881
vt 19.09449 15.77769
vt 18.50394 15.77769
vt 18.50394 20.09881
vt -19.09449 -6.850963E-15
vt -18.50394 -6.850963E-15
vt 20.86614 5.813687
vt 20.27559 5.813687
vt 20.86614 10.13481
vt 19.09449 5.813687
vt 18.50394 5.813687
vt 18.50394 10.13481

usemtl wood

f 3/3/1 2/2/1 1/1/1
f 2/2/1 3/3/1 4/4/1
f 7/7/2 6/6/2 5/5/2
f 6/6/2 7/7/2 8/8/2
f 11/11/3 10/10/3 9/9/3
f 10/10/3 11/11/3 12/12/3
f 7/15/4 13/14/4 8/13/4
f 13/14/4 7/15/4 14/16/4
f 10/19/1 7/18/1 5/17/1
f 7/18/1 10/19/1 14/20/1
f 14/20/1 10/19/1 12/21/1
f 14/20/1 12/21/1 15/22/1
f 18/25/5 17/24/5 16/23/5
f 17/24/5 18/25/5 19/26/5
f 20/27/5 19/26/5 18/25/5
f 19/26/5 20/27/5 21/28/5
f 22/29/5 17/24/5 19/26/5
f 22/29/5 23/30/5 17/24/5
f 24/31/5 23/30/5 22/29/5
f 24/31/5 25/32/5 23/30/5
f 26/33/5 25/32/5 24/31/5
f 26/33/5 27/34/5 25/32/5
f 28/35/5 27/34/5 26/33/5
f 28/35/5 29/36/5 27/34/5
f 30/37/5 29/36/5 28/35/5
f 29/36/5 30/37/5 31/38/5
f 32/39/5 31/38/5 30/37/5
f 32/39/5 33/40/5 31/38/5
f 34/41/5 33/40/5 32/39/5
f 34/41/5 35/42/5 33/40/5
f 36/43/5 35/42/5 34/41/5
f 36/43/5 37/44/5 35/42/5
f 11/45/5 37/44/5 36/43/5
f 11/45/5 38/46/5 37/44/5
f 9/47/5 38/46/5 11/45/5
f 9/47/5 13/48/5 38/46/5
f 6/49/5 13/48/5 9/47/5
f 13/48/5 6/49/5 8/50/5
f 13/53/3 15/52/3 38/51/3
f 15/52/3 13/53/3 14/54/3
f 39/57/4 18/56/4 16/55/4
f 18/56/4 39/57/4 40/58/4
f 18/61/3 41/60/3 20/59/3
f 41/60/3 18/61/3 40/62/3
f 39/65/2 17/64/2 42/63/2
f 17/64/2 39/65/2 16/66/2
f 41/15/6 21/14/6 20/13/6
f 21/14/6 41/15/6 43/16/6
f 3/68/6 11/55/6 36/67/6
f 11/55/6 3/68/6 12/57/6
f 12/57/6 3/68/6 1/69/6
f 1/72/7 15/71/7 12/70/7
f 15/71/7 1/72/7 2/73/7
f 15/16/4 37/74/4 38/14/4
f 37/74/4 15/16/4 4/75/4
f 4/75/4 15/16/4 2/76/4
f 10/57/6 6/56/6 9/55/6
f 6/56/6 10/57/6 5/58/6
f 44/68/4 17/55/4 23/67/4
f 17/55/4 44/68/4 42/57/4
f 42/57/4 44/68/4 45/69/4
f 46/75/6 26/77/6 24/74/6
f 26/77/6 46/75/6 47/78/6
f 47/78/6 46/75/6 48/79/6
f 41/82/7 49/81/7 43/80/7
f 49/81/7 41/82/7 42/83/7
f 40/84/7 42/83/7 41/82/7
f 42/83/7 40/84/7 39/85/7
f 46/88/1 50/87/1 48/86/1
f 50/87/1 46/88/1 51/89/1
f 51/89/1 46/88/1 52/90/1
f 51/89/1 52/90/1 44/91/1
f 53/94/2 26/93/2 47/92/2
f 26/93/2 53/94/2 28/95/2
f 54/98/7 44/97/7 52/96/7
f 44/97/7 54/98/7 45/99/7
f 56/65/2 29/100/2 55/63/2
f 29/100/2 56/65/2 27/101/2
f 22/103/3 46/10/3 24/102/3
f 46/10/3 22/103/3 52/12/3
f 57/75/4 33/77/4 35/74/4
f 33/77/4 57/75/4 58/78/4
f 58/78/4 57/75/4 59/79/4
f 57/65/2 37/104/2 4/63/2
f 37/104/2 57/65/2 35/105/2
f 56/107/4 25/67/4 27/106/4
f 25/67/4 56/107/4 51/68/4
f 51/68/4 56/107/4 50/108/4
f 49/111/1 45/110/1 54/109/1
f 45/110/1 49/111/1 42/112/1
f 53/78/6 30/106/6 28/77/6
f 30/106/6 53/78/6 60/107/6
f 60/107/6 53/78/6 61/113/6
f 62/107/6 34/67/6 32/106/6
f 34/67/6 62/107/6 63/68/6
f 63/68/6 62/107/6 64/108/6
f 61/116/7 65/115/7 60/114/7
f 65/115/7 61/116/7 66/117/7
f 49/94/2 21/118/2 43/92/2
f 21/118/2 49/94/2 19/119/2
f 62/122/1 59/121/1 64/120/1
f 59/121/1 62/122/1 60/123/1
f 65/124/1 59/121/1 60/123/1
f 59/121/1 65/124/1 58/125/1
f 65/78/4 29/106/4 31/77/4
f 29/106/4 65/78/4 55/107/4
f 55/107/4 65/78/4 66/126/4
f 30/128/3 62/10/3 32/127/3
f 62/10/3 30/128/3 60/12/3
f 33/130/3 65/52/3 31/129/3
f 65/52/3 33/130/3 58/54/3
f 3/94/2 34/131/2 63/92/2
f 34/131/2 3/94/2 36/132/2
f 53/135/1 66/134/1 61/133/1
f 66/134/1 53/135/1 55/136/1
f 48/139/7 53/138/7 47/137/7
f 53/138/7 48/139/7 55/140/7
f 55/140/7 48/139/7 56/141/7
f 56/141/7 48/139/7 50/142/7
f 49/16/6 22/74/6 19/14/6
f 22/74/6 49/16/6 52/75/6
f 52/75/6 49/16/6 54/76/6
f 25/144/3 44/52/3 23/143/3
f 44/52/3 25/144/3 51/54/3
f 64/147/7 3/146/7 63/145/7
f 3/146/7 64/147/7 4/148/7
f 4/148/7 64/147/7 57/149/7
f 57/149/7 64/147/7 59/150/7

usemtl woodDark

f 1/1/8 2/2/8 3/3/8
f 4/4/8 3/3/8 2/2/8
f 5/5/3 6/6/3 7/7/3
f 8/8/3 7/7/3 6/6/3
f 9/9/2 10/10/2 11/11/2
f 12/12/2 11/11/2 10/10/2
f 8/13/6 13/14/6 7/15/6
f 14/16/6 7/15/6 13/14/6
f 5/17/8 7/18/8 10/19/8
f 14/20/8 10/19/8 7/18/8
f 12/21/8 10/19/8 14/20/8
f 15/22/8 12/21/8 14/20/8
f 16/23/9 17/24/9 18/25/9
f 19/26/9 18/25/9 17/24/9
f 18/25/9 19/26/9 20/27/9
f 21/28/9 20/27/9 19/26/9
f 19/26/9 17/24/9 22/29/9
f 17/24/9 23/30/9 22/29/9
f 22/29/9 23/30/9 24/31/9
f 23/30/9 25/32/9 24/31/9
f 24/31/9 25/32/9 26/33/9
f 25/32/9 27/34/9 26/33/9
f 26/33/9 27/34/9 28/35/9
f 27/34/9 29/36/9 28/35/9
f 28/35/9 29/36/9 30/37/9
f 31/38/9 30/37/9 29/36/9
f 30/37/9 31/38/9 32/39/9
f 31/38/9 33/40/9 32/39/9
f 32/39/9 33/40/9 34/41/9
f 33/40/9 35/42/9 34/41/9
f 34/41/9 35/42/9 36/43/9
f 35/42/9 37/44/9 36/43/9
f 36/43/9 37/44/9 11/45/9
f 37/44/9 38/46/9 11/45/9
f 11/45/9 38/46/9 9/47/9
f 38/46/9 13/48/9 9/47/9
f 9/47/9 13/48/9 6/49/9
f 8/50/9 6/49/9 13/48/9
f 38/51/2 15/52/2 13/53/2
f 14/54/2 13/53/2 15/52/2
f 16/55/6 18/56/6 39/57/6
f 40/58/6 39/57/6 18/56/6
f 20/59/2 41/60/2 18/61/2
f 40/62/2 18/61/2 41/60/2
f 42/63/3 17/64/3 39/65/3
f 16/66/3 39/65/3 17/64/3
f 20/13/4 21/14/4 41/15/4
f 43/16/4 41/15/4 21/14/4
f 36/67/4 11/55/4 3/68/4
f 12/57/4 3/68/4 11/55/4
f 1/69/4 3/68/4 12/57/4
f 12/70/10 15/71/10 1/72/10
f 2/73/10 1/72/10 15/71/10
f 38/14/6 37/74/6 15/16/6
f 4/75/6 15/16/6 37/74/6
f 2/76/6 15/16/6 4/75/6
f 9/55/4 6/56/4 10/57/4
f 5/58/4 10/57/4 6/56/4
f 23/67/6 17/55/6 44/68/6
f 42/57/6 44/68/6 17/55/6
f 45/69/6 44/68/6 42/57/6
f 24/74/4 26/77/4 46/75/4
f 47/78/4 46/75/4 26/77/4
f 48/79/4 46/75/4 47/78/4
f 43/80/10 49/81/10 41/82/10
f 42/83/10 41/82/10 49/81/10
f 41/82/10 42/83/10 40/84/10
f 39/85/10 40/84/10 42/83/10
f 48/86/8 50/87/8 46/88/8
f 51/89/8 46/88/8 50/87/8
f 52/90/8 46/88/8 51/89/8
f 44/91/8 52/90/8 51/89/8
f 47/92/3 26/93/3 53/94/3
f 28/95/3 53/94/3 26/93/3
f 52/96/10 44/97/10 54/98/10
f 45/99/10 54/98/10 44/97/10
f 55/63/3 29/100/3 56/65/3
f 27/101/3 56/65/3 29/100/3
f 24/102/2 46/10/2 22/103/2
f 52/12/2 22/103/2 46/10/2
f 35/74/6 33/77/6 57/75/6
f 58/78/6 57/75/6 33/77/6
f 59/79/6 57/75/6 58/78/6
f 4/63/3 37/104/3 57/65/3
f 35/105/3 57/65/3 37/104/3
f 27/106/6 25/67/6 56/107/6
f 51/68/6 56/107/6 25/67/6
f 50/108/6 56/107/6 51/68/6
f 54/109/8 45/110/8 49/111/8
f 42/112/8 49/111/8 45/110/8
f 28/77/4 30/106/4 53/78/4
f 60/107/4 53/78/4 30/106/4
f 61/113/4 53/78/4 60/107/4
f 32/106/4 34/67/4 62/107/4
f 63/68/4 62/107/4 34/67/4
f 64/108/4 62/107/4 63/68/4
f 60/114/10 65/115/10 61/116/10
f 66/117/10 61/116/10 65/115/10
f 43/92/3 21/118/3 49/94/3
f 19/119/3 49/94/3 21/118/3
f 64/120/8 59/121/8 62/122/8
f 60/123/8 62/122/8 59/121/8
f 60/123/8 59/121/8 65/124/8
f 58/125/8 65/124/8 59/121/8
f 31/77/6 29/106/6 65/78/6
f 55/107/6 65/78/6 29/106/6
f 66/126/6 65/78/6 55/107/6
f 32/127/2 62/10/2 30/128/2
f 60/12/2 30/128/2 62/10/2
f 31/129/2 65/52/2 33/130/2
f 58/54/2 33/130/2 65/52/2
f 63/92/3 34/131/3 3/94/3
f 36/132/3 3/94/3 34/131/3
f 61/133/8 66/134/8 53/135/8
f 55/136/8 53/135/8 66/134/8
f 47/137/10 53/138/10 48/139/10
f 55/140/10 48/139/10 53/138/10
f 56/141/10 48/139/10 55/140/10
f 50/142/10 48/139/10 56/141/10
f 19/14/4 22/74/4 49/16/4
f 52/75/4 49/16/4 22/74/4
f 54/76/4 49/16/4 52/75/4
f 23/143/2 44/52/2 25/144/2
f 51/54/2 25/144/2 44/52/2
f 63/145/10 3/146/10 64/147/10
f 4/148/10 64/147/10 3/146/10
f 57/149/10 64/147/10 4/148/10
f 59/150/10 64/147/10 57/149/10

g board

v 0.5 0.2425056 -0.45
v -0.5 0.2425056 -0.45
v 0.5 0.3474944 -0.45
v -0.5 0.3474944 -0.45
v 0.5 0.2425056 -0.47
v -0.5 0.2425056 -0.47
v -0.5 0.3474944 -0.47
v 0.5 0.3474944 -0.47


vt 0 0
vt -39.37008 0
vt 0 4.13342
vt -39.37008 4.13342
vt 0 0.7874016
vt -39.37008 0.7874016
vt 0.7874016 0
vt 0.7874016 4.13342
vt 39.37008 0
vt 39.37008 0.7874016
vt -0.7874016 4.13342
vt -0.7874016 0

usemtl wood

f 69/153/4 68/152/4 67/151/4
f 68/152/4 69/153/4 70/154/4
f 68/156/5 71/151/5 67/155/5
f 71/151/5 68/156/5 72/152/5
f 68/157/3 73/153/3 72/151/3
f 73/153/3 68/157/3 70/158/3
f 73/159/9 69/155/9 74/151/9
f 69/155/9 73/159/9 70/160/9
f 69/161/2 71/151/2 74/153/2
f 71/151/2 69/161/2 67/162/2

g board

v -0.5 0.2425056 -0.55
v 0.5 0.2425056 -0.55
v -0.5 0.3474944 -0.55
v 0.5 0.3474944 -0.55
v 0.5 0.2425056 -0.53
v -0.5 0.2425056 -0.53
v -0.5 0.3474944 -0.53
v 0.5 0.3474944 -0.53


vt 39.37008 4.13342

usemtl wood

f 77/163/6 76/151/6 75/159/6
f 76/151/6 77/163/6 78/153/6
f 80/156/5 76/151/5 79/155/5
f 76/151/5 80/156/5 75/152/5
f 80/157/3 77/153/3 75/151/3
f 77/153/3 80/157/3 81/158/3
f 77/159/9 82/155/9 78/151/9
f 82/155/9 77/159/9 81/160/9
f 82/161/2 76/151/2 78/153/2
f 76/151/2 82/161/2 79/162/2

