# Created by Kenney (www.kenney.nl)

mtllib ghost.mtl

g armLeft

v 0.185796 0.483184 -0.055796
v 0.241592 0.427388 -0.05579599
v 0.185796 0.483184 0.05579601
v 0.241592 0.427388 0.05579601
v 0.13 0.1468661 -0.01069633
v 0.13 0.35 0.05579599
v 0.13 0.1757483 0.1008957
v 0.13 0.483184 0.05579599
v 0.13 0.3211178 -0.05579599
v 0.13 0.483184 -0.055796
v 0.181592 0.1757483 0.1008957
v 0.241592 0.2338343 0.08586189
v 0.241592 0.35 0.05579601
v 0.181592 0.1468661 -0.01069633
v 0.241592 0.2049522 -0.0257301
v 0.241592 0.3211178 -0.05579599

vn 0.6069804 0.6069804 0
vn -0.8584 0 0
vn 0 0.2150831 0.8310173
vn 0 -0.2150831 -0.8310173
vn 0.6069804 -0.587618 0.1520867
vn 0.8584 0 0
vn 0 0 -0.8584
vn 0 0.8584 0
vn 0 0 0.8584
vn 0 -0.8310173 0.2150831

vt 2.559055 -1.809525
vt 2.559055 -5.428576
vt -2.559055 -1.809525
vt -2.559055 -5.428576
vt -0.490582 -15.42505
vt 2.559055 -6.108416
vt 4.627528 -14.10038
vt 2.559055 2.127846E-14
vt -2.559055 -7.433081
vt -2.559055 2.127644E-14
vt 2.366241 -14.81007
vt 5.354147E-08 -14.81007
vt 5.11811 -12.0582
vt 3.813077E-08 -6.554764
vt 5.11811 -6.554764
vt -6.085145E-08 -14.81007
vt -2.366241 -14.81007
vt -7.626232E-08 -6.554764
vt -5.11811 -12.0582
vt -5.11811 -6.554764
vt 2.388665 -6.100101
vt 1.050985 -9.754712
vt -2.575973 -4.282917
vt -3.913653 -7.937529
vt 2.559055 -2.559055
vt 2.559055 -7.433081
vt -2.559055 -2.559055
vt 1.180098 -12.76096
vt -2.559055 -6.108417
vt -3.938012 -11.4363
vt -5.265354E-08 -7.433081
vt -5.11811 -7.433081
vt -5.265354E-08 1.087359E-08
vt -5.11811 -2.559055
vt -2.559055 1.087359E-08
vt -2.559055 2.559055
vt -7.626232E-08 -2.559055
vt 7.958079E-13 2.559055
vt 5.11811 -6.108416
vt 3.813077E-08 -6.108416
vt 5.11811 -2.559055
vt 3.813077E-08 2.056085E-14
vt 2.559055 2.056085E-14
vt 2.366241 -4.339876
vt 5.7193E-08 -4.339876
vt 2.366241 0.9468803
vt 1.909749E-08 0.9468803

usemtl wax

f 3/3/1 2/2/1 1/1/1
f 2/2/1 3/3/1 4/4/1
f 7/7/2 6/6/2 5/5/2
f 8/8/2 5/5/2 6/6/2
f 8/8/2 9/9/2 5/5/2
f 9/9/2 8/8/2 10/10/2
f 12/13/3 7/12/3 11/11/3
f 7/12/3 12/13/3 6/14/3
f 6/14/3 12/13/3 13/15/3
f 9/18/4 14/17/4 5/16/4
f 14/17/4 9/18/4 15/19/4
f 15/19/4 9/18/4 16/20/4
f 12/23/5 14/22/5 15/21/5
f 14/22/5 12/23/5 11/24/5
f 4/27/6 16/26/6 2/25/6
f 16/26/6 4/27/6 15/28/6
f 15/28/6 4/27/6 13/29/6
f 15/28/6 13/29/6 12/30/6
f 10/33/7 16/32/7 9/31/7
f 16/32/7 10/33/7 2/34/7
f 2/34/7 10/33/7 1/35/7
f 10/37/8 3/36/8 1/27/8
f 3/36/8 10/37/8 8/38/8
f 4/41/9 6/40/9 13/39/9
f 6/40/9 4/41/9 8/42/9
f 8/42/9 4/41/9 3/43/9
f 11/46/10 5/45/10 14/44/10
f 5/45/10 11/46/10 7/47/10

g armRight

v -0.185796 0.483184 -0.055796
v -0.185796 0.483184 0.055796
v -0.241592 0.427388 -0.055796
v -0.241592 0.427388 0.055796
v -0.13 0.35 0.055796
v -0.241592 0.35 0.055796
v -0.13 0.483184 0.055796
v -0.13 0.1757483 0.1008957
v -0.181592 0.1757483 0.1008957
v -0.241592 0.2338343 0.08586189
v -0.241592 0.2049522 -0.0257301
v -0.241592 0.3211178 -0.055796
v -0.13 0.3211178 -0.055796
v -0.13 0.483184 -0.055796
v -0.13 0.1468661 -0.01069634
v -0.181592 0.1468661 -0.01069634

vn -0.7071068 0.7071068 0
vn 0 0 1
vn 0 0.2505628 0.9681004
vn -1 0 0
vn 0 0 -1
vn 1 0 0
vn 0 1 0
vn 0 -0.2505628 -0.9681004
vn -0.7071068 -0.6845503 0.1771747
vn 0 -0.9681004 0.2505628

vt -2.196693 -1.553296
vt 2.196693 -1.553296
vt -2.196693 -4.659889
vt 2.196693 -4.659889
vt -3.273214E-08 -5.243464
vt -4.393386 -5.243464
vt -3.273214E-08 2.90425E-15
vt -4.393386 -2.196693
vt -2.196693 2.90425E-15
vt -4.596069E-08 -12.71297
vt -2.031181 -12.71297
vt -3.273214E-08 -5.626609
vt -4.393386 -10.35076
vt -4.393386 -5.626609
vt -1.012996 -10.95401
vt 2.196693 -5.243464
vt 3.380389 -9.816917
vt 2.196693 -2.196693
vt -2.196693 -2.196693
vt -2.196693 -6.380557
vt 4.393386 -6.380557
vt 4.519848E-08 -6.380557
vt 4.393386 -2.196693
vt 4.519848E-08 9.333879E-09
vt 2.196693 9.333879E-09
vt 2.196693 3.518512E-15
vt 2.196693 -6.380557
vt -2.196693 3.520248E-15
vt 0.4211156 -13.24086
vt -2.196693 -5.243464
vt -3.97227 -12.10377
vt 0 2.196693
vt 2.196693 2.196693
vt 6.546426E-08 -2.196693
vt 5.223558E-08 -12.71297
vt 6.546426E-08 -5.626609
vt 2.031181 -12.71297
vt 4.393386 -10.35076
vt 4.393386 -5.626609
vt -2.05043 -5.236327
vt 2.211215 -3.676456
vt -0.9021654 -8.373445
vt 3.35948 -6.813574
vt -1.639398E-08 0.812802
vt -4.909516E-08 -3.725349
vt -2.031181 0.812802
vt -2.031181 -3.725349

usemtl wax

f 19/50/11 18/49/11 17/48/11
f 18/49/11 19/50/11 20/51/11
f 23/54/12 22/53/12 21/52/12
f 22/53/12 23/54/12 20/55/12
f 20/55/12 23/54/12 18/56/12
f 21/59/13 25/58/13 24/57/13
f 25/58/13 21/59/13 26/60/13
f 26/60/13 21/59/13 22/61/13
f 26/64/14 22/63/14 27/62/14
f 20/65/14 27/62/14 22/63/14
f 19/66/14 27/62/14 20/65/14
f 27/62/14 19/66/14 28/67/14
f 19/70/15 29/69/15 28/68/15
f 29/69/15 19/70/15 30/71/15
f 30/71/15 19/70/15 17/72/15
f 23/75/16 29/74/16 30/73/16
f 29/74/16 23/75/16 31/76/16
f 31/76/16 23/75/16 21/77/16
f 31/76/16 21/77/16 24/78/16
f 30/81/17 18/80/17 23/79/17
f 18/80/17 30/81/17 17/65/17
f 32/84/18 29/83/18 31/82/18
f 29/83/18 32/84/18 27/85/18
f 29/83/18 27/85/18 28/86/18
f 32/89/19 26/88/19 27/87/19
f 26/88/19 32/89/19 25/90/19
f 25/93/20 31/92/20 24/91/20
f 31/92/20 25/93/20 32/94/20

