# Created by Kenney (www.kenney.nl)

mtllib gravestoneBroken.mtl

g gravestoneBroken

v 0.195 0 0.07475001
v -0.195 0 0.07475001
v 0.195 0.078 0.07475001
v -0.195 0.078 0.07475001
v 0.160316 0.04 0.174919
v 0.160316 0 0.174919
v 0.115061 0.04 0.220174
v 0.115061 0 0.220174
v -0.17355 0.117 -0.066527
v -0.17355 0.358081 -0.066527
v -0.17355 0.117 0.06652801
v -0.17355 0.358081 0.06652801
v -0.144401 0.358081 -0.066527
v -0.144401 0.358081 0.06652801
v 0.050008 0 0.15512
v 0.050008 0.04 0.15512
v 0.09526201 0 0.109865
v 0.09526201 0.04 0.109865
v 0.179542 0 0.128782
v 0.179542 0.04 0.128782
v 0.219383 0 0.178869
v 0.219383 0.04 0.178869
v 0.17355 0.117 0.06652801
v 0.17355 0.3163 -0.066527
v 0.17355 0.3163 0.06652801
v 0.14355 0.3163 -0.066527
v 0.14355 0.3163 0.06652801
v 0.291383 0 0.121598
v 0.251542 0 0.071511
v -0.195 0.078 -0.07475
v 0.251542 0.04 0.071511
v 0.17355 0.117 -0.066527
v 0.195 0.078 -0.07475
v 0.04707 0.226603 0.06652801
v 0.114915 0.261601 0.06652801
v 0.07491501 0.261601 0.06652801
v -0.01293 0.226603 0.06652801
v -0.065538 0.249601 0.06652801
v -0.035538 0.249601 0.06652801
v -0.12663 0.329673 0.06652801
v -0.10663 0.329673 0.06652801
v -0.12663 0.329673 -0.066527
v -0.195 0 -0.07475
v 0.195 0 -0.07475
v 0.291383 0.04 0.121598
v -0.035538 0.249601 -0.066527
v -0.01293 0.226603 -0.066527
v 0.114915 0.261601 -0.066527
v 0.07491501 0.261601 -0.066527
v -0.10663 0.329673 -0.066527
v -0.065538 0.249601 -0.066527
v 0.04707 0.226603 -0.066527

vn 0 0 1
vn 0.7071068 0 0.7071068
vn -0.7071068 0 -0.7071068
vn -1 0 0
vn 0 1 0
vn -0.7071122 0 0.7071013
vn 0.7071122 0 -0.7071013
vn -0.7071146 0 -0.707099
vn 0.7071146 0 0.707099
vn 0 -1 0
vn -0.7826082 0 0.6225147
vn 0.7826082 0 -0.6225147
vn 0 0.2062861 0.9784918
vn -0.8762159 0.4819188 0
vn -0.622512 0 -0.7826101
vn 0.622512 0 0.7826101
vn 1 0 0
vn 0.7071068 0 -0.7071068
vn -0.7071068 0 0.7071068
vn 0.8762159 0.4819188 0
vn 0.8477836 0.5303423 0
vn 0 0 -1
vn 0.7131276 0.7010343 0
vn 0.8896847 0.4565756 0
vn -0.7825391 0.6226014 0
vn -0.8859438 0.4637927 0
vn 0 0.2063102 -0.9784867

vt 7.677166 0
vt -7.677166 0
vt 7.677166 3.070866
vt -7.677166 3.070866
vt -0.4065307 1.574803
vt -0.4065307 0
vt -2.926225 1.574803
vt -2.926225 0
vt -2.619173 4.606299
vt -2.619173 14.09768
vt 2.619213 4.606299
vt 2.619213 14.09768
vt 5.685079 -2.619173
vt 5.685079 2.619213
vt 6.832677 -2.619173
vt 6.832677 2.619213
vt 5.71055 0
vt 5.71055 1.574803
vt 9.33258 0
vt 9.33258 1.574803
vt 0.4065938 0
vt 0.4065938 1.574803
vt 2.92626 0
vt 2.92626 1.574803
vt 6.311654 6.886575
vt 3.750473 4.325394
vt 4.529961 8.668267
vt 1.968819 6.107087
vt 8.368243 0
vt 8.368243 1.574803
vt 10.88793 0
vt 10.88793 1.574803
vt 7.677166 2.397735
vt -7.677166 2.397735
vt 6.832677 3.966918
vt -6.832677 3.966918
vt -6.832677 -2.619173
vt -6.832677 2.619213
vt -5.651575 -2.619173
vt -5.651575 2.619213
vt 11.47177 4.787323
vt 9.903229 2.815394
vt 8.637126 7.042087
vt 7.068583 5.070158
vt -2.942913 -1.009028
vt -2.619173 0.7433174
vt 2.942913 -1.009028
vt 2.619213 0.7433174
vt -2.375711 0
vt -5.997751 0
vt -2.375711 1.574803
vt -5.997751 1.574803
vt 2.619173 12.45276
vt 2.619173 4.606299
vt -2.619213 12.45276
vt -2.619213 4.606299
vt -5.7105 0
vt -9.332557 0
vt -5.7105 1.574803
vt -9.332557 1.574803
vt 2.619173 0.7433174
vt -2.619213 0.7433174
vt -6.832677 4.606299
vt 1.85315 8.921378
vt 6.832677 4.606299
vt 4.524212 10.29925
vt 6.832677 12.45276
vt 5.651575 12.45276
vt 2.949409 10.29925
vt -0.5090551 8.921378
vt -2.580236 9.826811
vt -6.832677 14.09768
vt -1.399134 9.826811
vt -4.985433 12.97925
vt -4.198031 12.97925
vt -5.685079 14.09768
vt 2.619173 14.96682
vt 2.619173 13.64758
vt -2.619213 14.96682
vt -2.619213 13.64758
vt -2.942913 0
vt -2.942913 3.070866
vt 2.942913 0
vt 2.942913 3.070866
vt -11.47177 4.787323
vt -8.637126 7.042087
vt -9.903229 2.815394
vt -7.068583 5.070158
vt 2.619173 7.98861
vt 2.619173 6.718946
vt -2.619213 7.98861
vt -2.619213 6.718946
vt -4.524212 -2.619173
vt -4.524212 2.619213
vt -2.949409 -2.619173
vt -2.949409 2.619213
vt 2.619173 13.46416
vt 2.619173 9.920835
vt -2.619213 13.46416
vt -2.619213 9.920835
vt 4.198031 -2.619173
vt 4.198031 2.619213
vt 4.985433 -2.619173
vt 4.985433 2.619213
vt 7.677166 2.942913
vt 7.677166 -2.942913
vt -7.677166 2.942913
vt -7.677166 -2.942913
vt -1.85315 -2.619173
vt -1.85315 2.619213
vt 0.5090551 -2.619173
vt 0.5090551 2.619213
vt 1.399134 -2.619173
vt 1.399134 2.619213
vt 2.580236 -2.619173
vt 2.580236 2.619213
vt -8.368255 1.574803
vt -8.368255 0
vt -10.88794 1.574803
vt -10.88794 0
vt 5.997759 0
vt 2.375719 0
vt 5.997759 1.574803
vt 2.375719 1.574803
vt -2.619173 8.135101
vt -2.619173 9.895874
vt 2.619213 8.135101
vt 2.619213 9.895874
vt -2.619173 11.22285
vt -2.619173 13.6536
vt 2.619213 11.22285
vt 2.619213 13.6536
vt 7.677166 2.397649
vt -7.677166 2.397649
vt 6.832677 3.96684
vt -6.832677 3.96684
vt -6.311654 6.886575
vt -4.529961 8.668267
vt -3.750473 4.325394
vt -1.968819 6.107087
vt 2.580236 9.826811
vt 6.832677 14.09768
vt 0.5090551 8.921378
vt 4.985433 12.97925
vt 5.685079 14.09768
vt 4.198031 12.97925
vt 1.399134 9.826811
vt -1.85315 8.921378
vt -4.524212 10.29925
vt -6.832677 12.45276
vt -2.949409 10.29925
vt -5.651575 12.45276

usemtl stone

f 3/3/1 2/2/1 1/1/1
f 2/2/1 3/3/1 4/4/1
f 7/7/2 6/6/2 5/5/2
f 6/6/2 7/7/2 8/8/2
f 5/5/3 6/6/3 7/7/3
f 8/8/3 7/7/3 6/6/3
f 11/11/4 10/10/4 9/9/4
f 10/10/4 11/11/4 12/12/4
f 10/15/5 14/14/5 13/13/5
f 14/14/5 10/15/5 12/16/5
f 8/19/6 16/18/6 15/17/6
f 16/18/6 8/19/6 7/20/6
f 15/17/7 16/18/7 8/19/7
f 7/20/7 8/19/7 16/18/7
f 15/23/8 18/22/8 17/21/8
f 18/22/8 15/23/8 16/24/8
f 17/21/9 18/22/9 15/23/9
f 16/24/9 15/23/9 18/22/9
f 8/27/10 17/26/10 6/25/10
f 17/26/10 8/27/10 15/28/10
f 6/25/5 17/26/5 8/27/5
f 15/28/5 8/27/5 17/26/5
f 21/31/11 20/30/11 19/29/11
f 20/30/11 21/31/11 22/32/11
f 19/29/12 20/30/12 21/31/12
f 22/32/12 21/31/12 20/30/12
f 23/35/13 4/34/13 3/33/13
f 4/34/13 23/35/13 11/36/13
f 26/39/5 25/38/5 24/37/5
f 25/38/5 26/39/5 27/40/5
f 21/43/10 29/42/10 28/41/10
f 29/42/10 21/43/10 19/44/10
f 28/41/5 29/42/5 21/43/5
f 19/44/5 21/43/5 29/42/5
f 4/47/14 9/46/14 30/45/14
f 9/46/14 4/47/14 11/48/14
f 20/51/15 29/50/15 19/49/15
f 29/50/15 20/51/15 31/52/15
f 19/49/16 29/50/16 20/51/16
f 31/52/16 20/51/16 29/50/16
f 25/55/17 32/54/17 24/53/17
f 32/54/17 25/55/17 23/56/17
f 18/59/18 6/58/18 17/57/18
f 6/58/18 18/59/18 5/60/18
f 17/57/19 6/58/19 18/59/19
f 5/60/19 18/59/19 6/58/19
f 32/61/20 3/45/20 33/47/20
f 3/45/20 32/61/20 23/62/20
f 23/65/1 34/64/1 11/63/1
f 34/64/1 23/65/1 35/66/1
f 35/66/1 23/65/1 25/67/1
f 35/66/1 25/67/1 27/68/1
f 36/69/1 34/64/1 35/66/1
f 37/70/1 11/63/1 34/64/1
f 38/71/1 11/63/1 37/70/1
f 11/63/1 38/71/1 12/72/1
f 38/71/1 37/70/1 39/73/1
f 12/72/1 38/71/1 40/74/1
f 40/74/1 38/71/1 41/75/1
f 12/72/1 40/74/1 14/76/1
f 14/79/21 42/78/21 13/77/21
f 42/78/21 14/79/21 40/80/21
f 30/3/22 44/2/22 43/1/22
f 44/2/22 30/3/22 33/4/22
f 2/83/4 30/82/4 43/81/4
f 30/82/4 2/83/4 4/84/4
f 31/87/5 22/86/5 45/85/5
f 22/86/5 31/87/5 20/88/5
f 45/85/10 22/86/10 31/87/10
f 20/88/10 31/87/10 22/86/10
f 3/82/17 44/83/17 33/84/17
f 44/83/17 3/82/17 1/81/17
f 39/91/23 47/90/23 46/89/23
f 47/90/23 39/91/23 37/92/23
f 49/95/5 35/94/5 48/93/5
f 35/94/5 49/95/5 36/96/5
f 41/99/24 51/98/24 50/97/24
f 51/98/24 41/99/24 38/100/24
f 42/103/5 41/102/5 50/101/5
f 41/102/5 42/103/5 40/104/5
f 2/107/10 44/106/10 1/105/10
f 44/106/10 2/107/10 43/108/10
f 47/111/5 34/110/5 52/109/5
f 34/110/5 47/111/5 37/112/5
f 51/115/5 39/114/5 46/113/5
f 39/114/5 51/115/5 38/116/5
f 45/119/12 29/118/12 31/117/12
f 29/118/12 45/119/12 28/120/12
f 31/117/11 29/118/11 45/119/11
f 28/120/11 45/119/11 29/118/11
f 45/123/16 21/122/16 28/121/16
f 21/122/16 45/123/16 22/124/16
f 28/121/15 21/122/15 45/123/15
f 22/124/15 45/123/15 21/122/15
f 34/127/25 49/126/25 52/125/25
f 49/126/25 34/127/25 36/128/25
f 35/131/26 26/130/26 48/129/26
f 26/130/26 35/131/26 27/132/26
f 9/135/27 33/134/27 30/133/27
f 33/134/27 9/135/27 32/136/27
f 18/139/5 7/138/5 5/137/5
f 7/138/5 18/139/5 16/140/5
f 5/137/10 7/138/10 18/139/10
f 16/140/10 18/139/10 7/138/10
f 9/65/22 51/141/22 32/63/22
f 51/141/22 9/65/22 10/142/22
f 32/63/22 51/141/22 47/143/22
f 51/141/22 10/142/22 42/144/22
f 42/144/22 10/142/22 13/145/22
f 50/146/22 51/141/22 42/144/22
f 46/147/22 47/143/22 51/141/22
f 52/148/22 32/63/22 47/143/22
f 48/149/22 32/63/22 52/148/22
f 32/63/22 48/149/22 24/150/22
f 48/149/22 52/148/22 49/151/22
f 24/150/22 48/149/22 26/152/22

