# Created by Kenney (www.kenney.nl)

mtllib gravestoneFlat.mtl

g gravestoneFlat

v 0.2242 0.136 0.5408
v -0.2242 0.136 0.5408
v 0.21299 0.168 0.51686
v -0.21299 0.168 0.51686
v -0.236 0 -0.566
v -0.236 0.064 -0.566
v -0.236 0 0.566
v -0.236 0.064 0.566
v 0.2242 0.096 0.5408
v -0.2242 0.096 0.5408
v -0.2242 0.096 -0.5408
v -0.2242 0.136 -0.5408
v 0.236 0 -0.566
v 0.236 0.064 -0.566
v 0.2242 0.136 -0.5408
v 0.21299 0.168 -0.51686
v 0 0.32 -0.51686
v 0 0.32 0.51686
v -0.21299 0.272 -0.51686
v -0.21299 0.272 0.51686
v 0.21299 0.272 0.51686
v 0.236 0.064 0.566
v 0.2242 0.096 -0.5408
v -0.21299 0.168 -0.51686
v 0.21299 0.272 -0.51686
v 0.236 0 0.566

vn 0 0.5990387 0.8007201
vn -1 0 0
vn 0 0 1
vn -0.938243 0.3459771 0
vn 0 0 -1
vn 0.9437664 0.3306132 0
vn -0.2198489 0.9755339 0
vn 0.938243 0.3459771 0
vn 0 0.6186886 0.7856363
vn 1 0 0
vn 0 0.6186886 -0.7856363
vn 0.2198489 0.9755339 0
vn -0.9437664 0.3306132 0
vn 0 0.5990387 -0.8007201
vn 0 -1 0

vt 8.826772 -8.467016
vt -8.826772 -8.467016
vt 8.385433 -6.893629
vt -8.385433 -6.893629
vt -22.28346 0
vt -22.28346 2.519685
vt 22.28346 0
vt 22.28346 2.519685
vt 8.826772 3.779528
vt -8.826772 3.779528
vt 8.826772 5.354331
vt -8.826772 5.354331
vt -22.28346 -0.8505136
vt -21.29134 0.4922543
vt 22.28346 -0.8505136
vt 21.29134 0.4922543
vt -21.29134 3.779528
vt -21.29134 5.354331
vt 21.29134 3.779528
vt 21.29134 5.354331
vt 9.291339 0
vt -9.291339 0
vt 9.291339 2.519685
vt -9.291339 2.519685
vt 21.29134 2.13499
vt -21.29134 2.13499
vt 20.34882 3.4699
vt -20.34882 3.4699
vt -20.34882 2.769751
vt 20.34882 2.769751
vt -20.34882 -5.825986
vt 20.34882 -5.825986
vt 8.385433 6.614173
vt -8.385433 6.614173
vt 8.385433 10.70866
vt -8.385433 10.70866
vt 3.552714E-15 12.59842
vt 9.291339 -11.80697
vt -9.291339 -11.80697
vt 8.826772 -10.20337
vt -8.826772 -10.20337
vt -3.552714E-15 12.59842
vt -20.34882 6.614173
vt -20.34882 10.70866
vt 20.34882 6.614173
vt 20.34882 10.70866
vt 9.291339 22.28346
vt 9.291339 -22.28346
vt -9.291339 22.28346
vt -9.291339 -22.28346

usemtl stone

f 3/3/1 2/2/1 1/1/1
f 2/2/1 3/3/1 4/4/1
f 7/7/2 6/6/2 5/5/2
f 6/6/2 7/7/2 8/8/2
f 1/11/3 10/10/3 9/9/3
f 10/10/3 1/11/3 2/12/3
f 8/15/4 11/14/4 6/13/4
f 11/14/4 8/15/4 10/16/4
f 10/19/2 12/18/2 11/17/2
f 12/18/2 10/19/2 2/20/2
f 6/23/5 13/22/5 5/21/5
f 13/22/5 6/23/5 14/24/5
f 16/27/6 1/26/6 15/25/6
f 1/26/6 16/27/6 3/28/6
f 19/31/7 18/30/7 17/29/7
f 18/30/7 19/31/7 20/32/7
f 21/35/3 4/34/3 3/33/3
f 4/34/3 21/35/3 20/36/3
f 20/36/3 21/35/3 18/37/3
f 23/16/8 22/13/8 14/15/8
f 22/13/8 23/16/8 9/14/8
f 9/40/9 8/39/9 22/38/9
f 8/39/9 9/40/9 10/41/9
f 19/35/5 16/34/5 24/33/5
f 16/34/5 19/35/5 25/36/5
f 25/36/5 19/35/5 17/42/5
f 1/18/10 23/19/10 15/20/10
f 23/19/10 1/18/10 9/17/10
f 4/45/2 19/44/2 24/43/2
f 19/44/2 4/45/2 20/46/2
f 11/40/11 14/39/11 6/38/11
f 14/39/11 11/40/11 23/41/11
f 17/30/12 21/31/12 25/32/12
f 21/31/12 17/30/12 18/29/12
f 2/25/13 24/28/13 12/26/13
f 24/28/13 2/25/13 4/27/13
f 24/3/14 15/2/14 12/1/14
f 15/2/14 24/3/14 16/4/14
f 7/49/15 13/48/15 26/47/15
f 13/48/15 7/49/15 5/50/15
f 12/11/5 23/10/5 11/9/5
f 23/10/5 12/11/5 15/12/5
f 21/44/10 16/45/10 25/46/10
f 16/45/10 21/44/10 3/43/10
f 22/23/3 7/22/3 26/21/3
f 7/22/3 22/23/3 8/24/3
f 22/6/10 13/7/10 14/8/10
f 13/7/10 22/6/10 26/5/10

