# Created by Kenney (www.kenney.nl)

mtllib gravestoneRound.mtl

g gravestoneRound

v -0.086775 0.561749 -0.07475
v -0.086775 0.561749 0.07475001
v -0.122718 0.5341679 -0.07475
v -0.122718 0.5341679 0.07475001
v -0.150299 0.498225 -0.07475
v -0.150299 0.498225 0.07475001
v -0.17355 0.41145 -0.07475
v -0.167636 0.456368 -0.07475
v -0.17355 0.41145 0.07475001
v -0.167636 0.456368 0.07475001
v -0.057685 0.511363 0.07475001
v -0.057685 0.511363 0.036528
v -0.081578 0.493028 0.07475001
v -0.081578 0.493028 0.036528
v 0.115867 0.407669 0.036528
v 0.111438 0.44131 0.036528
v 0.115867 0.407669 0.07475001
v 0.111438 0.44131 0.07475001
v 0.099913 0.469135 0.036528
v 0.081578 0.493028 0.036528
v 0.099913 0.469135 0.07475001
v 0.081578 0.493028 0.07475001
v -0.111438 0.44131 0.036528
v -0.115867 0.407669 0.036528
v -0.111438 0.44131 0.07475001
v -0.115867 0.407669 0.07475001
v -0.099913 0.469135 0.036528
v -0.099913 0.469135 0.07475001
v -0.02986 0.522888 0.07475001
v -0.02986 0.522888 0.036528
v -0.115867 0.345753 0.036528
v -0.115867 0.345753 0.06652801
v -0.115867 0.345753 0.07475001
v -0.115867 0.117 0.06652801
v -0.115867 0 0.07475001
v -0.115867 0 0.016528
v -0.115867 0.345753 0.016528
v -0.115867 0.078 0.07475001
v 0.057685 0.511363 0.07475001
v 0.057685 0.511363 0.036528
v 0 0.526819 0.07475001
v 0 0.526819 0.036528
v -0.17355 0.117 0.06652801
v -0.17355 0.345753 0.06652801
v 0.115867 0.345753 0.06652801
v 0.115867 0.117 0.06652801
v 0.115867 0.345753 0.07475001
v 0.115867 0 0.07475001
v 0.115867 0.345753 0.036528
v 0.115867 0.345753 0.016528
v 0.115867 0 0.016528
v 0.115867 0.078 0.07475001
v -0.195 0 0.07475001
v -0.195 0.078 0.07475001
v 0.02986 0.522888 0.07475001
v 0.02986 0.522888 0.036528
v 0.195 0.078 0.07475001
v 0.17355 0.117 0.06652801
v 0.195 0.41145 -0.07475
v 0.195 0.345753 -0.07475
v 0.195 0.41145 0.07475001
v 0.195 0.345753 0.07475001
v 0.17355 0.41145 -0.07475
v 0.17355 0.41145 0.07475001
v -0.195 0.345753 -0.07475
v -0.195 0.41145 -0.07475
v -0.195 0.345753 0.07475001
v -0.195 0.41145 0.07475001
v 0.17355 0.345753 0.06652801
v 0.167636 0.456368 0.07475001
v 0.150299 0.498225 0.07475001
v 0.122718 0.5341679 0.07475001
v 0.086775 0.561749 0.07475001
v 0.044918 0.579086 0.07475001
v -0.044918 0.579086 0.07475001
v 0 0.585 0.07475001
v 0.17355 0.345753 -0.066527
v -0.17355 0.345753 -0.066527
v 0.167636 0.456368 -0.07475
v 0.150299 0.498225 -0.07475
v 0.122718 0.5341679 -0.07475
v 0.086775 0.561749 -0.07475
v -0.044918 0.579086 -0.07475
v 0.044918 0.579086 -0.07475
v 0 0.585 -0.07475
v -0.17355 0.117 -0.066527
v 0.17355 0.117 -0.066527
v 0.195 0 0.07475001
v -0.195 0 -0.07475
v -0.195 0.078 -0.07475
v 0.195 0.078 -0.07475
v 0.195 0 -0.07475

vn -0.5000008 0.8660249 0
vn -0.7071068 0.7071068 0
vn -0.8660249 0.5000008 0
vn -0.9914436 0.1305356 0
vn -0.9659265 0.2588164 0
vn 0.5000078 -0.8660209 0
vn 0.7071068 -0.7071068 0
vn -0.9914445 -0.1305285 0
vn -0.9659275 -0.2588128 0
vn -0.8660209 -0.5000078 0
vn -0.7071068 -0.7071068 0
vn 0.9659275 -0.2588128 0
vn 0.9914445 -0.1305285 0
vn 0.8660209 -0.5000078 0
vn 0.2588095 -0.9659284 0
vn 1 0 0
vn -0.5000078 -0.8660209 0
vn 0 -1 0
vn 0 0 1
vn -1 0 0
vn -0.2588095 -0.9659284 0
vn 0 0.2062861 0.9784918
vn 0 1 0
vn 0 0 -1
vn 0 0.2063102 -0.9784867
vn -0.8762159 0.4819188 0
vn 0.8762159 0.4819188 0
vn 0.8660249 0.5000008 0
vn 0.9659265 0.2588164 0
vn 0.9914436 0.1305356 0
vn 0.7071068 0.7071068 0
vn 0.5000008 0.8660249 0
vn 0.2588164 0.9659265 0
vn -0.2588164 0.9659265 0

vt -2.942913 10.7534
vt 2.942913 10.7534
vt -2.942913 8.969707
vt 2.942913 8.969707
vt -2.942913 11.95926
vt -2.942913 13.74295
vt 2.942913 11.95926
vt 2.942913 13.74295
vt -2.942913 15.16831
vt -2.942913 16.952
vt 2.942913 15.16831
vt 2.942913 16.952
vt -2.942913 10.45465
vt -1.43811 10.45465
vt -2.942913 9.26893
vt -1.43811 9.26893
vt -2.942913 14.07411
vt -2.942913 15.85779
vt 2.942913 14.07411
vt 2.942913 15.85779
vt 1.43811 15.31721
vt 1.43811 16.65309
vt 2.942913 15.31721
vt 2.942913 16.65309
vt 1.43811 12.25805
vt 1.43811 13.44377
vt 2.942913 12.25805
vt 2.942913 13.44377
vt -1.43811 16.65309
vt -1.43811 15.31721
vt -2.942913 16.65309
vt -2.942913 15.31721
vt -1.43811 15.55879
vt -1.43811 14.37307
vt -2.942913 15.55879
vt -2.942913 14.37307
vt -1.43811 13.44377
vt -1.43811 12.25805
vt -2.942913 13.44377
vt -2.942913 12.25805
vt -2.942913 6.791577
vt -1.43811 6.791577
vt -2.942913 5.605854
vt -1.43811 5.605854
vt -1.43811 16.04996
vt -1.43811 13.61232
vt -2.942913 16.04996
vt -2.619213 13.61232
vt -2.942913 13.61232
vt -2.619213 4.606299
vt -2.942913 0
vt -0.6507087 0
vt -0.6507087 13.61232
vt -2.942913 3.070866
vt 1.43811 14.37307
vt 1.43811 15.55879
vt 2.942913 14.37307
vt 2.942913 15.55879
vt 2.942913 9.26893
vt 1.43811 9.26893
vt 2.942913 10.45465
vt 1.43811 10.45465
vt -2.942913 2.707134
vt -1.43811 2.707134
vt -2.942913 1.5214
vt -1.43811 1.5214
vt -4.561693 4.606299
vt -6.832677 4.606299
vt -4.561693 13.61232
vt -6.832677 13.61232
vt 2.942913 16.04996
vt 2.619213 13.61232
vt 1.43811 16.04996
vt 2.619213 4.606299
vt 2.942913 13.61232
vt 2.942913 0
vt 1.43811 13.61232
vt 0.6507087 13.61232
vt 0.6507087 0
vt 2.942913 3.070866
vt -4.561693 0
vt -7.677166 0
vt -4.561693 3.070866
vt -7.677166 3.070866
vt 2.942913 1.5214
vt 1.43811 1.5214
vt 2.942913 2.707134
vt 1.43811 2.707134
vt 2.942913 5.605854
vt 1.43811 5.605854
vt 2.942913 6.791577
vt 1.43811 6.791577
vt 7.677166 2.397735
vt 4.561693 2.397735
vt 6.832677 3.966918
vt 4.561693 3.966918
vt 2.942913 16.19882
vt -2.942913 16.19882
vt -7.677166 -2.942913
vt -7.677166 2.942913
vt -6.832677 -2.942913
vt -6.832677 2.942913
vt 6.832677 -2.942913
vt 6.832677 2.942913
vt 7.677166 -2.942913
vt 7.677166 2.942913
vt 6.832677 4.606299
vt 4.561693 4.606299
vt 6.832677 13.61232
vt 4.561693 13.61232
vt 7.677166 13.61232
vt 7.677166 16.19882
vt 4.561693 16.04996
vt 6.832677 16.19882
vt 4.387323 17.37441
vt 6.599843 17.96724
vt 3.933583 18.46988
vt 5.917284 19.61516
vt 3.211732 19.41055
vt 2.271063 20.1324
vt 4.831418 21.03024
vt 1.175591 20.58614
vt 1.421085E-14 20.74091
vt -4.831418 21.03024
vt -1.175591 20.58614
vt -2.271063 20.1324
vt -5.917284 19.61516
vt -3.211732 19.41055
vt -3.933583 18.46988
vt -6.599843 17.96724
vt -4.387323 17.37441
vt -6.832677 16.19882
vt -4.561693 16.04996
vt 3.416339 22.1161
vt -3.416339 22.1161
vt 1.768425 22.79866
vt -1.768425 22.79866
vt 1.421085E-14 23.0315
vt -7.677166 16.19882
vt -7.677166 13.61232
vt 6.832677 2.619213
vt 4.561693 2.942913
vt 4.561693 2.619213
vt 6.832677 -2.619173
vt -6.832677 -2.619173
vt -6.832677 2.619213
vt -4.561693 2.619213
vt -4.561693 2.942913
vt 4.561693 0
vt 4.561693 1.43811
vt 4.561693 0.6507087
vt -4.561693 1.43811
vt -4.561693 0.6507087
vt -1.421085E-14 23.0315
vt 7.677166 0
vt 7.677166 3.070866
vt 4.561693 3.070866
vt 7.677166 2.397649
vt -7.677166 2.397649
vt 6.832677 3.96684
vt -6.832677 3.96684
vt -4.561693 2.397735
vt -7.677166 2.397735
vt -4.561693 3.966918
vt -6.832677 3.966918
vt 2.619173 13.61232
vt 2.619173 4.606299
vt -2.619173 4.606299
vt -2.619173 13.61232
vt -2.942913 -1.009028
vt -2.619173 0.7433174
vt 2.942913 -1.009028
vt 2.619213 0.7433174
vt 2.619173 0.7433174
vt -2.619213 0.7433174
vt 2.942913 5.306854
vt -2.942913 5.306854
vt 2.942913 7.090531
vt -2.942913 7.090531
vt 2.942913 1.222743
vt -2.942913 1.222743
vt 2.942913 3.00643
vt -2.942913 3.00643

usemtl stone

f 3/3/2 2/2/1 1/1/1
f 2/2/1 3/3/2 4/4/2
f 6/7/3 3/6/2 5/5/3
f 3/6/2 6/7/3 4/8/2
f 9/11/4 8/10/5 7/9/4
f 8/10/5 9/11/4 10/12/5
f 13/15/7 12/14/6 11/13/6
f 12/14/6 13/15/7 14/16/7
f 10/19/5 5/18/3 8/17/5
f 5/18/3 10/19/5 6/20/3
f 17/23/8 16/22/9 15/21/8
f 16/22/9 17/23/8 18/24/9
f 21/27/10 20/26/11 19/25/10
f 20/26/11 21/27/10 22/28/11
f 25/31/12 24/30/13 23/29/12
f 24/30/13 25/31/12 26/32/13
f 28/35/14 23/34/12 27/33/14
f 23/34/12 28/35/14 25/36/12
f 13/39/7 27/38/14 14/37/7
f 27/38/14 13/39/7 28/40/14
f 11/43/6 30/42/15 29/41/15
f 30/42/15 11/43/6 12/44/6
f 26/47/16 31/46/16 24/45/16
f 31/46/16 26/47/16 32/48/16
f 32/48/16 26/47/16 33/49/16
f 34/50/16 31/46/16 32/48/16
f 35/51/16 31/46/16 34/50/16
f 36/52/16 31/46/16 35/51/16
f 31/46/16 36/52/16 37/53/16
f 35/51/16 34/50/16 38/54/16
f 18/57/9 19/56/10 16/55/9
f 19/56/10 18/57/9 21/58/10
f 39/61/17 20/60/11 22/59/11
f 20/60/11 39/61/17 40/62/17
f 29/65/15 42/64/18 41/63/18
f 42/64/18 29/65/15 30/66/15
f 32/69/19 43/68/19 34/67/19
f 43/68/19 32/69/19 44/70/19
f 15/73/20 45/72/20 17/71/20
f 45/72/20 15/73/20 46/74/20
f 17/71/20 45/72/20 47/75/20
f 15/73/20 48/76/20 46/74/20
f 49/77/20 48/76/20 15/73/20
f 50/78/20 48/76/20 49/77/20
f 48/76/20 50/78/20 51/79/20
f 46/74/20 48/76/20 52/80/20
f 38/83/19 53/82/19 35/81/19
f 53/82/19 38/83/19 54/84/19
f 41/87/18 56/86/21 55/85/21
f 56/86/21 41/87/18 42/88/18
f 55/91/21 40/90/17 39/89/17
f 40/90/17 55/91/21 56/92/21
f 58/95/22 52/94/22 57/93/22
f 52/94/22 58/95/22 46/96/22
f 61/98/16 60/75/16 59/97/16
f 60/75/16 61/98/16 62/49/16
f 63/101/23 61/100/23 59/99/23
f 61/100/23 63/101/23 64/102/23
f 67/75/20 66/98/20 65/49/20
f 66/98/20 67/75/20 68/97/20
f 66/105/23 9/104/23 7/103/23
f 9/104/23 66/105/23 68/106/23
f 69/109/19 46/108/19 58/107/19
f 46/108/19 69/109/19 45/110/19
f 61/112/19 47/110/19 62/111/19
f 47/110/19 61/112/19 17/113/19
f 17/113/19 61/112/19 64/114/19
f 17/113/19 64/114/19 18/115/19
f 18/115/19 64/114/19 70/116/19
f 18/115/19 70/116/19 21/117/19
f 21/117/19 70/116/19 71/118/19
f 21/117/19 71/118/19 22/119/19
f 22/119/19 71/118/19 39/120/19
f 39/120/19 71/118/19 72/121/19
f 39/120/19 72/121/19 55/122/19
f 55/122/19 72/121/19 41/123/19
f 4/124/19 41/123/19 72/121/19
f 4/124/19 29/125/19 41/123/19
f 4/124/19 11/126/19 29/125/19
f 6/127/19 11/126/19 4/124/19
f 6/127/19 13/128/19 11/126/19
f 6/127/19 28/129/19 13/128/19
f 10/130/19 28/129/19 6/127/19
f 10/130/19 25/131/19 28/129/19
f 9/132/19 25/131/19 10/130/19
f 25/131/19 9/132/19 26/133/19
f 4/124/19 72/121/19 73/134/19
f 4/124/19 73/134/19 2/135/19
f 2/135/19 73/134/19 74/136/19
f 2/135/19 74/136/19 75/137/19
f 75/137/19 74/136/19 76/138/19
f 68/139/19 26/133/19 9/132/19
f 67/140/19 26/133/19 68/139/19
f 26/133/19 67/140/19 33/69/19
f 62/106/18 69/141/18 60/105/18
f 69/141/18 62/106/18 47/142/18
f 69/141/18 47/142/18 45/143/18
f 77/144/18 60/105/18 69/141/18
f 60/105/18 77/144/18 65/99/18
f 65/99/18 77/144/18 78/145/18
f 65/99/18 78/145/18 67/100/18
f 44/146/18 67/100/18 78/145/18
f 32/147/18 67/100/18 44/146/18
f 67/100/18 32/147/18 33/148/18
f 50/110/19 36/81/19 51/149/19
f 36/81/19 50/110/19 37/69/19
f 15/113/19 31/69/19 49/110/19
f 31/69/19 15/113/19 24/133/19
f 24/133/19 15/113/19 16/115/19
f 24/133/19 16/115/19 23/131/19
f 23/131/19 16/115/19 19/117/19
f 23/131/19 19/117/19 27/129/19
f 27/129/19 19/117/19 20/119/19
f 27/129/19 20/119/19 14/128/19
f 14/128/19 20/119/19 40/120/19
f 14/128/19 40/120/19 12/126/19
f 12/126/19 40/120/19 56/122/19
f 12/126/19 56/122/19 30/125/19
f 30/125/19 56/122/19 42/123/19
f 31/152/18 50/151/18 49/150/18
f 50/151/18 31/152/18 37/153/18
f 66/112/24 60/140/24 65/111/24
f 60/140/24 66/112/24 59/139/24
f 59/139/24 66/112/24 7/114/24
f 59/139/24 7/114/24 63/132/24
f 8/116/24 63/132/24 7/114/24
f 63/132/24 8/116/24 79/130/24
f 79/130/24 8/116/24 5/118/24
f 79/130/24 5/118/24 80/127/24
f 80/127/24 5/118/24 3/121/24
f 80/127/24 3/121/24 81/124/24
f 81/124/24 3/121/24 1/134/24
f 81/124/24 1/134/24 82/135/24
f 82/135/24 1/134/24 83/136/24
f 82/135/24 83/136/24 84/137/24
f 84/137/24 83/136/24 85/154/24
f 78/109/24 87/68/24 86/107/24
f 87/68/24 78/109/24 77/70/24
f 57/156/19 48/149/19 88/155/19
f 48/149/19 57/156/19 52/157/19
f 53/76/20 90/54/20 89/51/20
f 90/54/20 53/76/20 54/80/20
f 86/160/25 91/159/25 90/158/25
f 91/159/25 86/160/25 87/161/25
f 34/164/22 54/163/22 38/162/22
f 54/163/22 34/164/22 43/165/22
f 90/156/24 92/82/24 89/155/24
f 92/82/24 90/156/24 91/84/24
f 69/48/16 87/167/16 77/166/16
f 87/167/16 69/48/16 58/50/16
f 57/54/16 92/76/16 91/80/16
f 92/76/16 57/54/16 88/51/16
f 43/74/20 78/169/20 86/168/20
f 78/169/20 43/74/20 44/72/20
f 54/172/26 86/171/26 90/170/26
f 86/171/26 54/172/26 43/173/26
f 87/174/27 57/170/27 91/172/27
f 57/170/27 87/174/27 58/175/27
f 71/18/28 79/19/29 80/20/28
f 79/19/29 71/18/28 70/17/29
f 53/100/18 36/153/18 35/148/18
f 89/99/18 36/153/18 53/100/18
f 89/99/18 51/151/18 36/153/18
f 92/105/18 51/151/18 89/99/18
f 92/105/18 48/142/18 51/151/18
f 48/142/18 92/105/18 88/106/18
f 70/10/29 63/11/30 79/12/29
f 63/11/30 70/10/29 64/9/30
f 72/6/31 80/7/28 81/8/31
f 80/7/28 72/6/31 71/5/28
f 82/2/32 72/3/31 81/4/31
f 72/3/31 82/2/32 73/1/32
f 84/178/33 73/177/32 82/176/32
f 73/177/32 84/178/33 74/179/33
f 85/182/23 74/181/33 84/180/33
f 74/181/33 85/182/23 76/183/23
f 83/181/34 76/182/23 85/183/23
f 76/182/23 83/181/34 75/180/34
f 1/177/1 75/178/34 83/179/34
f 75/178/34 1/177/1 2/176/1

