# Created by Kenney (www.kenney.nl)

mtllib gravestoneDecorative.mtl

g gravestoneDecorative

v 0.195 0.5395 -0.07475
v 0.195 0.494 -0.07475
v 0.195 0.5395 0.07475001
v 0.195 0.494 0.07475001
v 0.17355 0.4615 -0.066527
v 0.17355 0.117 -0.066527
v 0.17355 0.4615 0.06652801
v 0.17355 0.117 0.06652801
v -0.195 0.494 -0.07475
v -0.195 0.494 0.07475001
v -0.17355 0.4615 -0.066527
v -0.17355 0.4615 0.06652801
v -0.143 0.5395 -0.07475
v -0.143 0.5395 0.07475001
v -0.195 0.5395 -0.07475
v -0.195 0.5395 0.07475001
v -0.17355 0.117 -0.066527
v -0.195 0 -0.07475
v 0.195 0 -0.07475
v -0.195 0.078 -0.07475
v 0.195 0.078 -0.07475
v 0.143 0.52 -0.07475
v 0.143 0.52 0.07475001
v 0 0.585 -0.07475
v 0 0.585 0.07475001
v 0.195 0.078 0.07475001
v -0.195 0.078 0.07475001
v -0.17355 0.117 0.06652801
v 0.195 0 0.07475001
v -0.195 0 0.07475001
v 0.143 0.5395 -0.07475
v 0.143 0.5395 0.07475001
v -0.143 0.52 0.07475001
v -0.143 0.52 -0.07475

vn 1 0 0
vn -0.8346094 -0.5508422 0
vn 0 1 0
vn 0 -0.2452859 -0.9694508
vn 0 0 -1
vn 0.413803 0.9103665 0
vn -1 0 0
vn 0 -0.2452579 0.9694578
vn 0 0.2063102 -0.9784867
vn 0 0.2062861 0.9784918
vn 0 0 1
vn -0.8762159 0.4819188 0
vn 0.8346094 -0.5508422 0
vn 0.8762159 0.4819188 0
vn -0.413803 0.9103665 0
vn 0 -1 0

vt 2.942913 21.24016
vt 2.942913 19.44882
vt -2.942913 21.24016
vt -2.942913 19.44882
vt 2.619173 18.16929
vt 2.619173 4.606299
vt -2.619213 18.16929
vt -2.619213 4.606299
vt -2.942913 20.46107
vt 2.942913 20.46107
vt -2.619173 18.92799
vt 2.619213 18.92799
vt 5.629921 -2.942913
vt 5.629921 2.942913
vt 7.677166 -2.942913
vt 7.677166 2.942913
vt 6.832677 18.25668
vt -6.832677 18.25668
vt 7.677166 19.57653
vt -7.677166 19.57653
vt 6.832677 4.606299
vt -6.832677 4.606299
vt 6.832677 18.16929
vt -6.832677 18.16929
vt 7.677166 0
vt -7.677166 0
vt 7.677166 3.070866
vt -7.677166 3.070866
vt 2.942913 3.346265
vt -2.942913 3.346265
vt 2.942913 9.5305
vt -2.942913 9.5305
vt 6.832677 18.25674
vt -6.832677 18.25674
vt 7.677166 19.57658
vt -7.677166 19.57658
vt 7.677166 2.397649
vt -7.677166 2.397649
vt 6.832677 3.96684
vt -6.832677 3.96684
vt 7.677166 2.397735
vt -7.677166 2.397735
vt 6.832677 3.966918
vt -6.832677 3.966918
vt -2.619173 4.606299
vt -2.619173 18.16929
vt 2.619213 4.606299
vt 2.619213 18.16929
vt -2.942913 -1.009028
vt -2.619173 0.7433174
vt 2.942913 -1.009028
vt 2.619213 0.7433174
vt -2.942913 20.47244
vt 2.942913 20.47244
vt 2.619173 18.92799
vt -2.619213 18.92799
vt -7.677166 -2.942913
vt -7.677166 2.942913
vt -5.629921 -2.942913
vt -5.629921 2.942913
vt -7.677166 19.44882
vt 5.629921 20.47244
vt 7.677166 19.44882
vt 7.677166 21.24016
vt 5.629921 21.24016
vt -5.629921 20.47244
vt 0 23.0315
vt -7.677166 21.24016
vt -5.629921 21.24016
vt 2.619173 0.7433174
vt -2.619213 0.7433174
vt -2.942913 0
vt -2.942913 3.070866
vt 2.942913 0
vt 2.942913 3.070866

usemtl stone

f 3/3/1 2/2/1 1/1/1
f 2/2/1 3/3/1 4/4/1
f 7/7/1 6/6/1 5/5/1
f 6/6/1 7/7/1 8/8/1
f 11/11/2 10/10/2 9/9/2
f 10/10/2 11/11/2 12/12/2
f 15/15/3 14/14/3 13/13/3
f 14/14/3 15/15/3 16/16/3
f 9/19/4 5/18/4 11/17/4
f 5/18/4 9/19/4 2/20/4
f 11/23/5 6/22/5 17/21/5
f 6/22/5 11/23/5 5/24/5
f 20/27/5 19/26/5 18/25/5
f 19/26/5 20/27/5 21/28/5
f 24/31/6 23/30/6 22/29/6
f 23/30/6 24/31/6 25/32/6
f 10/2/7 15/3/7 9/4/7
f 15/3/7 10/2/7 16/1/7
f 4/35/8 12/34/8 7/33/8
f 12/34/8 4/35/8 10/36/8
f 17/39/9 21/38/9 20/37/9
f 21/38/9 17/39/9 6/40/9
f 8/43/10 27/42/10 26/41/10
f 27/42/10 8/43/10 28/44/10
f 26/27/11 30/26/11 29/25/11
f 30/26/11 26/27/11 27/28/11
f 7/23/11 28/22/11 8/21/11
f 28/22/11 7/23/11 12/24/11
f 28/47/7 11/46/7 17/45/7
f 11/46/7 28/47/7 12/48/7
f 27/51/12 17/50/12 20/49/12
f 17/50/12 27/51/12 28/52/12
f 23/54/7 31/3/7 22/53/7
f 31/3/7 23/54/7 32/1/7
f 4/9/13 5/55/13 2/10/13
f 5/55/13 4/9/13 7/56/13
f 31/59/3 3/58/3 1/57/3
f 3/58/3 31/59/3 32/60/3
f 4/63/11 23/62/11 10/61/11
f 23/62/11 4/63/11 3/64/11
f 23/62/11 3/64/11 32/65/11
f 33/66/11 10/61/11 23/62/11
f 25/67/11 33/66/11 23/62/11
f 10/61/11 33/66/11 16/68/11
f 16/68/11 33/66/11 14/69/11
f 6/70/14 26/49/14 21/51/14
f 26/49/14 6/70/14 8/71/14
f 34/30/15 25/31/15 24/32/15
f 25/31/15 34/30/15 33/29/15
f 30/74/7 20/73/7 18/72/7
f 20/73/7 30/74/7 27/75/7
f 26/73/1 19/74/1 21/75/1
f 19/74/1 26/73/1 29/72/1
f 9/63/5 34/62/5 2/61/5
f 34/62/5 9/63/5 15/64/5
f 34/62/5 15/64/5 13/65/5
f 22/66/5 2/61/5 34/62/5
f 24/67/5 22/66/5 34/62/5
f 2/61/5 22/66/5 1/68/5
f 1/68/5 22/66/5 31/69/5
f 14/3/1 34/54/1 13/1/1
f 34/54/1 14/3/1 33/53/1
f 30/58/16 19/15/16 29/16/16
f 19/15/16 30/58/16 18/57/16

