# Created by Kenney (www.kenney.nl)

mtllib gravestoneCross.mtl

g gravestoneCross

v -0.05123243 0.7422271 0
v -0.06179894 0.7527573 0
v -0.05123243 0.7860487 0
v -0.07568768 0.7762641 0
v -0.07880875 0.7860487 0
v 0.09173633 0.2542434 0.0614749
v 0.04586771 0.211333 0.0614749
v 0.07980998 0.2697059 0.03147472
v 0.03990499 0.2323731 0.03147472
v 0.06179894 0.9132729 -0.03073745
v 0.06179894 0.9132729 0
v 0.05123242 0.9238029 -0.03073745
v 0.05123242 0.9238029 0
v -0.1559682 0.163836 0.0614749
v 0.1559682 0.163836 0.0614749
v 0.08188342 0.582528 0.0614749
v 0.04205215 0.535031 0.0614749
v -0.04205215 0.535031 0.0614749
v -0.04966415 0.211333 0.0614749
v -0.09173632 0.2542434 0.0614749
v -0.08188341 0.582528 0.0614749
v 0.220769 0 0.145632
v -0.220769 0 0.145632
v 0.220769 0.118326 0.145632
v -0.220769 0.118326 0.145632
v 0.07568769 0.7762641 -0.03073745
v 0.06179894 0.7527573 -0.03073745
v 0.07568769 0.7762641 0
v 0.06179894 0.7527573 0
v -0.07568768 0.889766 -0.03073745
v -0.06179894 0.9132729 -0.03073745
v -0.07568768 0.889766 0
v -0.06179894 0.9132729 0
v 0.07568769 0.889766 -0.03073745
v 0.07880875 0.8799813 -0.03073745
v 0.07568769 0.889766 0
v 0.07880875 0.8799813 0
v -0.03658549 0.5139909 0.03147472
v -0.07980998 0.2697059 0.03147472
v -0.1803743 0.118326 -0.0931717
v 0.1803743 0.118326 -0.0931717
v -0.1803743 0.163836 -0.0931717
v 0.1803743 0.163836 -0.0931717
v 0.05123242 0.9543446 -0.03073745
v 0.05123242 0.9543446 0.03073745
v 0.05123242 0.8799813 0
v 0.05123242 0.8799813 0.03073745
v -0.0432081 0.2323731 0.03147472
v 0.1803743 0.163836 0.09317172
v 0.1559682 0.163836 -0.0614749
v -0.1559682 0.163836 -0.0614749
v -0.1803743 0.163836 0.09317172
v -0.07880875 0.8799813 -0.03073745
v -0.05123243 0.9238029 -0.03073745
v -0.05123243 0.9543446 -0.03073745
v 0.1189795 0.8799813 -0.03073745
v -0.1189795 0.8799813 -0.03073745
v 0.1189795 0.7860487 -0.03073745
v 0.07880875 0.7860487 -0.03073745
v -0.07880875 0.7860487 -0.03073745
v -0.1189795 0.7860487 -0.03073745
v -0.07568768 0.7762641 -0.03073745
v -0.06179894 0.7527573 -0.03073745
v 0.05123242 0.7422271 -0.03073745
v -0.05123243 0.7422271 -0.03073745
v 0.05123242 0.582528 -0.03073745
v -0.05123243 0.582528 -0.03073745
v -0.05123243 0.9543446 0.03073745
v 0.08188342 0.582528 -0.0614749
v -0.220769 0 -0.145632
v 0.220769 0 -0.145632
v -0.220769 0.118326 -0.145632
v 0.220769 0.118326 -0.145632
v -0.08188341 0.582528 -0.0614749
v -0.05123243 0.582528 0.03073745
v 0.05123242 0.582528 0.03073745
v 0.1803743 0.118326 0.09317172
v -0.1803743 0.118326 0.09317172
v -0.05123243 0.8799813 0.03073745
v -0.1189795 0.8799813 0.03073745
v 0.1189795 0.8799813 0.03073745
v -0.1189795 0.7860487 0.03073745
v -0.05123243 0.7860487 0.03073745
v 0.05123242 0.7860487 0.03073745
v 0.1189795 0.7860487 0.03073745
v 0.07880875 0.7860487 0
v -0.05123243 0.9238029 0
v 0.03658549 0.5139909 0.03147472
v 0.05123242 0.7860487 0
v 0.05123242 0.7422271 0
v -0.07880875 0.8799813 0
v -0.05123243 0.8799813 0

vn 0 0 1
vn -0.573336 0.6128511 0.5437822
vn 0.7897531 0.6134249 0
vn 0.7058854 0.708326 0
vn 0.9125927 -0.4088697 0
vn 0.7897531 -0.6134249 0
vn -0.9125927 0.4088697 0
vn -0.7897531 0.6134249 0
vn 0.9125927 0.4088697 0
vn 0.9527067 0.3038913 0
vn 0.9427471 -0.166814 0.2887924
vn 0 0 -1
vn 1 0 0
vn 0 0.8187181 0.5741956
vn 0 1 0
vn -0.9125927 -0.4088697 0
vn -0.9527067 -0.3038913 0
vn 0.9847038 0.1742369 0
vn -1 0 0
vn 0.9527067 -0.3038913 0
vn -0.7058854 0.708326 0
vn 0 -1 0
vn 0 -0.8187181 0.5741956
vn -0.7058854 -0.708326 0
vn -0.7897531 -0.6134249 0
vn -0.9527067 0.3038913 0
vn -0.9847038 0.1742369 0
vn 0.6001477 0.5884125 0.5418428
vn -0.9427471 -0.166814 0.2887924
vn 0.7058854 -0.708326 0

vt -2.017025 29.22154
vt -2.433029 29.63611
vt -2.017025 30.9468
vt -2.97983 30.56158
vt -3.102707 30.9468
vt 4.241454 8.494797
vt 2.99874 6.356855
vt 3.061368 9.265171
vt 1.980227 7.405154
vt 1.210136 23.65717
vt -3.820347E-17 23.65717
vt 1.210136 24.24448
vt -3.167136E-17 24.24448
vt -6.140481 6.450236
vt 1.805815 8.320195
vt 6.140481 6.450236
vt 3.611666 10.00958
vt 3.223756 22.93417
vt 1.655596 21.06421
vt -1.655596 21.06421
vt -1.955282 8.320195
vt -3.611666 10.00958
vt -3.223756 22.93417
vt 8.691693 0
vt -8.691693 0
vt 8.691693 4.658504
vt -8.691693 4.658504
vt 1.210136 27.82788
vt 1.210136 26.75294
vt -6.285736E-30 27.82788
vt -5.132299E-30 26.75294
vt -1.210136 28.64353
vt -1.210136 29.71846
vt -2.659667E-30 28.64353
vt -2.171616E-30 29.71846
vt 1.210136 32.46792
vt 1.210136 32.06358
vt 0 32.46792
vt 0 32.06358
vt -1.606698 19.78313
vt -2.105134 10.02894
vt -2.799047 20.62326
vt -3.371973 9.411532
vt 7.101352 4.658504
vt -7.101352 4.658504
vt 7.101352 6.450236
vt -7.101352 6.450236
vt 1.210136 37.57262
vt 1.210136 36.37019
vt -1.210136 37.57262
vt 0 36.37019
vt 0 34.64494
vt -1.210136 34.64494
vt 1.805815 2.795899
vt -1.955282 2.795899
vt 1.571063 4.238533
vt -1.701106 4.238533
vt -7.101352 3.668178
vt -6.140481 -2.420272
vt -7.101352 -3.668178
vt 7.101352 -3.668178
vt 6.140481 -2.420272
vt 6.140481 2.420272
vt -6.140481 2.420272
vt 7.101352 3.668178
vt 3.102707 34.64494
vt -3.102707 34.64494
vt 2.97983 35.03016
vt -2.97983 35.03016
vt 2.433029 35.95562
vt -2.433029 35.95562
vt 2.017025 36.37019
vt -2.017025 36.37019
vt 2.017025 37.57262
vt -2.017025 37.57262
vt -4.684233 34.64494
vt 4.684233 34.64494
vt -4.684233 30.9468
vt 3.102707 30.9468
vt 4.684233 30.9468
vt 2.97983 30.56158
vt 2.433029 29.63611
vt 2.017025 29.22154
vt -2.017025 22.93417
vt 2.017025 22.93417
vt -2.017025 -1.210136
vt -2.017025 1.210136
vt 2.017025 -1.210136
vt 2.017025 1.210136
vt -1.210136 30.02176
vt -1.210136 30.42611
vt 6.053154E-30 30.02176
vt 6.302763E-30 30.42611
vt 2.420272 22.02167
vt 2.420272 5.281673
vt -2.420272 22.02167
vt -2.420272 5.281673
vt -3.223756 2.420272
vt -3.223756 -2.420272
vt 3.223756 -2.420272
vt 3.223756 2.420272
vt 3.668178 6.450236
vt 3.668178 4.658504
vt -3.668178 6.450236
vt -3.668178 4.658504
vt -8.691693 5.733543
vt -8.691693 -5.733543
vt 8.691693 -5.733543
vt 8.691693 5.733543
vt 2.017025 34.64494
vt -2.017025 34.64494
vt 2.017025 30.9468
vt 1.210136 30.42611
vt 1.210136 30.02176
vt -4.918093E-30 30.42611
vt -4.723321E-30 30.02176
vt -1.210136 24.24448
vt -7.226133E-30 24.24448
vt -1.210136 23.65717
vt -8.716498E-30 23.65717
vt -2.017025 0
vt -4.684233 1.210136
vt -3.102707 0
vt -3.102707 -1.210136
vt -4.684233 -1.210136
vt -1.210136 22.93417
vt -1.210136 29.22154
vt 1.210136 22.93417
vt 0 29.22154
vt 0 30.9468
vt 1.210136 30.9468
vt 5.733543 4.658504
vt 5.733543 0
vt -5.733543 4.658504
vt -5.733543 0
vt 1.655596 14.0765
vt 1.440374 12.63387
vt -1.655596 14.0765
vt -1.440374 12.63387
vt 0 22.05577
vt -1.210136 22.05577
vt 0 22.64308
vt -1.210136 22.64308
vt 4.684233 1.210136
vt 4.684233 -1.210136
vt 3.102707 0
vt 2.017025 0
vt 3.102707 -1.210136
vt 1.210136 34.64494
vt -1.210136 30.9468
vt 1.210136 29.22154
vt -1.210136 26.75294
vt -1.210136 27.82788
vt 2.960683E-30 26.75294
vt 3.626069E-30 27.82788
vt 1.571063 9.148549
vt -1.701106 9.148549
vt 3.142125 10.61834
vt -3.142125 10.61834
vt 1.440374 20.23586
vt -1.440374 20.23586
vt -1.210136 32.06358
vt -1.210136 32.46792
vt -1.210136 36.37019
vt -3.025397 9.469263
vt -2.059724 7.651489
vt -4.216721 8.716386
vt -3.106724 6.626996
vt 2.105134 10.02894
vt 1.606698 19.78313
vt 3.371973 9.411532
vt 2.799047 20.62326
vt 1.210136 29.71846
vt 1.210136 28.64353
vt 0 29.71846
vt 0 28.64353
vt -3.820347E-17 22.64308
vt 1.210136 22.64308
vt -3.167136E-17 22.05577
vt 1.210136 22.05577

usemtl stone

f 3/3/1 2/2/1 1/1/1
f 2/2/1 3/3/1 4/4/1
f 4/4/1 3/3/1 5/5/1
f 8/8/2 7/7/2 6/6/2
f 7/7/2 8/8/2 9/9/2
f 12/12/4 11/11/3 10/10/3
f 11/11/3 12/12/4 13/13/4
f 15/16/1 7/15/1 14/14/1
f 7/15/1 15/16/1 6/17/1
f 6/17/1 15/16/1 16/18/1
f 6/17/1 16/18/1 17/19/1
f 17/19/1 16/18/1 18/20/1
f 19/21/1 14/14/1 7/15/1
f 20/22/1 14/14/1 19/21/1
f 14/14/1 20/22/1 21/23/1
f 21/23/1 20/22/1 18/20/1
f 21/23/1 18/20/1 16/18/1
f 24/26/1 23/25/1 22/24/1
f 23/25/1 24/26/1 25/27/1
f 28/30/5 27/29/6 26/28/5
f 27/29/6 28/30/5 29/31/6
f 32/34/7 31/33/8 30/32/7
f 31/33/8 32/34/7 33/35/8
f 36/38/9 35/37/10 34/36/9
f 35/37/10 36/38/9 37/39/10
f 18/42/11 39/41/11 38/40/11
f 39/41/11 18/42/11 20/43/11
f 42/46/12 41/45/12 40/44/12
f 41/45/12 42/46/12 43/47/12
f 45/50/13 12/49/13 44/48/13
f 12/49/13 45/50/13 13/51/13
f 13/51/13 45/50/13 46/52/13
f 46/52/13 45/50/13 47/53/13
f 9/56/14 19/55/14 7/54/14
f 19/55/14 9/56/14 48/57/14
f 43/60/15 50/59/15 49/58/15
f 50/59/15 43/60/15 42/61/15
f 50/59/15 42/61/15 51/62/15
f 51/62/15 42/61/15 14/63/15
f 15/64/15 49/58/15 50/59/15
f 49/58/15 15/64/15 52/65/15
f 52/65/15 15/64/15 14/63/15
f 52/65/15 14/63/15 42/61/15
f 30/68/12 35/67/12 53/66/12
f 35/67/12 30/68/12 34/69/12
f 34/69/12 30/68/12 31/70/12
f 34/69/12 31/70/12 10/71/12
f 10/71/12 31/70/12 54/72/12
f 10/71/12 54/72/12 12/73/12
f 12/73/12 54/72/12 55/74/12
f 12/73/12 55/74/12 44/75/12
f 56/76/12 53/66/12 35/67/12
f 56/76/12 57/77/12 53/66/12
f 58/78/12 57/77/12 56/76/12
f 59/5/12 57/77/12 58/78/12
f 60/79/12 57/77/12 59/5/12
f 57/77/12 60/79/12 61/80/12
f 26/4/12 60/79/12 59/5/12
f 26/4/12 62/81/12 60/79/12
f 27/2/12 62/81/12 26/4/12
f 27/2/12 63/82/12 62/81/12
f 64/1/12 63/82/12 27/2/12
f 64/1/12 65/83/12 63/82/12
f 66/84/12 65/83/12 64/1/12
f 65/83/12 66/84/12 67/85/12
f 55/88/15 45/87/15 44/86/15
f 45/87/15 55/88/15 68/89/15
f 4/92/16 60/91/17 62/90/16
f 60/91/17 4/92/16 5/93/17
f 16/96/18 50/95/18 69/94/18
f 50/95/18 16/96/18 15/97/18
f 72/26/12 71/25/12 70/24/12
f 71/25/12 72/26/12 73/27/12
f 69/99/15 66/86/15 16/98/15
f 66/86/15 69/99/15 74/100/15
f 66/86/15 74/100/15 67/88/15
f 67/88/15 74/100/15 75/89/15
f 76/87/15 16/98/15 66/86/15
f 16/98/15 76/87/15 21/101/15
f 21/101/15 76/87/15 75/89/15
f 21/101/15 75/89/15 74/100/15
f 49/104/13 41/103/13 43/102/13
f 41/103/13 49/104/13 77/105/13
f 73/107/15 41/60/15 24/106/15
f 41/60/15 73/107/15 72/108/15
f 41/60/15 72/108/15 40/61/15
f 40/61/15 72/108/15 78/65/15
f 77/58/15 24/106/15 41/60/15
f 24/106/15 77/58/15 25/109/15
f 25/109/15 77/58/15 78/65/15
f 25/109/15 78/65/15 72/108/15
f 45/74/1 79/111/1 47/110/1
f 79/111/1 45/74/1 68/75/1
f 80/76/1 47/110/1 79/111/1
f 80/76/1 81/77/1 47/110/1
f 82/78/1 81/77/1 80/76/1
f 83/3/1 81/77/1 82/78/1
f 84/112/1 81/77/1 83/3/1
f 81/77/1 84/112/1 85/80/1
f 75/84/1 84/112/1 83/3/1
f 84/112/1 75/84/1 76/85/1
f 78/103/19 42/104/19 40/105/19
f 42/104/19 78/103/19 52/102/19
f 86/115/20 26/114/5 59/113/20
f 26/114/5 86/115/20 28/116/5
f 31/119/8 87/118/21 54/117/21
f 87/118/21 31/119/8 33/120/8
f 82/122/22 3/121/22 83/87/22
f 3/121/22 82/122/22 5/123/22
f 5/123/22 82/122/22 60/124/22
f 60/124/22 82/122/22 61/125/22
f 75/128/19 65/127/19 67/126/19
f 65/127/19 75/128/19 1/129/19
f 1/129/19 75/128/19 3/130/19
f 3/130/19 75/128/19 83/131/19
f 24/134/13 71/133/13 73/132/13
f 71/133/13 24/134/13 22/135/13
f 18/138/23 88/137/23 17/136/23
f 88/137/23 18/138/23 38/139/23
f 2/142/25 65/141/24 1/140/24
f 65/141/24 2/142/25 63/143/25
f 84/89/22 58/145/22 85/144/22
f 58/145/22 84/89/22 86/146/22
f 86/146/22 84/89/22 89/147/22
f 59/148/22 58/145/22 86/146/22
f 81/53/13 58/131/13 56/149/13
f 58/131/13 81/53/13 85/150/13
f 23/133/19 72/134/19 70/135/19
f 72/134/19 23/133/19 25/132/19
f 84/150/13 90/129/13 89/130/13
f 76/126/13 90/129/13 84/150/13
f 66/128/13 90/129/13 76/126/13
f 90/129/13 66/128/13 64/151/13
f 35/124/15 81/122/15 56/125/15
f 81/122/15 35/124/15 37/123/15
f 81/122/15 37/123/15 47/87/15
f 47/87/15 37/123/15 46/121/15
f 57/145/15 91/146/15 53/148/15
f 80/144/15 91/146/15 57/145/15
f 79/89/15 91/146/15 80/144/15
f 91/146/15 79/89/15 92/147/15
f 2/154/25 62/153/16 63/152/25
f 62/153/16 2/154/25 4/155/16
f 23/106/22 71/108/22 22/109/22
f 71/108/22 23/106/22 70/107/22
f 36/68/1 46/110/1 37/66/1
f 46/110/1 36/68/1 13/72/1
f 13/72/1 36/68/1 11/70/1
f 8/158/1 48/157/1 9/156/1
f 48/157/1 8/158/1 39/159/1
f 39/159/1 8/158/1 88/160/1
f 39/159/1 88/160/1 38/161/1
f 91/39/26 30/163/7 53/162/26
f 30/163/7 91/39/26 32/38/7
f 14/95/27 74/96/27 51/97/27
f 74/96/27 14/95/27 21/94/27
f 49/46/1 78/45/1 77/44/1
f 78/45/1 49/46/1 52/47/1
f 29/82/1 89/112/1 90/83/1
f 89/112/1 29/82/1 28/81/1
f 89/112/1 28/81/1 86/79/1
f 79/149/19 87/51/19 92/52/19
f 68/48/19 87/51/19 79/149/19
f 55/50/19 87/51/19 68/48/19
f 87/51/19 55/50/19 54/164/19
f 82/131/19 57/53/19 61/150/19
f 57/53/19 82/131/19 80/149/19
f 20/167/28 48/166/28 39/165/28
f 48/166/28 20/167/28 19/168/28
f 6/171/29 88/170/29 8/169/29
f 88/170/29 6/171/29 17/172/29
f 11/175/3 34/174/9 10/173/3
f 34/174/9 11/175/3 36/176/9
f 90/179/30 27/178/6 29/177/6
f 27/178/6 90/179/30 64/180/30
f 87/73/1 91/67/1 92/111/1
f 91/67/1 87/73/1 32/69/1
f 32/69/1 87/73/1 33/71/1
f 74/18/12 50/14/12 51/16/12
f 50/14/12 74/18/12 69/23/12

