# Created by Kenney (www.kenney.nl)

mtllib gravestoneWide.mtl

g gravestoneWide

v 0.05904454 0.4873511 -0.06734785
v 0.05904454 0.4873511 0.06734785
v 0 0.4897 -0.06734785
v 0 0.4897 0.06734785
v 0.2671654 0.3594938 0.05074786
v 0.2671654 0.3594938 0.03414786
v 0.2590712 0.3632777 0.05074786
v 0.2590712 0.3632777 0.03414786
v 0.2877942 0.1365483 0.05074786
v 0.2877942 0.1365483 0.06734785
v -0.287795 0.1365483 0.05074786
v -0.287795 0.1365483 0.06734785
v -0.1756446 0.468652 -0.06734785
v -0.1756446 0.468652 0.06734785
v -0.2324631 0.4524189 -0.06734785
v -0.2324631 0.4524189 0.06734785
v -0.05904454 0.4873511 -0.06734785
v -0.05904454 0.4873511 0.06734785
v -0.1177164 0.480321 -0.06734785
v -0.1177164 0.480321 0.06734785
v 0.3933113 0 0.1079
v -0.3933113 0 0.1079
v 0.3933113 0.0581 0.1079
v -0.3933113 0.0581 0.1079
v 0.2092488 0.3819054 0.05074786
v 0.2092488 0.3819054 0.03414786
v -0.1059611 0.4070204 0.05074786
v -0.1059611 0.4070204 0.03414786
v -0.1581042 0.3965175 0.05074786
v -0.1581042 0.3965175 0.03414786
v -0.2671654 0.3594938 0.03414786
v -0.2671654 0.1571779 0.03414786
v -0.2671654 0.3594938 0.05074786
v -0.2671654 0.1571779 0.05074786
v -0.2878116 0.4317254 -0.06734785
v -0.2878116 0.4317254 0.06734785
v -0.3413433 0.4067 -0.06734785
v -0.3413433 0.4067 0.06734785
v 0.3413433 0.4067 -0.06734785
v 0.3413433 0.083 -0.06734785
v 0.3413433 0.4067 0.06734785
v 0.3413433 0.083 0.06734785
v -0.3933113 0.0581 -0.1079
v 0.3933113 0.0581 -0.1079
v -0.3775786 0.083 -0.103584
v 0.3775786 0.083 -0.103584
v -0.3413433 0.083 0.06734785
v 0.2877942 0.3726227 0.06734785
v 0.2670641 0.3823138 0.06734785
v 0.2157045 0.4015158 0.06734785
v 0.1629821 0.4165787 0.06734785
v 0.2878125 0.4317254 0.06734785
v 0.1092305 0.427406 0.06734785
v 0.0547883 0.4339298 0.06734785
v 0.2324631 0.4524189 0.06734785
v 0 0.4361094 0.06734785
v -0.287795 0.3726227 0.06734785
v -0.2670641 0.3823138 0.06734785
v -0.2157045 0.4015158 0.06734785
v -0.1629821 0.4165787 0.06734785
v -0.1092305 0.427406 0.06734785
v -0.0547883 0.4339298 0.06734785
v 0.1756446 0.468652 0.06734785
v 0.1177164 0.480321 0.06734785
v 0.2671654 0.1571779 0.03414786
v 0.2671654 0.1571779 0.05074786
v 0.1581042 0.3965175 0.05074786
v 0.1581042 0.3965175 0.03414786
v 0.1059611 0.4070204 0.05074786
v 0.1059611 0.4070204 0.03414786
v 0.2878125 0.4317254 -0.06734785
v 0.2877942 0.3726227 0.05074786
v -0.3775786 0.083 0.103584
v 0.2157045 0.4015158 0.05074786
v 0.1629821 0.4165787 0.05074786
v -0.3933113 0 -0.1079
v 0.3933113 0 -0.1079
v -0.1629821 0.4165787 0.05074786
v -0.2157045 0.4015158 0.05074786
v 0.1177164 0.480321 -0.06734785
v 0.2670641 0.3823138 0.05074786
v 0.1756446 0.468652 -0.06734785
v 0.2324631 0.4524189 -0.06734785
v 0.1092305 0.427406 0.05074786
v 0.0547883 0.4339298 0.05074786
v 0.3775786 0.083 0.103584
v -0.2092488 0.3819054 0.05074786
v -0.2092488 0.3819054 0.03414786
v -0.2590712 0.3632777 0.05074786
v -0.2590712 0.3632777 0.03414786
v 0 0.4361094 0.05074786
v -0.0547883 0.4339298 0.05074786
v -0.3413433 0.083 -0.06734785
v 0.05314822 0.4133491 0.05074786
v 0.05314822 0.4133491 0.03414786
v 0 0.4154631 0.05074786
v 0 0.4154631 0.03414786
v -0.287795 0.3726227 0.05074786
v -0.2670641 0.3823138 0.05074786
v -0.05314822 0.4133491 0.05074786
v -0.1092305 0.427406 0.05074786
v -0.05314822 0.4133491 0.03414786

vn 0.07942275 0.9968411 0
vn 0 1 0
vn -0.4235007 -0.9058958 0
vn -0.3871588 -0.922013 0
vn -0.2362776 0.9716855 0
vn -0.3127026 0.9498511 0
vn -0.07942275 0.9968411 0
vn -0.158346 0.9873837 0
vn 0 0 1
vn -0.3127049 -0.9498503 0
vn 0.1583448 -0.9873838 0
vn 0.2362708 -0.9716873 0
vn 1 0 0
vn -0.3871541 0.922015 0
vn -0.4234951 0.9058984 0
vn 0 0.1707867 -0.985308
vn -0.2362708 -0.9716873 0
vn -0.1583448 -0.9873838 0
vn 0.4235005 0.9058959 0
vn 0.3871546 0.9220148 0
vn -1 0 0
vn -0.8453918 0.5341467 0
vn -0.3127012 -0.9498515 0
vn -0.2362746 -0.9716864 0
vn 0 0 -1
vn 0.2362746 -0.9716864 0
vn 0.3127012 -0.9498515 0
vn 0.158346 0.9873837 0
vn 0 -1 0
vn -0.3871541 -0.922015 0
vn -0.4234969 -0.9058976 0
vn 0.2362776 0.9716855 0
vn 0.3127003 0.9498519 0
vn -0.1583478 -0.9873834 0
vn -0.07942729 -0.9968407 0
vn 0 0.1707867 0.985308
vn 0.3127049 -0.9498503 0
vn 0.3871588 -0.922013 0
vn 0.07942729 -0.9968407 0
vn 0.4235007 -0.9058958 0
vn -0.079426 -0.9968408 0
vn 0.079426 -0.9968408 0
vn 0.387147 -0.922018 0
vn 0.423483 -0.9059041 0
vn 0.8453918 0.5341467 0
vn 0.1583478 -0.9873834 0

vt 2.65149 -1.560058
vt -2.65149 -1.560058
vt 2.65149 0.7663687
vt -2.65149 0.7663687
vt 1.997947 -3.534572
vt 1.344404 -3.534572
vt 1.997947 -3.182801
vt 1.344404 -3.182801
vt -11.33048 1.997947
vt -11.33048 2.65149
vt 11.33051 1.997947
vt 11.33051 2.65149
vt -2.65149 -1.580459
vt 2.65149 -1.580459
vt -2.65149 -3.906912
vt 2.65149 -3.906912
vt -2.65149 -0.02540207
vt 2.65149 -0.02540207
vt -2.65149 -2.351841
vt 2.65149 -2.351841
vt 15.4847 0
vt -15.4847 0
vt 15.4847 2.287402
vt -15.4847 2.287402
vt 1.997947 -4.545015
vt 1.344404 -4.545015
vt 1.997947 -2.450888
vt 1.344404 -2.450888
vt -1.997947 -0.9254231
vt -1.344404 -0.9254231
vt -1.997947 -3.019531
vt -1.344404 -3.019531
vt -1.344404 14.1533
vt -1.344404 6.188107
vt -1.997947 14.1533
vt -1.997947 6.188107
vt -2.65149 -3.066713
vt 2.65149 -3.066713
vt -2.65149 -5.393184
vt 2.65149 -5.393184
vt 2.65149 16.01181
vt 2.65149 3.267717
vt -2.65149 16.01181
vt -2.65149 3.267717
vt 15.4847 1.528288
vt -15.4847 1.528288
vt 14.8653 2.52322
vt -14.8653 2.52322
vt -13.43871 3.267717
vt 11.33048 5.375916
vt 13.43871 3.267717
vt 13.43871 16.01181
vt 11.33048 14.67019
vt 10.51434 15.05172
vt 8.492305 15.80771
vt 6.416619 16.40073
vt 11.3312 16.99706
vt 4.300413 16.82701
vt 2.15702 17.08385
vt 9.15209 17.81177
vt -5.05966E-33 17.16966
vt -11.33051 5.375916
vt -13.43871 16.01181
vt -11.33051 14.67019
vt -10.51434 15.05172
vt -8.492305 15.80771
vt -6.416619 16.40073
vt -11.33117 16.99706
vt -4.300413 16.82701
vt -2.15702 17.08385
vt -9.15209 17.81177
vt 6.915142 18.45087
vt -6.915142 18.45087
vt 4.634504 18.91028
vt -4.634504 18.91028
vt 2.324588 19.18705
vt -2.324588 19.18705
vt -5.05966E-33 19.27953
vt -10.51832 1.344404
vt -10.51832 1.997947
vt 10.51832 1.344404
vt 10.51832 1.997947
vt 1.997947 -3.019531
vt 1.344404 -3.019531
vt 1.997947 -0.9254231
vt 1.344404 -0.9254231
vt 2.65149 -5.393064
vt -2.65149 -5.393064
vt 2.65149 -3.066622
vt -2.65149 -3.066622
vt 1.997947 5.375916
vt 1.997947 14.67019
vt 2.65149 5.375916
vt 2.65149 14.67019
vt -4.248032 -6.337349
vt -4.07811 -5.177751
vt 4.248032 -6.337349
vt 4.07811 -5.177751
vt 2.65149 -3.823062
vt 1.997947 -3.823062
vt 2.65149 -1.664323
vt 1.997947 -1.664323
vt -2.65149 -1.664323
vt -1.997947 -1.664323
vt -2.65149 -3.823062
vt -1.997947 -3.823062
vt 15.4847 4.248032
vt 15.4847 -4.248032
vt -15.4847 4.248032
vt -15.4847 -4.248032
vt -2.65149 -0.8089957
vt 2.65149 -0.8089957
vt -2.65149 -3.135444
vt 2.65149 -3.135444
vt 2.65149 -4.577415
vt 1.997947 -4.577415
vt 2.65149 -2.418683
vt 1.997947 -2.418683
vt 2.65149 -4.051476
vt 1.997947 -4.051476
vt 2.65149 -3.150552
vt 1.997947 -3.150552
vt 2.65149 -2.267811
vt 1.997947 -2.267811
vt 2.65149 -0.1090839
vt 1.997947 -0.1090839
vt -1.997947 -2.450888
vt -1.344404 -2.450888
vt -1.997947 -4.545015
vt -1.344404 -4.545015
vt -2.65149 -2.334826
vt 2.65149 -2.334826
vt -2.65149 -4.661223
vt 2.65149 -4.661223
vt -2.65149 0.6825011
vt -1.997947 0.6825011
vt -2.65149 -1.476225
vt -1.997947 -1.476225
vt -1.997947 -3.182801
vt -1.344404 -3.182801
vt -1.997947 -3.534572
vt -1.344404 -3.534572
vt 1.997947 -3.79074
vt 1.344404 -3.79074
vt 1.997947 -1.696606
vt 1.344404 -1.696606
vt 1.997947 -1.444014
vt 1.344404 -1.444014
vt 1.997947 0.6500905
vt 1.344404 0.6500905
vt 11.33117 16.99706
vt -11.3312 16.99706
vt 0 19.27953
vt 10.51832 6.188107
vt 10.51832 14.1533
vt 10.19965 14.30227
vt 8.238142 15.03565
vt 6.224575 15.61093
vt 4.171698 16.02442
vt 2.09245 16.27359
vt 0 16.35682
vt -10.51832 6.188107
vt -10.51832 14.1533
vt -10.19965 14.30227
vt -8.238142 15.03565
vt -6.224575 15.61093
vt -4.171698 16.02442
vt -2.09245 16.27359
vt 0 17.16966
vt -4.248032 0
vt -4.248032 2.287402
vt 4.248032 0
vt 4.248032 2.287402
vt 1.997947 -2.235443
vt 1.344404 -2.235443
vt 1.997947 -0.141319
vt 1.344404 -0.141319
vt -1.997947 -0.141319
vt -1.344404 -0.141319
vt -1.997947 -2.235443
vt -1.344404 -2.235443
vt -1.997947 14.67019
vt -1.997947 5.375916
vt -2.65149 14.67019
vt -2.65149 5.375916
vt -2.65149 -3.15083
vt -1.997947 -3.15083
vt -2.65149 -4.051783
vt -1.997947 -4.051783
vt 2.65149 -1.476225
vt 1.997947 -1.476225
vt 2.65149 0.6825011
vt 1.997947 0.6825011
vt -2.65149 -0.8929629
vt -1.997947 -0.8929629
vt -2.65149 -3.051675
vt -1.997947 -3.051675
vt -2.65149 -2.418683
vt -1.997947 -2.418683
vt -2.65149 -4.577415
vt -1.997947 -4.577415
vt 2.65149 -3.051675
vt 1.997947 -3.051675
vt 2.65149 -0.8929629
vt 1.997947 -0.8929629
vt -1.997947 0.6500905
vt -1.344404 0.6500905
vt -1.997947 -1.444014
vt -1.344404 -1.444014
vt -1.997947 -1.696606
vt -1.344404 -1.696606
vt -1.997947 -3.79074
vt -1.344404 -3.79074
vt 2.65149 -4.661352
vt -2.65149 -4.661352
vt 2.65149 -2.334924
vt -2.65149 -2.334924
vt 1.344404 6.188107
vt 1.344404 14.1533
vt 1.997947 6.188107
vt 1.997947 14.1533
vt -2.65149 -0.1090839
vt -1.997947 -0.1090839
vt -2.65149 -2.267811
vt -1.997947 -2.267811
vt -14.8653 4.07811
vt -13.43871 -2.65149
vt -14.8653 -4.07811
vt 14.8653 -4.07811
vt 13.43871 -2.65149
vt 13.43871 2.65149
vt -13.43871 2.65149
vt 14.8653 4.07811

usemtl stone

f 3/3/2 2/2/1 1/1/1
f 2/2/1 3/3/2 4/4/2
f 7/7/4 6/6/3 5/5/3
f 6/6/3 7/7/4 8/8/4
f 11/11/2 10/10/2 9/9/2
f 10/10/2 11/11/2 12/12/2
f 15/15/6 14/14/5 13/13/5
f 14/14/5 15/15/6 16/16/6
f 19/19/8 18/18/7 17/17/7
f 18/18/7 19/19/8 20/20/8
f 23/23/9 22/22/9 21/21/9
f 22/22/9 23/23/9 24/24/9
f 25/27/10 8/26/4 7/25/4
f 8/26/4 25/27/10 26/28/10
f 29/31/12 28/30/11 27/29/11
f 28/30/11 29/31/12 30/32/12
f 33/35/13 32/34/13 31/33/13
f 32/34/13 33/35/13 34/36/13
f 37/39/15 36/38/14 35/37/14
f 36/38/14 37/39/15 38/40/15
f 41/43/13 40/42/13 39/41/13
f 40/42/13 41/43/13 42/44/13
f 45/47/16 44/46/16 43/45/16
f 44/46/16 45/47/16 46/48/16
f 42/51/9 10/50/9 47/49/9
f 10/50/9 42/51/9 41/52/9
f 10/50/9 41/52/9 48/53/9
f 48/53/9 41/52/9 49/54/9
f 49/54/9 41/52/9 50/55/9
f 50/55/9 41/52/9 51/56/9
f 51/56/9 41/52/9 52/57/9
f 51/56/9 52/57/9 53/58/9
f 53/58/9 52/57/9 54/59/9
f 54/59/9 52/57/9 55/60/9
f 54/59/9 55/60/9 56/61/9
f 12/62/9 47/49/9 10/50/9
f 47/49/9 12/62/9 38/63/9
f 38/63/9 12/62/9 57/64/9
f 38/63/9 57/64/9 58/65/9
f 38/63/9 58/65/9 59/66/9
f 38/63/9 59/66/9 60/67/9
f 38/63/9 60/67/9 36/68/9
f 36/68/9 60/67/9 61/69/9
f 36/68/9 61/69/9 62/70/9
f 36/68/9 62/70/9 16/71/9
f 16/71/9 62/70/9 56/61/9
f 16/71/9 56/61/9 55/60/9
f 16/71/9 55/60/9 63/72/9
f 16/71/9 63/72/9 14/73/9
f 14/73/9 63/72/9 64/74/9
f 14/73/9 64/74/9 20/75/9
f 20/75/9 64/74/9 2/76/9
f 20/75/9 2/76/9 18/77/9
f 18/77/9 2/76/9 4/78/9
f 17/2/7 4/3/2 3/4/2
f 4/3/2 17/2/7 18/1/7
f 32/81/2 66/80/2 65/79/2
f 66/80/2 32/81/2 34/82/2
f 69/85/18 68/84/17 67/83/17
f 68/84/17 69/85/18 70/86/18
f 71/89/20 41/88/19 39/87/19
f 41/88/19 71/89/20 52/90/20
f 10/93/21 72/92/21 9/91/21
f 72/92/21 10/93/21 48/94/21
f 24/97/22 45/96/22 43/95/22
f 45/96/22 24/97/22 73/98/22
f 51/101/24 74/100/23 50/99/23
f 74/100/23 51/101/24 75/102/24
f 43/23/25 77/22/25 76/21/25
f 77/22/25 43/23/25 44/24/25
f 59/105/27 78/104/26 60/103/26
f 78/104/26 59/105/27 79/106/27
f 1/18/1 64/19/28 80/20/28
f 64/19/28 1/18/1 2/17/1
f 22/109/29 77/108/29 21/107/29
f 77/108/29 22/109/29 76/110/29
f 13/113/5 20/112/8 19/111/8
f 20/112/8 13/113/5 14/114/5
f 50/117/23 81/116/30 49/115/30
f 81/116/30 50/117/23 74/118/23
f 49/121/30 72/120/31 48/119/31
f 72/120/31 49/121/30 81/122/30
f 80/112/28 63/113/32 82/114/32
f 63/113/32 80/112/28 64/111/28
f 82/14/32 55/15/33 83/16/33
f 55/15/33 82/14/32 63/13/32
f 54/125/35 84/124/34 53/123/34
f 84/124/34 54/125/35 85/126/35
f 86/47/36 24/46/36 23/45/36
f 24/46/36 86/47/36 73/48/36
f 89/129/38 88/128/37 87/127/37
f 88/128/37 89/129/38 90/130/38
f 35/133/14 16/132/6 15/131/6
f 16/132/6 35/133/14 36/134/14
f 62/137/39 91/136/29 56/135/29
f 91/136/29 62/137/39 92/138/39
f 33/141/40 90/140/38 89/139/38
f 90/140/38 33/141/40 31/142/40
f 47/42/21 37/43/21 93/44/21
f 37/43/21 47/42/21 38/41/21
f 67/145/17 26/144/10 25/143/10
f 26/144/10 67/145/17 68/146/17
f 96/149/29 95/148/41 94/147/41
f 95/148/41 96/149/29 97/150/29
f 37/52/25 40/49/25 93/51/25
f 40/49/25 37/52/25 39/63/25
f 39/63/25 37/52/25 35/151/25
f 39/63/25 35/151/25 71/152/25
f 71/152/25 35/151/25 15/60/25
f 71/152/25 15/60/25 83/71/25
f 83/71/25 15/60/25 13/72/25
f 83/71/25 13/72/25 82/73/25
f 82/73/25 13/72/25 19/74/25
f 82/73/25 19/74/25 80/75/25
f 80/75/25 19/74/25 17/76/25
f 80/75/25 17/76/25 1/77/25
f 1/77/25 17/76/25 3/153/25
f 9/50/9 66/154/9 11/62/9
f 66/154/9 9/50/9 72/53/9
f 66/154/9 72/53/9 5/155/9
f 5/155/9 72/53/9 7/156/9
f 7/156/9 72/53/9 25/157/9
f 25/157/9 72/53/9 81/54/9
f 25/157/9 81/54/9 67/158/9
f 67/158/9 81/54/9 74/55/9
f 67/158/9 74/55/9 69/159/9
f 69/159/9 74/55/9 75/56/9
f 69/159/9 75/56/9 94/160/9
f 94/160/9 75/56/9 96/161/9
f 34/162/9 11/62/9 66/154/9
f 11/62/9 34/162/9 98/64/9
f 98/64/9 34/162/9 33/163/9
f 98/64/9 33/163/9 89/164/9
f 98/64/9 89/164/9 87/165/9
f 98/64/9 87/165/9 99/65/9
f 99/65/9 87/165/9 29/166/9
f 99/65/9 29/166/9 79/66/9
f 79/66/9 29/166/9 27/167/9
f 79/66/9 27/167/9 78/67/9
f 78/67/9 96/161/9 75/56/9
f 78/67/9 27/167/9 100/168/9
f 78/67/9 100/168/9 96/161/9
f 78/67/9 75/56/9 84/58/9
f 78/67/9 84/58/9 101/69/9
f 101/69/9 84/58/9 85/59/9
f 101/69/9 85/59/9 92/70/9
f 92/70/9 85/59/9 91/169/9
f 22/172/21 43/171/21 76/170/21
f 43/171/21 22/172/21 24/173/21
f 94/176/41 70/175/18 69/174/18
f 70/175/18 94/176/41 95/177/41
f 27/180/11 102/179/42 100/178/42
f 102/179/42 27/180/11 28/181/11
f 57/184/13 11/183/13 98/182/13
f 11/183/13 57/184/13 12/185/13
f 57/188/44 99/187/43 58/186/43
f 99/187/43 57/188/44 98/189/44
f 46/98/45 23/95/45 44/97/45
f 23/95/45 46/98/45 86/96/45
f 56/192/29 85/191/35 54/190/35
f 85/191/35 56/192/29 91/193/29
f 23/171/13 77/172/13 44/173/13
f 77/172/13 23/171/13 21/170/13
f 60/196/26 101/195/46 61/194/46
f 101/195/46 60/196/26 78/197/26
f 58/200/43 79/199/27 59/198/27
f 79/199/27 58/200/43 99/201/43
f 53/204/34 75/203/24 51/202/24
f 75/203/24 53/204/34 84/205/34
f 100/208/42 97/207/29 96/206/29
f 97/207/29 100/208/42 102/209/42
f 87/212/37 30/211/12 29/210/12
f 30/211/12 87/212/37 88/213/37
f 6/155/9 32/162/9 65/154/9
f 32/162/9 6/155/9 31/163/9
f 31/163/9 6/155/9 8/156/9
f 31/163/9 8/156/9 90/164/9
f 90/164/9 8/156/9 26/157/9
f 90/164/9 26/157/9 88/165/9
f 88/165/9 26/157/9 68/158/9
f 88/165/9 68/158/9 30/166/9
f 30/166/9 68/158/9 70/159/9
f 30/166/9 70/159/9 28/167/9
f 28/167/9 70/159/9 95/160/9
f 28/167/9 95/160/9 102/168/9
f 102/168/9 95/160/9 97/161/9
f 83/216/33 52/215/20 71/214/20
f 52/215/20 83/216/33 55/217/33
f 66/220/21 6/219/21 65/218/21
f 6/219/21 66/220/21 5/221/21
f 61/224/46 92/223/39 62/222/39
f 92/223/39 61/224/46 101/225/46
f 46/228/2 40/227/2 86/226/2
f 40/227/2 46/228/2 45/229/2
f 40/227/2 45/229/2 93/230/2
f 93/230/2 45/229/2 47/231/2
f 42/232/2 86/226/2 40/227/2
f 86/226/2 42/232/2 73/233/2
f 73/233/2 42/232/2 47/231/2
f 73/233/2 47/231/2 45/229/2

