# Created by Kenney (www.kenney.nl)

mtllib gravestoneDebris.mtl

g gravestoneDebris

v 0.195 0.078 -0.07475
v 0.195 0.078 0.07475001
v 0.17355 0.117 -0.066527
v 0.17355 0.117 0.06652801
v 0.126613 -0.008222 -0.540613
v -0.073624 -0.008222 -0.565797
v 0.126613 2.819966E-18 -0.540613
v -0.073624 2.819966E-18 -0.565797
v 0.301768 0.141277 -0.45366
v 0.301768 -0.008222 -0.45366
v 0.287722 0.141277 -0.419069
v 0.287722 -0.008222 -0.419069
v 0.287722 0.133055 -0.419069
v 0.287722 2.819966E-18 -0.419069
v -0.17355 0.148512 -0.066527
v 0.025588 0.148512 -0.066527
v -0.090445 0.179112 -0.066527
v -0.17355 0.117 -0.066527
v 0.17355 0.251017 -0.066527
v 0.195 2.819966E-18 -0.07475
v 0.195 2.819966E-18 0.07475001
v -0.059578 -0.008222 -0.600387
v -0.059578 0.141277 -0.600387
v -0.073624 0.141277 -0.565797
v -0.073624 0.133055 -0.565797
v -0.195 2.819966E-18 0.07475001
v -0.195 0.078 0.07475001
v 0.250027 0.133055 -0.406314
v 0.250027 2.819966E-18 -0.406314
v 0.247469 0.133055 -0.376952
v 0.247469 2.819966E-18 -0.376952
v 0.126613 0.133055 -0.540613
v 0.126613 0.141277 -0.540613
v 0.0001490004 2.819966E-18 -0.161158
v -0.095846 2.819966E-18 -0.233164
v 0.0001490004 0.133055 -0.161158
v -0.095846 0.133055 -0.233164
v 0.175805 2.819966E-18 -0.200465
v 0.175805 0.133055 -0.200465
v 0.140659 -0.008222 -0.575203
v 0.140659 0.141277 -0.575203
v -0.055492 2.819966E-18 -0.530372
v -0.055492 0.133055 -0.530372
v -0.17355 0.117 0.06652801
v 0.025588 0.148512 0.06652801
v -0.090445 0.179112 0.06652801
v -0.195 0.078 -0.07475
v 0.17355 0.251017 0.06652801
v -0.17355 0.148512 0.06652801
v -0.195 2.819966E-18 -0.07475
v -0.074129 2.819966E-18 -0.50754
v -0.074129 0.133055 -0.50754
v -0.184358 2.819966E-18 -0.236078
v -0.184358 0.133055 -0.236078

vn 0.8762159 0.4819188 0
vn -0.1247879 0 0.9921834
vn 0.9265282 0 0.3762254
vn 0 0 -1
vn 1 0 0
vn -0.9265243 0 -0.3762348
vn 0 0 1
vn 0.9962265 0 0.08679067
vn -0.6022563 0 0.7983028
vn -0.600052 0 0.799961
vn 0.218372 0 0.9758656
vn 0.6022532 0 -0.7983052
vn -0.8901709 0 0.4556268
vn 0 0.2062861 0.9784918
vn 0.2549998 0.9669411 0
vn -0.8762159 0.4819188 0
vn 0.3205216 0 0.9472412
vn -1 0 0
vn 0 0.2063102 -0.9784867
vn -0.926529 0 -0.3762234
vn -0.7746839 0 -0.6323486
vn 0 1 0
vn -0.3455301 0.9384077 0
vn 0 -1 0
vn 0.1247879 0 -0.9921834
vn -0.569472 0.8220108 0
vn -0.03290426 0 0.9994585
vn 0.9265286 0 0.3762246

vt 2.942913 -1.009028
vt -2.942913 -1.009028
vt 2.619173 0.7433174
vt -2.619213 0.7433174
vt 2.289818 -0.3237008
vt -5.655634 -0.3237008
vt 2.289818 1.110223E-16
vt -5.655634 1.110223E-16
vt 21.01817 5.562087
vt 21.01817 -0.3237008
vt 19.54833 5.562087
vt 19.54833 -0.3237008
vt 19.54833 5.238386
vt 19.54833 8.252738E-17
vt 6.832677 5.846929
vt -1.007402 5.846929
vt 3.560827 7.051653
vt -6.832677 4.606299
vt 6.832677 4.606299
vt -6.832677 9.882559
vt 2.942913 3.070866
vt 2.942913 1.110223E-16
vt -2.942913 3.070866
vt -2.942913 1.110223E-16
vt -21.01803 -0.3237008
vt -21.01803 5.562087
vt -19.54822 -0.3237008
vt -19.54822 5.562087
vt -19.54822 1.066006E-16
vt -19.54822 5.238386
vt 7.677166 1.110223E-16
vt -7.677166 1.110223E-16
vt 7.677166 3.070866
vt -7.677166 3.070866
vt 16.79058 5.238386
vt 16.79058 1.110223E-16
vt 15.63022 5.238386
vt 15.63022 1.110223E-16
vt -0.8936095 5.238386
vt -8.839059 5.238386
vt -0.8936095 5.562087
vt -8.839059 5.562087
vt -3.802519 1.110223E-16
vt -8.526913 1.110223E-16
vt -3.802519 5.238386
vt -8.526913 5.238386
vt 8.477874 1.110223E-16
vt 1.391252 1.110223E-16
vt 8.477874 5.238386
vt 1.391252 5.238386
vt 9.217678 -0.3237008
vt 1.272253 -0.3237008
vt 9.217678 5.562087
vt 1.272253 5.562087
vt -21.14965 1.110223E-16
vt -21.14965 5.238386
vt -19.58289 1.110223E-16
vt -19.58289 5.238386
vt 7.677166 2.397735
vt -7.677166 2.397735
vt 6.832677 3.966918
vt -6.832677 3.966918
vt 2.619173 0.5168681
vt -2.619213 0.5168681
vt 2.619173 5.24128
vt -2.619213 5.24128
vt -2.619173 0.7433174
vt 2.619213 0.7433174
vt 16.01822 1.110223E-16
vt 14.45151 1.110223E-16
vt 16.01822 5.238386
vt 14.45151 5.238386
vt 1.007402 5.846929
vt 6.832677 9.882559
vt -6.832677 5.846929
vt -3.560827 7.051653
vt 2.289818 5.238386
vt -5.655634 5.238386
vt 2.289818 5.562087
vt -5.655634 5.562087
vt -2.619173 4.606299
vt -2.619173 5.846929
vt 2.619213 4.606299
vt 2.619213 5.846929
vt 7.677166 2.397649
vt -7.677166 2.397649
vt 6.832677 3.96684
vt -6.832677 3.96684
vt -17.41581 1.110223E-16
vt -17.41581 5.238386
vt -5.880839 1.110223E-16
vt -5.880839 5.238386
vt -14.7945 1.110223E-16
vt -14.7945 5.238386
vt -13.63416 1.110223E-16
vt -13.63416 5.238386
vt 2.619173 9.882559
vt 2.619173 4.606299
vt -2.619213 9.882559
vt -2.619213 4.606299
vt -11.88063 -17.86063
vt -11.32764 -16.49878
vt -5.537756 -22.64579
vt -4.984764 -21.28398
vt 2.345591 -23.63728
vt 2.898583 -22.27547
vt -2.619173 -0.9049489
vt 2.619213 -0.9049489
vt -2.619173 -4.391547
vt 2.619213 -4.391547
vt 0.005866142 -6.344803
vt -2.184724 -20.88079
vt -3.773465 -9.179685
vt -2.918465 -19.98189
vt -7.258189 -9.29441
vt 4.984764 -21.28398
vt 6.921457 -7.892323
vt 9.742874 -14.84063
vt 9.843583 -15.99661
vt 11.32764 -16.49878
vt -2.898583 -22.27547
vt -0.8936095 -0.3237008
vt -8.839059 -0.3237008
vt -0.8936095 1.110223E-16
vt -8.839059 1.110223E-16
vt 7.677166 2.942913
vt 7.677166 -2.942913
vt -7.677166 2.942913
vt -7.677166 -2.942913
vt 5.276902 -0.3237008
vt -2.66855 -0.3237008
vt 5.276902 5.562087
vt -2.66855 5.562087
vt -2.619173 11.24437
vt 2.619213 11.24437
vt -2.619173 4.157757
vt 2.619213 4.157757
vt -9.843583 -15.99661
vt -9.742874 -14.84063
vt -6.921457 -7.892323
vt -0.005866142 -6.344803
vt 2.184724 -20.88079
vt 3.773465 -9.179685
vt 2.918465 -19.98189
vt 7.258189 -9.29441
vt -4.073472 1.110223E-16
vt -7.560084 1.110223E-16
vt -4.073472 5.238386
vt -7.560084 5.238386
vt 11.88063 -17.86063
vt 5.537756 -22.64579
vt -2.345591 -23.63728
vt 17.41578 5.238386
vt 17.41578 1.110223E-16
vt 9.916484 5.238386
vt 9.916484 1.110223E-16

usemtl stone

f 3/3/1 2/2/1 1/1/1
f 2/2/1 3/3/1 4/4/1
f 7/7/2 6/6/2 5/5/2
f 6/6/2 7/7/2 8/8/2
f 11/11/3 10/10/3 9/9/3
f 10/10/3 11/11/3 12/12/3
f 12/12/3 11/11/3 13/13/3
f 12/12/3 13/13/3 14/14/3
f 17/17/4 16/16/4 15/15/4
f 3/18/4 15/15/4 16/16/4
f 15/15/4 3/18/4 18/19/4
f 3/18/4 16/16/4 19/20/4
f 2/23/5 20/22/5 1/21/5
f 20/22/5 2/23/5 21/24/5
f 6/27/6 23/26/6 22/25/6
f 23/26/6 6/27/6 24/28/6
f 24/28/6 6/27/6 8/29/6
f 24/28/6 8/29/6 25/30/6
f 2/33/7 26/32/7 21/31/7
f 26/32/7 2/33/7 27/34/7
f 30/37/8 29/36/8 28/35/8
f 29/36/8 30/37/8 31/38/8
f 11/41/9 32/40/9 13/39/9
f 32/40/9 11/41/9 33/42/9
f 36/45/10 35/44/10 34/43/10
f 35/44/10 36/45/10 37/46/10
f 39/49/11 34/48/11 38/47/11
f 34/48/11 39/49/11 36/50/11
f 41/53/12 10/52/12 40/51/12
f 10/52/12 41/53/12 9/54/12
f 42/57/13 25/56/13 8/55/13
f 25/56/13 42/57/13 43/58/13
f 4/61/14 27/60/14 2/59/14
f 27/60/14 4/61/14 44/62/14
f 17/65/15 45/64/15 16/63/15
f 45/64/15 17/65/15 46/66/15
f 27/1/16 18/67/16 47/2/16
f 18/67/16 27/1/16 44/68/16
f 13/71/17 29/70/17 14/69/17
f 29/70/17 13/71/17 28/72/17
f 4/19/7 45/73/7 44/18/7
f 45/73/7 4/19/7 48/74/7
f 45/73/7 49/75/7 44/18/7
f 49/75/7 45/73/7 46/76/7
f 26/22/18 47/23/18 50/24/18
f 47/23/18 26/22/18 27/21/18
f 33/79/2 25/78/2 32/77/2
f 25/78/2 33/79/2 24/80/2
f 44/83/18 15/82/18 18/81/18
f 15/82/18 44/83/18 49/84/18
f 18/87/19 1/86/19 47/85/19
f 1/86/19 18/87/19 3/88/19
f 53/91/20 52/90/20 51/89/20
f 52/90/20 53/91/20 54/92/20
f 51/95/21 43/94/21 42/93/21
f 43/94/21 51/95/21 52/96/21
f 48/99/5 3/98/5 19/97/5
f 3/98/5 48/99/5 4/100/5
f 41/103/22 11/102/22 9/101/22
f 11/102/22 41/103/22 33/104/22
f 33/104/22 41/103/22 23/105/22
f 33/104/22 23/105/22 24/106/22
f 47/33/4 20/32/4 50/31/4
f 20/32/4 47/33/4 1/34/4
f 15/109/23 46/108/23 17/107/23
f 46/108/23 15/109/23 49/110/23
f 35/113/24 42/112/24 34/111/24
f 42/112/24 35/113/24 51/114/24
f 51/114/24 35/113/24 53/115/24
f 7/116/24 34/111/24 42/112/24
f 7/116/24 38/117/24 34/111/24
f 7/116/24 31/118/24 38/117/24
f 7/116/24 29/119/24 31/118/24
f 29/119/24 7/116/24 14/120/24
f 7/116/24 42/112/24 8/121/24
f 14/124/9 5/123/9 12/122/9
f 5/123/9 14/124/9 7/125/9
f 26/128/24 20/127/24 21/126/24
f 20/127/24 26/128/24 50/129/24
f 23/132/25 40/131/25 22/130/25
f 40/131/25 23/132/25 41/133/25
f 16/136/26 48/135/26 19/134/26
f 48/135/26 16/136/26 45/137/26
f 32/104/22 28/138/22 13/102/22
f 28/138/22 32/104/22 30/139/22
f 30/139/22 32/104/22 39/140/22
f 39/140/22 32/104/22 36/141/22
f 36/141/22 32/104/22 43/142/22
f 43/142/22 32/104/22 25/106/22
f 43/142/22 37/143/22 36/141/22
f 37/143/22 43/142/22 52/144/22
f 37/143/22 52/144/22 54/145/22
f 37/148/27 53/147/27 35/146/27
f 53/147/27 37/148/27 54/149/27
f 12/120/24 40/151/24 10/150/24
f 40/151/24 12/120/24 5/116/24
f 40/151/24 5/116/24 22/152/24
f 22/152/24 5/116/24 6/121/24
f 39/155/28 31/154/28 30/153/28
f 31/154/28 39/155/28 38/156/28

