# Created by Kenney (www.kenney.nl)

mtllib lanternGlass.mtl

g lanternGlass

v 0.01118679 0.2819499 0.01153693
v 0.01118679 0.2819499 -0.01153693
v -0.01118679 0.2819499 0.01153693
v -0.01118679 0.2819499 -0.01153693
v 0.01118679 0.2623 -0.01153693
v 0.01118679 0.2623 0.01153693
v -0.01636203 0.2922998 -0.01153693
v -0.01636203 0.2922998 0.01153693
v -0.02153727 0.2871251 -0.01153693
v -0.02153727 0.2871251 0.01153693
v 0.06899101 0.0549 -0.04764039
v 0.058316 0.0549 -0.04764039
v 0.06899101 0.2135 -0.04764039
v 0.058316 0.1235247 -0.04764039
v 0.058316 0.1448753 -0.04764039
v 0.058316 0.2135 -0.04764039
v 0.04764039 0.2135 0.06899101
v 0.04764039 0.2135 0.058316
v -0.04764039 0.2135 0.06899101
v -0.04764039 0.2135 0.058316
v -0.068991 0.0549 0.04764039
v -0.058316 0.0549 0.04764039
v -0.068991 0.2135 0.04764039
v -0.058316 0.1235247 0.04764039
v -0.058316 0.1448753 0.04764039
v -0.058316 0.2135 0.04764039
v 0.072956 0 0.072956
v 0.072956 0 -0.072956
v -0.072956 0 0.072956
v -0.072956 0 -0.072956
v -0.072956 0.0366 -0.072956
v 0.072956 0.0366 -0.072956
v -0.068991 0.0549 -0.068991
v 0.06899101 0.0549 -0.068991
v -0.04764039 0.0549 -0.068991
v 0.04764039 0.0549 -0.068991
v -0.05293214 0.244 -0.05293214
v 0.05293214 0.244 -0.05293214
v -0.04763917 0.2623 -0.04763917
v 0.04763917 0.2623 -0.04763917
v 0.06899101 0.0549 0.06899101
v 0.04764039 0.0549 0.06899101
v 0.06899101 0.244 0.06899101
v -0.068991 0.244 0.06899101
v -0.068991 0.0549 0.06899101
v -0.04764039 0.0549 0.06899101
v -0.068991 0.2135 -0.04764039
v -0.068991 0.244 -0.068991
v -0.068991 0.0549 -0.04764039
v 0.058316 0.0549 0.04764039
v 0.06899101 0.0549 0.04764039
v 0.058316 0.1235247 0.04764039
v 0.06899101 0.2135 0.04764039
v 0.058316 0.1448753 0.04764039
v 0.058316 0.2135 0.04764039
v 0.01636203 0.2922998 -0.01153693
v 0.01636203 0.2922998 0.01153693
v 0.05293214 0.244 0.05293214
v -0.05293214 0.244 0.05293214
v 0.04763917 0.2623 0.04763917
v -0.04763917 0.2623 0.04763917
v -0.02153727 0.2623 -0.01153693
v -0.01118679 0.2623 -0.01153693
v 0.02153727 0.2871251 -0.01153693
v 0.02153727 0.2623 -0.01153693
v 0.02153727 0.2871251 0.01153693
v 0.02153727 0.2623 0.01153693
v 0.04764039 0.0549 0.058316
v 0.04764039 0.1235247 0.058316
v 0.04764039 0.1448753 0.058316
v -0.058316 0.2135 -0.04764039
v 0.06899101 0.244 -0.068991
v 0.04764039 0.2135 -0.058316
v 0.04764039 0.2135 -0.068991
v -0.04764039 0.2135 -0.058316
v -0.04764039 0.2135 -0.068991
v -0.058316 0.0549 -0.04764039
v -0.058316 0.1235247 -0.04764039
v -0.058316 0.1448753 -0.04764039
v -0.04764039 0.0549 0.058316
v -0.04764039 0.0549 -0.058316
v -0.04764039 0.1448753 -0.058316
v -0.04764039 0.1235247 -0.058316
v -0.072956 0.0366 0.072956
v -0.04764039 0.1448753 0.058316
v -0.04764039 0.1235247 0.058316
v -0.02153727 0.2623 0.01153693
v -0.01118679 0.2623 0.01153693
v 0.072956 0.0366 0.072956
v 0.04764039 0.0549 -0.058316
v 0.04764039 0.1235247 -0.058316
v 0.04764039 0.1448753 -0.058316

vn 0 -1 0
vn -1 0 0
vn -0.7070651 0.7071484 0
vn 0 0 1
vn 0 0 -1
vn 0 0.2117534 -0.9773232
vn 0 0.2778451 -0.9606259
vn 0 1 0
vn 0 0.2778451 0.9606259
vn 0.9606259 0.2778451 0
vn 1 0 0
vn -0.9773232 0.2117534 0
vn 0.9773232 0.2117534 0
vn -0.9606259 0.2778451 0
vn 0 0.2117534 0.9773232
vn 0.7070651 0.7071484 0

vt 0.4404248 0.4542098
vt 0.4404248 -0.4542098
vt -0.4404248 0.4542098
vt -0.4404248 -0.4542098
vt -0.4542098 10.32677
vt -0.4542098 11.10039
vt 0.4542098 10.32677
vt 0.4542098 11.10039
vt -0.4542098 7.681283
vt 0.4542098 7.681283
vt -0.4542098 7.393155
vt 0.4542098 7.393155
vt 2.716181 2.161417
vt 2.295906 2.161417
vt 2.716181 8.405512
vt 2.295906 4.863177
vt 2.295906 5.703752
vt 2.295906 8.405512
vt 1.875606 2.716181
vt 1.875606 2.295906
vt -1.875606 2.716181
vt -1.875606 2.295906
vt 2.872283 2.872283
vt 2.872283 -2.872283
vt -2.872283 2.872283
vt -2.872283 -2.872283
vt 2.872283 0.8000531
vt -2.872283 0.8000531
vt 2.716181 1.537243
vt -2.716181 1.537243
vt 1.875606 1.537243
vt -1.875606 1.537243
vt 2.083942 8.649047
vt -2.083942 8.649047
vt 1.875558 9.39905
vt -1.875558 9.39905
vt 1.875606 2.161417
vt 2.716181 9.606299
vt 1.875606 8.405512
vt -1.875606 8.405512
vt -2.716181 9.606299
vt -2.716181 2.161417
vt -1.875606 2.161417
vt -2.295906 2.161417
vt -2.295905 4.863177
vt -2.716181 8.405512
vt -2.295905 5.703752
vt -2.295906 8.405512
vt -0.6441744 -0.4542098
vt -0.6441744 0.4542098
vt 0.6441744 -0.4542098
vt 0.6441744 0.4542098
vt 0.847924 10.32677
vt 0.4404248 10.32677
vt 0.847924 11.30414
vt 0.4404248 11.10039
vt -0.4404248 11.10039
vt -0.847924 11.30414
vt -0.847924 10.32677
vt -0.4404248 10.32677
vt 0.6441744 11.50787
vt -0.6441744 11.50787
vt 0.4542098 11.30414
vt -0.4542098 11.30414
vt -2.295906 1.875606
vt -2.295906 -1.875606
vt -2.716181 1.875606
vt -2.716181 -1.875606
vt 2.872283 0
vt -2.872283 0
vt 2.872283 1.440945
vt -2.872283 1.440945
vt 1.875606 -2.295906
vt 1.875606 -2.716181
vt -1.875606 -2.295906
vt -1.875606 -2.716181
vt -2.295906 4.863177
vt -2.295906 5.703752
vt 2.716181 1.875606
vt 2.716181 -1.875606
vt 2.295906 1.875606
vt 2.295906 -1.875606
vt -1.875558 1.875558
vt -0.847924 -0.4542098
vt -1.875558 -1.875558
vt 1.875558 -1.875558
vt 0.847924 -0.4542098
vt 0.847924 0.4542098
vt -0.847924 0.4542098
vt 1.875558 1.875558
vt -2.716181 2.716181
vt -2.083942 -2.083942
vt -2.716181 -2.716181
vt 2.716181 -2.716181
vt 2.083942 -2.083942
vt 2.083942 2.083942
vt -2.083942 2.083942
vt 2.716181 2.716181
vt 1.875606 4.863177
vt -1.875606 4.863177
vt 1.875606 5.703752
vt -1.875606 5.703752
vt -1.875606 5.703752

usemtl metal

f 3/3/1 2/2/1 1/1/1
f 2/2/1 3/3/1 4/4/1
f 6/7/2 2/6/2 5/5/2
f 2/6/2 6/7/2 1/8/2
f 9/11/3 8/10/3 7/9/3
f 8/10/3 9/11/3 10/12/3
f 13/15/4 12/14/4 11/13/4
f 12/14/4 13/15/4 14/16/4
f 14/16/4 13/15/4 15/17/4
f 15/17/4 13/15/4 16/18/4
f 19/21/1 18/20/1 17/19/1
f 18/20/1 19/21/1 20/22/1
f 23/15/5 22/14/5 21/13/5
f 22/14/5 23/15/5 24/16/5
f 24/16/5 23/15/5 25/17/5
f 25/17/5 23/15/5 26/18/5
f 29/25/1 28/24/1 27/23/1
f 28/24/1 29/25/1 30/26/1
f 33/29/6 32/28/6 31/27/6
f 32/28/6 33/29/6 34/30/6
f 34/30/6 33/29/6 35/31/6
f 34/30/6 35/31/6 36/32/6
f 39/35/7 38/34/7 37/33/7
f 38/34/7 39/35/7 40/36/7
f 43/38/4 42/37/4 41/13/4
f 42/37/4 43/38/4 17/39/4
f 17/39/4 43/38/4 19/40/4
f 44/41/4 19/40/4 43/38/4
f 45/42/4 19/40/4 44/41/4
f 19/40/4 45/42/4 46/43/4
f 45/13/2 23/39/2 21/37/2
f 44/38/2 23/39/2 45/13/2
f 44/38/2 47/40/2 23/39/2
f 48/41/2 47/40/2 44/38/2
f 48/41/2 49/43/2 47/40/2
f 49/43/2 48/41/2 33/42/2
f 52/45/5 51/42/5 50/44/5
f 51/42/5 52/45/5 53/46/5
f 53/46/5 52/45/5 54/47/5
f 53/46/5 54/47/5 55/48/5
f 7/51/8 57/50/8 56/49/8
f 57/50/8 7/51/8 8/52/8
f 60/35/9 59/34/9 58/33/9
f 59/34/9 60/35/9 61/36/9
f 9/55/5 63/54/5 62/53/5
f 63/54/5 9/55/5 4/56/5
f 4/56/5 9/55/5 2/57/5
f 64/58/5 2/57/5 9/55/5
f 65/59/5 2/57/5 64/58/5
f 2/57/5 65/59/5 5/60/5
f 64/58/5 9/55/5 7/61/5
f 64/58/5 7/61/5 56/62/5
f 40/35/10 58/34/10 38/33/10
f 58/34/10 40/35/10 60/36/10
f 66/64/11 65/7/11 64/63/11
f 65/7/11 66/64/11 67/5/11
f 42/13/2 69/16/2 68/14/2
f 69/16/2 42/13/2 70/17/2
f 70/17/2 42/13/2 18/18/2
f 18/18/2 42/13/2 17/15/2
f 23/67/1 71/66/1 26/65/1
f 71/66/1 23/67/1 47/68/1
f 31/71/5 28/70/5 30/69/5
f 28/70/5 31/71/5 32/72/5
f 11/37/11 34/13/11 13/39/11
f 72/38/11 13/39/11 34/13/11
f 13/39/11 72/38/11 43/41/11
f 13/39/11 43/41/11 53/40/11
f 53/40/11 43/41/11 51/43/11
f 51/43/11 43/41/11 41/42/11
f 75/75/1 74/74/1 73/73/1
f 74/74/1 75/75/1 76/76/1
f 78/77/4 49/42/4 77/44/4
f 49/42/4 78/77/4 47/46/4
f 47/46/4 78/77/4 79/78/4
f 47/46/4 79/78/4 71/48/4
f 80/20/8 42/21/8 68/22/8
f 42/21/8 80/20/8 46/19/8
f 12/66/8 51/67/8 11/68/8
f 51/67/8 12/66/8 50/65/8
f 75/18/11 35/13/11 76/15/11
f 35/13/11 75/18/11 81/14/11
f 81/14/11 75/18/11 82/17/11
f 81/14/11 82/17/11 83/16/11
f 55/81/1 13/80/1 53/79/1
f 13/80/1 55/81/1 16/82/1
f 29/69/2 31/72/2 30/70/2
f 31/72/2 29/69/2 84/71/2
f 84/27/12 33/30/12 31/28/12
f 33/30/12 84/27/12 49/32/12
f 49/32/12 84/27/12 21/31/12
f 21/31/12 84/27/12 45/29/12
f 19/46/11 85/78/11 20/48/11
f 85/78/11 19/46/11 86/77/11
f 86/77/11 19/46/11 80/44/11
f 80/44/11 19/46/11 46/42/11
f 40/85/8 65/84/8 60/83/8
f 65/84/8 40/85/8 39/86/8
f 65/84/8 39/86/8 5/4/8
f 5/4/8 39/86/8 63/2/8
f 5/4/8 63/2/8 6/3/8
f 63/2/8 39/86/8 62/87/8
f 62/87/8 39/86/8 87/88/8
f 67/89/8 60/83/8 65/84/8
f 60/83/8 67/89/8 61/90/8
f 61/90/8 67/89/8 6/3/8
f 61/90/8 87/88/8 39/86/8
f 61/90/8 6/3/8 88/1/8
f 88/1/8 6/3/8 63/2/8
f 61/90/8 88/1/8 87/88/8
f 34/29/13 89/28/13 32/27/13
f 89/28/13 34/29/13 11/31/13
f 89/28/13 11/31/13 51/32/13
f 89/28/13 51/32/13 41/30/13
f 89/72/11 28/69/11 32/71/11
f 28/69/11 89/72/11 27/70/11
f 49/80/8 22/81/8 77/82/8
f 22/81/8 49/80/8 21/79/8
f 59/33/14 39/36/14 37/34/14
f 39/36/14 59/33/14 61/35/14
f 48/38/5 35/37/5 33/13/5
f 35/37/5 48/38/5 76/39/5
f 76/39/5 48/38/5 74/40/5
f 72/41/5 74/40/5 48/38/5
f 34/42/5 74/40/5 72/41/5
f 74/40/5 34/42/5 36/43/5
f 72/93/8 38/92/8 43/91/8
f 38/92/8 72/93/8 48/94/8
f 38/92/8 48/94/8 37/95/8
f 37/95/8 48/94/8 59/96/8
f 58/97/8 43/91/8 38/92/8
f 43/91/8 58/97/8 44/98/8
f 44/98/8 58/97/8 59/96/8
f 44/98/8 59/96/8 48/94/8
f 89/71/4 29/70/4 27/69/4
f 29/70/4 89/71/4 84/72/4
f 66/55/4 6/54/4 67/53/4
f 6/54/4 66/55/4 1/56/4
f 1/56/4 66/55/4 3/57/4
f 10/58/4 3/57/4 66/55/4
f 87/59/4 3/57/4 10/58/4
f 3/57/4 87/59/4 88/60/4
f 10/58/4 66/55/4 57/61/4
f 10/58/4 57/61/4 8/62/4
f 87/7/2 9/64/2 62/5/2
f 9/64/2 87/7/2 10/63/2
f 90/44/2 74/46/2 36/42/2
f 74/46/2 90/44/2 91/77/2
f 92/78/2 74/46/2 91/77/2
f 74/46/2 92/78/2 73/48/2
f 3/6/11 63/7/11 4/8/11
f 63/7/11 3/6/11 88/5/11
f 35/74/8 90/75/8 36/76/8
f 90/75/8 35/74/8 81/73/8
f 41/29/15 84/28/15 89/27/15
f 84/28/15 41/29/15 45/30/15
f 45/30/15 41/29/15 42/31/15
f 45/30/15 42/31/15 46/32/15
f 56/10/16 66/11/16 64/12/16
f 66/11/16 56/10/16 57/9/16
f 70/101/4 86/100/4 69/99/4
f 86/100/4 70/101/4 85/102/4
f 24/99/2 79/102/2 78/100/2
f 79/102/2 24/99/2 25/101/2
f 82/101/5 91/100/5 83/99/5
f 91/100/5 82/101/5 92/102/5
f 54/103/11 14/99/11 15/101/11
f 14/99/11 54/103/11 52/100/11

usemtl light

f 52/100/11 12/37/11 14/99/11
f 12/37/11 52/100/11 50/43/11
f 69/99/4 80/43/4 68/37/4
f 80/43/4 69/99/4 86/100/4
f 77/43/2 24/99/2 78/100/2
f 24/99/2 77/43/2 22/37/2
f 83/99/5 90/43/5 81/37/5
f 90/43/5 83/99/5 91/100/5
f 18/39/4 85/102/4 70/101/4
f 85/102/4 18/39/4 20/40/4
f 25/101/2 71/40/2 79/102/2
f 71/40/2 25/101/2 26/39/2
f 75/39/5 92/102/5 82/101/5
f 92/102/5 75/39/5 73/40/5
f 55/40/11 15/101/11 16/39/11
f 15/101/11 55/40/11 54/103/11

