# Created by Kenney (www.kenney.nl) 

mtllib lightpost.mtl 

g lightpost

v -0.02690867 0.2283851 -0.04660719 
v -0.01402722 0.2844006 -0.02429586 
v -0.05381734 0.2283851 3.753939E-14 
v -0.02805444 0.2844006 1.732587E-14 
v -0.01402722 0.2844006 0.02429586 
v -0.02690867 0.2283851 0.04660719 
v 0.02690867 0.2283851 -0.04660719 
v 0.05381734 0.2283851 -3.17641E-14 
v 0.01402722 0.2844006 -0.02429586 
v 0.02805444 0.2844006 -1.155058E-14 
v 0.04951195 0.04187697 -3.17641E-14 
v 0.02475598 0.04187697 -0.04287861 
v 0.07061884 0.04187697 -0.07061884 
v -0.07061884 0.04187697 -0.07061884 
v 2.237925E-14 0.04187697 -0.04287861 
v -0.02475598 0.04187697 -0.04287861 
v -0.04951195 0.04187697 4.042704E-14 
v -0.07061884 0.04187697 0.07061884 
v 0.07061884 0.04187697 0.07061884 
v 0.02475598 0.04187697 0.04287861 
v -1.443823E-15 0.04187697 0.04287861 
v -0.02475598 0.04187697 0.04287861 
v 0.02690867 0.2283851 0.04660719 
v 0.01402722 0.2844006 0.02429586 
v 1.443823E-15 0.2283851 0.04660719 
v 2.743263E-14 0.2283851 -0.04660719 
v 0.0354306 0.2844006 -1.155058E-14 
v 0.0177153 0.2844006 0.0306838 
v -0.0177153 0.2844006 0.0306838 
v -0.0354306 0.2844006 3.17641E-14 
v 0.0177153 0.2844006 -0.0306838 
v -0.0177153 0.2844006 -0.0306838 
v 0.1168193 1.198503 -1.38607E-13 
v 0.05840963 1.198503 0.1011685 
v 0.06763221 1.228968 -2.887646E-14 
v 0.03381611 1.228968 0.05857121 
v 0.01816946 1.035887 0.03147043 
v -0.01816946 1.035887 0.03147043 
v 0.01816946 1.056584 0.03147043 
v -0.01816946 1.056584 0.03147043 
v 0.05840963 1.198503 -0.1011685 
v 0.03381611 1.228968 -0.05857121 
v -0.05840963 1.198503 -0.1011685 
v -0.03381611 1.228968 -0.05857121 
v 0.03633892 1.035887 -4.331468E-14 
v 0.01816946 1.035887 -0.03147043 
v 0.02725419 1.035887 0.01573521 
v 0.01703466 1.035887 -2.887646E-15 
v 0.00851733 1.035887 0.01475245 
v -0.00851733 1.035887 0.01475245 
v -0.01703466 1.035887 1.732587E-14 
v 0.00851733 1.035887 -0.01475245 
v -0.01816946 1.035887 -0.03147043 
v -0.00851733 1.035887 -0.01475245 
v -0.02725419 1.035887 -0.01573521 
v -0.03633892 1.035887 4.620233E-14 
v 0.07267784 1.198503 -6.641585E-14 
v 0.03633892 1.198503 0.06294085 
v -0.05840963 1.198503 0.1011685 
v -0.03633892 1.198503 0.06294085 
v -0.07267784 1.198503 1.155058E-13 
v -0.1168193 1.198503 1.963599E-13 
v 0.03633892 1.198503 -0.06294085 
v -0.03633892 1.198503 -0.06294085 
v -0.06763221 1.228968 7.796644E-14 
v -0.03381611 1.228968 0.05857121 
v -0.03633892 1.056584 4.620233E-14 
v -0.01690805 1.281923 -0.02928561 
v 0.01690805 1.281923 -0.02928561 
v 0.01690805 1.281923 0.02928561 
v -0.01690805 1.281923 0.02928561 
v -0.01816946 1.056584 -0.03147043 
v 0.01816946 1.056584 -0.03147043 
v -0.05232804 1.081628 4.908998E-14 
v -0.02616402 1.081628 0.04531742 
v 0.05232804 1.081628 -6.064056E-14 
v 0.03633892 1.056584 -4.331468E-14 
v 0.02616402 1.081628 0.04531742 
v -0.02616402 1.081628 -0.04531742 
v 0.02616402 1.081628 -0.04531742 
v 0.03381611 1.281923 -1.732587E-14 
v -0.03381611 1.281923 3.753939E-14 
v -0.07675961 0 -0.07675961 
v 0.07675961 0 -0.07675961 
v 0.07675961 0 0.07675961 
v -0.07675961 0 0.07675961 
v 0.0354306 0.2979352 -1.155058E-14 
v 0.0177153 0.2979352 0.0306838 
v -0.0177153 0.2979352 -0.0306838 
v 0.0177153 0.2979352 -0.0306838 
v -0.0354306 0.2979352 3.17641E-14 
v -0.0177153 0.2979352 0.0306838 
v -0.01234396 0.3114699 -0.02138036 
v 0.01234396 0.3114699 -0.02138036 
v -0.02468791 0.3114699 1.732587E-14 
v 0.02468791 0.3114699 -1.155058E-14 
v 0.01234396 0.3114699 0.02138036 
v -0.01234396 0.3114699 0.02138036 

vn -0.8045533 0.3700341 -0.4645091 
vn -0.8045533 0.3700341 0.4645091 
vn 0.8045533 0.3700341 -0.4645091 
vn 0 1 0 
vn 0.8045533 0.3700341 0.4645091 
vn 0 0.3700341 0.9290182 
vn 0 0.3700341 -0.9290182 
vn 0 -1 0 
vn 0.5037841 0.8133892 0.2908599 
vn 0 0 1 
vn 0 0.8133892 -0.5817198 
vn -0.5037841 0.8133892 -0.2908599 
vn 0 0.8133892 0.5817198 
vn 0.5037841 0.8133892 -0.2908599 
vn -0.5037841 0.8133892 0.2908599 
vn -0.8660254 0 0.5 
vn 0 0.4839519 -0.8750946 
vn 0 0.4839519 0.8750946 
vn 0 0 -1 
vn -0.7578974 -0.4838615 0.4375723 
vn 0.7578974 -0.4838615 0.4375723 
vn 0.8660254 0 0.5 
vn 0 -0.4838614 -0.8751445 
vn 0.8660254 0 -0.5 
vn 0.7578542 0.483952 -0.4375473 
vn 0 -0.4838614 0.8751445 
vn 0.7578542 0.483952 0.4375473 
vn 0.7578974 -0.4838615 -0.4375723 
vn -0.8660254 0 -0.5 
vn -0.7578974 -0.4838615 -0.4375723 
vn -0.7578542 0.483952 0.4375473 
vn -0.7578542 0.483952 -0.4375473 
vn 0 0.1450867 -0.9894189 
vn 0.8658525 -0.01998749 0.4999002 
vn 0 0.1450867 0.9894189 
vn -0.9894189 0.1450867 0 
vn -0.8658525 -0.01998749 -0.4999002 
vn 0.8658525 -0.01998749 -0.4999002 
vn 0 -0.01998749 0.9998003 
vn -0.8658525 -0.01998749 0.4999002 
vn 0 -0.01998749 -0.9998003 
vn 0.9894189 0.1450867 0 
vn 0 0.5664624 -0.8240876 
vn -0.7136807 0.5664624 -0.4120438 
vn 0.7136807 0.5664624 -0.4120438 
vn 0.7136807 0.5664624 0.4120438 
vn 0 0.5664624 0.8240876 
vn -0.7136807 0.5664624 0.4120438 
vn -0.8659891 0.009148922 -0.4999791 
vn 0 0.009148921 0.9999582 
vn 0.8659891 0.009148922 -0.4999791 
vn 0.8659891 0.009148922 0.4999791 
vn -0.8659891 0.009148922 0.4999791 
vn 0 0.009148921 -0.9999582 
vn -0.8563446 -0.1491035 0.4944108 
vn 0 -0.1491035 0.9888216 
vn 0.8563446 -0.1491035 0.4944108 
vn 0 -0.1491035 -0.9888216 
vn 0.8563446 -0.1491035 -0.4944108 
vn -0.8563446 -0.1491035 -0.4944108 

vt -1.059397 7.674319 
vt -0.5522528 10.04815 
vt 1.059397 7.674319 
vt 0.5522528 10.04815 
vt -1.94929 -1.250555E-12 
vt -0.9746448 -1.688134 
vt -2.780269 -2.780269 
vt 2.780269 -2.780269 
vt -8.81073E-13 -1.688134 
vt 0.9746448 -1.688134 
vt 1.94929 1.591616E-12 
vt 2.780269 2.780269 
vt -2.780269 2.780269 
vt -0.9746448 1.688134 
vt 5.684342E-14 1.688134 
vt 0.9746448 1.688134 
vt -1.077221E-12 7.674319 
vt -2.210816E-12 7.674319 
vt 1.394906 -4.547474E-13 
vt 1.104506 -4.547474E-13 
vt 0.6974528 1.208024 
vt 0.5522528 0.95653 
vt -0.6974528 1.208024 
vt -0.5522528 0.95653 
vt -1.104506 6.82121E-13 
vt -1.394906 1.250555E-12 
vt 0.6974528 -1.208024 
vt 0.5522528 -0.95653 
vt -0.6974528 -1.208024 
vt -0.5522528 -0.95653 
vt 2.299592 24.2088 
vt -2.299592 24.2088 
vt 1.331343 26.27061 
vt -1.331343 26.27061 
vt 0.715333 40.78295 
vt -0.715333 40.78295 
vt 0.715333 41.59778 
vt -0.715333 41.59778 
vt 1.430666 -1.705303E-12 
vt 0.715333 -1.238993 
vt 1.073 0.6194966 
vt 0.715333 1.238993 
vt 0.6706558 -1.136868E-13 
vt 0.3353279 0.580805 
vt -0.715333 1.238993 
vt -0.3353279 0.580805 
vt -0.6706558 6.82121E-13 
vt 0.3353279 -0.580805 
vt -0.715333 -1.238993 
vt -0.3353279 -0.580805 
vt -1.073 -0.6194966 
vt -1.430666 1.818989E-12 
vt 4.599184 -5.456968E-12 
vt 2.861332 -2.614797E-12 
vt 2.299592 3.98301 
vt 1.430666 2.477986 
vt -2.299592 3.98301 
vt -1.430666 2.477986 
vt -2.861332 4.547474E-12 
vt -4.599184 7.730705E-12 
vt 2.299592 -3.98301 
vt 1.430666 -2.477986 
vt -2.299592 -3.98301 
vt -1.430666 -2.477986 
vt 1.331343 41.22509 
vt -1.331343 41.22509 
vt 0.6656714 43.60751 
vt -0.6656714 43.60751 
vt -0.715333 37.00357 
vt -1.03008 38.13025 
vt 0.715333 37.00357 
vt 1.03008 38.13025 
vt 7.132073E-13 40.78295 
vt 9.354739E-13 40.78295 
vt -1.331343 -6.82121E-13 
vt -0.6656714 1.152977 
vt -0.6656714 -1.152977 
vt 0.6656714 1.152977 
vt 0.6656714 -1.152977 
vt 1.331343 1.477929E-12 
vt 3.022032 -0.4384567 
vt -3.022032 -0.4384567 
vt 2.780269 1.227874 
vt -2.780269 1.227874 
vt 1.059397 9.026421 
vt 0.9746448 1.682112 
vt -1.059397 9.026421 
vt -0.9746448 1.682112 
vt -1.092937E-12 1.682112 
vt -1.069346E-12 9.026421 
vt -1.921088E-12 1.682112 
vt -2.210476E-12 9.026421 
vt 0.6974528 11.72973 
vt 0.6974528 11.19687 
vt -0.6974528 11.72973 
vt -0.6974528 11.19687 
vt 0.6974528 8.982027 
vt -0.6974528 8.982027 
vt 0.4859825 9.628633 
vt -0.4859825 9.628633 
vt -0.4859825 12.25438 
vt -0.3353279 40.77592 
vt 0.4859825 12.25438 
vt 0.3353279 40.77592 

usemtl trainGrey

f 2/2/1 1/1/1 3/3/1 
f 3/3/1 4/4/1 2/2/1 
f 5/4/2 4/2/2 3/1/2 
f 3/1/2 6/3/2 5/4/2 
f 8/1/3 7/3/3 9/4/3 
f 9/4/3 10/2/3 8/1/3 
f 12/6/4 11/5/4 13/7/4 
f 13/7/4 14/8/4 12/6/4 
f 14/8/4 15/9/4 12/6/4 
f 14/8/4 16/10/4 15/9/4 
f 14/8/4 17/11/4 16/10/4 
f 14/8/4 18/12/4 17/11/4 
f 19/13/4 13/7/4 11/5/4 
f 20/14/4 18/12/4 19/13/4 
f 19/13/4 11/5/4 20/14/4 
f 20/14/4 21/15/4 18/12/4 
f 21/15/4 22/16/4 18/12/4 
f 22/16/4 17/11/4 18/12/4 
f 23/1/5 8/3/5 10/4/5 
f 10/4/5 24/2/5 23/1/5 
f 25/17/6 23/3/6 24/4/6 
f 24/4/6 6/1/6 25/17/6 
f 24/4/6 5/2/6 6/1/6 
f 26/18/7 1/3/7 2/4/7 
f 2/4/7 7/1/7 26/18/7 
f 2/4/7 9/2/7 7/1/7 
f 10/20/8 27/19/8 28/21/8 
f 28/21/8 24/22/8 10/20/8 
f 28/21/8 29/23/8 24/22/8 
f 29/23/8 5/24/8 24/22/8 
f 29/23/8 4/25/8 5/24/8 
f 29/23/8 30/26/8 4/25/8 
f 31/27/8 27/19/8 10/20/8 
f 10/20/8 9/28/8 31/27/8 
f 9/28/8 32/29/8 31/27/8 
f 4/25/8 30/26/8 32/29/8 
f 9/28/8 2/30/8 32/29/8 
f 2/30/8 4/25/8 32/29/8 
f 34/32/9 33/31/9 35/33/9 
f 35/33/9 36/34/9 34/32/9 
f 38/36/10 37/35/10 39/37/10 
f 39/37/10 40/38/10 38/36/10 
f 42/34/11 41/32/11 43/31/11 
f 43/31/11 44/33/11 42/34/11 
f 46/40/8 45/39/8 47/41/8 
f 47/41/8 37/42/8 46/40/8 
f 37/42/8 48/43/8 46/40/8 
f 37/42/8 49/44/8 48/43/8 
f 37/42/8 38/45/8 49/44/8 
f 38/45/8 50/46/8 49/44/8 
f 38/45/8 51/47/8 50/46/8 
f 46/40/8 48/43/8 52/48/8 
f 52/48/8 53/49/8 46/40/8 
f 51/47/8 38/45/8 53/49/8 
f 52/48/8 54/50/8 53/49/8 
f 54/50/8 51/47/8 53/49/8 
f 38/45/8 55/51/8 53/49/8 
f 38/45/8 56/52/8 55/51/8 
f 57/54/8 33/53/8 34/55/8 
f 34/55/8 58/56/8 57/54/8 
f 34/55/8 59/57/8 58/56/8 
f 59/57/8 60/58/8 58/56/8 
f 59/57/8 61/59/8 60/58/8 
f 59/57/8 62/60/8 61/59/8 
f 41/61/8 33/53/8 57/54/8 
f 57/54/8 63/62/8 41/61/8 
f 63/62/8 43/63/8 41/61/8 
f 61/59/8 62/60/8 43/63/8 
f 63/62/8 64/64/8 43/63/8 
f 64/64/8 61/59/8 43/63/8 
f 65/33/12 44/34/12 43/32/12 
f 43/32/12 62/31/12 65/33/12 
f 59/32/13 34/31/13 36/33/13 
f 36/33/13 66/34/13 59/32/13 
f 35/34/14 33/32/14 41/31/14 
f 41/31/14 42/33/14 35/34/14 
f 59/31/15 66/33/15 65/34/15 
f 65/34/15 62/32/15 59/31/15 
f 67/38/16 56/36/16 38/35/16 
f 38/35/16 40/37/16 67/38/16 
f 42/66/17 44/65/17 68/67/17 
f 68/67/17 69/68/17 42/66/17 
f 66/66/18 36/65/18 70/67/18 
f 70/67/18 71/68/18 66/66/18 
f 46/36/19 53/35/19 72/37/19 
f 72/37/19 73/38/19 46/36/19 
f 74/70/20 67/69/20 40/71/20 
f 40/71/20 75/72/20 74/70/20 
f 77/71/21 76/72/21 78/70/21 
f 78/70/21 39/69/21 77/71/21 
f 45/35/22 77/37/22 39/38/22 
f 39/38/22 47/73/22 45/35/22 
f 39/38/22 37/36/22 47/73/22 
f 73/69/23 72/71/23 79/72/23 
f 79/72/23 80/70/23 73/69/23 
f 46/35/24 73/37/24 77/38/24 
f 77/38/24 45/36/24 46/35/24 
f 35/66/25 42/65/25 69/67/25 
f 69/67/25 81/68/25 35/66/25 
f 40/69/26 39/71/26 78/72/26 
f 78/72/26 75/70/26 40/69/26 
f 36/66/27 35/65/27 81/67/27 
f 81/67/27 70/68/27 36/66/27 
f 73/71/28 80/72/28 76/70/28 
f 76/70/28 77/69/28 73/71/28 
f 72/38/29 53/36/29 55/74/29 
f 55/74/29 67/37/29 72/38/29 
f 55/74/29 56/35/29 67/37/29 
f 74/72/30 79/70/30 72/69/30 
f 72/69/30 67/71/30 74/72/30 
f 71/67/31 82/68/31 65/66/31 
f 65/66/31 66/65/31 71/67/31 
f 68/68/32 44/66/32 65/65/32 
f 65/65/32 82/67/32 68/68/32 
f 70/76/4 81/75/4 69/77/4 
f 69/77/4 71/78/4 70/76/4 
f 69/77/4 68/79/4 71/78/4 
f 68/79/4 82/80/4 71/78/4 
f 84/82/33 83/81/33 14/83/33 
f 14/83/33 13/84/33 84/82/33 
f 11/86/34 8/85/34 23/87/34 
f 23/87/34 20/88/34 11/86/34 
f 86/82/35 85/81/35 19/83/35 
f 19/83/35 18/84/35 86/82/35 
f 14/84/36 83/82/36 86/81/36 
f 86/81/36 18/83/36 14/84/36 
f 3/85/37 1/87/37 16/88/37 
f 16/88/37 17/86/37 3/85/37 
f 12/86/38 7/85/38 8/87/38 
f 8/87/38 11/88/38 12/86/38 
f 21/89/39 20/86/39 23/85/39 
f 23/85/39 22/88/39 21/89/39 
f 23/85/39 6/87/39 22/88/39 
f 23/85/39 25/90/39 6/87/39 
f 6/85/40 3/87/40 17/88/40 
f 17/88/40 22/86/40 6/85/40 
f 15/91/41 16/86/41 1/85/41 
f 1/85/41 12/88/41 15/91/41 
f 1/85/41 7/87/41 12/88/41 
f 1/85/41 26/92/41 7/87/41 
f 85/82/42 84/81/42 13/83/42 
f 13/83/42 19/84/42 85/82/42 
f 27/94/22 87/93/22 88/95/22 
f 88/95/22 28/96/22 27/94/22 
f 31/96/19 32/94/19 89/93/19 
f 89/93/19 90/95/19 31/96/19 
f 31/94/24 90/93/24 87/95/24 
f 87/95/24 27/96/24 31/94/24 
f 89/95/29 32/96/29 30/94/29 
f 30/94/29 91/93/29 89/95/29 
f 29/96/10 28/94/10 88/93/10 
f 88/93/10 92/95/10 29/96/10 
f 91/95/16 30/96/16 29/94/16 
f 29/94/16 92/93/16 91/95/16 
f 90/98/43 89/97/43 93/99/43 
f 93/99/43 94/100/43 90/98/43 
f 93/100/44 89/98/44 91/97/44 
f 91/97/44 95/99/44 93/100/44 
f 87/98/45 90/97/45 94/99/45 
f 94/99/45 96/100/45 87/98/45 
f 87/97/46 96/99/46 97/100/46 
f 97/100/46 88/98/46 87/97/46 
f 92/98/47 88/97/47 97/99/47 
f 97/99/47 98/100/47 92/98/47 
f 98/99/48 95/100/48 91/98/48 
f 91/98/48 92/97/48 98/99/48 
f 54/102/49 93/101/49 95/103/49 
f 95/103/49 51/104/49 54/102/49 
f 98/101/50 97/103/50 49/104/50 
f 49/104/50 50/102/50 98/101/50 
f 96/101/51 94/103/51 52/104/51 
f 52/104/51 48/102/51 96/101/51 
f 97/101/52 96/103/52 48/104/52 
f 48/104/52 49/102/52 97/101/52 
f 51/102/53 95/101/53 98/103/53 
f 98/103/53 50/104/53 51/102/53 
f 94/101/54 93/103/54 54/104/54 
f 54/104/54 52/102/54 94/101/54 

usemtl _defaultMat

f 61/33/55 74/34/55 75/32/55 
f 75/33/55 60/34/55 61/32/55 
f 75/33/56 78/34/56 58/32/56 
f 58/33/56 60/34/56 75/32/56 
f 76/37/57 57/38/57 58/36/57 
f 58/37/57 78/38/57 76/36/57 
f 80/37/58 79/38/58 64/36/58 
f 64/37/58 63/38/58 80/36/58 
f 80/32/59 63/31/59 57/33/59 
f 57/32/59 76/31/59 80/33/59 
f 61/33/60 64/34/60 79/32/60 
f 79/33/60 74/34/60 61/32/60 
g lightpost




usemtl trainGrey

f 2/2/1 1/1/1 3/3/1 
f 3/3/1 4/4/1 2/2/1 
f 5/4/2 4/2/2 3/1/2 
f 3/1/2 6/3/2 5/4/2 
f 8/1/3 7/3/3 9/4/3 
f 9/4/3 10/2/3 8/1/3 
f 12/6/4 11/5/4 13/7/4 
f 13/7/4 14/8/4 12/6/4 
f 14/8/4 15/9/4 12/6/4 
f 14/8/4 16/10/4 15/9/4 
f 14/8/4 17/11/4 16/10/4 
f 14/8/4 18/12/4 17/11/4 
f 19/13/4 13/7/4 11/5/4 
f 20/14/4 18/12/4 19/13/4 
f 19/13/4 11/5/4 20/14/4 
f 20/14/4 21/15/4 18/12/4 
f 21/15/4 22/16/4 18/12/4 
f 22/16/4 17/11/4 18/12/4 
f 23/1/5 8/3/5 10/4/5 
f 10/4/5 24/2/5 23/1/5 
f 25/17/6 23/3/6 24/4/6 
f 24/4/6 6/1/6 25/17/6 
f 24/4/6 5/2/6 6/1/6 
f 26/18/7 1/3/7 2/4/7 
f 2/4/7 7/1/7 26/18/7 
f 2/4/7 9/2/7 7/1/7 
f 10/20/8 27/19/8 28/21/8 
f 28/21/8 24/22/8 10/20/8 
f 28/21/8 29/23/8 24/22/8 
f 29/23/8 5/24/8 24/22/8 
f 29/23/8 4/25/8 5/24/8 
f 29/23/8 30/26/8 4/25/8 
f 31/27/8 27/19/8 10/20/8 
f 10/20/8 9/28/8 31/27/8 
f 9/28/8 32/29/8 31/27/8 
f 4/25/8 30/26/8 32/29/8 
f 9/28/8 2/30/8 32/29/8 
f 2/30/8 4/25/8 32/29/8 
f 34/32/9 33/31/9 35/33/9 
f 35/33/9 36/34/9 34/32/9 
f 38/36/10 37/35/10 39/37/10 
f 39/37/10 40/38/10 38/36/10 
f 42/34/11 41/32/11 43/31/11 
f 43/31/11 44/33/11 42/34/11 
f 46/40/8 45/39/8 47/41/8 
f 47/41/8 37/42/8 46/40/8 
f 37/42/8 48/43/8 46/40/8 
f 37/42/8 49/44/8 48/43/8 
f 37/42/8 38/45/8 49/44/8 
f 38/45/8 50/46/8 49/44/8 
f 38/45/8 51/47/8 50/46/8 
f 46/40/8 48/43/8 52/48/8 
f 52/48/8 53/49/8 46/40/8 
f 51/47/8 38/45/8 53/49/8 
f 52/48/8 54/50/8 53/49/8 
f 54/50/8 51/47/8 53/49/8 
f 38/45/8 55/51/8 53/49/8 
f 38/45/8 56/52/8 55/51/8 
f 57/54/8 33/53/8 34/55/8 
f 34/55/8 58/56/8 57/54/8 
f 34/55/8 59/57/8 58/56/8 
f 59/57/8 60/58/8 58/56/8 
f 59/57/8 61/59/8 60/58/8 
f 59/57/8 62/60/8 61/59/8 
f 41/61/8 33/53/8 57/54/8 
f 57/54/8 63/62/8 41/61/8 
f 63/62/8 43/63/8 41/61/8 
f 61/59/8 62/60/8 43/63/8 
f 63/62/8 64/64/8 43/63/8 
f 64/64/8 61/59/8 43/63/8 
f 65/33/12 44/34/12 43/32/12 
f 43/32/12 62/31/12 65/33/12 
f 59/32/13 34/31/13 36/33/13 
f 36/33/13 66/34/13 59/32/13 
f 35/34/14 33/32/14 41/31/14 
f 41/31/14 42/33/14 35/34/14 
f 59/31/15 66/33/15 65/34/15 
f 65/34/15 62/32/15 59/31/15 
f 67/38/16 56/36/16 38/35/16 
f 38/35/16 40/37/16 67/38/16 
f 42/66/17 44/65/17 68/67/17 
f 68/67/17 69/68/17 42/66/17 
f 66/66/18 36/65/18 70/67/18 
f 70/67/18 71/68/18 66/66/18 
f 46/36/19 53/35/19 72/37/19 
f 72/37/19 73/38/19 46/36/19 
f 74/70/20 67/69/20 40/71/20 
f 40/71/20 75/72/20 74/70/20 
f 77/71/21 76/72/21 78/70/21 
f 78/70/21 39/69/21 77/71/21 
f 45/35/22 77/37/22 39/38/22 
f 39/38/22 47/73/22 45/35/22 
f 39/38/22 37/36/22 47/73/22 
f 73/69/23 72/71/23 79/72/23 
f 79/72/23 80/70/23 73/69/23 
f 46/35/24 73/37/24 77/38/24 
f 77/38/24 45/36/24 46/35/24 
f 35/66/25 42/65/25 69/67/25 
f 69/67/25 81/68/25 35/66/25 
f 40/69/26 39/71/26 78/72/26 
f 78/72/26 75/70/26 40/69/26 
f 36/66/27 35/65/27 81/67/27 
f 81/67/27 70/68/27 36/66/27 
f 73/71/28 80/72/28 76/70/28 
f 76/70/28 77/69/28 73/71/28 
f 72/38/29 53/36/29 55/74/29 
f 55/74/29 67/37/29 72/38/29 
f 55/74/29 56/35/29 67/37/29 
f 74/72/30 79/70/30 72/69/30 
f 72/69/30 67/71/30 74/72/30 
f 71/67/31 82/68/31 65/66/31 
f 65/66/31 66/65/31 71/67/31 
f 68/68/32 44/66/32 65/65/32 
f 65/65/32 82/67/32 68/68/32 
f 70/76/4 81/75/4 69/77/4 
f 69/77/4 71/78/4 70/76/4 
f 69/77/4 68/79/4 71/78/4 
f 68/79/4 82/80/4 71/78/4 
f 84/82/33 83/81/33 14/83/33 
f 14/83/33 13/84/33 84/82/33 
f 11/86/34 8/85/34 23/87/34 
f 23/87/34 20/88/34 11/86/34 
f 86/82/35 85/81/35 19/83/35 
f 19/83/35 18/84/35 86/82/35 
f 14/84/36 83/82/36 86/81/36 
f 86/81/36 18/83/36 14/84/36 
f 3/85/37 1/87/37 16/88/37 
f 16/88/37 17/86/37 3/85/37 
f 12/86/38 7/85/38 8/87/38 
f 8/87/38 11/88/38 12/86/38 
f 21/89/39 20/86/39 23/85/39 
f 23/85/39 22/88/39 21/89/39 
f 23/85/39 6/87/39 22/88/39 
f 23/85/39 25/90/39 6/87/39 
f 6/85/40 3/87/40 17/88/40 
f 17/88/40 22/86/40 6/85/40 
f 15/91/41 16/86/41 1/85/41 
f 1/85/41 12/88/41 15/91/41 
f 1/85/41 7/87/41 12/88/41 
f 1/85/41 26/92/41 7/87/41 
f 85/82/42 84/81/42 13/83/42 
f 13/83/42 19/84/42 85/82/42 
f 27/94/22 87/93/22 88/95/22 
f 88/95/22 28/96/22 27/94/22 
f 31/96/19 32/94/19 89/93/19 
f 89/93/19 90/95/19 31/96/19 
f 31/94/24 90/93/24 87/95/24 
f 87/95/24 27/96/24 31/94/24 
f 89/95/29 32/96/29 30/94/29 
f 30/94/29 91/93/29 89/95/29 
f 29/96/10 28/94/10 88/93/10 
f 88/93/10 92/95/10 29/96/10 
f 91/95/16 30/96/16 29/94/16 
f 29/94/16 92/93/16 91/95/16 
f 90/98/43 89/97/43 93/99/43 
f 93/99/43 94/100/43 90/98/43 
f 93/100/44 89/98/44 91/97/44 
f 91/97/44 95/99/44 93/100/44 
f 87/98/45 90/97/45 94/99/45 
f 94/99/45 96/100/45 87/98/45 
f 87/97/46 96/99/46 97/100/46 
f 97/100/46 88/98/46 87/97/46 
f 92/98/47 88/97/47 97/99/47 
f 97/99/47 98/100/47 92/98/47 
f 98/99/48 95/100/48 91/98/48 
f 91/98/48 92/97/48 98/99/48 
f 54/102/49 93/101/49 95/103/49 
f 95/103/49 51/104/49 54/102/49 
f 98/101/50 97/103/50 49/104/50 
f 49/104/50 50/102/50 98/101/50 
f 96/101/51 94/103/51 52/104/51 
f 52/104/51 48/102/51 96/101/51 
f 97/101/52 96/103/52 48/104/52 
f 48/104/52 49/102/52 97/101/52 
f 51/102/53 95/101/53 98/103/53 
f 98/103/53 50/104/53 51/102/53 
f 94/101/54 93/103/54 54/104/54 
f 54/104/54 52/102/54 94/101/54 

usemtl _defaultMat

f 61/33/55 74/34/55 75/32/55 
f 75/33/55 60/34/55 61/32/55 
f 75/33/56 78/34/56 58/32/56 
f 58/33/56 60/34/56 75/32/56 
f 76/37/57 57/38/57 58/36/57 
f 58/37/57 78/38/57 76/36/57 
f 80/37/58 79/38/58 64/36/58 
f 64/37/58 63/38/58 80/36/58 
f 80/32/59 63/31/59 57/33/59 
f 57/32/59 76/31/59 80/33/59 
f 61/33/60 64/34/60 79/32/60 
f 79/33/60 74/34/60 61/32/60 
