# Created by Kenney (www.kenney.nl)

mtllib pillarObelisk.mtl

g pillarObelisk

v -0.017078 0.174 -0.189122
v -0.017078 0.087 -0.189122
v -0.017078 0.174 -0.017078
v -0.017078 0.087 -0.017078
v 0 0.174 -0.2062
v 0 0.174 0
v -0.2062 0.174 0
v -0.189122 0.174 -0.017078
v -0.189122 0.174 -0.189122
v -0.2062 0.174 -0.2062
v -0.2062 0.2262 -0.2062
v 0 0.2262 -0.2062
v 0 0.2262 0
v -0.017078 0.2262 -0.189122
v -0.189122 0.2262 -0.189122
v -0.189122 0.2262 -0.017078
v -0.017078 0.2262 -0.017078
v -0.2062 0.2262 0
v -0.1031 1.0456 -0.1031
v -0.054928 0.9756 -0.151272
v -0.054928 0.9756 -0.054928
v -0.151272 0.9756 -0.151272
v 0 0 0
v -0.2062 0 0
v -0.189122 0.087 -0.017078
v 0 0 -0.2062
v -0.2062 0 -0.2062
v -0.189122 0.087 -0.189122
v -0.151272 0.9756 -0.054928

vn 1 0 0
vn 0 -1 0
vn 0 0 -1
vn 0 1 0
vn 0.8237836 0.5669044 0
vn 0 0.05044278 -0.9987269
vn 0 0.1926228 0.9812729
vn 0.9987269 0.05044278 0
vn -0.9812729 0.1926228 0
vn 0 0.1926228 -0.9812729
vn 0 0 1
vn -1 0 0
vn 0 0.5669044 -0.8237836
vn 0 0.5669044 0.8237836
vn 0 0.05044278 0.9987269
vn -0.9987269 0.05044278 0
vn -0.8237836 0.5669044 0
vn 0.9812729 0.1926228 0

vt 7.445748 6.850394
vt 7.445748 3.425197
vt 0.6723622 6.850394
vt 0.6723622 3.425197
vt 0 -8.118111
vt -0.6723622 -0.6723622
vt 0 0
vt -8.118111 0
vt -7.445748 -0.6723622
vt -7.445748 -7.445748
vt -0.6723622 -7.445748
vt -8.118111 -8.118111
vt 8.118111 6.850394
vt 0 6.850394
vt 8.118111 8.905512
vt 0 8.905512
vt 0.6723622 -7.445748
vt 8.118111 -8.118111
vt 7.445748 -7.445748
vt 7.445748 -0.6723622
vt 0.6723622 -0.6723622
vt 8.118111 0
vt 4.059055 36.21244
vt 5.955591 32.86702
vt 2.16252 32.86702
vt 7.445748 8.518591
vt 0.6723622 8.518591
vt 5.955591 38.06013
vt 2.16252 38.06013
vt -0.6723622 3.490565
vt -7.445748 3.490565
vt 7.445748 8.92809
vt 0.6723622 8.92809
vt 5.955591 38.46964
vt 2.16252 38.46964
vt -8.118111 -1.563733
vt -7.445748 1.926832
vt 0 -1.563733
vt -0.6723622 1.926832
vt 8.118111 -1.563733
vt 7.445748 1.926832
vt 0.6723622 1.926832
vt -0.6723622 3.425197
vt -7.445748 3.425197
vt -0.6723622 6.850394
vt -7.445748 6.850394
vt -8.118111 6.850394
vt -8.118111 8.905512
vt 5.955591 28.26482
vt 2.16252 28.26482
vt 4.059055 31.61025
vt -2.16252 32.86702
vt -5.955591 32.86702
vt -4.059055 36.21244
vt -0.6723622 8.92809
vt -7.445748 8.92809
vt -2.16252 38.46964
vt -5.955591 38.46964
vt -7.445748 8.518591
vt -5.955591 38.06013
vt -0.6723622 8.518591
vt -2.16252 38.06013
vt -5.955591 28.26482
vt -4.059055 31.61025
vt -2.16252 28.26482
vt 7.445748 3.490565
vt 0.6723622 3.490565

usemtl stone

f 3/3/1 2/2/1 1/1/1
f 2/2/1 3/3/1 4/4/1
f 6/7/2 3/6/2 5/5/2
f 3/6/2 6/7/2 7/8/2
f 3/6/2 7/8/2 8/9/2
f 8/9/2 7/8/2 9/10/2
f 1/11/2 5/5/2 3/6/2
f 5/5/2 1/11/2 10/12/2
f 10/12/2 1/11/2 9/10/2
f 10/12/2 9/10/2 7/8/2
f 11/15/3 5/14/3 10/13/3
f 5/14/3 11/15/3 12/16/3
f 12/5/4 14/17/4 13/7/4
f 14/17/4 12/5/4 11/18/4
f 14/17/4 11/18/4 15/19/4
f 15/19/4 11/18/4 16/20/4
f 17/21/4 13/7/4 14/17/4
f 13/7/4 17/21/4 18/22/4
f 18/22/4 17/21/4 16/20/4
f 18/22/4 16/20/4 11/18/4
f 21/25/5 20/24/5 19/23/5
f 22/28/6 14/27/6 15/26/6
f 14/27/6 22/28/6 20/29/6
f 4/30/7 24/8/7 23/7/7
f 24/8/7 4/30/7 25/31/7
f 20/34/8 17/33/8 14/32/8
f 17/33/8 20/34/8 21/35/8
f 24/8/2 26/5/2 23/7/2
f 26/5/2 24/8/2 27/12/2
f 24/38/9 28/37/9 27/36/9
f 28/37/9 24/38/9 25/39/9
f 28/41/10 26/38/10 27/40/10
f 26/38/10 28/41/10 2/42/10
f 3/45/11 25/44/11 4/43/11
f 25/44/11 3/45/11 8/46/11
f 25/43/12 9/46/12 28/44/12
f 9/46/12 25/43/12 8/45/12
f 9/1/3 2/4/3 28/2/3
f 2/4/3 9/1/3 1/3/3
f 13/16/1 5/13/1 12/15/1
f 5/13/1 13/16/1 6/14/1
f 13/16/11 7/47/11 6/14/11
f 7/47/11 13/16/11 18/48/11
f 7/14/12 11/48/12 10/47/12
f 11/48/12 7/14/12 18/16/12
f 19/51/13 20/50/13 22/49/13
f 19/54/14 29/53/14 21/52/14
f 21/57/15 16/56/15 17/55/15
f 16/56/15 21/57/15 29/58/15
f 16/61/16 22/60/16 15/59/16
f 22/60/16 16/61/16 29/62/16
f 29/65/17 19/64/17 22/63/17
f 2/66/18 23/7/18 26/22/18
f 23/7/18 2/66/18 4/67/18

