# Created by Kenney (www.kenney.nl)

mtllib pillarLarge.mtl

g pillarLarge

v 0.08400001 0.79 0.08400001
v 0.05 0.79 0
v 0.08400001 0.79 -0.08399999
v 0.025 0.79 -0.04330127
v -0.084 0.79 -0.08399999
v -0.025 0.79 -0.04330127
v -0.05 0.79 0
v 0.025 0.79 0.04330127
v -0.084 0.79 0.08400001
v -0.025 0.79 0.04330127
v 0.08400001 0 0.08400001
v 0.08400001 0 -0.08399999
v -0.084 0 0.08400001
v -0.084 0 -0.08399999
v -0.084 0.7399999 -0.08399999
v -0.084 0.7399999 0.08400001
v 0.08400001 0.7399999 0.08400001
v 0.08400001 0.11 0.08400001
v -0.084 0.11 0.08400001
v 0.06888001 0.7064 0.06888001
v -0.06888 0.7064 0.06888001
v -0.06888 0.7064 -0.06888
v 0.06888001 0.7064 -0.06888
v 0.08400001 0.7399999 -0.08399999
v -0.084 0.11 -0.08399999
v 0.08400001 0.11 -0.08399999
v -0.06888 0.1436 -0.06888
v 0.06888001 0.1436 -0.06888
v 0.06888001 0.1436 0.06888001
v -0.06888 0.1436 0.06888001
v -0.045 0.85 -0.07794229
v -0.09 0.85 0
v 0.05 0.91 0
v 0.025 0.91 0.04330127
v 0.025 0.91 -0.04330127
v -0.025 0.91 0.04330127
v -0.025 0.91 -0.04330127
v -0.05 0.91 0
v 0.045 0.85 -0.07794229
v 0.09 0.85 0
v -0.045 0.85 0.0779423
v 0.045 0.85 0.0779423

vn 0 1 0
vn 0 -1 0
vn -1 0 0
vn 0 0 1
vn 0 -0.4103647 0.9119215
vn 0 -0.4103647 -0.9119215
vn 0 0 -1
vn 0 0.4103647 -0.9119215
vn 0.9119215 0.4103647 0
vn 0.9119215 -0.4103647 0
vn -0.9119215 -0.4103647 0
vn 1 0 0
vn 0 0.4103647 0.9119215
vn -0.9119215 0.4103647 0
vn -0.75 -0.5 -0.4330127
vn 0.75 -0.5 -0.4330127
vn -0.75 -0.5 0.4330127
vn 0.75 -0.5 0.4330127
vn -0.75 0.5 0.4330127
vn 0 0.5 0.8660254
vn 0.75 0.5 -0.4330127
vn 0.75 0.5 0.4330127
vn 0 0.5 -0.8660254
vn 0 -0.5 -0.8660254
vn 0 -0.5 0.8660254
vn -0.75 0.5 -0.4330127

vt -3.307087 3.307087
vt -1.968504 0
vt -3.307087 -3.307087
vt -0.984252 -1.704774
vt 3.307087 -3.307087
vt 0.984252 -1.704774
vt 1.968504 0
vt -0.984252 1.704774
vt 3.307087 3.307087
vt 0.984252 1.704774
vt -3.307087 29.13386
vt -3.307087 31.10236
vt 3.307087 29.13386
vt 3.307087 31.10236
vt 3.307087 0
vt -3.307087 0
vt 3.307087 4.330709
vt -3.307087 4.330709
vt 2.711811 26.4743
vt -2.711811 26.4743
vt 3.307087 27.9249
vt -3.307087 27.9249
vt 3.307087 2.592155
vt -3.307087 2.592155
vt 2.711811 4.042756
vt -2.711811 4.042756
vt 3.307087 2.712981E-15
vt -3.307087 2.712981E-15
vt -1.771654 30.51546
vt 1.771654 30.51546
vt -0.984252 27.78782
vt 0.984252 27.78782
vt -1.771654 27.44687
vt -0.984252 30.17451
vt 1.771654 27.44687
vt 0.984252 30.17451
vt 2.711811 5.653543
vt -2.711811 5.653543
vt 2.711811 27.81102
vt -2.711811 27.81102

usemtl stone

f 3/3/1 2/2/1 1/1/1
f 2/2/1 3/3/1 4/4/1
f 4/4/1 3/3/1 5/5/1
f 4/4/1 5/5/1 6/6/1
f 6/6/1 5/5/1 7/7/1
f 8/8/1 1/1/1 2/2/1
f 1/1/1 8/8/1 9/9/1
f 9/9/1 7/7/1 5/5/1
f 9/9/1 8/8/1 10/10/1
f 9/9/1 10/10/1 7/7/1
f 13/1/2 12/5/2 11/9/2
f 12/5/2 13/1/2 14/3/2
f 16/13/3 5/12/3 15/11/3
f 5/12/3 16/13/3 9/14/3
f 1/14/4 16/11/4 17/13/4
f 16/11/4 1/14/4 9/12/4
f 18/17/4 13/16/4 11/15/4
f 13/16/4 18/17/4 19/18/4
f 17/21/5 21/20/5 20/19/5
f 21/20/5 17/21/5 16/22/5
f 15/21/6 23/20/6 22/19/6
f 23/20/6 15/21/6 24/22/6
f 5/14/7 24/11/7 15/13/7
f 24/11/7 5/14/7 3/12/7
f 13/15/3 25/18/3 14/16/3
f 25/18/3 13/15/3 19/17/3
f 27/25/8 26/24/8 25/23/8
f 26/24/8 27/25/8 28/26/8
f 28/25/9 18/24/9 26/23/9
f 18/24/9 28/25/9 29/26/9
f 17/22/10 23/19/10 24/21/10
f 23/19/10 17/22/10 20/20/10
f 22/20/11 16/21/11 15/22/11
f 16/21/11 22/20/11 21/19/11
f 1/12/12 24/13/12 3/14/12
f 24/13/12 1/12/12 17/11/12
f 18/18/12 12/27/12 26/17/12
f 12/27/12 18/18/12 11/28/12
f 29/25/13 19/24/13 18/23/13
f 19/24/13 29/25/13 30/26/13
f 25/17/7 12/16/7 14/15/7
f 12/16/7 25/17/7 26/18/7
f 19/23/14 27/26/14 25/24/14
f 27/26/14 19/23/14 30/25/14
f 6/31/15 32/30/15 31/29/15
f 32/30/15 6/31/15 7/32/15
f 35/4/1 34/8/1 33/2/1
f 34/8/1 35/4/1 36/10/1
f 36/10/1 35/4/1 37/6/1
f 36/10/1 37/6/1 38/7/1
f 40/29/16 4/32/16 39/30/16
f 4/32/16 40/29/16 2/31/16
f 7/31/17 41/30/17 32/29/17
f 41/30/17 7/31/17 10/32/17
f 42/29/18 2/32/18 40/30/18
f 2/32/18 42/29/18 8/31/18
f 41/35/19 38/34/19 32/33/19
f 38/34/19 41/35/19 36/36/19
f 34/36/20 41/33/20 42/35/20
f 41/33/20 34/36/20 36/34/20
f 35/36/21 40/33/21 39/35/21
f 40/33/21 35/36/21 33/34/21
f 33/36/22 42/33/22 40/35/22
f 42/33/22 33/36/22 34/34/22
f 37/36/23 39/33/23 31/35/23
f 39/33/23 37/36/23 35/34/23
f 31/30/24 4/31/24 6/32/24
f 4/31/24 31/30/24 39/29/24
f 42/30/25 10/31/25 8/32/25
f 10/31/25 42/30/25 41/29/25
f 32/35/26 37/34/26 31/33/26
f 37/34/26 32/35/26 38/36/26

usemtl wood

f 20/39/4 30/38/4 29/37/4
f 30/38/4 20/39/4 21/40/4
f 30/37/3 22/40/3 27/38/3
f 22/40/3 30/37/3 21/39/3
f 20/40/12 28/37/12 23/39/12
f 28/37/12 20/40/12 29/38/12
f 22/39/7 28/38/7 27/37/7
f 28/38/7 22/39/7 23/40/7

