# Created by Kenney (www.kenney.nl)

mtllib pine.mtl

g pine

v -0.2328242 0.5415 -0.4032633
v 0.2328242 0.5415 -0.4032633
v -0.1925055 0.7739441 -0.3334293
v 0.1925055 0.7739441 -0.3334293
v 0.1452124 1.37123 -0.2515153
v 0.2904249 1.37123 0
v 0.1101529 1.630344 -0.1907903
v 0.2203057 1.630344 0
v 0.1452124 1.37123 0.2515153
v -0.1452124 1.37123 0.2515153
v 0.1101529 1.630344 0.1907903
v -0.1101529 1.630344 0.1907903
v -0.09049638 1.772446 -0.1567443
v 0 2.289848 0
v -0.1809928 1.772446 0
v 0.09049639 1.772446 -0.1567443
v 0.1809928 1.772446 0
v 0.09049639 1.772446 0.1567443
v -0.09049638 1.772446 0.1567443
v -0.3771751 0.9263051 0
v -0.2997558 1.17179 0
v -0.1885876 0.9263051 0.3266433
v -0.1498779 1.17179 0.2595962
v 0.1885876 0.9263051 0.3266433
v 0.1498779 1.17179 0.2595962
v -0.2203057 1.630344 0
v -0.2904249 1.37123 0
v 0.2997558 1.17179 0
v 0.3771751 0.9263051 0
v -0.1452124 1.37123 -0.2515153
v -0.1101529 1.630344 -0.1907903
v 0.1885876 0.9263051 -0.3266433
v 0.1498779 1.17179 -0.2595962
v -0.1885876 0.9263051 -0.3266433
v -0.1498779 1.17179 -0.2595962
v 0.4656483 0.5415 0
v 0.385011 0.7739441 0
v -0.4656483 0.5415 0
v -0.385011 0.7739441 0
v -0.1925055 0.7739441 0.3334293
v -0.2328242 0.5415 0.4032633
v 0.2328242 0.5415 0.4032633
v 0.1925055 0.7739441 0.3334293
v 0.3747065 1.17179 0
v 0.1873532 1.17179 0.3245053
v -0.1873532 1.17179 0.3245053
v -0.3747065 1.17179 0
v 0.1873532 1.17179 -0.3245053
v -0.1873532 1.17179 -0.3245053
v -0.1423885 1.630344 -0.246624
v -0.2847769 1.630344 0
v 0.2847769 1.630344 0
v 0.1423885 1.630344 0.246624
v 0.1423885 1.630344 -0.246624
v -0.1423885 1.630344 0.246624
v -0.2945 0.3705 -0.510089
v 0.2945 0.3705 -0.510089
v -0.47709 0.7739441 0
v -0.238545 0.7739441 0.4131721
v 0.238545 0.7739441 0.4131721
v 0.47709 0.7739441 0
v 0.238545 0.7739441 -0.4131721
v -0.238545 0.7739441 -0.4131721
v 0.589 0.3705 0
v 0.2945 0.3705 0.510089
v 0.152561 0.3705 0
v 0.0762805 0.3705 0.1321217
v -0.2945 0.3705 0.510089
v -0.0762805 0.3705 0.1321217
v -0.152561 0.3705 0
v 0.0762805 0.3705 -0.1321217
v -0.0762805 0.3705 -0.1321217
v -0.589 0.3705 0
v 0.2120598 0 0
v 0.1060299 0 -0.1836492
v 0.1060299 0 0.1836492
v -0.1060299 0 -0.1836492
v -0.1060299 0 0.1836492
v -0.2120598 0 0
v -0.08467136 0.095 -0.1466551
v -0.1693427 0.095 0
v 0.08467136 0.095 -0.1466551
v 0.08467136 0.095 0.1466551
v -0.08467136 0.095 0.1466551
v 0.1693427 0.095 0

vn 0 0.2877287 -0.957712
vn 0.8431799 0.2281744 -0.4868101
vn 0 0.2281744 0.9736202
vn -0.8288271 0.2899323 -0.4785235
vn 0 0.2899324 -0.9570471
vn 0.8288271 0.2899323 0.4785235
vn 0 0.2899324 0.9570471
vn 0.8288271 0.2899323 -0.4785235
vn -0.8288271 0.2899323 0.4785235
vn -0.8354264 0.2634712 0.4823336
vn 0 0.2634712 0.9646673
vn -0.8431799 0.2281744 0.4868101
vn 0.8354264 0.2634712 0.4823336
vn 0.8431799 0.2281744 0.4868101
vn -0.8431799 0.2281744 -0.4868101
vn 0 0.2281744 -0.9736202
vn 0.8354264 0.2634712 -0.4823336
vn 0 0.2634712 -0.9646673
vn -0.8354264 0.2634712 -0.4823336
vn 0.8294029 0.2877287 -0.478856
vn -0.8294029 0.2877287 -0.478856
vn -0.8294029 0.2877287 0.478856
vn 0.8294029 0.2877287 0.478856
vn 0 0.2877287 0.957712
vn 0 -1 0
vn 0 0.3436811 -0.9390864
vn 0.8132727 0.3436811 0.4695432
vn 0.8132727 0.3436811 -0.4695432
vn -0.8132727 0.3436811 0.4695432
vn 0 0.3436811 0.9390864
vn -0.8132727 0.3436811 -0.4695432
vn -0.7319101 0.5345497 -0.4225685
vn 0.7319101 0.5345497 0.4225685
vn 0 0.5345497 -0.8451371
vn -0.7319101 0.5345497 0.4225685
vn 0.7319101 0.5345497 -0.4225685
vn 0 0.5345497 0.8451371
vn 0 0.5298231 -0.8481082
vn -0.7530563 0.4938371 0.4347772
vn 0 0.4938371 0.8695545
vn 0.7530563 0.4938371 0.4347772
vn -0.7530563 0.4938371 -0.4347772
vn 0.7530563 0.4938371 -0.4347772
vn 0 0.4938371 -0.8695545
vn -0.7344832 0.5298231 -0.4240541
vn 0 0.5298231 0.8481082
vn 0.7344832 0.5298231 0.4240541
vn -0.7344832 0.5298231 0.4240541
vn 0.7344832 0.5298231 -0.4240541
vn -0.8069972 0.3628691 -0.4659201
vn 0 0.3628691 -0.9318401
vn 0 0.3628691 0.9318401
vn 0.8069972 0.3628691 0.4659201
vn -0.8069972 0.3628691 0.4659201
vn 0.8069972 0.3628691 -0.4659201
vn 0 0.05267953 0.9986115
vn 0.864823 0.05267953 0.4993058
vn -0.864823 0.05267953 0.4993058
vn -0.864823 0.05267953 -0.4993058
vn 0 0.05267953 -0.9986115
vn 0.864823 0.05267953 -0.4993058

vt 9.166306 15.84924
vt -9.166306 15.84924
vt 7.578957 25.40466
vt -7.578957 25.40466
vt 5.717025 50.3019
vt -5.717025 50.3019
vt 4.336727 60.77961
vt -4.336727 60.77961
vt -3.56285 64.99484
vt -4.418E-16 86.27924
vt 3.56285 64.99484
vt 8.526513E-14 86.27924
vt 4.418E-16 86.27924
vt -8.526513E-14 86.27924
vt 8.570693E-14 86.27924
vt -8.570693E-14 86.27924
vt -7.424707 31.79193
vt -5.900706 41.81067
vt 7.424707 31.79193
vt 5.900706 41.81067
vt 14.75222 -4.263256E-14
vt 11.80141 -2.131628E-14
vt 7.376112 12.7758
vt 5.900706 10.22032
vt -7.376112 12.7758
vt -5.900706 10.22032
vt -11.80141 2.131628E-14
vt -14.75222 -4.263256E-14
vt 7.376112 -12.7758
vt 5.900706 -10.22032
vt -7.376112 -12.7758
vt -5.900706 -10.22032
vt 7.376112 38.9325
vt -7.376112 38.9325
vt 5.717025 47.2938
vt -5.717025 47.2938
vt -5.605845 49.05634
vt -3.56285 55.67606
vt 5.605845 49.05634
vt 3.56285 55.67606
vt 11.21169 -2.131628E-14
vt 8.673453 -9.237056E-14
vt 5.605845 9.709608
vt 4.336727 7.511431
vt -5.605845 9.709608
vt -4.336727 7.511431
vt -8.673453 -6.394885E-14
vt -11.21169 -2.131628E-14
vt 5.605845 -9.709608
vt 4.336727 -7.511431
vt -5.605845 -9.709608
vt -4.336727 -7.511431
vt 11.59449 1.730992
vt -11.59449 1.730992
vt 9.166306 9.668993
vt -9.166306 9.668993
vt -9.391536 18.46247
vt -7.424707 25.36079
vt 9.391536 18.46247
vt 7.424707 25.36079
vt 18.78307 7.105427E-15
vt 15.15791 2.131628E-14
vt 9.391536 16.26662
vt 7.578957 13.12714
vt -9.391536 16.26662
vt -7.578957 13.12714
vt -15.15791 -7.105427E-15
vt -18.78307 7.105427E-15
vt 9.391536 -16.26662
vt 7.578957 -13.12714
vt -9.391536 -16.26662
vt -7.578957 -13.12714
vt 23.18898 -7.105427E-15
vt 11.59449 -20.08224
vt 11.59449 20.08224
vt 6.006339 -7.105427E-15
vt 3.00317 5.201643
vt -11.59449 20.08224
vt -3.00317 5.201643
vt -6.006339 -7.105427E-15
vt 3.00317 -5.201643
vt -11.59449 -20.08224
vt -3.00317 -5.201643
vt -23.18898 -7.105427E-15
vt 8.348811 2.131628E-14
vt 4.174406 -7.230283
vt 4.174406 7.230283
vt -4.174406 -7.230283
vt -4.174406 7.230283
vt -8.348811 3.552714E-14
vt -4.174406 -2.623646
vt -3.333518 1.390087
vt 4.174406 -2.623646
vt 3.333518 1.390087
vt 3.333518 3.430802
vt -3.333518 3.430802
vt 3.00317 14.29234
vt -3.00317 14.29234

usemtl metal

f 3/3/1 2/2/1 1/1/1
f 2/2/1 3/3/1 4/4/1
f 7/7/2 6/6/2 5/5/2
f 6/6/2 7/7/2 8/8/2
f 11/7/3 10/6/3 9/5/3
f 10/6/3 11/7/3 12/8/3
f 15/11/4 14/10/4 13/9/4
f 14/12/5 16/9/5 13/11/5
f 18/9/6 17/11/6 14/13/6
f 14/14/7 19/9/7 18/11/7
f 17/9/8 16/11/8 14/15/8
f 19/11/9 14/16/9 15/9/9
f 22/19/10 21/18/10 20/17/10
f 21/18/10 22/19/10 23/20/10
f 25/20/11 22/17/11 24/19/11
f 22/17/11 25/20/11 23/18/11
f 27/6/12 12/7/12 26/8/12
f 12/7/12 27/6/12 10/5/12
f 25/18/13 29/19/13 28/20/13
f 29/19/13 25/18/13 24/17/13
f 11/8/14 6/5/14 8/7/14
f 6/5/14 11/8/14 9/6/14
f 27/5/15 31/8/15 30/6/15
f 31/8/15 27/5/15 26/7/15
f 31/7/16 5/6/16 30/5/16
f 5/6/16 31/7/16 7/8/16
f 33/20/17 29/17/17 32/19/17
f 29/17/17 33/20/17 28/18/17
f 35/20/18 32/17/18 34/19/18
f 32/17/18 35/20/18 33/18/18
f 20/19/19 35/18/19 34/17/19
f 35/18/19 20/19/19 21/20/19
f 4/3/20 36/2/20 2/1/20
f 36/2/20 4/3/20 37/4/20
f 38/1/21 3/4/21 1/2/21
f 3/4/21 38/1/21 39/3/21
f 38/2/22 40/3/22 39/4/22
f 40/3/22 38/2/22 41/1/22
f 37/3/23 42/2/23 36/1/23
f 42/2/23 37/3/23 43/4/23
f 43/3/24 41/2/24 42/1/24
f 41/2/24 43/3/24 40/4/24

usemtl foliage

f 45/23/25 28/22/25 44/21/25
f 28/22/25 45/23/25 25/24/25
f 25/24/25 45/23/25 46/25/25
f 25/24/25 46/25/25 23/26/25
f 23/26/25 46/25/25 21/27/25
f 21/27/25 46/25/25 47/28/25
f 28/22/25 48/29/25 44/21/25
f 48/29/25 28/22/25 33/30/25
f 48/29/25 33/30/25 49/31/25
f 49/31/25 21/27/25 47/28/25
f 49/31/25 33/30/25 35/32/25
f 49/31/25 35/32/25 21/27/25
f 30/35/26 48/34/26 49/33/26
f 48/34/26 30/35/26 5/36/26
f 9/36/27 44/33/27 6/35/27
f 44/33/27 9/36/27 45/34/27
f 5/35/28 44/34/28 48/33/28
f 44/34/28 5/35/28 6/36/28
f 46/33/29 27/36/29 47/34/29
f 27/36/29 46/33/29 10/35/29
f 9/35/30 46/34/30 45/33/30
f 46/34/30 9/35/30 10/36/30
f 47/33/31 30/36/31 49/34/31
f 30/36/31 47/33/31 27/35/31
f 51/39/32 13/38/32 50/37/32
f 13/38/32 51/39/32 15/40/32
f 18/38/33 52/39/33 17/40/33
f 52/39/33 18/38/33 53/37/33
f 13/40/34 54/37/34 50/39/34
f 54/37/34 13/40/34 16/38/34
f 55/39/35 15/38/35 51/37/35
f 15/38/35 55/39/35 19/40/35
f 16/40/36 52/37/36 54/39/36
f 52/37/36 16/40/36 17/38/36
f 53/43/25 8/42/25 52/41/25
f 8/42/25 53/43/25 11/44/25
f 11/44/25 53/43/25 55/45/25
f 11/44/25 55/45/25 12/46/25
f 12/46/25 55/45/25 26/47/25
f 26/47/25 55/45/25 51/48/25
f 8/42/25 54/49/25 52/41/25
f 54/49/25 8/42/25 7/50/25
f 54/49/25 7/50/25 50/51/25
f 50/51/25 26/47/25 51/48/25
f 50/51/25 7/50/25 31/52/25
f 50/51/25 31/52/25 26/47/25
f 18/40/37 55/37/37 53/39/37
f 55/37/37 18/40/37 19/38/37
f 1/55/38 57/54/38 56/53/38
f 57/54/38 1/55/38 2/56/38
f 59/59/39 20/58/39 58/57/39
f 20/58/39 59/59/39 22/60/39
f 24/60/40 59/57/40 60/59/40
f 59/57/40 24/60/40 22/58/40
f 60/63/25 37/62/25 61/61/25
f 37/62/25 60/63/25 43/64/25
f 43/64/25 60/63/25 59/65/25
f 43/64/25 59/65/25 40/66/25
f 40/66/25 59/65/25 39/67/25
f 39/67/25 59/65/25 58/68/25
f 37/62/25 62/69/25 61/61/25
f 62/69/25 37/62/25 4/70/25
f 62/69/25 4/70/25 63/71/25
f 63/71/25 39/67/25 58/68/25
f 63/71/25 4/70/25 3/72/25
f 63/71/25 3/72/25 39/67/25
f 29/60/41 60/57/41 61/59/41
f 60/57/41 29/60/41 24/58/41
f 58/59/42 34/58/42 63/57/42
f 34/58/42 58/59/42 20/60/42
f 32/60/43 61/57/43 62/59/43
f 61/57/43 32/60/43 29/58/43
f 34/60/44 62/57/44 63/59/44
f 62/57/44 34/60/44 32/58/44
f 65/75/25 57/74/25 64/73/25
f 57/74/25 65/75/25 66/76/25
f 66/76/25 65/75/25 67/77/25
f 67/77/25 65/75/25 68/78/25
f 67/77/25 68/78/25 69/79/25
f 69/79/25 68/78/25 70/80/25
f 71/81/25 57/74/25 66/76/25
f 57/74/25 71/81/25 56/82/25
f 56/82/25 70/80/25 68/78/25
f 56/82/25 71/81/25 72/83/25
f 56/82/25 72/83/25 70/80/25
f 56/82/25 68/78/25 73/84/25
f 73/53/45 1/56/45 56/54/45
f 1/56/45 73/53/45 38/55/45
f 42/55/46 68/54/46 65/53/46
f 68/54/46 42/55/46 41/56/46
f 36/55/47 65/54/47 64/53/47
f 65/54/47 36/55/47 42/56/47
f 68/53/48 38/56/48 73/54/48
f 38/56/48 68/53/48 41/55/48
f 2/55/49 64/54/49 57/53/49
f 64/54/49 2/55/49 36/56/49

usemtl wood

f 76/87/25 75/86/25 74/85/25
f 75/86/25 76/87/25 77/88/25
f 77/88/25 76/87/25 78/89/25
f 77/88/25 78/89/25 79/90/25
f 79/93/50 80/92/50 77/91/50
f 80/92/50 79/93/50 81/94/50
f 80/94/51 75/91/51 77/93/51
f 75/91/51 80/94/51 82/92/51
f 83/94/52 78/91/52 76/93/52
f 78/91/52 83/94/52 84/92/52
f 83/92/53 74/93/53 85/94/53
f 74/93/53 83/92/53 76/91/53
f 79/91/54 84/94/54 81/92/54
f 84/94/54 79/91/54 78/93/54
f 82/94/55 74/91/55 75/93/55
f 74/91/55 82/94/55 85/92/55
f 67/97/56 84/96/56 83/95/56
f 84/96/56 67/97/56 69/98/56
f 67/98/57 85/95/57 66/97/57
f 85/95/57 67/98/57 83/96/57
f 81/96/58 69/97/58 70/98/58
f 69/97/58 81/96/58 84/95/58
f 81/95/59 72/98/59 80/96/59
f 72/98/59 81/95/59 70/97/59
f 72/97/60 82/96/60 80/95/60
f 82/96/60 72/97/60 71/98/60
f 71/97/61 85/96/61 82/95/61
f 85/96/61 71/97/61 66/98/61

