# Created by Kenney (www.kenney.nl)

mtllib pumpkin.mtl

g pumpkin

v 0.022606 0.21733 -0.012606
v 0.022606 0.21733 0.012606
v 0.001672 0.25828 -0.011672
v 0.001672 0.25828 0.011672
v 0.059825 0.16 0
v 0.029913 0.16 0.05180999
v 0.029913 0.16 -0.05181
v 0.027 0.16 -0.027
v -0.029913 0.16 -0.05181
v -0.027 0.16 -0.027
v -0.027 0.16 0.027
v 0.027 0.16 0.027
v -0.029913 0.16 0.05180999
v -0.059825 0.16 0
v -0.002606001 0.21733 0.012606
v -0.021672 0.25828 0.011672
v -0.002606001 0.21733 -0.012606
v -0.021672 0.25828 -0.011672
v -0.15 0 0
v -0.1785 0.06 0
v -0.075 0 0.129904
v -0.08925 0.06 0.154586
v 0.1428 0.16 0
v 0.1785 0.06 0
v 0.0714 0.16 0.123668
v 0.08925 0.06 0.154586
v -0.08925 0.06 -0.154586
v 0.08925 0.06 -0.154586
v -0.0714 0.16 -0.123668
v 0.0714 0.16 -0.123668
v 0.075 0 0.129904
v -0.0714 0.16 0.123668
v -0.1428 0.16 0
v 0.15 0 0
v 0.075 0 -0.129904
v -0.075 0 -0.129904

vn 0.8903995 0.45518 0
vn 0 1 0
vn 0 0.2435147 0.9698972
vn 0 0.02280237 0.9997399
vn 0 0.02280237 -0.9997399
vn 0.9970758 0.07641987 0
vn -0.9065561 -0.4220854 0
vn 0 0.2435147 -0.9698972
vn -0.9201647 0.3915315 0
vn -0.8009084 -0.3804323 0.4624036
vn 0.8273838 0.2953781 0.47769
vn 0 0.2953839 -0.9553786
vn 0 -0.380435 0.9248076
vn 0.8009084 -0.3804323 0.4624036
vn -0.8273838 0.2953781 -0.47769
vn 0.8273838 0.2953781 -0.47769
vn 0 0.2953839 0.9553786
vn 0 -1 0
vn -0.8273838 0.2953781 0.47769
vn -0.8009084 -0.3804323 -0.4624036
vn 0.8009084 -0.3804323 -0.4624036
vn 0 -0.380435 -0.9248076

vt 0.4962992 7.213414
vt -0.4962992 7.213414
vt 0.4595276 9.024067
vt -0.4595276 9.024067
vt -2.355315 1.776357E-15
vt -1.177677 2.039764
vt -1.177677 -2.039764
vt -1.062992 -1.062992
vt 1.177677 -2.039764
vt 1.062992 -1.062992
vt 1.062992 1.062992
vt -1.062992 1.062992
vt 1.177677 2.039764
vt 2.355315 1.776357E-15
vt 1.062992 5.850734
vt -1.062992 5.850734
vt 0.89 8.177875
vt -0.1025984 8.177875
vt 0.89 8.542758
vt -0.1025984 8.542758
vt 0.06582677 10.15538
vt -0.8532283 10.15538
vt 0.1025984 8.542758
vt -0.89 8.542758
vt 0.8532283 10.15538
vt -0.06582677 10.15538
vt 1.062992 6.199558
vt -1.062992 6.199558
vt 0.4962992 8.463264
vt -0.4962992 8.463264
vt -0.4962992 7.80007
vt -0.4595276 9.578454
vt 0.4962992 7.80007
vt 0.4595276 9.578454
vt -0.06582677 -0.4595276
vt -0.06582677 0.4595276
vt 0.8532283 -0.4595276
vt 0.8532283 0.4595276
vt 0.1025984 8.177875
vt -0.89 8.177875
vt -1.062992 5.380118
vt -0.4962992 7.833034
vt 1.062992 5.380118
vt 0.4962992 7.833034
vt -2.952751 1.945655
vt -3.513773 4.499917
vt 2.952768 1.945654
vt 3.513802 4.499918
vt 2.811023 4.579997
vt 3.513778 0.4591195
vt -2.81101 4.579999
vt -3.513797 0.4591172
vt 3.51378 0.4590745
vt -3.51378 0.4590745
vt 2.811024 4.579962
vt -2.811024 4.579962
vt 2.952756 1.945671
vt -2.952756 1.945671
vt 3.51378 4.499937
vt -3.51378 4.499937
vt -5.622047 1.776357E-15
vt -2.811024 4.868819
vt -2.811024 -4.868819
vt 2.811024 -4.868819
vt 2.811024 4.868819
vt 5.622047 1.776357E-15
vt 3.513773 4.499917
vt 2.952751 1.945655
vt -3.513802 4.499918
vt -2.952768 1.945654
vt 3.513797 0.4591172
vt -3.513778 0.4591195
vt 2.81101 4.579999
vt -2.811023 4.579997
vt 5.905512 1.776357E-15
vt 2.952756 -5.114331
vt 2.952756 5.114331
vt -2.952756 5.114331
vt -2.952756 -5.114331
vt -5.905512 1.776357E-15

usemtl metal

f 3/3/1 2/2/1 1/1/1
f 2/2/1 3/3/1 4/4/1
f 7/7/2 6/6/2 5/5/2
f 6/6/2 7/7/2 8/8/2
f 8/8/2 7/7/2 9/9/2
f 8/8/2 9/9/2 10/10/2
f 10/10/2 9/9/2 11/11/2
f 12/12/2 6/6/2 8/8/2
f 6/6/2 12/12/2 13/13/2
f 13/13/2 12/12/2 11/11/2
f 13/13/2 11/11/2 9/9/2
f 13/13/2 9/9/2 14/14/2
f 2/17/3 11/16/3 12/15/3
f 11/16/3 2/17/3 15/18/3
f 4/21/4 15/20/4 2/19/4
f 15/20/4 4/21/4 16/22/4
f 18/25/5 1/24/5 17/23/5
f 1/24/5 18/25/5 3/26/5
f 1/29/6 12/28/6 8/27/6
f 12/28/6 1/29/6 2/30/6
f 15/33/7 18/32/7 17/31/7
f 18/32/7 15/33/7 16/34/7
f 18/37/2 4/36/2 3/35/2
f 4/36/2 18/37/2 16/38/2
f 17/39/8 8/16/8 10/15/8
f 8/16/8 17/39/8 1/40/8
f 11/43/9 17/42/9 10/41/9
f 17/42/9 11/43/9 15/44/9

usemtl pumpkin

f 21/47/10 20/46/10 19/45/10
f 20/46/10 21/47/10 22/48/10
f 25/51/11 24/50/11 23/49/11
f 24/50/11 25/51/11 26/52/11
f 29/55/12 28/54/12 27/53/12
f 28/54/12 29/55/12 30/56/12
f 26/59/13 21/58/13 31/57/13
f 21/58/13 26/59/13 22/60/13
f 30/63/2 25/62/2 23/61/2
f 25/62/2 30/63/2 5/5/2
f 5/5/2 30/63/2 7/7/2
f 7/7/2 30/63/2 29/64/2
f 7/7/2 29/64/2 9/9/2
f 9/9/2 29/64/2 14/14/2
f 6/6/2 25/62/2 5/5/2
f 25/62/2 6/6/2 32/65/2
f 32/65/2 14/14/2 29/64/2
f 32/65/2 6/6/2 13/13/2
f 32/65/2 13/13/2 14/14/2
f 32/65/2 29/64/2 33/66/2
f 26/69/14 34/68/14 24/67/14
f 34/68/14 26/69/14 31/70/14
f 20/50/15 29/51/15 27/52/15
f 29/51/15 20/50/15 33/49/15
f 30/73/16 24/72/16 28/71/16
f 24/72/16 30/73/16 23/74/16
f 25/55/17 22/54/17 26/53/17
f 22/54/17 25/55/17 32/56/17
f 31/77/18 35/76/18 34/75/18
f 35/76/18 31/77/18 21/78/18
f 35/76/18 21/78/18 36/79/18
f 36/79/18 21/78/18 19/80/18
f 22/71/19 33/74/19 20/72/19
f 33/74/19 22/71/19 32/73/19
f 36/70/20 20/67/20 27/69/20
f 20/67/20 36/70/20 19/68/20
f 24/46/21 35/47/21 28/48/21
f 35/47/21 24/46/21 34/45/21
f 27/59/22 35/58/22 36/57/22
f 35/58/22 27/59/22 28/60/22

