# Created by Kenney (www.kenney.nl)

mtllib pumpkinTallCarved.mtl

g pumpkinTallCarved

v -0.031039 0.083455 0.096734
v -0.038799 0.085178 0.116891
v -0.041385 0.083455 0.096734
v -0.051732 0.085178 0.116891
v -0.12 0 0
v -0.1392 0.07 0
v -0.06 0 0.103923
v -0.06959999 0.07 0.120551
v -0.06959999 0.07 -0.120551
v -0.06 0 -0.103923
v 0.1392 0.07 0
v 0.12 0 0
v 0.0696 0.07 0.120551
v 0.06 0 0.103923
v -0.052896 0.19 -0.091619
v -0.105792 0.19 0
v 0.038084 0.10717 0.09101599
v 0.047605 0.114822 0.109744
v 0.04138501 0.083455 0.096734
v 0.051732 0.085178 0.116891
v -0.010346 0.083455 0.096734
v -0.012933 0.085178 0.116891
v -0.020693 0.093513 0.094309
v -0.025866 0.097751 0.11386
v 0.06 0 -0.103923
v 0.0696 0.07 -0.120551
v 0.02886 0.150662 0.08053
v 0.019015 0.129962 0.085521
v 0.028536 0.16 0.09885201
v 0.014268 0.13 0.106085
v 0.019042 0.094315 0.094115
v 0.030214 0.083455 0.096734
v 0.023803 0.098754 0.113618
v 0.037767 0.085178 0.116891
v 0.052896 0.19 -0.091619
v 0.040145 0.129962 0.085521
v 0.04489199 0.13 0.106085
v -0.030624 0.150662 0.08053
v -0.030624 0.16 0.09885201
v -0.020059 0.129962 0.085521
v -0.015312 0.13 0.106085
v -0.045936 0.13 0.106085
v -0.041189 0.129962 0.085521
v -0.052896 0.19 0.091619
v 0.009838 0.085178 0.116891
v 0.007870998 0.083455 0.096734
v 0.105792 0.19 0
v 0.052896 0.19 0.091619
v -0.047605 0.114822 0.109744
v 0.04867001 0.19 0
v 0.024335 0.19 -0.042149
v -0.024335 0.19 -0.042149
v -0.04867 0.19 0
v 0.024335 0.19 0.042149
v -0.024335 0.19 0.042149
v -0.038084 0.10717 0.09101599
v -0.02 0.19 -0.02
v 0.02 0.19 -0.02
v -0.02275 0.23 -0.01275
v 0.002749998 0.23 -0.01275
v 0.02 0.19 0.02
v -0.02 0.19 0.02
v 0.002749998 0.23 0.01275
v -0.02275 0.23 0.01275
v 0.008414999 0.26 -0.008415
v 0.008414999 0.26 0.008414999
v -0.008414999 0.26 0.008414999
v -0.008414999 0.26 -0.008415

vn 0 0.9963665 -0.08516841
vn -0.8425804 -0.2311088 0.4864635
vn -0.8425804 -0.2311088 -0.4864635
vn 0.8425804 -0.2311088 0.4864635
vn -0.8419019 0.2343849 -0.4860707
vn -0.8890961 -0.01346103 0.4575225
vn 0 -0.2311119 0.9729272
vn 0.6934671 0.7199656 0.02744006
vn 0 -0.2311119 -0.9729272
vn 0.9017273 -0.3785069 0.2088551
vn 0.6983145 0.6419843 -0.3165646
vn 0.8425804 -0.2311088 -0.4864635
vn 0 0.2343839 -0.9721441
vn -0.8793844 -0.4303006 0.2037755
vn -0.8907729 -0.404891 0.2063662
vn 0 0.9999983 -0.001847887
vn -0.8419019 0.2343849 0.4860707
vn 0.8907729 -0.404891 0.2063662
vn 0.8419019 0.2343849 0.4860707
vn 0 0.2343839 0.9721441
vn -0.6962422 0.7177767 0.006590469
vn 0 -1 0
vn 0 1 0
vn -0.6975037 0.6395597 -0.3231901
vn 0.8419019 0.2343849 -0.4860707
vn 0 -0.9257106 0.3782325
vn 0.8890961 -0.01346103 0.4575225
vn 0 0.1783442 -0.9839681
vn 0 0.1783442 0.9839681
vn -0.9976451 -0.0685881 0
vn 0.9182522 0.3959962 0
vn 0.9826341 -0.1855541 0
vn 0 0.1430146 0.9897205
vn -0.9022843 0.4311415 0
vn 0 0.1430146 -0.9897205
vn 0 0.2343941 0.9721416
vn 1.300361E-06 0.234398 0.9721407

vt 1.222008 4.074419
vt 1.52752 4.870896
vt 1.629331 4.074419
vt 2.036693 4.870896
vt -2.362203 0.9455724
vt -2.740155 3.778161
vt 2.362205 0.9455717
vt 2.740169 3.778162
vt -2.740169 3.778162
vt 2.740155 3.778161
vt -2.362205 0.9455717
vt 2.362203 0.9455724
vt -2.740173 1.566724
vt -2.08254 6.426507
vt 2.740151 1.566723
vt 2.082515 6.426508
vt 3.872251 4.223033
vt 4.699376 4.524321
vt 4.131886 3.289288
vt 5.023915 3.357128
vt 2.362205 0.9455844
vt -2.362205 0.9455844
vt 2.740157 3.778176
vt -2.740157 3.778176
vt -3.821552 2.464877
vt -4.618541 2.562636
vt -3.742261 3.035469
vt -4.519436 3.275868
vt -2.832325 6.180015
vt -3.111213 5.299546
vt -3.537939 6.577204
vt -3.94211 5.301162
vt -3.684274 3.390767
vt -3.959789 2.833101
vt -4.460997 3.618689
vt -4.805347 2.921591
vt 2.740157 1.566727
vt -2.740157 1.566727
vt 2.08252 6.42651
vt -2.08252 6.42651
vt 3.345127 5.186024
vt 4.044966 5.593301
vt 3.636847 4.283214
vt 4.467743 4.284864
vt 2.816557 6.188915
vt 3.519284 6.590987
vt 3.10186 5.297633
vt 3.932756 5.299266
vt 0.6028346 4.186025
vt 1.808504 4.186025
vt 0.7897244 3.376418
vt 1.621614 3.376418
vt -2.740151 1.566723
vt -2.082515 6.426508
vt 2.740173 1.566724
vt 2.08254 6.426507
vt -3.360781 5.237777
vt -3.646083 4.346495
vt -4.063508 5.639849
vt -4.47698 4.348128
vt -0.3873228 4.870896
vt 0.5091732 4.870896
vt -0.3098819 4.074419
vt 0.4073228 4.074419
vt -2.036693 4.870896
vt -1.48689 4.870896
vt -1.629331 4.074419
vt -1.189528 4.074419
vt 1.48689 2.181414
vt 0.3873228 2.181414
vt 0.937126 2.731216
vt -2.036693 2.181414
vt 2.036693 2.181414
vt 1.874213 3.381941
vt 1.767402 3.996619
vt -1.874213 3.381941
vt 1.123465 5.211565
vt -1.205669 5.211565
vt -0.5091732 2.181414
vt -1.52752 2.181414
vt -1.018346 2.690595
vt -1.808504 3.996619
vt 0.5617323 3.996619
vt -0.6028346 3.996619
vt 4.48182 3.349305
vt 4.605468 2.581661
vt 3.712245 3.098303
vt 3.811188 2.484238
vt 4.72441 0
vt 2.362205 -4.091457
vt 2.362205 4.091457
vt -2.362205 4.091457
vt -2.362205 -4.091457
vt -4.72441 0
vt -4.16504 0
vt -2.08252 3.607047
vt -2.08252 -3.607047
vt -1.916142 0
vt -0.9580709 -1.659409
vt 2.08252 -3.607047
vt 0.9580709 -1.659409
vt 1.916142 0
vt -0.9580709 1.659409
vt 2.08252 3.607047
vt 0.9580709 1.659409
vt 4.16504 0
vt 3.711387 3.355793
vt 4.495405 3.572838
vt 3.969256 2.840687
vt 4.817741 2.928927
vt -1.767402 4.186025
vt -0.5617323 4.186025
vt -1.580512 3.376418
vt -0.7486221 3.376418
vt 1.874213 5.709472
vt 1.49937 4.912979
vt -1.874213 5.709472
vt -1.49937 4.912979
vt -3.872251 4.223033
vt -4.131886 3.289288
vt -4.699376 4.524321
vt -5.023915 3.357128
vt 0.7874016 7.219963
vt -0.7874016 7.219963
vt 0.8956693 8.820425
vt -0.1082677 8.820425
vt 0.1082677 8.820425
vt -0.8956693 8.820425
vt -0.7874016 7.516706
vt -0.5019685 9.095226
vt 0.7874016 7.516706
vt 0.5019685 9.095226
vt 0.7874016 6.557007
vt -0.7874016 6.557007
vt 0.5019685 8.272008
vt -0.5019685 8.272008
vt 0.5019685 8.917957
vt -0.5019685 8.917957
vt 0.3312992 10.11993
vt -0.3312992 10.11993
vt 0.1082677 8.890248
vt -0.8956693 8.890248
vt 0.3312992 10.08362
vt -0.3312992 10.08362
vt -0.5019685 7.784131
vt -0.3312992 9.093144
vt 0.5019685 7.784131
vt 0.3312992 9.093144
vt 0.8956693 8.890248
vt -0.1082677 8.890248
vt -0.7874016 -0.7874016
vt 0.7874016 -0.7874016
vt 0.7874016 0.7874016
vt -0.7874016 0.7874016
vt -0.3312992 -0.3312992
vt -0.3312992 0.3312992
vt 0.3312992 -0.3312992
vt 0.3312992 0.3312992
vt 1.580512 4.184876
vt 0.7486221 4.184876
vt 1.13622 5.02319
vt 0.3098768 2.301407
vt -0.4073279 2.301408
vt 0.7496801 2.741224
vt -0.81469 2.708739
vt -1.499375 3.261826
vt -1.629336 2.301408
vt -1.222013 2.301408
vt 1.499365 3.261825
vt 1.189523 2.301407
vt 1.629326 2.301407
vt -0.7897244 4.184876
vt -1.621614 4.184876
vt -1.205669 5.02319

usemtl pumpkin

f 3/3/1 2/2/1 1/1/1
f 2/2/1 3/3/1 4/4/1
f 7/7/2 6/6/2 5/5/2
f 6/6/2 7/7/2 8/8/2
f 10/11/3 6/10/3 9/9/3
f 6/10/3 10/11/3 5/12/3
f 13/9/4 12/12/4 11/10/4
f 12/12/4 13/9/4 14/11/4
f 6/15/5 15/14/5 9/13/5
f 15/14/5 6/15/5 16/16/5
f 19/19/6 18/18/6 17/17/6
f 18/18/6 19/19/6 20/20/6
f 13/23/7 7/22/7 14/21/7
f 7/22/7 13/23/7 8/24/7
f 23/27/8 22/26/8 21/25/8
f 22/26/8 23/27/8 24/28/8
f 9/23/9 25/22/9 10/21/9
f 25/22/9 9/23/9 26/24/9
f 29/31/10 28/30/10 27/29/10
f 28/30/10 29/31/10 30/32/10
f 33/35/11 32/34/11 31/33/11
f 32/34/11 33/35/11 34/36/11
f 11/6/12 25/7/12 26/8/12
f 25/7/12 11/6/12 12/5/12
f 15/39/13 26/38/13 9/37/13
f 26/38/13 15/39/13 35/40/13
f 36/43/14 29/42/14 27/41/14
f 29/42/14 36/43/14 37/44/14
f 40/47/15 39/46/15 38/45/15
f 39/46/15 40/47/15 41/48/15
f 40/51/16 42/50/16 41/49/16
f 42/50/16 40/51/16 43/52/16
f 8/55/17 16/54/17 6/53/17
f 16/54/17 8/55/17 44/56/17
f 39/59/18 43/58/18 38/57/18
f 43/58/18 39/59/18 42/60/18
f 46/63/1 22/62/1 45/61/1
f 22/62/1 46/63/1 21/64/1
f 19/67/1 34/66/1 20/65/1
f 34/66/1 19/67/1 32/68/1
f 48/14/19 11/15/19 47/16/19
f 11/15/19 48/14/19 13/13/19
f 33/71/20 45/70/20 34/69/20
f 4/72/20 34/69/20 45/70/20
f 4/72/20 20/73/20 34/69/20
f 4/72/20 8/38/20 20/73/20
f 13/37/20 20/73/20 8/38/20
f 20/73/20 13/37/20 48/39/20
f 20/73/20 48/39/20 18/74/20
f 18/74/20 48/39/20 37/75/20
f 18/74/20 37/75/20 49/76/20
f 37/75/20 48/39/20 29/77/20
f 29/77/20 48/39/20 39/78/20
f 8/38/20 4/72/20 44/40/20
f 44/40/20 4/72/20 49/76/20
f 44/40/20 39/78/20 48/39/20
f 4/72/20 45/70/20 22/79/20
f 4/72/20 22/79/20 2/80/20
f 24/81/20 2/80/20 22/79/20
f 44/40/20 49/76/20 42/82/20
f 42/82/20 49/76/20 37/75/20
f 44/40/20 42/82/20 39/78/20
f 42/82/20 37/75/20 30/83/20
f 42/82/20 30/83/20 41/84/20
f 29/77/20 41/84/20 30/83/20
f 41/84/20 29/77/20 39/78/20
f 31/87/21 45/86/21 33/85/21
f 45/86/21 31/87/21 46/88/21
f 14/91/22 25/90/22 12/89/22
f 25/90/22 14/91/22 7/92/22
f 25/90/22 7/92/22 10/93/22
f 10/93/22 7/92/22 5/94/22
f 35/97/23 48/96/23 47/95/23
f 48/96/23 35/97/23 50/98/23
f 50/98/23 35/97/23 51/99/23
f 51/99/23 35/97/23 15/100/23
f 51/99/23 15/100/23 52/101/23
f 52/101/23 15/100/23 53/102/23
f 54/103/23 48/96/23 50/98/23
f 48/96/23 54/103/23 44/104/23
f 44/104/23 53/102/23 15/100/23
f 44/104/23 54/103/23 55/105/23
f 44/104/23 55/105/23 53/102/23
f 44/104/23 15/100/23 16/106/23
f 1/109/24 24/108/24 23/107/24
f 24/108/24 1/109/24 2/110/24
f 35/56/25 11/53/25 26/55/25
f 11/53/25 35/56/25 47/54/25
f 36/113/16 30/112/16 37/111/16
f 30/112/16 36/113/16 28/114/16
f 49/117/26 17/116/26 18/115/26
f 17/116/26 49/117/26 56/118/26
f 49/121/27 3/120/27 56/119/27
f 3/120/27 49/121/27 4/122/27

usemtl metal

f 59/125/28 58/124/28 57/123/28
f 58/124/28 59/125/28 60/126/28
f 63/127/29 62/124/29 61/123/29
f 62/124/29 63/127/29 64/128/29
f 62/131/30 59/130/30 57/129/30
f 59/130/30 62/131/30 64/132/30
f 60/135/31 61/134/31 58/133/31
f 61/134/31 60/135/31 63/136/31
f 65/139/32 63/138/32 60/137/32
f 63/138/32 65/139/32 66/140/32
f 66/143/33 64/142/33 63/141/33
f 64/142/33 66/143/33 67/144/33
f 64/147/34 68/146/34 59/145/34
f 68/146/34 64/147/34 67/148/34
f 68/143/35 60/150/35 59/149/35
f 60/150/35 68/143/35 65/144/35
f 51/99/23 54/103/23 50/98/23
f 54/103/23 51/99/23 58/151/23
f 58/151/23 51/99/23 52/101/23
f 58/151/23 52/101/23 57/152/23
f 57/152/23 52/101/23 62/153/23
f 61/154/23 54/103/23 58/151/23
f 54/103/23 61/154/23 55/105/23
f 55/105/23 61/154/23 62/153/23
f 55/105/23 62/153/23 52/101/23
f 55/105/23 52/101/23 53/102/23
f 68/157/23 66/156/23 65/155/23
f 66/156/23 68/157/23 67/158/23

usemtl light

f 27/161/36 28/160/36 36/159/36
f 31/164/37 21/163/37 46/162/37
f 21/163/37 31/164/37 23/165/37
f 56/166/37 23/165/37 31/164/37
f 3/167/37 23/165/37 56/166/37
f 23/165/37 3/167/37 1/168/37
f 56/166/37 31/164/37 17/169/37
f 32/170/37 17/169/37 31/164/37
f 17/169/37 32/170/37 19/171/37
f 38/174/36 43/173/36 40/172/36

