# Created by Kenney (www.kenney.nl)

mtllib pumpkinTall.mtl

g pumpkinTall

v 0.105792 0.19 0
v 0.052896 0.19 0.091619
v 0.052896 0.19 -0.091619
v 0.04867001 0.19 0
v 0.024335 0.19 -0.042149
v -0.052896 0.19 -0.091619
v -0.024335 0.19 -0.042149
v -0.04867 0.19 0
v 0.024335 0.19 0.042149
v -0.052896 0.19 0.091619
v -0.024335 0.19 0.042149
v -0.105792 0.19 0
v -0.06959999 0.07 -0.120551
v -0.1392 0.07 0
v -0.06 0 -0.103923
v -0.12 0 0
v -0.06 0 0.103923
v -0.06959999 0.07 0.120551
v 0.0696 0.07 -0.120551
v 0.1392 0.07 0
v 0.0696 0.07 0.120551
v 0.12 0 0
v 0.06 0 0.103923
v 0.06 0 -0.103923
v 0.02 0.19 0.02
v -0.02 0.19 0.02
v 0.002749998 0.23 0.01275
v -0.02275 0.23 0.01275
v 0.02 0.19 -0.02
v 0.002749998 0.23 -0.01275
v -0.02 0.19 -0.02
v -0.02275 0.23 -0.01275
v -0.008414999 0.26 -0.008415
v 0.008414999 0.26 -0.008415
v -0.008414999 0.26 0.008414999
v 0.008414999 0.26 0.008414999

vn 0 1 0
vn -0.8425804 -0.2311088 -0.4864635
vn -0.8425804 -0.2311088 0.4864635
vn 0.8419019 0.2343849 -0.4860707
vn 0 0.2343839 0.9721441
vn 0.8425804 -0.2311088 0.4864635
vn 0 -0.2311119 0.9729272
vn 0 -1 0
vn -0.8419019 0.2343849 -0.4860707
vn 0 0.2343839 -0.9721441
vn 0 -0.2311119 -0.9729272
vn 0.8419019 0.2343849 0.4860707
vn -0.8419019 0.2343849 0.4860707
vn 0.8425804 -0.2311088 -0.4864635
vn 0 0.1783442 0.9839681
vn 0.9182522 0.3959962 0
vn -0.9976451 -0.0685881 0
vn 0 0.1430146 -0.9897205
vn -0.9022843 0.4311415 0
vn 0 0.1783442 -0.9839681
vn 0.9826341 -0.1855541 0
vn 0 0.1430146 0.9897205

vt -4.16504 0
vt -2.08252 3.607047
vt -2.08252 -3.607047
vt -1.916142 0
vt -0.9580709 -1.659409
vt 2.08252 -3.607047
vt 0.9580709 -1.659409
vt 1.916142 0
vt -0.9580709 1.659409
vt 2.08252 3.607047
vt 0.9580709 1.659409
vt 4.16504 0
vt -2.740169 3.778162
vt 2.740155 3.778161
vt -2.362205 0.9455717
vt 2.362203 0.9455724
vt -2.362203 0.9455724
vt -2.740155 3.778161
vt 2.362205 0.9455717
vt 2.740169 3.778162
vt 2.740173 1.566724
vt -2.740151 1.566723
vt 2.08254 6.426507
vt -2.082515 6.426508
vt 2.740157 1.566727
vt -2.740157 1.566727
vt 2.08252 6.42651
vt -2.08252 6.42651
vt 2.362205 0.9455844
vt -2.362205 0.9455844
vt 2.740157 3.778176
vt -2.740157 3.778176
vt 4.72441 0
vt 2.362205 -4.091457
vt 2.362205 4.091457
vt -2.362205 4.091457
vt -2.362205 -4.091457
vt -4.72441 0
vt -2.740173 1.566724
vt -2.08254 6.426507
vt 2.740151 1.566723
vt 2.082515 6.426508
vt 0.7874016 7.219963
vt -0.7874016 7.219963
vt 0.1082677 8.820425
vt -0.8956693 8.820425
vt 0.7874016 6.557007
vt -0.7874016 6.557007
vt 0.5019685 8.272008
vt -0.5019685 8.272008
vt -0.7874016 7.516706
vt -0.5019685 9.095226
vt 0.7874016 7.516706
vt 0.5019685 9.095226
vt 0.8956693 8.890248
vt -0.1082677 8.890248
vt 0.3312992 10.08362
vt -0.3312992 10.08362
vt -0.5019685 7.784131
vt -0.3312992 9.093144
vt 0.5019685 7.784131
vt 0.3312992 9.093144
vt 0.8956693 8.820425
vt -0.1082677 8.820425
vt 0.5019685 8.917957
vt -0.5019685 8.917957
vt 0.3312992 10.11993
vt -0.3312992 10.11993
vt -0.7874016 -0.7874016
vt 0.7874016 -0.7874016
vt 0.7874016 0.7874016
vt -0.7874016 0.7874016
vt -0.3312992 -0.3312992
vt -0.3312992 0.3312992
vt 0.3312992 -0.3312992
vt 0.3312992 0.3312992
vt 0.1082677 8.890248
vt -0.8956693 8.890248

usemtl pumpkin

f 3/3/1 2/2/1 1/1/1
f 2/2/1 3/3/1 4/4/1
f 4/4/1 3/3/1 5/5/1
f 5/5/1 3/3/1 6/6/1
f 5/5/1 6/6/1 7/7/1
f 7/7/1 6/6/1 8/8/1
f 9/9/1 2/2/1 4/4/1
f 2/2/1 9/9/1 10/10/1
f 10/10/1 8/8/1 6/6/1
f 10/10/1 9/9/1 11/11/1
f 10/10/1 11/11/1 8/8/1
f 10/10/1 6/6/1 12/12/1
f 15/15/2 14/14/2 13/13/2
f 14/14/2 15/15/2 16/16/2
f 17/19/3 14/18/3 16/17/3
f 14/18/3 17/19/3 18/20/3
f 3/23/4 20/22/4 19/21/4
f 20/22/4 3/23/4 1/24/4
f 2/27/5 18/26/5 21/25/5
f 18/26/5 2/27/5 10/28/5
f 21/13/6 22/16/6 20/14/6
f 22/16/6 21/13/6 23/15/6
f 21/31/7 17/30/7 23/29/7
f 17/30/7 21/31/7 18/32/7
f 23/35/8 24/34/8 22/33/8
f 24/34/8 23/35/8 17/36/8
f 24/34/8 17/36/8 15/37/8
f 15/37/8 17/36/8 16/38/8
f 14/41/9 6/40/9 13/39/9
f 6/40/9 14/41/9 12/42/9
f 6/27/10 19/26/10 13/25/10
f 19/26/10 6/27/10 3/28/10
f 13/31/11 24/30/11 15/29/11
f 24/30/11 13/31/11 19/32/11
f 2/40/12 20/41/12 1/42/12
f 20/41/12 2/40/12 21/39/12
f 18/21/13 12/24/13 14/22/13
f 12/24/13 18/21/13 10/23/13
f 20/18/14 24/19/14 19/20/14
f 24/19/14 20/18/14 22/17/14

usemtl metal

f 27/45/15 26/44/15 25/43/15
f 26/44/15 27/45/15 28/46/15
f 30/49/16 25/48/16 29/47/16
f 25/48/16 30/49/16 27/50/16
f 26/53/17 32/52/17 31/51/17
f 32/52/17 26/53/17 28/54/17
f 33/57/18 30/56/18 32/55/18
f 30/56/18 33/57/18 34/58/18
f 28/61/19 33/60/19 32/59/19
f 33/60/19 28/61/19 35/62/19
f 32/63/20 29/44/20 31/43/20
f 29/44/20 32/63/20 30/64/20
f 34/67/21 27/66/21 30/65/21
f 27/66/21 34/67/21 36/68/21
f 5/5/1 9/9/1 4/4/1
f 9/9/1 5/5/1 29/69/1
f 29/69/1 5/5/1 7/7/1
f 29/69/1 7/7/1 31/70/1
f 31/70/1 7/7/1 26/71/1
f 25/72/1 9/9/1 29/69/1
f 9/9/1 25/72/1 11/11/1
f 11/11/1 25/72/1 26/71/1
f 11/11/1 26/71/1 7/7/1
f 11/11/1 7/7/1 8/8/1
f 33/75/1 36/74/1 34/73/1
f 36/74/1 33/75/1 35/76/1
f 36/57/22 28/78/22 27/77/22
f 28/78/22 36/57/22 35/58/22

