# Created by Kenney (www.kenney.nl)

mtllib rocks.mtl

g rocks

v 0.4183466 0 -0.007023744
v 0.3796501 0 0.06000056
v 0.3385434 0.06535295 -0.007023744
v 0.3422327 0.04207962 0.03581003
v 0.3073282 0.06535295 0.04704262
v 0.3355353 0 -0.1504571
v 0.2842924 0.06535295 -0.1009893
v 0.2754764 0.4656956 -0.2114533
v 0.3210182 0.1432909 -0.2114533
v 0.2099807 0.4656956 -0.09801151
v 0.2514004 0.1432909 -0.09087186
v 0.2293476 0.2123971 -0.06958291
v 0.2278708 0.2123971 -0.06702506
v 0.05621852 0.1432909 -0.3643354
v 0.2327516 0.1432909 -0.3643354
v 0.07898942 0.4656956 -0.3248951
v 0.2099807 0.4656956 -0.3248951
v -0.01827287 0 -0.3214533
v -0.03549179 0.06535295 -0.2523417
v -0.1262613 0 -0.3214533
v -0.08635973 0.06535295 -0.2523417
v -0.02780773 0.1432909 -0.2187977
v -0.04982108 0.2123971 -0.1890549
v -0.02963757 0.1603553 -0.2114533
v -0.00935458 0.2123971 -0.1890549
v 0.2576183 0 -0.4074059
v 0.3707515 0 -0.2114533
v 0.03135184 0 -0.4074059
v 0.07898942 0.4656956 -0.09801151
v 0.01349376 0.4656956 -0.2114533
v -0.2855126 0.03137958 -0.2215872
v -0.4016528 0.03137958 -0.02042642
v -0.3182319 0 -0.2782587
v -0.4670914 0 -0.02042642
v 0.2654661 0.2123971 -0.007023744
v 0.3290915 0.08923949 0.05857117
v 0.2888012 0.08923949 0.05857117
v -0.3417294 0.1019837 -0.02042642
v -0.2855126 0.03137958 0.1807343
v -0.2555509 0.1019837 0.1288391
v 0.4670914 0 0.2114533
v 0.3539582 0 0.4074059
v 0.417358 0.08923949 0.2114533
v 0.3290915 0.08923949 0.3643354
v 0.1276917 0 0.4074059
v 0.1525584 0.08923949 0.3643354
v 0.3063206 0.2900284 0.09801152
v 0.3718163 0.2900284 0.2114533
v -0.1610772 0.03137958 0.1807343
v -0.134009 0.06535295 0.1557633
v -0.1313491 0.1019837 0.1288391
v 0.3063206 0.2900284 0.3248951
v 0.1753293 0.2900284 0.3248951
v -0.115873 0.1019837 -0.169692
v -0.2097896 0.1019837 -0.007023744
v -0.2555509 0.1019837 -0.169692
v -0.1456012 0.03137958 -0.2215872
v -0.1511998 0 -0.2782587
v -0.3182319 0 0.2374059
v -0.1666759 0 0.2374059
v 0.2136279 0.2123971 0.08276264
v 0.1665254 0.2123971 0.08276264
v 0.1753293 0.2900284 0.09801152
v 0.06109938 0.2123971 -0.06702506
v 0.1132678 0.2123971 0.1750074
v 0.1098336 0.2900284 0.2114533
v 0.07301901 0.1277166 0.2114533
v 0.07385296 0.08923949 0.2280136
v -0.1185329 0.06535295 -0.1966161
v -0.1549168 0.2123971 -0.007023744
v 0.0699567 0 0.3074058
v -0.1262613 0 0.3074058
v 0.06647643 0.06535295 0.2382942
v -0.08635973 0.06535295 0.2382942
v -0.04982108 0.2123971 0.1750074

vn 0.5950225 0.7265886 0.3435364
vn 0.5950225 0.7265886 -0.3435364
vn 0.8596172 0.1214266 0.4963002
vn 0 0.1214266 -0.9926004
vn 0 0.7265885 -0.6870728
vn 0 0.3953325 -0.918538
vn 0.8596172 0.1214266 -0.4963002
vn 0.8293694 0.2878573 -0.4788367
vn 0 0.2878573 -0.9576733
vn 0 1 0
vn -0.4195102 0.8748419 -0.2422043
vn 0.7954773 0.3953326 -0.459269
vn 0 0.4346609 -0.9005942
vn -0.6978065 0.5922455 0.4028788
vn 0.7799374 0.4346608 0.4502971
vn 0 0.4346609 0.9005942
vn 0.8497867 0.1927438 -0.4906246
vn 0 0.5922455 0.8057576
vn 0 0.1927438 0.9812492
vn 0.7799374 0.4346608 -0.4502971
vn 0 0.8748419 -0.4844086
vn 0.8293694 0.2878573 0.4788367
vn -0.4195102 0.8748419 0.2422043
vn -0.8596172 0.1214266 -0.4963002
vn 0 0.8748419 0.4844086
vn 0 0.1927438 -0.9812492
vn -0.8293694 0.2878573 -0.4788367
vn 0.8497867 0.1927438 0.4906246
vn 0 0.1214266 0.9926004
vn -0.8497867 0.1927438 -0.4906246
vn -0.8497867 0.1927438 0.4906246
vn 0 0.5922455 -0.8057576
vn -0.8596172 0.1214266 0.4963002
vn -0.6978065 0.5922455 -0.4028788
vn 0.7954773 0.3953326 0.459269
vn -0.5950225 0.7265886 -0.3435364
vn -0.7954773 0.3953326 -0.459269
vn 0 0.7265885 0.6870728
vn -0.7799374 0.4346608 0.4502971
vn -0.5950225 0.7265886 0.3435364
vn 0 0.3953325 0.918538
vn -0.7954773 0.3953326 0.459269
vn 0 -1 0

vt 8.474648 -10.26341
vt 5.42768 -10.26341
vt 6.903718 -6.518604
vt 5.515903 -7.852194
vt 4.445827 -6.518604
vt -7.995692 -10.46433
vt -6.424763 -6.719524
vt -1.475118 -10.46433
vt -2.153029 -6.719524
vt 12.63237 17.56374
vt 13.52886 4.776019
vt 7.475229 17.56374
vt 8.047148 4.776019
vt 6.887179 7.517017
vt 6.770897 7.517017
vt -2.213328 3.857898
vt -9.163449 3.857898
vt -3.109819 16.64562
vt -8.266958 16.64562
vt 0.7194042 -9.195445
vt 1.397315 -5.450644
vt 4.970919 -9.195445
vt 3.39999 -5.450644
vt 1.397315 -1.564162
vt 1.094793 1.77639
vt 3.39999 -1.564162
vt 1.96146 4.738397
vt 1.166833 2.507799
vt 0.3682905 4.738397
vt 7.840471 3.76515
vt 0.8903488 3.76515
vt 6.943979 16.55287
vt 1.786841 16.55287
vt 8.819474 -4.836987
vt -0.08865454 -4.836987
vt 7.840471 1.053723
vt 0.8903488 1.053723
vt -1.234324 -4.617115
vt -10.14245 -4.617115
vt -2.213328 1.273594
vt -9.163449 1.273594
vt -10.84553 -8.324934
vt -8.266958 -3.858721
vt -8.266958 -12.79115
vt -3.109819 -12.79115
vt -3.109819 -3.858721
vt -0.5312503 -8.324934
vt -1.934795 -11.73389
vt 7.210102 -11.73389
vt -3.222958 -14.28425
vt 8.498264 -14.28425
vt -2.153029 -2.254552
vt -6.424763 -2.254552
vt -1.850507 1.086
vt -2.142252 4.048007
vt -4.986233 4.048007
vt -13.47373 2.104799
vt -12.95636 4.166424
vt -12.09953 3.122208
vt -11.37012 4.166424
vt -8.603 -6.876948
vt -7.423405 -3.427167
vt 0.5418977 -6.876948
vt -0.6376967 -3.427167
vt 1.985109 -8.731544
vt -6.92302 -8.731544
vt 1.006106 -4.83038
vt -5.944016 -4.83038
vt 13.93536 -6.971786
vt 5.027233 -6.971786
vt 12.95636 -3.070622
vt 6.006237 -3.070622
vt -8.475192 1.507028
vt -15.42531 1.507028
vt -9.371684 9.563161
vt -14.52882 9.563161
vt -6.341623 -3.21869
vt -11.24065 -3.21869
vt -5.275944 -1.558719
vt -10.06106 0.2310915
vt -5.171225 0.2310915
vt 12.95636 0.682787
vt 6.006237 0.682787
vt 12.05987 8.73892
vt 6.902729 8.73892
vt 4.561931 -6.680786
vt 8.259432 -0.2765254
vt 10.06106 -6.680786
vt 10.06106 5.072406
vt 5.171225 5.072406
vt 13.45391 -0.8041898
vt -7.957824 -3.273483
vt -9.519176 -5.113022
vt -8.475192 -1.211858
vt -15.42531 -1.211858
vt -16.40432 -5.113022
vt 5.732329 -7.033589
vt 11.24065 -7.033589
vt 5.952748 -9.58395
vt 12.52882 -9.58395
vt 13.52886 3.450115
vt 14.50786 -2.440594
vt 8.047148 3.450115
vt 11.73493 -2.440594
vt 9.039585 0.2460746
vt 0.5418977 -11.03035
vt 1.83006 -13.58071
vt -8.603 -11.03035
vt -9.891162 -13.58071
vt -13.52886 4.961515
vt -12.63237 17.74923
vt -6.912619 4.961515
vt -7.475229 17.74923
vt -6.626187 5.63835
vt -6.341623 -5.626512
vt -6.562042 -8.176872
vt -11.24065 -5.626512
vt -12.52882 -8.176872
vt -11.37012 3.891945
vt -12.95636 3.891945
vt -8.410547 8.833325
vt -12.05987 11.94808
vt -6.556117 8.833325
vt -6.902729 11.94808
vt -14.50786 -2.000851
vt -13.52886 3.889859
vt -10.60041 -2.000851
vt -6.912619 3.889859
vt -7.905056 0.6858181
vt 0.1096139 7.958582
vt 1.006106 -0.09755111
vt -5.047524 7.958582
vt -5.944016 -0.09755111
vt 8.971291 8.620634
vt 2.405487 8.620634
vt 8.266958 18.66735
vt 3.109819 18.66735
vt -0.4562256 9.613664
vt -0.1096139 12.72842
vt 3.737281 9.613664
vt 5.047524 12.72842
vt 5.772222 6.216077
vt 8.646986 4.611498
vt 9.371684 11.12384
vt 9.228033 3.067704
vt 14.52882 11.12384
vt 15.42531 3.067704
vt 11.24065 -4.171246
vt 5.732329 -4.171246
vt 10.06106 -0.721464
vt 4.66665 -2.511275
vt 4.561931 -0.721464
vt -7.793021 6.649219
vt -6.943979 18.7601
vt -6.630064 8.713382
vt -1.786841 18.7601
vt -1.082508 8.713382
vt -14.63844 8.324934
vt -12.05987 12.79115
vt -12.05987 3.858721
vt -6.902729 3.858721
vt -6.902729 12.79115
vt -4.324159 8.324934
vt -1.934795 -7.353226
vt -0.7552009 -3.903445
vt 7.210102 -7.353226
vt 6.030508 -3.903445
vt 5.465189 4.157326
vt 6.903718 -2.145233
vt 1.383441 4.157326
vt 4.445827 -2.145233
vt 3.68805 -1.121416
vt -6.903718 -3.980843
vt -4.370399 -3.980843
vt -8.474648 -7.725645
vt -4.688957 -5.927557
vt -6.510992 -7.725645
vt -6.903718 -0.764452
vt -5.465189 5.538107
vt -4.370399 -0.764452
vt -3.504765 0.805601
vt 2.810066 5.538107
vt 3.890238 0.805601
vt 2.754201 -8.793605
vt -4.970919 -8.793605
vt 2.617182 -5.048804
vt -3.39999 -5.048804
vt 9.228033 2.307659
vt 15.42531 2.307659
vt 9.433349 1.263443
vt 11.85825 -1.593505
vt 16.40432 -1.593505
vt 6.424763 -3.779923
vt 7.995692 -7.524724
vt 2.672854 -3.779923
vt 4.813447 -7.524724
vt 2.991413 -5.726637
vt -10.45142 -0.2765254
vt -8.410547 3.258372
vt -9.029431 -2.739485
vt -8.971291 -2.638782
vt -2.405487 -2.638782
vt -6.556117 3.258372
vt -4.459363 6.890055
vt 1.96146 6.890055
vt 0.3682905 -7.443106
vt 1.96146 -7.443106
vt 6.099087 -0.2765254
vt 2.617182 -1.345523
vt -3.39999 -1.345523
vt 2.907596 -0.321706
vt -1.96146 4.957036
vt 2.874764 1.327487
vt 4.459363 4.957036
vt -4.369194 0.9149205
vt -3.289021 5.647426
vt 1.80722 0.9149205
vt 4.986233 5.647426
vt 2.672854 -0.6551325
vt 6.424763 -0.6551325
vt 18.38943 8.324934
vt 14.94686 2.362227
vt 13.93536 16.0396
vt 13.21005 -5.923508
vt 16.47034 -0.2765254
vt 5.027233 16.0396
vt 10.14245 -16.0396
vt 1.234324 -16.0396
vt 2.754201 12.10259
vt -4.970919 12.10259
vt -0.7194042 -12.65564
vt -4.970919 -12.65564
vt -6.562042 9.346686
vt -5.952748 -10.95507
vt -12.52882 -10.95507
vt -12.52882 9.346686
vt -18.38943 -0.8041898
vt 14.59652 -8.324934

usemtl stone

f 3/3/1 2/2/1 1/1/1
f 2/2/1 3/3/1 4/4/1
f 4/4/1 3/3/1 5/5/1
f 6/8/2 3/7/2 1/6/2
f 3/7/2 6/8/2 7/9/2
f 10/12/3 9/11/3 8/10/3
f 9/11/3 10/12/3 11/13/3
f 11/13/3 10/12/3 12/14/3
f 12/14/3 10/12/3 13/15/3
f 16/18/4 15/17/4 14/16/4
f 15/17/4 16/18/4 17/19/4
f 20/22/5 19/21/5 18/20/5
f 19/21/5 20/22/5 21/23/5
f 21/26/6 22/25/6 19/24/6
f 22/25/6 21/26/6 23/27/6
f 22/25/6 23/27/6 24/28/6
f 24/28/6 23/27/6 25/29/6
f 17/32/7 9/31/7 15/30/7
f 9/31/7 17/32/7 8/33/7
f 15/36/8 27/35/8 26/34/8
f 27/35/8 15/36/8 9/37/8
f 14/40/9 26/39/9 28/38/9
f 26/39/9 14/40/9 15/41/9
f 17/44/10 10/43/10 8/42/10
f 10/43/10 17/44/10 16/45/10
f 10/43/10 16/45/10 29/46/10
f 29/46/10 16/45/10 30/47/10
f 33/50/11 32/49/11 31/48/11
f 32/49/11 33/50/11 34/51/11
f 11/54/12 3/53/12 7/52/12
f 3/53/12 11/54/12 12/55/12
f 3/53/12 12/55/12 35/56/12
f 5/59/13 36/58/13 4/57/13
f 36/58/13 5/59/13 37/60/13
f 39/63/14 38/62/14 32/61/14
f 38/62/14 39/63/14 40/64/14
f 43/67/15 42/66/15 41/65/15
f 42/66/15 43/67/15 44/68/15
f 44/71/16 45/70/16 42/69/16
f 45/70/16 44/71/16 46/72/16
f 47/75/17 43/74/17 36/73/17
f 43/74/17 47/75/17 48/76/17
f 50/79/18 39/78/18 49/77/18
f 39/78/18 50/79/18 40/80/18
f 40/80/18 50/79/18 51/81/18
f 52/84/19 46/83/19 44/82/19
f 46/83/19 52/84/19 53/85/19
f 56/88/10 55/87/10 54/86/10
f 40/89/10 55/87/10 56/88/10
f 55/87/10 40/89/10 51/90/10
f 40/89/10 56/88/10 38/91/10
f 36/94/20 2/93/20 4/92/20
f 2/93/20 36/94/20 43/95/20
f 2/93/20 43/95/20 41/96/20
f 58/99/21 31/98/21 57/97/21
f 31/98/21 58/99/21 33/100/21
f 11/103/22 27/102/22 9/101/22
f 27/102/22 11/103/22 6/104/22
f 6/104/22 11/103/22 7/105/22
f 32/108/23 59/107/23 39/106/23
f 59/107/23 32/108/23 34/109/23
f 22/112/24 16/111/24 14/110/24
f 16/111/24 22/112/24 30/113/24
f 30/113/24 22/112/24 24/114/24
f 39/117/25 60/116/25 49/115/25
f 60/116/25 39/117/25 59/118/25
f 61/121/26 36/120/26 37/119/26
f 36/120/26 61/121/26 47/122/26
f 47/122/26 61/121/26 62/123/26
f 47/122/26 62/123/26 63/124/26
f 18/127/27 14/126/27 28/125/27
f 14/126/27 18/127/27 22/128/27
f 22/128/27 18/127/27 19/129/27
f 52/132/28 43/131/28 48/130/28
f 43/131/28 52/132/28 44/133/28
f 10/136/29 64/135/29 13/134/29
f 64/135/29 10/136/29 29/137/29
f 65/140/30 63/139/30 62/138/30
f 63/139/30 65/140/30 66/141/30
f 66/141/30 65/140/30 67/142/30
f 68/145/31 66/144/31 67/143/31
f 66/144/31 68/145/31 53/146/31
f 53/146/31 68/145/31 46/147/31
f 56/150/32 57/149/32 31/148/32
f 57/149/32 56/150/32 69/151/32
f 69/151/32 56/150/32 54/152/32
f 25/155/33 30/154/33 24/153/33
f 30/154/33 25/155/33 29/156/33
f 29/156/33 25/155/33 64/157/33
f 47/160/10 52/159/10 48/158/10
f 52/159/10 47/160/10 63/161/10
f 52/159/10 63/161/10 53/162/10
f 53/162/10 63/161/10 66/163/10
f 32/166/34 56/165/34 31/164/34
f 56/165/34 32/166/34 38/167/34
f 61/170/35 3/169/35 35/168/35
f 3/169/35 61/170/35 5/171/35
f 5/171/35 61/170/35 37/172/35
f 20/175/36 69/174/36 21/173/36
f 69/174/36 20/175/36 57/176/36
f 57/176/36 20/175/36 58/177/36
f 69/180/37 23/179/37 21/178/37
f 23/179/37 69/180/37 54/181/37
f 23/179/37 54/181/37 70/182/37
f 70/182/37 54/181/37 55/183/37
f 73/186/38 72/185/38 71/184/38
f 72/185/38 73/186/38 74/187/38
f 73/190/39 46/189/39 68/188/39
f 46/189/39 73/190/39 71/191/39
f 46/189/39 71/191/39 45/192/39
f 50/195/40 72/194/40 74/193/40
f 72/194/40 50/195/40 60/196/40
f 60/196/40 50/195/40 49/197/40
f 12/200/10 61/199/10 35/198/10
f 61/199/10 12/200/10 13/201/10
f 61/199/10 13/201/10 64/202/10
f 61/199/10 64/202/10 62/203/10
f 62/203/10 64/202/10 65/204/10
f 65/204/10 64/202/10 75/205/10
f 75/205/10 64/202/10 25/206/10
f 75/205/10 25/206/10 23/207/10
f 75/205/10 23/207/10 70/208/10
f 68/211/41 74/210/41 73/209/41
f 74/210/41 68/211/41 75/212/41
f 75/212/41 68/211/41 67/213/41
f 75/212/41 67/213/41 65/214/41
f 51/217/42 70/216/42 55/215/42
f 70/216/42 51/217/42 75/218/42
f 75/218/42 51/217/42 50/219/42
f 75/218/42 50/219/42 74/220/42
f 42/223/43 2/222/43 41/221/43
f 6/224/43 2/222/43 42/223/43
f 2/222/43 6/224/43 1/225/43
f 6/224/43 42/223/43 45/226/43
f 6/224/43 45/226/43 26/227/43
f 26/227/43 45/226/43 28/228/43
f 28/228/43 45/226/43 71/229/43
f 28/228/43 71/229/43 72/230/43
f 28/228/43 72/230/43 18/231/43
f 18/231/43 72/230/43 20/232/43
f 20/232/43 72/230/43 60/233/43
f 20/232/43 60/233/43 58/234/43
f 58/234/43 60/233/43 33/235/43
f 33/235/43 60/233/43 59/236/43
f 33/235/43 59/236/43 34/237/43
f 26/227/43 27/238/43 6/224/43

