# Created by Kenney (www.kenney.nl)

mtllib rocksTall.mtl

g rocksTall

v -0.4670914 0 -0.02042642
v -0.4016528 0.1012245 -0.02042642
v -0.3182319 0 0.2374059
v -0.2855126 0.1012245 0.1807343
v 0.03135184 0 -0.4074059
v 0.2576183 0 -0.4074059
v 0.05621852 0.1069335 -0.3643354
v 0.2327516 0.1069335 -0.3643354
v 0.07898942 0.347534 -0.3248951
v 0.007956512 0.1069335 -0.2807432
v 0.02225123 0.347534 -0.2266217
v 0.005679931 0.181536 -0.2523417
v 0.3210182 0.1069335 -0.2114533
v 0.2099807 0.347534 -0.3248951
v 0.2754764 0.347534 -0.2114533
v 0.3707515 0 -0.2114533
v -0.3182319 0 -0.2782587
v -0.2855126 0.1012245 -0.2215872
v -0.1666759 0 0.2374059
v -0.1548969 0.1012245 0.1807343
v -0.1394208 0.1012245 -0.2215872
v -0.2555509 0.3289795 -0.169692
v -0.1146811 0.181536 -0.2032877
v -0.1076983 0.3289795 -0.169692
v -0.2555509 0.3289795 0.1288391
v -0.1301571 0.181536 0.1624349
v -0.1231744 0.3289795 0.1288391
v 0.3539582 0 0.4074059
v 0.1276917 0 0.4074059
v 0.3290915 0.0769306 0.3643354
v 0.1525584 0.0769306 0.3643354
v -0.01827287 1.849544E-16 -0.3214533
v 0.2654661 0.589992 -0.007023744
v 0.1603704 0.589992 0.1750074
v 0.1603704 0.589992 -0.1890549
v -0.04982108 0.589992 -0.1890549
v -0.04982108 0.589992 0.1750074
v -0.1549168 0.589992 -0.007023744
v 0.1820596 0.347534 -0.2266217
v 0.2331467 0.347534 -0.1381362
v 0.2637065 0.181536 -0.136645
v 0.3385434 0.181536 -0.007023744
v -0.08635973 0.181536 -0.2523417
v 0.3718163 0.2500244 0.2114533
v 0.3063206 0.2500244 0.3248951
v 0.3063206 0.2500244 0.09801152
v 0.2656479 0.2500244 0.09801152
v 0.1753293 0.2500244 0.3248951
v 0.1907824 0.2500244 0.2276825
v 0.1192036 0.2500244 0.2276825
v -0.2016148 0.3289795 -0.007023744
v 0.2871647 0.1069335 -0.1528174
v 0.4670914 0 0.2114533
v 0.417358 0.0769306 0.2114533
v -0.3417294 0.3289795 -0.02042642
v -0.1262613 0 -0.3214533
v 0.3355353 0 -0.1504571
v 0.4183466 0 -0.007023744
v 0.1073106 0.181536 0.2382942
v 0.1027807 0.0769306 0.278118
v -0.1511998 0 -0.2782587
v 0.0699567 0 0.3074058
v -0.1262613 0 0.3074058
v -0.08635973 0.181536 0.2382942
v 0.3796501 0 0.06000056
v 0.323835 0.1168878 0.06767564
v 0.2869111 0.181536 0.08240606
v 0.3378741 0.0769306 0.07378308

vn -0.7556575 0.4885104 0.4362791
vn 0 0.3736102 -0.9275858
vn -0.8546191 0.1617656 -0.4934146
vn 0.8546191 0.1617656 -0.4934146
vn 0.8033129 0.3736102 -0.4637929
vn 0 0.1617656 -0.9868292
vn -0.7556575 0.4885104 -0.4362791
vn 0 0.4885104 0.8725581
vn 0 0.2221611 -0.9750099
vn 0 0.2221611 0.9750099
vn -0.8033129 0.3736102 -0.4637929
vn 0 1 0
vn 0.8558136 0.1531146 -0.4941042
vn 0 0.1531146 -0.9882085
vn -0.8558136 0.1531146 -0.4941042
vn 0.8546191 0.1617656 0.4934146
vn 0.7556575 0.4885104 0.4362791
vn -0.8443834 0.2221611 -0.487505
vn 0 0.3557932 -0.9345647
vn 0.8093567 0.3557933 -0.4672823
vn 0.8033129 0.3736102 0.4637929
vn -0.8443834 0.2221611 0.487505
vn 0.8443834 0.2221611 0.487505
vn -0.8093567 0.3557933 -0.4672823
vn 0 0.4885104 -0.8725581
vn 0 0.3557932 0.9345647
vn -0.8558136 0.1531146 0.4941042
vn 0.8093567 0.3557933 0.4672823
vn -0.8093567 0.3557933 0.4672823
vn 0 0.1531146 0.9882085
vn 0.7556575 0.4885104 -0.4362791
vn 0.8443834 0.2221611 -0.487505
vn 0.8558136 0.1531146 0.4941042
vn 0 -1 0

vt -9.891162 -7.583447
vt -8.603 -3.016169
vt 1.83006 -7.583447
vt 0.5418977 -3.016169
vt -1.234324 -5.992558
vt -10.14245 -5.992558
vt -2.213328 -1.453914
vt -9.163449 -1.453914
vt -13.52886 3.304429
vt -12.63237 12.90331
vt -9.728702 3.304429
vt -8.164794 12.90331
vt -8.715523 6.280734
vt 7.840471 1.71062
vt 0.8903488 1.71062
vt 6.943979 11.3095
vt 1.786841 11.3095
vt 8.819474 -6.277929
vt -0.08865454 -6.277929
vt 7.840471 -1.739286
vt 0.8903488 -1.739286
vt -2.213328 1.83418
vt -9.163449 1.83418
vt -3.109819 11.43306
vt -8.266958 11.43306
vt -3.222958 -7.976302
vt -1.934795 -3.409024
vt 8.498264 -7.976302
vt 7.210102 -3.409024
vt -6.562042 -4.565953
vt -12.52882 -4.565953
vt -6.098304 0.001325183
vt -11.24065 0.001325183
vt 11.24065 1.947513
vt 5.489009 1.947513
vt 10.06106 11.14407
vt 4.515002 5.190424
vt 4.240091 11.14407
vt -11.24065 2.304832
vt -10.06106 11.50139
vt -6.098304 2.304832
vt -5.124297 5.547744
vt -4.849385 11.50139
vt 13.93536 -7.83551
vt 5.027233 -7.83551
vt 12.95636 -4.364379
vt 6.006237 -4.364379
vt -14.50786 -2.596906
vt -13.52886 1.941738
vt -10.60041 -2.596906
vt -9.728702 1.941738
vt -10.45142 -0.2765254
vt -6.313795 6.890055
vt -6.313795 -7.443106
vt 1.96146 -7.443106
vt 1.96146 6.890055
vt 6.099087 -0.2765254
vt 4.142928 11.88761
vt 0.1203186 11.88761
vt 3.289021 21.5471
vt -4.986233 21.5471
vt -0.5320948 5.27427
vt -6.424763 5.27427
vt -0.2236194 5.541662
vt -0.8760328 12.155
vt 3.39999 5.541662
vt 1.96146 21.81449
vt -7.167701 12.155
vt -6.313795 21.81449
vt -14.63844 8.324934
vt -12.05987 12.79115
vt -12.05987 3.858721
vt -10.45858 3.858721
vt -6.902729 12.79115
vt -7.511117 8.963878
vt -4.693054 8.963878
vt -6.903718 5.851394
vt -5.465189 22.12422
vt -4.673694 5.851394
vt -3.665685 11.72552
vt 2.810066 22.12422
vt 3.729318 11.72552
vt 12.63237 12.65619
vt 13.52886 3.057308
vt 9.299324 12.65619
vt 10.86323 3.057308
vt 9.850053 6.033614
vt 1.985109 -9.813282
vt -6.92302 -9.813282
vt 1.006106 -6.342151
vt -5.944016 -6.342151
vt -1.934795 0.7538987
vt -0.7552009 9.950456
vt 7.210102 0.7538987
vt 6.030508 9.950456
vt 4.970919 -4.502792
vt 0.7194042 -4.502792
vt 3.39999 3.144711
vt -0.3132485 0.001959424
vt -0.2236194 3.144711
vt -0.4424657 -0.6193813
vt -1.475118 -5.124133
vt -0.5320948 2.523371
vt -7.995692 -5.124133
vt -6.424763 2.523371
vt 14.50786 -3.16765
vt 11.73493 -3.16765
vt 13.52886 1.370994
vt 10.86323 1.370994
vt -7.423405 10.12912
vt -0.6376967 10.12912
vt -8.603 0.9325584
vt 0.5418977 0.9325584
vt -10.84553 -8.324934
vt -9.179005 -5.438433
vt -8.266958 -12.79115
vt -7.167701 -8.922114
vt -3.109819 -12.79115
vt -0.8760328 -8.922114
vt 12.95636 -0.2335858
vt 6.006237 -0.2335858
vt 12.05987 6.755797
vt 6.902729 6.755797
vt 0.1096139 5.856361
vt 1.006106 -1.133022
vt -5.047524 5.856361
vt -5.944016 -1.133022
vt 10.10947 9.504711
vt 14.52882 9.504711
vt 10.23717 6.739205
vt 11.50581 2.515327
vt 15.42531 2.515327
vt -8.474648 -3.783065
vt -6.903718 3.864438
vt -6.510992 -3.783065
vt -4.810617 0.4811825
vt -4.673694 3.864438
vt 12.52882 -5.351663
vt 5.952748 -5.351663
vt 11.24065 -0.7843848
vt 5.489009 -0.7843848
vt 2.754201 -4.30602
vt -4.970919 -4.30602
vt 4.046485 -1.065192
vt -3.39999 3.341483
vt 4.224827 3.341483
vt -4.208274 11.76786
vt -3.289021 22.16656
vt 1.96814 11.76786
vt 4.986233 22.16656
vt 2.976149 5.893734
vt 6.424763 5.893734
vt 4.240091 -6.680786
vt 7.937592 -0.2765254
vt 10.06106 -6.680786
vt 10.06106 5.072406
vt 4.849385 5.072406
vt 13.45391 -0.8041898
vt 8.474648 -5.025747
vt 5.42768 -5.025747
vt 6.903718 2.621756
vt 4.067272 -0.1016537
vt 2.838181 2.621756
vt 4.135395 -1.784919
vt 2.976149 3.962824
vt 6.424763 3.962824
vt 3.113072 0.5795683
vt 4.813447 -3.68468
vt 7.995692 -3.68468
vt 11.50581 1.680209
vt 15.42531 1.680209
vt 11.85825 -1.790922
vt 16.40432 -1.790922
vt 7.511117 8.354912
vt 4.693054 8.354912
vt 6.313795 21.89917
vt -1.96146 21.89917
vt 4.224827 5.626342
vt -3.39999 5.626342
vt -9.519176 -5.746466
vt -16.40432 -5.746466
vt -9.166736 -2.275335
vt -15.42531 -2.275335
vt -12.74941 5.078807
vt -12.05987 10.45475
vt -11.29571 7.689245
vt -10.45858 10.45475
vt -8.682139 2.329894
vt -9.166736 0.7164543
vt -9.371684 7.705838
vt -15.42531 0.7164543
vt -14.52882 7.705838
vt 5.465189 21.58944
vt 6.903718 5.31661
vt -2.810066 21.58944
vt 2.838181 5.31661
vt 1.88754 8.045179
vt -4.007388 8.045179
vt 18.38943 8.324934
vt 14.94686 2.362227
vt 13.93536 16.0396
vt 13.21005 -5.923508
vt 16.47034 -0.2765254
vt 5.027233 16.0396
vt 10.14245 -16.0396
vt 1.234324 -16.0396
vt 2.754201 12.10259
vt -4.970919 12.10259
vt -0.7194042 -12.65564
vt -4.970919 -12.65564
vt -5.952748 -10.95507
vt -6.562042 9.346686
vt -12.52882 -10.95507
vt -12.52882 9.346686
vt -18.38943 -0.8041898
vt 14.59652 -8.324934

usemtl stone

f 3/3/1 2/2/1 1/1/1
f 2/2/1 3/3/1 4/4/1
f 7/7/2 6/6/2 5/5/2
f 6/6/2 7/7/2 8/8/2
f 10/11/3 9/10/3 7/9/3
f 9/10/3 10/11/3 11/12/3
f 11/12/3 10/11/3 12/13/3
f 14/16/4 13/15/4 8/14/4
f 13/15/4 14/16/4 15/17/4
f 8/20/5 16/19/5 6/18/5
f 16/19/5 8/20/5 13/21/5
f 9/24/6 8/23/6 7/22/6
f 8/23/6 9/24/6 14/25/6
f 1/28/7 18/27/7 17/26/7
f 18/27/7 1/28/7 2/29/7
f 20/32/8 3/31/8 19/30/8
f 3/31/8 20/32/8 4/33/8
f 22/36/9 21/35/9 18/34/9
f 21/35/9 22/36/9 23/37/9
f 23/37/9 22/36/9 24/38/9
f 20/41/10 25/40/10 4/39/10
f 25/40/10 20/41/10 26/42/10
f 25/40/10 26/42/10 27/43/10
f 30/46/8 29/45/8 28/44/8
f 29/45/8 30/46/8 31/47/8
f 32/50/11 7/49/11 5/48/11
f 7/49/11 32/50/11 10/51/11
f 35/54/12 34/53/12 33/52/12
f 34/53/12 35/54/12 36/55/12
f 34/53/12 36/55/12 37/56/12
f 37/56/12 36/55/12 38/57/12
f 35/60/13 40/59/13 39/58/13
f 40/59/13 35/60/13 33/61/13
f 40/59/13 33/61/13 41/62/13
f 41/62/13 33/61/13 42/63/13
f 43/66/14 11/65/14 12/64/14
f 11/65/14 43/66/14 36/67/14
f 11/65/14 36/67/14 39/68/14
f 39/68/14 36/67/14 35/69/14
f 46/72/12 45/71/12 44/70/12
f 45/71/12 46/72/12 47/73/12
f 45/71/12 47/73/12 48/74/12
f 48/74/12 47/73/12 49/75/12
f 48/74/12 49/75/12 50/76/12
f 23/79/15 36/78/15 43/77/15
f 36/78/15 23/79/15 24/80/15
f 36/78/15 24/80/15 38/81/15
f 38/81/15 24/80/15 51/82/15
f 40/85/16 13/84/16 15/83/16
f 13/84/16 40/85/16 52/86/16
f 52/86/16 40/85/16 41/87/16
f 54/90/17 28/89/17 53/88/17
f 28/89/17 54/90/17 30/91/17
f 2/94/18 22/93/18 18/92/18
f 22/93/18 2/94/18 55/95/18
f 43/98/19 32/97/19 56/96/19
f 32/97/19 43/98/19 10/99/19
f 10/99/19 43/98/19 12/100/19
f 41/103/20 57/102/20 52/101/20
f 57/102/20 41/103/20 58/104/20
f 58/104/20 41/103/20 42/105/20
f 13/108/21 57/107/21 16/106/21
f 57/107/21 13/108/21 52/109/21
f 2/112/22 25/111/22 55/110/22
f 25/111/22 2/112/22 4/113/22
f 14/116/12 40/115/12 15/114/12
f 40/115/12 14/116/12 39/117/12
f 39/117/12 14/116/12 9/118/12
f 39/117/12 9/118/12 11/119/12
f 45/122/10 31/121/10 30/120/10
f 31/121/10 45/122/10 48/123/10
f 45/126/23 54/125/23 44/124/23
f 54/125/23 45/126/23 30/127/23
f 59/130/22 48/129/22 50/128/22
f 48/129/22 59/130/22 60/131/22
f 48/129/22 60/131/22 31/132/22
f 61/135/24 43/134/24 56/133/24
f 43/134/24 61/135/24 21/136/24
f 43/134/24 21/136/24 23/137/24
f 18/140/25 61/139/25 17/138/25
f 61/139/25 18/140/25 21/141/25
f 60/144/26 63/143/26 62/142/26
f 63/143/26 60/144/26 64/145/26
f 64/145/26 60/144/26 59/146/26
f 27/149/27 38/148/27 51/147/27
f 38/148/27 27/149/27 37/150/27
f 37/150/27 27/149/27 26/151/27
f 37/150/27 26/151/27 64/152/27
f 22/155/12 51/154/12 24/153/12
f 25/156/12 51/154/12 22/155/12
f 51/154/12 25/156/12 27/157/12
f 25/156/12 22/155/12 55/158/12
f 42/161/28 65/160/28 58/159/28
f 65/160/28 42/161/28 66/162/28
f 66/162/28 42/161/28 67/163/28
f 68/164/28 65/160/28 66/162/28
f 20/167/29 64/166/29 26/165/29
f 64/166/29 20/167/29 19/168/29
f 64/166/29 19/168/29 63/169/29
f 62/172/1 31/171/1 60/170/1
f 31/171/1 62/172/1 29/173/1
f 34/176/30 50/175/30 49/174/30
f 37/177/30 50/175/30 34/176/30
f 37/177/30 59/178/30 50/175/30
f 59/178/30 37/177/30 64/179/30
f 68/182/31 53/181/31 65/180/31
f 53/181/31 68/182/31 54/183/31
f 67/186/9 46/185/9 66/184/9
f 46/185/9 67/186/9 47/187/9
f 46/190/32 68/189/32 66/188/32
f 68/189/32 46/190/32 54/191/32
f 54/191/32 46/190/32 44/192/32
f 34/195/33 42/194/33 33/193/33
f 42/194/33 34/195/33 67/196/33
f 67/196/33 34/195/33 47/197/33
f 47/197/33 34/195/33 49/198/33
f 28/201/34 65/200/34 53/199/34
f 57/202/34 65/200/34 28/201/34
f 65/200/34 57/202/34 58/203/34
f 57/202/34 28/201/34 29/204/34
f 57/202/34 29/204/34 6/205/34
f 6/205/34 29/204/34 5/206/34
f 5/206/34 29/204/34 62/207/34
f 5/206/34 62/207/34 63/208/34
f 5/206/34 63/208/34 32/209/34
f 32/209/34 63/208/34 56/210/34
f 56/210/34 63/208/34 61/211/34
f 61/211/34 63/208/34 19/212/34
f 61/211/34 19/212/34 17/213/34
f 17/213/34 19/212/34 3/214/34
f 17/213/34 3/214/34 1/215/34
f 6/205/34 16/216/34 57/202/34

