# Created by Kenney (www.kenney.nl)

mtllib shovelDirt.mtl

g shovelDirt

v -0.09531 0.20874 -0.028542
v -0.109017 0.242531 -0.026598
v -0.056221 0.224845 -0.032857
v -0.069928 0.258636 -0.030913
v -0.101951 0.096497 0.001533
v -0.109452 0.103592 -0.0003679991
v -0.066589 0.161953 -0.016005
v -0.12004 0.120886 -0.005001999
v -0.162764 0.217638 -0.030926
v -0.03016 0.20335 -0.027098
v -0.109017 0.239782 -0.03686
v -0.016181 0.27803 -0.047108
v 0.016796 0.20335 -0.027098
v -0.069928 0.255886 -0.041175
v -0.016181 0.273906 -0.062501
v 0.014975 0.20335 -0.043596
v -0.109452 0.099467 -0.015761
v -0.103426 0.09376699 -0.014233
v -0.092495 0.302866 -0.07026099
v -0.069928 0.251762 -0.056568
v -0.092495 0.30974 -0.044606
v -0.109017 0.235657 -0.052253
v -0.131584 0.286761 -0.065946
v -0.162764 0.213513 -0.046319
v -0.017683 0.20335 -0.043596
v -0.086429 0.125228 -0.022663
v -0.12004 0.116761 -0.020395
v -0.131584 0.293635 -0.040291
v 0.15977 0 -0.252865
v 0.260917 0 -0.045365
v 0.091106 0.20335 -0.143006
v 0.151059 0.20335 -0.020015
v 0.002843998 0 -0.252865
v 0.057499 0.20335 -0.143006
v -0.154083 0 -0.045365
v -0.012707 0.20335 0.052277
v 0.151059 0.20335 0.004966
v -0.044224 0.20335 0.052277
v -0.044224 0.20335 -0.008501
v -0.1695167 0.4772864 -0.1169969
v -0.1695167 0.4841604 -0.09134187
v -0.2086047 0.4611814 -0.1126819
v -0.2086047 0.4680554 -0.08702686
v -0.1524147 0.4912064 -0.09322986
v -0.2264897 0.4931724 -0.09375687
v -0.1426077 0.5147704 -0.09954387
v -0.1759047 0.5140134 -0.09934087
v -0.1849767 0.5345575 -0.1048459
v -0.1686587 0.5737654 -0.1153519
v -0.2501017 0.4704824 -0.08767687
v -0.2761527 0.5294774 -0.1034849
v -0.2355617 0.5137164 -0.09926087
v -0.2257067 0.4610094 -0.08513886
v -0.154083 0 0.162135
v 0.002843998 0 0.162135
v 0.323233 0 0.146045
v 0.190686 0 0.238467
v 0.239822 0.142345 0.110456
v 0.161257 0.142345 0.165238
v -0.2501017 0.4636084 -0.1133319
v -0.2264897 0.4862984 -0.1194119
v -0.2761527 0.5226034 -0.1291399
v -0.1524147 0.4843314 -0.1188849
v -0.2355617 0.5068414 -0.1249159
v -0.1849767 0.5276834 -0.1305009
v -0.1686587 0.5668914 -0.1410069
v -0.1426077 0.5078964 -0.1251989
v -0.1759047 0.5071394 -0.1249959
v -0.2257067 0.4541354 -0.1107939
v 0.098745 0 0.252865
v 0.143981 0.142345 0.167943
v 0.236182 0.142345 0.08721401
v 0.148269 0.142345 0.040078
v 0.09294 0.142345 0.05606199
v 0.093527 0.142345 0.059811
v 0.306238 0 0.037519
v 0.260917 0 0.013219
v 0.050048 0 0.148498
v 0.205855 0.101921 0.046174
v 0.089835 0.135271 0.060937

vn 0.1141331 -0.01085377 0.9934062
vn 2.613254E-07 0.2588171 0.9659264
vn 0.9198229 0.3789693 -0.1015292
vn -0.78694 -0.5959991 0.1597199
vn -0.7869402 -0.5959988 0.1597199
vn -0.6996593 -0.690124 0.1849481
vn 0.9198208 0.3789712 -0.1015407
vn 1.261478E-06 -0.2588184 -0.9659259
vn 5.376413E-07 -0.2588195 -0.9659257
vn 0.3923405 -0.88848 0.2380593
vn -0.8607515 -0.4916771 0.1317591
vn -0.3923371 0.8884872 -0.2380382
vn -4.911366E-06 0.2588122 0.9659276
vn -1.025326E-06 0.2588193 0.9659257
vn -0.3923408 0.8884712 -0.2380916
vn -0.919822 -0.378968 0.1015407
vn -0.9198205 -0.3789716 0.1015416
vn -0.9198214 -0.3789662 0.101555
vn 0.7908597 0.475314 -0.3855094
vn -0.7017329 0.4753159 -0.5307031
vn 0 1 0
vn 0.9198202 0.3789722 -0.1015418
vn -0.879815 0.4753162 4.399835E-07
vn 0.123031 0.4789689 0.8691674
vn 0 0.475313 0.8798167
vn 0.1230308 0.4789689 0.8691676
vn 0 0.4753164 -0.8798149
vn 0.5032226 0.4753137 0.7216952
vn 0.13612 0.4753129 0.8692232
vn 0.8692228 0.4753139 -0.1361195
vn 0 -1 0
vn 0.2441839 0.4753141 0.8452519
vn 0.4157414 0.475314 -0.7753938
vn -0.8692225 0.4753204 0.1360986
vn -0.8396692 0.4789732 0.2560081
vn -0.8100834 0.4770353 0.3408844
vn -0.7972962 0.4753142 0.3720151
vn 0.8798168 0.475313 8.713709E-07
vn -0.7017402 0.4753178 -0.5306917
vn 0.9278366 -0.3602768 0.09653958
vn 0.3923125 -0.8884872 0.2380785
vn 0.3923451 -0.8884738 0.238075
vn -0.91982 -0.3789728 0.101542
vn -0.3923337 0.8884828 -0.2380601
vn -0.3729999 -0.8962183 0.2401327
vn -0.9198227 -0.3789669 0.1015404
vn -0.3923389 0.8884807 -0.2380595
vn 0.9198227 0.3789669 -0.1015404
vn 0.3923345 -0.8884825 0.23806
vn 0.9198151 0.3789822 -0.1015519

vt -3.599581 8.200861
vt -4.144435 9.531294
vt -2.051311 8.834953
vt -2.596165 10.16539
vt -4.013819 3.654025
vt -4.309134 3.943208
vt -2.621614 6.321931
vt -4.725984 4.648094
vt -6.408031 8.591593
vt -3.752362 8.228923
vt -1.187401 8.009234
vt -4.292007 9.494164
vt -2.213425 8.885342
vt -0.6370468 11.0531
vt 0.6612601 8.009234
vt -2.75307 10.15054
vt 2.515707 10.11699
vt 1.641334 7.115297
vt 1.913342 10.29244
vt 0.9878616 7.115297
vt -1.701158 5.599636
vt -1.115259 5.824049
vt -1.582367 5.289552
vt -0.9674301 5.438063
vt 3.149047 12.29112
vt 2.515721 10.11697
vt 2.145107 12.58356
vt 1.913356 10.29243
vt 1.51178 10.40942
vt 1.528641 8.971838
vt 4.292011 9.494143
vt 2.753074 10.15056
vt 5.180474 11.57708
vt 3.641537 12.2335
vt 0.6370504 11.05312
vt -0.5895647 8.177342
vt 6.408034 8.591572
vt 0.6961833 8.177342
vt 3.402718 4.993171
vt 4.725986 4.648073
vt 4.309134 3.943187
vt 4.07189 3.710855
vt -0.3876444 2.020777
vt 0.4758686 1.43106
vt -1.331195 0.6391379
vt -0.467682 0.04942144
vt -1.508806 6.240036
vt -0.90976 6.426538
vt -1.265391 5.458129
vt -0.6663452 5.644631
vt -1.773301 3.3307
vt -1.255182 3.684506
vt -0.4759906 1.430921
vt 0.04212838 1.784728
vt -4.292013 9.49414
vt -5.180474 11.57707
vt -2.753077 10.15056
vt -3.641537 12.23349
vt 0.4679678 0.04965505
vt 0.9860567 0.4035233
vt 1.765472 -1.849995
vt 2.283561 -1.496127
vt -3.149051 12.29111
vt -2.14511 12.58356
vt -2.515729 10.11697
vt -1.913365 10.29246
vt -1.511788 10.40941
vt -1.528648 8.971832
vt -2.515789 10.11694
vt -1.913426 10.29244
vt -1.316735 6.000788
vt -0.7143713 6.17628
vt 6.192591 -4.760886
vt -2.895586 -4.760883
vt 3.489251 4.338638
vt -1.89757 4.338633
vt -8.007811 -2.811838
vt -5.856049 6.287698
vt 2.234641 -2.811836
vt -0.9490327 6.287688
vt 1.340867 2.791886
vt -0.6612598 -1.06685
vt -0.5895669 -1.716378
vt -2.26374 -5.630157
vt 0.6961811 -1.716378
vt -3.58685 -5.630157
vt 0.5002756 2.05815
vt -5.947205 0.1955118
vt -5.947205 -0.7879921
vt 1.187402 -1.06685
vt 1.741102 2.05815
vt 1.741102 -0.334685
vt 5.310665 19.71157
vt 4.306725 20.00401
vt -5.310656 19.71155
vt -4.306715 20.00399
vt -6.000583 19.62987
vt -8.916922 19.71
vt -5.614481 20.59031
vt -6.925387 20.55945
vt -7.282552 21.3968
vt -6.640112 22.99488
vt -6.67389 19.34268
vt -9.846528 18.78518
vt -8.212788 18.68626
vt -10.87216 21.18975
vt -9.274088 20.54734
vt -8.886095 18.39907
vt -0.8922458 2.72033
vt -0.5603564 1.312503
vt -1.786027 -2.883391
vt 6.383265 -2.883393
vt 0.06035232 1.434667
vt 2.058149 6.216141
vt -0.3346859 6.216142
vt -0.6301194 4.363695
vt 0.1119685 -3.03405
vt -6.06626 -3.03405
vt -0.5002756 6.065464
vt -1.741102 6.065464
vt -0.1119685 -4.731925
vt -6.290157 -4.731925
vt -2.26374 4.367609
vt -3.58685 4.367609
vt 7.14996 -5.701427
vt 0.7882454 -5.701424
vt 5.257648 0.6682402
vt 1.48684 0.6682354
vt 8.212787 18.68627
vt 6.673889 19.34269
vt 9.846527 18.78519
vt 8.916921 19.71001
vt 10.87216 21.18976
vt 6.000582 19.62984
vt 9.274086 20.54731
vt 7.282551 21.39682
vt 6.64011 22.99489
vt 5.61448 20.59032
vt 6.925385 20.55946
vt 8.886094 18.39908
vt 5.964402 -4.960799
vt 2.300562 -4.9608
vt 5.265776 1.408857
vt 4.577332 1.408865
vt -9.441811 4.348661
vt -6.348701 6.505433
vt -9.298504 3.433622
vt -5.837362 1.577874
vt -5.668543 6.611929
vt -3.659055 2.207165
vt -3.682165 2.354764
vt -3.324661 -5.553051
vt -7.649411 -5.55305
vt -4.830884 0.8166162
vt -5.757077 0.8166102
vt 12.72571 5.749803
vt 12.05661 1.477126
vt 7.507323 9.388465
vt 10.27232 0.5204331
vt 10.27232 -1.786024
vt 6.290157 -9.955315
vt 3.887599 9.955315
vt 0.1119685 -9.955315
vt 1.970394 5.846378
vt 0.1119685 6.383268
vt -6.06626 6.383268
vt -6.06626 -1.786024
vt 7.281602 1.63113
vt 5.170114 3.440029
vt 5.659301 6.1699
vt 2.90273 3.440028
vt -1.05184 6.169886
vt 2.73202 3.12348
vt -1.664041 -2.929632
vt 0.270383 -2.929627
vt -9.299057 -2.089166
vt -11.32365 -2.089161
vt -8.001633 2.471606
vt -9.817393 4.280499
vt -5.890142 4.280502
vt 2.746618 6.48659
vt 2.896015 6.48659
vt 2.917327 6.170041
vt 3.690845 6.043382
vt 8.388627 6.043383
vt 3.669558 5.726831
vt 6.13118 -0.3262814
vt 10.66539 -0.3262849
vt 1.786034 -4.882568
vt -0.5204229 -4.882569
vt 0.787998 4.216947
vt -0.1955059 4.216946
vt -1.817866 -0.3218023
vt 1.078739 4.435237
vt -0.1346962 6.287678
vt 0.7832639 6.287678
vt 4.321584 16.45742
vt 4.034379 15.46288
vt 3.316968 16.74754
vt 3.029763 15.75303
vt 0.02475705 2.624904
vt 0.8882347 2.035118
vt -0.3881004 2.020448
vt 0.4753773 1.43068
vt -0.2490028 2.224237
vt 0.6144975 1.634502
vt -1.47012 0.4363126
vt -0.60662 -0.1534403
vt -5.905896 21.75486
vt -4.901956 22.04731
vt -5.651282 20.88085
vt -4.647342 21.17329
vt -0.6146197 1.634082
vt 0.2488885 2.223805
vt 0.6064407 -0.1538767
vt 1.469949 0.4358468
vt -7.628512 13.12165
vt -8.477776 12.51159
vt -8.232421 13.96236
vt -9.081685 13.35231
vt -6.246492 22.92415
vt -5.242551 23.2166
vt -5.515351 20.41431
vt -4.51141 20.70675
vt -1.301573 2.639921
vt -0.4380612 3.229639
vt 1.293208 -1.15953
vt 2.15672 -0.5698124
vt 6.246516 22.92417
vt 5.515374 20.41432
vt 5.242575 23.21661
vt 4.511434 20.70677
vt -1.33119 0.6390355
vt -0.4676813 0.04931287
vt -1.744016 0.03455694
vt -0.8805068 -0.5551656
vt 5.905964 21.75482
vt 5.651385 20.88085
vt 4.902025 22.04731
vt 4.647446 21.17329

usemtl stone

f 3/3/1 2/2/1 1/1/1
f 2/2/1 3/3/1 4/4/1
f 7/7/2 6/6/2 5/5/2
f 6/6/2 7/7/2 8/8/2
f 8/8/2 7/7/2 9/9/2
f 9/9/2 7/7/2 1/10/2
f 1/10/2 7/7/2 10/11/2
f 9/9/2 1/10/2 11/12/2
f 10/11/2 3/13/2 1/10/2
f 10/11/2 12/14/2 3/13/2
f 12/14/2 10/11/2 13/15/2
f 3/13/2 12/14/2 14/16/2
f 12/19/3 16/18/3 15/17/3
f 16/18/3 12/19/3 13/20/3
f 18/23/6 6/22/5 17/21/4
f 6/22/5 18/23/6 5/24/6
f 21/27/7 20/26/7 19/25/7
f 20/26/7 21/27/7 14/28/7
f 14/28/7 21/27/7 4/29/7
f 14/28/7 4/29/7 3/30/7
f 23/33/9 20/32/8 22/31/8
f 20/32/8 23/33/9 19/34/9
f 15/35/8 22/31/8 20/32/8
f 16/36/8 22/31/8 15/35/8
f 16/36/8 24/37/8 22/31/8
f 25/38/8 24/37/8 16/36/8
f 26/39/8 24/37/8 25/38/8
f 26/39/8 27/40/8 24/37/8
f 26/39/8 17/41/8 27/40/8
f 17/41/8 26/39/8 18/42/8
f 28/45/10 19/44/10 21/43/10
f 19/44/10 28/45/10 23/46/10
f 17/49/4 8/48/11 27/47/11
f 8/48/11 17/49/4 6/50/5
f 20/53/12 12/52/12 15/51/12
f 12/52/12 20/53/12 14/54/12
f 4/57/13 28/56/14 2/55/13
f 28/56/14 4/57/13 21/58/14
f 24/61/15 11/60/15 22/59/15
f 11/60/15 24/61/15 9/62/15
f 22/65/17 28/64/16 23/63/16
f 28/64/16 22/65/17 11/66/17
f 28/64/16 11/66/17 2/67/17
f 2/67/17 11/66/17 1/68/17
f 27/71/18 9/70/18 24/69/18
f 9/70/18 27/71/18 8/72/18

usemtl wood

f 31/75/19 30/74/19 29/73/19
f 30/74/19 31/75/19 32/76/19
f 35/79/20 34/78/20 33/77/20
f 34/78/20 35/79/20 25/80/20
f 25/80/20 35/79/20 26/81/20
f 34/84/21 16/83/21 13/82/21
f 16/83/21 34/84/21 25/85/21
f 13/82/21 31/86/21 34/84/21
f 36/87/21 31/86/21 13/82/21
f 37/88/21 31/86/21 36/87/21
f 31/86/21 37/88/21 32/89/21
f 36/87/21 13/82/21 10/90/21
f 36/87/21 10/90/21 38/91/21
f 38/91/21 10/90/21 39/92/21
f 41/94/22 19/25/7 40/93/22
f 19/25/7 41/94/22 21/27/7
f 23/63/16 43/96/16 42/95/16
f 43/96/16 23/63/16 28/64/16
f 46/99/14 45/98/14 44/97/14
f 45/98/14 46/99/14 47/100/14
f 47/100/14 46/99/14 48/101/14
f 48/101/14 46/99/14 49/102/14
f 45/98/14 41/103/14 44/97/14
f 50/104/14 41/103/14 45/98/14
f 43/105/14 41/103/14 50/104/14
f 43/105/14 21/58/14 41/103/14
f 21/58/14 43/105/14 28/56/14
f 50/104/14 45/98/14 51/106/14
f 51/106/14 48/101/14 49/102/14
f 51/106/14 45/98/14 52/107/14
f 51/106/14 52/107/14 48/101/14
f 50/104/14 53/108/14 43/105/14
f 35/111/23 18/110/23 26/109/23
f 18/110/23 35/111/23 54/112/23
f 18/110/23 54/112/23 5/113/23
f 5/113/23 54/112/23 38/114/23
f 39/115/23 5/113/23 38/114/23
f 5/113/23 39/115/23 7/116/23
f 36/119/26 54/118/25 55/117/24
f 54/118/25 36/119/26 38/120/25
f 34/123/27 29/122/27 33/121/27
f 29/122/27 34/123/27 31/124/27
f 58/127/28 57/126/28 56/125/28
f 57/126/28 58/127/28 59/128/28
f 42/129/9 19/34/9 23/33/9
f 19/34/9 42/129/9 40/130/9
f 40/130/9 42/129/9 60/131/9
f 40/130/9 60/131/9 61/132/9
f 61/132/9 60/131/9 62/133/9
f 40/130/9 61/132/9 63/134/9
f 61/132/9 62/133/9 64/135/9
f 64/135/9 62/133/9 65/136/9
f 65/136/9 62/133/9 66/137/9
f 61/132/9 67/138/9 63/134/9
f 67/138/9 65/136/9 66/137/9
f 67/138/9 61/132/9 68/139/9
f 67/138/9 68/139/9 65/136/9
f 60/131/9 42/129/9 69/140/9
f 59/143/29 70/142/29 57/141/29
f 70/142/29 59/143/29 71/144/29
f 72/147/21 59/146/21 58/145/21
f 59/146/21 72/147/21 73/148/21
f 59/146/21 73/148/21 71/149/21
f 71/149/21 73/148/21 74/150/21
f 71/149/21 74/150/21 75/151/21
f 72/154/30 56/153/30 76/152/30
f 56/153/30 72/154/30 58/155/30
f 57/158/31 76/157/31 56/156/31
f 76/157/31 57/158/31 77/159/31
f 77/159/31 57/158/31 30/160/31
f 30/160/31 57/158/31 29/161/31
f 29/161/31 57/158/31 70/162/31
f 29/161/31 70/162/31 33/163/31
f 33/163/31 70/162/31 78/164/31
f 33/163/31 78/164/31 55/165/31
f 33/163/31 55/165/31 54/166/31
f 33/163/31 54/166/31 35/167/31
f 37/170/32 73/169/32 79/168/32
f 73/169/32 37/170/32 74/171/32
f 36/172/26 74/171/32 37/170/32
f 36/172/26 80/173/32 74/171/32
f 55/174/24 80/173/32 36/172/26
f 80/173/32 55/174/24 78/175/32
f 79/178/33 76/177/33 77/176/33
f 76/177/33 79/178/33 72/179/33
f 72/179/33 79/178/33 73/180/33
f 80/183/36 75/182/35 74/181/34
f 80/186/36 71/185/37 75/184/35
f 71/185/37 80/186/36 78/187/37
f 71/185/37 78/187/37 70/188/37
f 32/191/38 77/190/38 30/189/38
f 77/190/38 32/191/38 37/192/38
f 77/190/38 37/192/38 79/193/38
f 39/196/39 10/195/39 7/194/39
f 46/199/40 63/198/40 67/197/40
f 63/198/40 46/199/40 44/200/40
f 41/203/41 63/202/41 44/201/41
f 63/202/41 41/203/41 40/204/41
f 52/207/42 65/206/42 48/205/42
f 65/206/42 52/207/42 64/208/42
f 68/211/43 48/210/43 65/209/43
f 48/210/43 68/211/43 47/212/43
f 61/215/44 47/214/44 68/213/44
f 47/214/44 61/215/44 45/216/44
f 50/219/45 69/218/45 53/217/45
f 69/218/45 50/219/45 60/220/45
f 60/223/46 51/222/46 62/221/46
f 51/222/46 60/223/46 50/224/46
f 62/227/47 49/226/47 66/225/47
f 49/226/47 62/227/47 51/228/47
f 49/231/48 67/230/48 66/229/48
f 67/230/48 49/231/48 46/232/48
f 53/235/49 42/234/49 43/233/49
f 42/234/49 53/235/49 69/236/49
f 52/239/50 61/238/50 64/237/50
f 61/238/50 52/239/50 45/240/50

