# Created by Kenney (www.kenney.nl)

mtllib stoneWallDamaged.mtl

g stoneWallDamaged

v 0.5 0.09 -0.432914
v 0.5 0.09 -0.407
v -0.5 0.09 -0.432914
v -0.5 0.09 -0.407
v -0.196491 0.291194 -0.467086
v -0.113528 0.387049 -0.467086
v -0.196491 0.291194 -0.432914
v -0.113528 0.387049 -0.432914
v 0.5 0.601914 -0.432914
v -0.5 0.175841 -0.432914
v -0.447307 0.232975 -0.432914
v 0.088617 0.435414 -0.432914
v 0.154935 0.520422 -0.432914
v 0.294025 0.568158 -0.432914
v 0.294025 0.601914 -0.432914
v 0.5 0.601914 -0.422914
v 0.294025 0.601914 -0.422914
v 0.5 0.651914 -0.422914
v 0.294025 0.651914 -0.422914
v 0.5 0 -0.4
v 0.5 0 -0.5
v -0.5 0 -0.4
v -0.5 0 -0.5
v 0.088617 0.435414 -0.467086
v -0.5 0.07 -0.5
v 0.5 0.07 -0.5
v -0.447307 0.232975 -0.467086
v -0.5 0.09 -0.467086
v 0.5 0.09 -0.467086
v -0.5 0.175841 -0.467086
v 0.5 0.601914 -0.467086
v 0.154935 0.520422 -0.467086
v 0.294025 0.568158 -0.467086
v 0.294025 0.601914 -0.467086
v 0.5 0.601914 -0.477086
v 0.294025 0.601914 -0.477086
v 0.294025 0.651914 -0.477086
v -0.5 0.09 -0.493
v -0.5 0.07 -0.4
v 0.5 0.07 -0.4
v 0.5 0.09 -0.493
v 0.5 0.651914 -0.477086

vn 0 1 0
vn -0.7561235 0.6544289 0
vn 0 0 1
vn 0 -1 0
vn -0.2326914 0.9725506 0
vn 0 0 -1
vn -0.2261071 0.9741024 0
vn -1 0 0
vn 0 0.3303504 0.9438583
vn -0.7350988 0.67796 0
vn 0 0.3303504 -0.9438583
vn -0.3246164 0.9458458 0
vn 1 0 0
vn -0.7884494 0.6150996 0

vt -19.68504 -17.04386
vt -19.68504 -16.02362
vt 19.68504 -17.04386
vt 19.68504 -16.02362
vt -18.38921 3.605876
vt -18.38921 8.596885
vt -17.04386 3.605876
vt -17.04386 8.596885
vt 19.68504 3.543307
vt -19.68504 3.543307
vt 19.68504 23.6974
vt -7.735866 11.46433
vt -19.68504 6.922874
vt -17.61051 9.172244
vt 3.488858 17.14228
vt -4.469606 15.23815
vt 6.099803 20.48906
vt 11.57579 22.36843
vt 11.57579 23.6974
vt 19.68504 25.6659
vt 11.57579 25.6659
vt 19.68504 -15.74803
vt 19.68504 -19.68504
vt -19.68504 -15.74803
vt -19.68504 -19.68504
vt -18.38921 7.381954
vt -17.04386 7.381954
vt -18.38921 -0.8011314
vt -17.04386 -0.8011314
vt 19.68504 0
vt -19.68504 0
vt 19.68504 2.755906
vt -19.68504 2.755906
vt -18.38921 -4.94336
vt -17.04386 -4.94336
vt -18.38921 -15.08053
vt -17.04386 -15.08053
vt 19.68504 6.922874
vt 7.735866 11.46433
vt -19.68504 23.6974
vt 17.61051 9.172244
vt -3.488858 17.14228
vt 4.469606 15.23815
vt -6.099803 20.48906
vt -11.57579 22.36843
vt -11.57579 23.6974
vt 19.68504 -18.38921
vt 19.68504 -18.78291
vt 11.57579 -18.38921
vt 11.57579 -18.78291
vt -18.38921 22.36843
vt -18.38921 23.6974
vt -17.04386 22.36843
vt -17.04386 23.6974
vt -16.65016 25.6659
vt -18.78291 25.6659
vt -18.78291 23.6974
vt -16.65016 23.6974
vt -19.68504 -3.841789E-14
vt -15.74803 -3.841789E-14
vt -19.40945 3.543307
vt -18.38921 3.543307
vt -18.38921 6.922874
vt -17.04386 3.543307
vt -16.02362 3.543307
vt -15.74803 2.755906
vt -17.04386 6.922874
vt 19.68504 7.803553
vt -19.68504 7.803553
vt 19.68504 8.637791
vt -19.68504 8.637791
vt -19.68504 -19.40945
vt -19.68504 -18.38921
vt 19.68504 -19.40945
vt -18.38921 -8.256672
vt -18.38921 -5.196715
vt -17.04386 -8.256672
vt -17.04386 -5.196715
vt 19.68504 -3.901777
vt -19.68504 -3.901777
vt 19.68504 -3.06754
vt -19.68504 -3.06754
vt -19.68504 -18.78291
vt -19.68504 -16.65016
vt -11.57579 -18.78291
vt -11.57579 -16.65016
vt -18.38921 18.21007
vt -17.04386 18.21007
vt -18.38921 12.42056
vt -17.04386 12.42056
vt 18.78291 25.6659
vt 18.78291 23.6974
vt 16.65016 25.6659
vt 18.38921 23.6974
vt 17.04386 23.6974
vt 18.38921 3.543307
vt 16.65016 23.6974
vt 17.04386 3.543307
vt 15.74803 0
vt 19.40945 3.543307
vt 16.02362 3.543307
vt 15.74803 2.755906
vt -11.57579 25.6659
vt -19.68504 25.6659
vt 19.68504 -16.65016
vt 11.57579 -16.65016
vt 11.57579 -17.04386
vt -18.38921 15.66182
vt -18.38921 19.90657
vt -17.04386 15.66182
vt -17.04386 19.90657

usemtl stone

f 3/3/1 2/2/1 1/1/1
f 2/2/1 3/3/1 4/4/1
f 7/7/2 6/6/2 5/5/2
f 6/6/2 7/7/2 8/8/2
f 9/11/3 3/10/3 1/9/3
f 3/10/3 9/11/3 7/12/3
f 3/10/3 7/12/3 10/13/3
f 10/13/3 7/12/3 11/14/3
f 7/12/3 9/11/3 12/15/3
f 7/12/3 12/15/3 8/16/3
f 12/15/3 9/11/3 13/17/3
f 13/17/3 9/11/3 14/18/3
f 14/18/3 9/11/3 15/19/3
f 18/20/3 17/19/3 16/11/3
f 17/19/3 18/20/3 19/21/3
f 22/24/4 21/23/4 20/22/4
f 21/23/4 22/24/4 23/25/4
f 6/28/5 12/27/5 24/26/5
f 12/27/5 6/28/5 8/29/5
f 25/32/6 21/31/6 23/30/6
f 21/31/6 25/32/6 26/33/6
f 27/36/7 7/35/7 5/34/7
f 7/35/7 27/36/7 11/37/7
f 30/38/6 29/10/6 28/9/6
f 29/10/6 30/38/6 5/39/6
f 29/10/6 5/39/6 31/40/6
f 5/39/6 30/38/6 27/41/6
f 31/40/6 5/39/6 24/42/6
f 24/42/6 5/39/6 6/43/6
f 31/40/6 24/42/6 32/44/6
f 31/40/6 32/44/6 33/45/6
f 31/40/6 33/45/6 34/46/6
f 34/49/4 35/48/4 31/47/4
f 35/48/4 34/49/4 36/50/4
f 14/53/8 34/52/8 33/51/8
f 15/54/8 34/52/8 14/53/8
f 19/55/8 34/52/8 15/54/8
f 37/56/8 34/52/8 19/55/8
f 34/52/8 37/56/8 36/57/8
f 19/55/8 15/54/8 17/58/8
f 22/60/8 25/33/8 23/59/8
f 25/33/8 22/60/8 38/61/8
f 38/61/8 22/60/8 28/62/8
f 28/62/8 22/60/8 30/63/8
f 30/63/8 22/60/8 3/64/8
f 3/64/8 22/60/8 4/65/8
f 4/65/8 22/60/8 39/66/8
f 10/67/8 30/63/8 3/64/8
f 2/70/9 39/69/9 40/68/9
f 39/69/9 2/70/9 4/71/9
f 38/74/1 29/73/1 41/72/1
f 29/73/1 38/74/1 28/47/1
f 10/77/10 27/76/10 30/75/10
f 27/76/10 10/77/10 11/78/10
f 38/81/11 26/80/11 25/79/11
f 26/80/11 38/81/11 41/82/11
f 37/85/1 18/84/1 42/83/1
f 18/84/1 37/85/1 19/86/1
f 32/89/12 14/88/12 33/87/12
f 14/88/12 32/89/12 13/90/12
f 18/93/13 35/92/13 42/91/13
f 35/92/13 18/93/13 31/94/13
f 31/94/13 18/93/13 9/95/13
f 31/94/13 9/95/13 29/96/13
f 9/95/13 18/93/13 16/97/13
f 1/98/13 29/96/13 9/95/13
f 20/99/13 29/96/13 1/98/13
f 20/99/13 41/100/13 29/96/13
f 21/30/13 41/100/13 20/99/13
f 41/100/13 21/30/13 26/32/13
f 20/99/13 1/98/13 2/101/13
f 20/99/13 2/101/13 40/102/13
f 37/103/6 35/40/6 36/46/6
f 35/40/6 37/103/6 42/104/6
f 40/32/3 22/31/3 20/30/3
f 22/31/3 40/32/3 39/33/3
f 17/106/4 9/3/4 16/105/4
f 9/3/4 17/106/4 15/107/4
f 12/110/14 32/109/14 24/108/14
f 32/109/14 12/110/14 13/111/14

