# Created by Kenney (www.kenney.nl)

mtllib stoneWall.mtl

g stoneWall

v 0.5 0.651914 -0.477086
v 0.5 0.601914 -0.477086
v 0.5 0.651914 -0.422914
v 0.5 0.601914 -0.467086
v 0.5 0.601914 -0.432914
v 0.5 0.09 -0.467086
v 0.5 0.601914 -0.422914
v 0.5 0.09 -0.432914
v 0.5 0 -0.4
v 0.5 0.09 -0.493
v 0.5 0 -0.5
v 0.5 0.07 -0.5
v 0.5 0.09 -0.407
v 0.5 0.07 -0.4
v -0.5 0.09 -0.432914
v -0.5 0.09 -0.407
v -0.5 0.601914 -0.477086
v -0.5 0.651914 -0.477086
v -0.5 0 -0.4
v -0.5 0 -0.5
v -0.5 0.651914 -0.422914
v -0.5 0.07 -0.4
v -0.5 0.09 -0.493
v -0.5 0.09 -0.467086
v -0.5 0.601914 -0.432914
v -0.5 0.07 -0.5
v -0.5 0.601914 -0.467086
v -0.5 0.601914 -0.422914

vn 1 0 0
vn 0 1 0
vn 0 0 -1
vn 0 -1 0
vn 0 0.3303504 0.9438583
vn 0 0 1
vn -1 0 0
vn 0 0.3303504 -0.9438583

vt 18.78291 25.6659
vt 18.78291 23.6974
vt 16.65016 25.6659
vt 18.38921 23.6974
vt 17.04386 23.6974
vt 18.38921 3.543307
vt 16.65016 23.6974
vt 17.04386 3.543307
vt 15.74803 0
vt 19.40945 3.543307
vt 19.68504 0
vt 19.68504 2.755906
vt 16.02362 3.543307
vt 15.74803 2.755906
vt -19.68504 -17.04386
vt -19.68504 -16.02362
vt 19.68504 -17.04386
vt 19.68504 -16.02362
vt 19.68504 23.6974
vt -19.68504 23.6974
vt 19.68504 25.6659
vt -19.68504 25.6659
vt 19.68504 -15.74803
vt 19.68504 -19.68504
vt -19.68504 -15.74803
vt -19.68504 -19.68504
vt -19.68504 -18.78291
vt -19.68504 -16.65016
vt 19.68504 -18.78291
vt 19.68504 -16.65016
vt 19.68504 7.803553
vt -19.68504 7.803553
vt 19.68504 8.637791
vt -19.68504 8.637791
vt -19.68504 -19.40945
vt -19.68504 -18.38921
vt 19.68504 -19.40945
vt 19.68504 -18.38921
vt 19.68504 3.543307
vt -19.68504 3.543307
vt -19.68504 0
vt -19.68504 2.755906
vt -15.74803 0
vt -19.40945 3.543307
vt -18.38921 3.543307
vt -17.04386 3.543307
vt -18.38921 23.6974
vt -16.02362 3.543307
vt -15.74803 2.755906
vt -17.04386 23.6974
vt -16.65016 25.6659
vt -18.78291 25.6659
vt -18.78291 23.6974
vt -16.65016 23.6974
vt 19.68504 -3.901777
vt -19.68504 -3.901777
vt 19.68504 -3.06754
vt -19.68504 -3.06754

usemtl stone

f 3/3/1 2/2/1 1/1/1
f 2/2/1 3/3/1 4/4/1
f 4/4/1 3/3/1 5/5/1
f 4/4/1 5/5/1 6/6/1
f 5/5/1 3/3/1 7/7/1
f 8/8/1 6/6/1 5/5/1
f 9/9/1 6/6/1 8/8/1
f 9/9/1 10/10/1 6/6/1
f 11/11/1 10/10/1 9/9/1
f 10/10/1 11/11/1 12/12/1
f 9/9/1 8/8/1 13/13/1
f 9/9/1 13/13/1 14/14/1
f 15/17/2 13/16/2 8/15/2
f 13/16/2 15/17/2 16/18/2
f 18/21/3 2/20/3 17/19/3
f 2/20/3 18/21/3 1/22/3
f 19/25/4 11/24/4 9/23/4
f 11/24/4 19/25/4 20/26/4
f 18/29/2 3/28/2 1/27/2
f 3/28/2 18/29/2 21/30/2
f 13/33/5 22/32/5 14/31/5
f 22/32/5 13/33/5 16/34/5
f 23/37/2 6/36/2 10/35/2
f 6/36/2 23/37/2 24/38/2
f 5/19/6 15/40/6 8/39/6
f 15/40/6 5/19/6 25/20/6
f 19/43/7 26/42/7 20/41/7
f 26/42/7 19/43/7 23/44/7
f 23/44/7 19/43/7 24/45/7
f 24/45/7 19/43/7 15/46/7
f 24/45/7 15/46/7 27/47/7
f 15/46/7 19/43/7 16/48/7
f 16/48/7 19/43/7 22/49/7
f 25/50/7 27/47/7 15/46/7
f 21/51/7 27/47/7 25/50/7
f 18/52/7 27/47/7 21/51/7
f 27/47/7 18/52/7 17/53/7
f 21/51/7 25/50/7 28/54/7
f 26/12/3 11/41/3 20/11/3
f 11/41/3 26/12/3 12/42/3
f 23/57/8 12/56/8 26/55/8
f 12/56/8 23/57/8 10/58/8
f 27/36/4 2/29/4 4/38/4
f 2/29/4 27/36/4 17/27/4
f 28/28/4 5/17/4 7/30/4
f 5/17/4 28/28/4 25/15/4
f 27/19/3 6/40/3 24/39/3
f 6/40/3 27/19/3 4/20/3
f 14/12/6 19/41/6 9/11/6
f 19/41/6 14/12/6 22/42/6
f 3/21/6 28/20/6 7/19/6
f 28/20/6 3/21/6 21/22/6

