# Created by Kenney (www.kenney.nl)

mtllib stoneWallColumn.mtl

g stoneWallColumn

v 0.5 0.651914 -0.477086
v 0.5 0.601914 -0.477086
v 0.5 0.651914 -0.422914
v 0.5 0.601914 -0.467086
v 0.5 0.601914 -0.432914
v 0.5 0.09 -0.467086
v 0.5 0.601914 -0.422914
v 0.5 0.09 -0.432914
v 0.5 0 -0.4
v 0.5 0.09 -0.493
v 0.5 0 -0.5
v 0.5 0.07 -0.5
v 0.5 0.09 -0.407
v 0.5 0.07 -0.4
v -0.05 0.09 -0.432914
v -0.5 0.09 -0.432914
v -0.05 0.11 -0.432914
v -0.5 0.601914 -0.432914
v -0.041 0.13 -0.432914
v -0.041 0.601914 -0.432914
v -0.5 0 -0.5
v -0.5 0.07 -0.5
v -0.5 0 -0.4
v -0.5 0.09 -0.493
v -0.5 0.09 -0.467086
v -0.5 0.601914 -0.467086
v -0.5 0.09 -0.407
v -0.5 0.07 -0.4
v -0.5 0.651914 -0.422914
v -0.5 0.651914 -0.477086
v -0.5 0.601914 -0.477086
v -0.5 0.601914 -0.422914
v -0.05 0.09 -0.467086
v -0.05 0.11 -0.467086
v -0.041 0.13 -0.467086
v -0.041 0.601914 -0.467086
v -0.05 0.07 -0.4
v 0.05 0.07 -0.4
v -0.05 0.11 -0.4
v 0.05 0.11 -0.4
v 0.041 0.72 -0.409
v -0.041 0.72 -0.409
v 0.05 0.7399999 -0.4
v -0.05 0.7399999 -0.4
v 0.041 0.13 -0.409
v -0.041 0.13 -0.409
v 0.05 0.7399999 -0.5
v 0.041 0.72 -0.491
v 0.05 0.11 -0.432914
v 0.05 0.09 -0.432914
v 0.05 0.09 -0.407
v -0.05 0.7399999 -0.5
v -0.05 0.79 -0.5
v -0.05 0.79 -0.4
v 0.05 0.79 -0.5
v 0.05 0.79 -0.4
v -0.041 0.13 -0.491
v -0.041 0.72 -0.491
v -0.041 0.601914 -0.477086
v -0.041 0.651914 -0.477086
v -0.041 0.651914 -0.422914
v -0.041 0.601914 -0.422914
v 0.041 0.13 -0.432914
v -0.05 0.11 -0.5
v 0.05 0.11 -0.5
v 0.041 0.13 -0.491
v 0.05 0.07 -0.5
v -0.05 0.07 -0.5
v -0.05 0.09 -0.407
v 0.05 0.09 -0.493
v 0.05 0.11 -0.467086
v 0.05 0.09 -0.467086
v 0.041 0.601914 -0.467086
v 0.041 0.601914 -0.477086
v -0.05 0.09 -0.493
v 0.041 0.601914 -0.422914
v 0.041 0.601914 -0.432914
v 0.041 0.651914 -0.477086
v 0.041 0.13 -0.467086
v 0.041 0.651914 -0.422914

vn 1 0 0
vn 0 0 1
vn -1 0 0
vn 0 0 -1
vn 0 -0.4103647 0.9119215
vn 0 -1 0
vn 0 0.4103647 0.9119215
vn 0.9119215 -0.4103647 0
vn 0 1 0
vn 0.9119215 0.4103647 0
vn 0 0.4103647 -0.9119215
vn -0.9119215 0.4103647 0
vn -0.9119215 -0.4103647 0
vn 0 -0.4103647 -0.9119215
vn 0 0.3303504 0.9438583
vn 0 0.3303504 -0.9438583

vt 18.78291 25.6659
vt 18.78291 23.6974
vt 16.65016 25.6659
vt 18.38921 23.6974
vt 17.04386 23.6974
vt 18.38921 3.543307
vt 16.65016 23.6974
vt 17.04386 3.543307
vt 15.74803 0
vt 19.40945 3.543307
vt 19.68504 0
vt 19.68504 2.755906
vt 16.02362 3.543307
vt 15.74803 2.755906
vt -1.968504 3.543307
vt -19.68504 3.543307
vt -1.968504 4.330709
vt -19.68504 23.6974
vt -1.614173 5.11811
vt -1.614173 23.6974
vt -19.68504 0
vt -19.68504 2.755906
vt -15.74803 0
vt -19.40945 3.543307
vt -18.38921 3.543307
vt -17.04386 3.543307
vt -18.38921 23.6974
vt -16.02362 3.543307
vt -15.74803 2.755906
vt -17.04386 23.6974
vt -16.65016 25.6659
vt -18.78291 25.6659
vt -18.78291 23.6974
vt -16.65016 23.6974
vt 19.68504 3.543307
vt 1.968504 3.543307
vt 19.68504 23.6974
vt 1.968504 4.330709
vt 1.614173 5.11811
vt 1.614173 23.6974
vt -1.968504 2.755906
vt 1.968504 2.755906
vt 1.614173 19.2419
vt -1.614173 19.2419
vt 1.968504 20.10536
vt -1.968504 20.10536
vt 19.68504 -15.74803
vt 19.68504 -19.68504
vt -19.68504 -15.74803
vt -19.68504 -19.68504
vt 1.968504 10.4117
vt -1.968504 10.4117
vt 1.614173 11.27516
vt -1.614173 11.27516
vt 19.68504 27.3756
vt 19.33071 26.51214
vt 15.74803 27.3756
vt 16.10236 26.51214
vt 17.04386 4.330709
vt 15.74803 4.330709
vt -19.68504 29.13386
vt -19.68504 31.10236
vt -15.74803 29.13386
vt -15.74803 31.10236
vt -1.968504 -19.68504
vt -1.968504 -15.74803
vt 1.968504 -19.68504
vt 1.968504 -15.74803
vt -19.33071 5.11811
vt -19.33071 28.34646
vt -18.38921 5.11811
vt -16.10236 28.34646
vt -16.10236 5.11811
vt -17.04386 5.11811
vt 1.968504 29.13386
vt -1.968504 29.13386
vt 1.968504 31.10236
vt -1.968504 31.10236
vt 17.04386 4.004915
vt 17.04386 3.141462
vt 16.10236 4.004915
vt 15.74803 3.141462
vt 1.968504 -4.128778
vt -1.968504 -4.128778
vt 1.614173 -3.265325
vt -1.614173 -3.265325
vt -17.04386 3.141462
vt -17.04386 4.004915
vt -15.74803 3.141462
vt -16.10236 4.004915
vt -19.68504 27.3756
vt -15.74803 27.3756
vt -19.33071 26.51214
vt -16.10236 26.51214
vt 19.68504 31.10236
vt 19.68504 29.13386
vt 15.74803 31.10236
vt 15.74803 29.13386
vt 1.614173 28.34646
vt -1.614173 28.34646
vt 19.68504 1.204231E-13
vt -19.68504 1.204231E-13
vt 1.614173 33.78238
vt -1.614173 33.78238
vt 1.968504 34.64584
vt -1.968504 34.64584
vt -17.04386 4.330709
vt -15.74803 4.330709
vt 19.68504 4.330709
vt 18.38921 4.330709
vt 19.68504 -18.38921
vt 19.68504 -18.78291
vt 1.614173 -18.38921
vt 1.614173 -18.78291
vt -1.614173 -18.38921
vt -1.614173 -18.78291
vt -19.68504 -18.38921
vt -19.68504 -18.78291
vt -18.38921 4.330709
vt -19.68504 4.330709
vt -1.614173 -16.65016
vt -1.614173 -17.04386
vt -19.68504 -16.65016
vt -19.68504 -17.04386
vt 19.68504 -16.65016
vt 19.68504 -17.04386
vt 1.614173 -16.65016
vt 1.614173 -17.04386
vt 19.68504 7.803553
vt 1.968504 7.803553
vt 19.68504 8.637791
vt 1.968504 8.637791
vt -1.968504 7.803553
vt -19.68504 7.803553
vt -1.968504 8.637791
vt -19.68504 8.637791
vt -1.968504 -3.901777
vt -19.68504 -3.901777
vt -1.968504 -3.06754
vt -19.68504 -3.06754
vt 19.68504 -3.901777
vt 1.968504 -3.901777
vt 19.68504 -3.06754
vt 1.968504 -3.06754
vt -19.68504 -16.02362
vt -1.968504 -17.04386
vt -1.968504 -16.02362
vt 1.968504 -17.04386
vt 1.968504 -16.02362
vt 19.68504 -16.02362
vt 19.68504 25.6659
vt 1.614173 25.6659
vt -1.614173 25.6659
vt -19.68504 25.6659
vt 19.68504 3.141462
vt 18.38921 3.141462
vt 19.33071 4.004915
vt 18.38921 4.004915
vt 1.968504 -19.40945
vt 1.968504 -18.38921
vt 19.68504 -19.40945
vt -19.68504 -19.40945
vt -1.968504 -19.40945
vt -1.968504 -18.38921
vt -19.68504 3.141462
vt -19.33071 4.004915
vt -18.38921 3.141462
vt -18.38921 4.004915
vt 19.33071 5.11811
vt 19.33071 28.34646
vt 16.10236 28.34646
vt 16.10236 5.11811
vt 17.04386 5.11811
vt 18.38921 5.11811

usemtl stone

f 3/3/1 2/2/1 1/1/1
f 2/2/1 3/3/1 4/4/1
f 4/4/1 3/3/1 5/5/1
f 4/4/1 5/5/1 6/6/1
f 5/5/1 3/3/1 7/7/1
f 8/8/1 6/6/1 5/5/1
f 9/9/1 6/6/1 8/8/1
f 9/9/1 10/10/1 6/6/1
f 11/11/1 10/10/1 9/9/1
f 10/10/1 11/11/1 12/12/1
f 9/9/1 8/8/1 13/13/1
f 9/9/1 13/13/1 14/14/1
f 17/17/2 16/16/2 15/15/2
f 16/16/2 17/17/2 18/18/2
f 18/18/2 17/17/2 19/19/2
f 18/18/2 19/19/2 20/20/2
f 23/23/3 22/22/3 21/21/3
f 22/22/3 23/23/3 24/24/3
f 24/24/3 23/23/3 25/25/3
f 25/25/3 23/23/3 16/26/3
f 25/25/3 16/26/3 26/27/3
f 16/26/3 23/23/3 27/28/3
f 27/28/3 23/23/3 28/29/3
f 18/30/3 26/27/3 16/26/3
f 29/31/3 26/27/3 18/30/3
f 30/32/3 26/27/3 29/31/3
f 26/27/3 30/32/3 31/33/3
f 29/31/3 18/30/3 32/34/3
f 26/37/4 33/36/4 25/35/4
f 33/36/4 26/37/4 34/38/4
f 34/38/4 26/37/4 35/39/4
f 35/39/4 26/37/4 36/40/4
f 14/12/2 23/21/2 9/11/2
f 23/21/2 14/12/2 37/41/2
f 37/41/2 14/12/2 38/42/2
f 37/41/2 38/42/2 39/17/2
f 39/17/2 38/42/2 40/38/2
f 28/22/2 23/21/2 37/41/2
f 43/45/5 42/44/5 41/43/5
f 42/44/5 43/45/5 44/46/5
f 23/49/6 11/48/6 9/47/6
f 11/48/6 23/49/6 21/50/6
f 45/53/7 39/52/7 40/51/7
f 39/52/7 45/53/7 46/54/7
f 43/57/8 48/56/8 47/55/8
f 48/56/8 43/57/8 41/58/8
f 40/60/1 50/8/1 49/59/1
f 50/8/1 40/60/1 51/13/1
f 51/13/1 40/60/1 38/14/1
f 44/63/3 53/62/3 52/61/3
f 53/62/3 44/63/3 54/64/3
f 53/67/9 56/66/9 55/65/9
f 56/66/9 53/67/9 54/68/9
f 35/71/3 58/70/3 57/69/3
f 58/70/3 35/71/3 59/33/3
f 59/33/3 35/71/3 36/27/3
f 60/32/3 58/70/3 59/33/3
f 58/70/3 60/32/3 42/72/3
f 42/72/3 60/32/3 61/31/3
f 42/72/3 61/31/3 46/73/3
f 62/34/3 46/73/3 61/31/3
f 20/30/3 46/73/3 62/34/3
f 46/73/3 20/30/3 19/74/3
f 56/77/2 44/76/2 43/75/2
f 44/76/2 56/77/2 54/78/2
f 45/81/10 49/80/10 63/79/10
f 49/80/10 45/81/10 40/82/10
f 57/85/11 65/84/11 64/83/11
f 65/84/11 57/85/11 66/86/11
f 39/89/12 19/88/12 17/87/12
f 19/88/12 39/89/12 46/90/12
f 58/93/13 44/92/13 52/91/13
f 44/92/13 58/93/13 42/94/13
f 53/77/4 47/76/4 52/75/4
f 47/76/4 53/77/4 55/78/4
f 56/97/1 47/96/1 55/95/1
f 47/96/1 56/97/1 43/98/1
f 41/99/2 46/19/2 45/39/2
f 46/19/2 41/99/2 42/100/2
f 22/12/4 11/102/4 21/101/4
f 11/102/4 22/12/4 67/41/4
f 67/41/4 22/12/4 68/42/4
f 67/41/4 68/42/4 65/17/4
f 65/17/4 68/42/4 64/38/4
f 12/22/4 11/102/4 67/41/4
f 52/105/14 48/104/14 58/103/14
f 48/104/14 52/105/14 47/106/14
f 69/28/3 17/107/3 15/26/3
f 17/107/3 69/28/3 39/108/3
f 39/108/3 69/28/3 37/29/3
f 65/109/1 70/10/1 67/12/1
f 70/10/1 65/109/1 71/110/1
f 70/10/1 71/110/1 72/6/1
f 73/113/6 2/112/6 4/111/6
f 2/112/6 73/113/6 74/114/6
f 26/117/6 59/116/6 36/115/6
f 59/116/6 26/117/6 31/118/6
f 64/120/3 75/24/3 34/119/3
f 75/24/3 64/120/3 68/22/3
f 34/119/3 75/24/3 33/25/3
f 32/123/6 20/122/6 62/121/6
f 20/122/6 32/123/6 18/124/6
f 76/127/6 5/126/6 7/125/6
f 5/126/6 76/127/6 77/128/6
f 13/131/15 38/130/15 14/129/15
f 38/130/15 13/131/15 51/132/15
f 69/135/15 28/134/15 37/133/15
f 28/134/15 69/135/15 27/136/15
f 70/139/16 12/138/16 67/137/16
f 12/138/16 70/139/16 10/140/16
f 24/143/16 68/142/16 22/141/16
f 68/142/16 24/143/16 75/144/16
f 50/146/9 13/145/9 8/124/9
f 13/145/9 50/146/9 51/147/9
f 16/126/9 69/149/9 15/148/9
f 69/149/9 16/126/9 27/150/9
f 30/151/4 59/40/4 31/37/4
f 59/40/4 30/151/4 60/152/4
f 78/153/4 2/18/4 74/20/4
f 2/18/4 78/153/4 1/154/4
f 5/37/2 50/36/2 8/35/2
f 50/36/2 5/37/2 49/38/2
f 49/38/2 5/37/2 63/39/2
f 63/39/2 5/37/2 77/40/2
f 66/157/10 71/156/10 65/155/10
f 71/156/10 66/157/10 79/158/10
f 24/161/9 33/160/9 75/159/9
f 33/160/9 24/161/9 25/111/9
f 70/163/9 6/117/9 10/162/9
f 6/117/9 70/163/9 72/164/9
f 78/116/9 3/123/9 1/118/9
f 3/123/9 78/116/9 80/121/9
f 30/112/9 61/127/9 60/114/9
f 61/127/9 30/112/9 29/125/9
f 61/153/2 32/18/2 62/20/2
f 32/18/2 61/153/2 29/154/2
f 3/151/2 76/40/2 7/37/2
f 76/40/2 3/151/2 80/152/2
f 34/167/12 57/166/12 64/165/12
f 57/166/12 34/167/12 35/168/12
f 71/17/4 6/16/4 72/15/4
f 6/16/4 71/17/4 4/18/4
f 4/18/4 71/17/4 79/19/4
f 4/18/4 79/19/4 73/20/4
f 48/170/1 78/1/1 66/169/1
f 78/1/1 48/170/1 41/171/1
f 78/1/1 41/171/1 80/3/1
f 80/3/1 41/171/1 76/7/1
f 45/172/1 76/7/1 41/171/1
f 63/173/1 76/7/1 45/172/1
f 76/7/1 63/173/1 77/5/1
f 74/2/1 66/169/1 78/1/1
f 66/169/1 74/2/1 79/174/1
f 79/174/1 74/2/1 73/4/1
f 58/99/4 66/19/4 57/39/4
f 66/19/4 58/99/4 48/100/4

