# Created by Kenney (www.kenney.nl)

mtllib urn.mtl

g urn

v -0.0714 0.14 -0.0714
v 0.0714 0.14 -0.0714
v -0.087108 0.27 -0.087108
v 0.087108 0.27 -0.087108
v -0.087108 0.27 0.087108
v -0.0714 0.14 0.0714
v 0.087108 0.27 0.087108
v 0.0714 0.14 0.0714
v 0.075 0 0.075
v 0.075 0 -0.075
v -0.075 0 0.075
v -0.075 0 -0.075
v -0.041954 0.11 -0.041954
v 0.041954 0.11 -0.041954
v 0.087108 0.31 -0.087108
v 0.087108 0.31 0.087108
v -0.041954 0.11 0.041954
v -0.087108 0.31 0.087108
v 0.075 0.04 -0.075
v 0.075 0.04 0.075
v 0.041954 0.11 0.041954
v -0.075 0.04 -0.075
v -0.0614 0.06 -0.0614
v -0.075 0.04 0.075
v -0.0614 0.06 0.0614
v 0.0614 0.06 -0.0614
v 0.0614 0.06 0.0614
v 0.06824701 0.31 -0.068247
v -0.087108 0.31 -0.087108
v -0.068247 0.31 -0.068247
v -0.068247 0.31 0.06824701
v 0.06824701 0.31 0.06824701
v 0.03608044 0.06 -0.03608044
v -0.03608044 0.06 -0.03608044
v -0.03608044 0.06 0.03608044
v 0.03608044 0.06 0.03608044
v 0.06824701 0.17 -0.068247
v 0.06824701 0.17 0.06824701
v -0.068247 0.17 -0.068247
v -0.068247 0.17 0.06824701

vn 0 -0.1199582 -0.992779
vn -0.992779 -0.1199582 0
vn 0.992779 -0.1199582 0
vn 0 -1 0
vn 0 -0.7004866 -0.7136657
vn 1 0 0
vn -0.7136657 -0.7004866 0
vn 0 0 1
vn 0 -0.1199582 0.992779
vn 0.7136657 -0.7004866 0
vn -0.8269265 0.56231 0
vn 0.8269265 0.56231 0
vn -1 0 0
vn 0 0.56231 0.8269265
vn 0 -0.7004866 0.7136657
vn 0 1 0
vn 0 0.56231 -0.8269265
vn 0 0 -1
vn 0 -0.116669 0.9931709
vn 0 -0.116669 -0.9931709
vn -0.9931709 -0.116669 0
vn 0.9931709 -0.116669 0

vt 2.811024 5.809216
vt -2.811024 5.809216
vt 3.429449 10.96455
vt -3.429449 10.96455
vt 2.952756 2.952756
vt 2.952756 -2.952756
vt -2.952756 2.952756
vt -2.952756 -2.952756
vt 1.651732 4.247694
vt -1.651732 4.247694
vt 2.811024 5.902674
vt -2.811024 5.902674
vt 3.429449 12.20472
vt 3.429449 10.62992
vt -3.429449 12.20472
vt -3.429449 10.62992
vt 2.952756 1.574803
vt 2.952756 0
vt -2.952756 1.574803
vt -2.952756 0
vt -2.952756 -0.3581178
vt -2.417323 0.5940849
vt 2.952756 -0.3581178
vt 2.417323 0.5940849
vt -3.429449 3.429449
vt -2.68689 -2.68689
vt -3.429449 -3.429449
vt 3.429449 -3.429449
vt 2.68689 -2.68689
vt 2.68689 2.68689
vt -2.68689 2.68689
vt 3.429449 3.429449
vt -2.417323 2.417323
vt -1.42049 -1.42049
vt -2.417323 -2.417323
vt 2.417323 -2.417323
vt 1.42049 -1.42049
vt 1.42049 1.42049
vt -1.42049 1.42049
vt 2.417323 2.417323
vt 1.42049 2.5118
vt -1.42049 2.5118
vt 1.651732 4.49384
vt -1.651732 4.49384
vt -2.68689 6.692914
vt -2.68689 12.20472
vt 2.68689 6.692914
vt 2.68689 12.20472

usemtl metal

f 3/3/1 2/2/1 1/1/1
f 2/2/1 3/3/1 4/4/1
f 1/2/2 5/3/2 3/4/2
f 5/3/2 1/2/2 6/1/2
f 7/4/3 2/1/3 4/3/3
f 2/1/3 7/4/3 8/2/3
f 11/7/4 10/6/4 9/5/4
f 10/6/4 11/7/4 12/8/4
f 1/11/5 14/10/5 13/9/5
f 14/10/5 1/11/5 2/12/5
f 16/15/6 4/14/6 15/13/6
f 4/14/6 16/15/6 7/16/6
f 13/10/7 6/11/7 1/12/7
f 6/11/7 13/10/7 17/9/7
f 16/13/8 5/16/8 7/14/8
f 5/16/8 16/13/8 18/15/8
f 20/19/6 10/18/6 19/17/6
f 10/18/6 20/19/6 9/20/6
f 7/3/9 6/2/9 8/1/9
f 6/2/9 7/3/9 5/4/9
f 8/12/10 14/9/10 2/11/10
f 14/9/10 8/12/10 21/10/10
f 24/23/11 23/22/11 22/21/11
f 23/22/11 24/23/11 25/24/11
f 26/24/12 20/21/12 19/23/12
f 20/21/12 26/24/12 27/22/12
f 20/17/8 11/20/8 9/18/8
f 11/20/8 20/17/8 24/19/8
f 11/18/13 22/19/13 12/20/13
f 22/19/13 11/18/13 24/17/13
f 27/24/14 24/21/14 20/23/14
f 24/21/14 27/24/14 25/22/14
f 8/11/15 17/10/15 21/9/15
f 17/10/15 8/11/15 6/12/15
f 15/27/16 28/26/16 16/25/16
f 28/26/16 15/27/16 29/28/16
f 28/26/16 29/28/16 30/29/16
f 30/29/16 29/28/16 31/30/16
f 32/31/16 16/25/16 28/26/16
f 16/25/16 32/31/16 18/32/16
f 18/32/16 32/31/16 31/30/16
f 18/32/16 31/30/16 29/28/16
f 23/24/17 19/21/17 22/23/17
f 19/21/17 23/24/17 26/22/17
f 22/17/18 10/20/18 12/18/18
f 10/20/18 22/17/18 19/19/18
f 5/14/13 29/15/13 3/16/13
f 29/15/13 5/14/13 18/13/13
f 29/13/18 4/16/18 3/14/18
f 4/16/18 29/13/18 15/15/18
f 26/35/16 33/34/16 27/33/16
f 33/34/16 26/35/16 23/36/16
f 33/34/16 23/36/16 34/37/16
f 34/37/16 23/36/16 35/38/16
f 36/39/16 27/33/16 33/34/16
f 27/33/16 36/39/16 25/40/16
f 25/40/16 36/39/16 35/38/16
f 25/40/16 35/38/16 23/36/16
f 21/43/19 35/42/19 36/41/19
f 35/42/19 21/43/19 17/44/19
f 13/43/20 33/42/20 34/41/20
f 33/42/20 13/43/20 14/44/20
f 34/42/21 17/43/21 13/44/21
f 17/43/21 34/42/21 35/41/21
f 21/44/22 33/41/22 14/43/22
f 33/41/22 21/44/22 36/42/22

usemtl stone

f 38/47/13 28/46/13 37/45/13
f 28/46/13 38/47/13 32/48/13
f 28/48/8 39/45/8 37/47/8
f 39/45/8 28/48/8 30/46/8
f 31/46/6 39/47/6 30/48/6
f 39/47/6 31/46/6 40/45/6
f 31/48/18 38/45/18 40/47/18
f 38/45/18 31/48/18 32/46/18
f 39/29/16 38/31/16 37/26/16
f 38/31/16 39/29/16 40/30/16

g lid

v 0.071429 0.34 0.071429
v 0.04017035 0.34 -0.04017036
v 0.071429 0.34 -0.071429
v -0.071429 0.34 -0.071429
v -0.04017036 0.34 -0.04017036
v -0.04017036 0.34 0.04017036
v 0.04017035 0.34 0.04017036
v -0.071429 0.34 0.071429
v 0.087108 0.33 -0.087108
v 0.087108 0.33 0.087108
v -0.087108 0.33 -0.087108
v -0.087108 0.33 0.087108
v 0.017139 0.34 -0.017139
v -0.017139 0.34 -0.017139
v -0.017139 0.34 0.017139
v 0.017139 0.34 0.017139
v -0.02039541 0.37 -0.02039541
v -0.02039541 0.37 0.02039541
v 0.02039541 0.37 -0.02039541
v 0.02039541 0.37 0.02039541
v 0.01366493 0.39 -0.01366492
v 0.01366493 0.39 0.01366492
v -0.01366492 0.39 -0.01366492
v -0.01366492 0.39 0.01366492

vn 0.5377346 0.8431141 0
vn -0.5377346 0.8431141 0
vn 0 0.8431141 -0.5377346
vn 0 0.8431141 0.5377346
vn -0.9941604 -0.1079131 0
vn 0 -0.1079131 -0.9941604
vn 0.9941604 -0.1079131 0
vn 0 -0.1079131 0.9941604
vn 0 0.3189483 -0.9477721
vn 0 0.3189483 0.9477721
vn -0.9477721 0.3189483 0
vn 0.9477721 0.3189483 0

vt -2.812165 2.812165
vt -1.58151 -1.58151
vt -2.812165 -2.812165
vt 2.812165 -2.812165
vt 1.58151 -1.58151
vt 1.58151 1.58151
vt -1.58151 1.58151
vt 2.812165 2.812165
vt 3.429449 -2.468004
vt -3.429449 -2.468004
vt 2.812165 -1.735857
vt -2.812165 -1.735857
vt 3.429449 0
vt -3.429449 0
vt 3.429449 0.7874016
vt -3.429449 0.7874016
vt -0.6747638 -0.6747638
vt 0.6747638 -0.6747638
vt 0.6747638 0.6747638
vt -0.6747638 0.6747638
vt -0.8029689 2.435061
vt 0.8029689 2.435061
vt -0.6747638 1.247021
vt 0.6747638 1.247021
vt -0.5379891 -0.5379891
vt -0.5379891 0.5379891
vt 0.5379891 -0.5379891
vt 0.5379891 0.5379891
vt 0.8029689 1.982726
vt -0.8029689 1.982726
vt 0.5379891 2.813518
vt -0.5379891 2.813518

usemtl metal

f 18/25/4 15/28/4 16/32/4
f 15/28/4 18/25/4 29/27/4
f 43/51/16 42/50/16 41/49/16
f 42/50/16 43/51/16 44/52/16
f 42/50/16 44/52/16 45/53/16
f 45/53/16 44/52/16 46/54/16
f 47/55/16 41/49/16 42/50/16
f 41/49/16 47/55/16 48/56/16
f 48/56/16 47/55/16 46/54/16
f 48/56/16 46/54/16 44/52/16
f 43/59/23 50/58/23 49/57/23
f 50/58/23 43/59/23 41/60/23
f 51/58/24 48/59/24 44/60/24
f 48/59/24 51/58/24 52/57/24
f 51/57/25 43/60/25 49/58/25
f 43/60/25 51/57/25 44/59/25
f 41/59/26 52/58/26 50/57/26
f 52/58/26 41/59/26 48/60/26
f 51/63/18 15/62/18 29/61/18
f 15/62/18 51/63/18 49/64/18
f 18/61/13 51/64/13 29/62/13
f 51/64/13 18/61/13 52/63/13
f 50/63/8 18/62/8 16/61/8
f 18/62/8 50/63/8 52/64/8
f 50/64/6 15/61/6 49/63/6
f 15/61/6 50/64/6 16/62/6

usemtl stone

f 42/50/16 53/65/16 47/55/16
f 53/65/16 42/50/16 45/53/16
f 53/65/16 45/53/16 54/66/16
f 54/66/16 45/53/16 55/67/16
f 56/68/16 47/55/16 53/65/16
f 47/55/16 56/68/16 46/54/16
f 46/54/16 56/68/16 55/67/16
f 46/54/16 55/67/16 45/53/16
f 54/71/27 58/70/27 57/69/27
f 58/70/27 54/71/27 55/72/27
f 57/70/28 53/71/28 54/72/28
f 53/71/28 57/70/28 59/69/28
f 60/69/29 53/72/29 59/70/29
f 53/72/29 60/69/29 56/71/29
f 60/70/30 55/71/30 56/72/30
f 55/71/30 60/70/30 58/69/30
f 63/75/16 62/74/16 61/73/16
f 62/74/16 63/75/16 64/76/16
f 63/79/31 59/78/31 57/77/31
f 59/78/31 63/79/31 61/80/31
f 62/79/32 58/78/32 60/77/32
f 58/78/32 62/79/32 64/80/32
f 58/77/33 63/80/33 57/78/33
f 63/80/33 58/77/33 64/79/33
f 61/79/34 60/78/34 59/77/34
f 60/78/34 61/79/34 62/80/34

