# Created by Kenney (www.kenney.nl)

mtllib zombie.mtl

g armLeft

v 0.13 0.3111179 -0.05579599
v 0.13 0.34 0.05579599
v 0.13 0.1368661 -0.01069633
v 0.13 0.1657483 0.1008957
v 0.181592 0.1368661 -0.01069633
v 0.181592 0.1657483 0.1008957
v 0.241592 0.1949522 -0.0257301
v 0.241592 0.3111179 -0.05579599
v 0.241592 0.2238343 0.08586189
v 0.241592 0.34 0.05579601
v 0.185796 0.473184 -0.055796
v 0.185796 0.473184 0.05579601
v 0.13 0.473184 -0.055796
v 0.13 0.473184 0.05579599
v 0.241592 0.417388 0.05579601
v 0.241592 0.417388 -0.05579599

vn -0.8584 0 0
vn 0 -0.8310173 0.2150831
vn 0 -0.2150831 -0.8310173
vn 0.6069804 -0.587618 0.1520867
vn 0 0.2150831 0.8310173
vn 0.8584 0 0
vn 0 0.8584 0
vn 0 0 0.8584
vn 0.6069804 0.6069804 0
vn 0 0 -0.8584

vt -2.559055 -7.433081
vt 2.559055 -6.108416
vt -0.490582 -15.42505
vt 4.627528 -14.10038
vt 2.366241 -4.339876
vt 5.7193E-08 -4.339876
vt 2.366241 0.9468803
vt 1.909749E-08 0.9468803
vt -6.085145E-08 -14.81007
vt -2.366241 -14.81007
vt -7.626232E-08 -6.554764
vt -5.11811 -12.0582
vt -5.11811 -6.554764
vt 2.388665 -6.100101
vt 1.050985 -9.754712
vt -2.575973 -4.282917
vt -3.913653 -7.937529
vt 2.366241 -14.81007
vt 5.354147E-08 -14.81007
vt 5.11811 -12.0582
vt 3.813077E-08 -6.554764
vt 5.11811 -6.554764
vt 2.559055 -7.433081
vt 1.180098 -12.76096
vt -2.559055 -6.108416
vt -3.938012 -11.4363
vt -2.559055 -2.559055
vt -2.559055 2.559055
vt -7.626232E-08 -2.559055
vt 7.958079E-13 2.559055
vt 5.11811 -6.108416
vt 3.813077E-08 -6.108416
vt 5.11811 -2.559055
vt 3.813077E-08 1.345542E-14
vt 2.559055 1.345542E-14
vt 2.559055 -1.809525
vt 2.559055 -5.428576
vt -2.559055 -1.809525
vt -2.559055 -5.428576
vt 2.559055 -2.559055
vt -5.265354E-08 -7.433081
vt -5.11811 -7.433081
vt -5.265354E-08 1.087359E-08
vt -5.11811 -2.559055
vt -2.559055 1.087359E-08
vt -2.559055 1.421085E-14
vt 2.559055 1.421085E-14

usemtl metal

f 3/3/1 2/2/1 1/1/1
f 2/2/1 3/3/1 4/4/1
f 6/7/2 3/6/2 5/5/2
f 3/6/2 6/7/2 4/8/2
f 1/11/3 5/10/3 3/9/3
f 5/10/3 1/11/3 7/12/3
f 7/12/3 1/11/3 8/13/3
f 9/16/4 5/15/4 7/14/4
f 5/15/4 9/16/4 6/17/4
f 9/20/5 4/19/5 6/18/5
f 4/19/5 9/20/5 2/21/5
f 2/21/5 9/20/5 10/22/5
f 10/25/6 7/24/6 8/23/6
f 7/24/6 10/25/6 9/26/6

usemtl stone

f 13/29/7 12/28/7 11/27/7
f 12/28/7 13/29/7 14/30/7
f 15/33/8 2/32/8 10/31/8
f 2/32/8 15/33/8 14/34/8
f 14/34/8 15/33/8 12/35/8
f 12/38/9 16/37/9 11/36/9
f 16/37/9 12/38/9 15/39/9
f 15/27/6 8/23/6 16/40/6
f 8/23/6 15/27/6 10/25/6
f 13/43/10 8/42/10 1/41/10
f 8/42/10 13/43/10 16/44/10
f 16/44/10 13/43/10 11/45/10
f 1/1/1 14/47/1 13/46/1
f 14/47/1 1/1/1 2/2/1

g armRight

v -0.13 0.3111179 -0.055796
v -0.13 0.1368662 -0.01069634
v -0.13 0.34 0.055796
v -0.13 0.1657483 0.1008957
v -0.181592 0.1368662 -0.01069634
v -0.241592 0.1949522 -0.0257301
v -0.241592 0.3111179 -0.055796
v -0.241592 0.2238343 0.08586189
v -0.181592 0.1657483 0.1008957
v -0.241592 0.34 0.055796
v -0.13 0.473184 0.055796
v -0.241592 0.417388 0.055796
v -0.185796 0.473184 0.055796
v -0.241592 0.417388 -0.055796
v -0.185796 0.473184 -0.055796
v -0.13 0.473184 -0.055796

vn 1 0 0
vn 0 -0.2505628 -0.9681004
vn -0.7071068 -0.6845503 0.1771747
vn 0 -0.9681004 0.2505628
vn 0 0.2505628 0.9681004
vn -1 0 0
vn 0 0 1
vn -0.7071068 0.7071068 0
vn 0 0 -1
vn 0 1 0

vt 2.196693 -6.380557
vt 0.4211156 -13.24086
vt -2.196693 -5.243464
vt -3.97227 -12.10377
vt 5.223558E-08 -12.71297
vt 6.546426E-08 -5.626609
vt 2.031181 -12.71297
vt 4.393386 -10.35076
vt 4.393386 -5.626609
vt -2.05043 -5.236327
vt 2.211215 -3.676456
vt -0.9021654 -8.373445
vt 3.35948 -6.813574
vt -1.639398E-08 0.812802
vt -4.909516E-08 -3.725349
vt -2.031181 0.812802
vt -2.031181 -3.725349
vt -4.596069E-08 -12.71297
vt -2.031181 -12.71297
vt -3.273214E-08 -5.626609
vt -4.393386 -10.35076
vt -4.393386 -5.626609
vt -2.196693 -6.380557
vt 2.196693 -5.243464
vt -1.012996 -10.95401
vt 3.380389 -9.816917
vt -3.273214E-08 -5.243464
vt -4.393386 -5.243464
vt -3.273214E-08 6.456964E-15
vt -4.393386 -2.196693
vt -2.196693 6.456964E-15
vt -2.196693 -2.196693
vt 2.196693 -2.196693
vt -2.196693 -1.553296
vt 2.196693 -1.553296
vt -2.196693 -4.659889
vt 2.196693 -4.659889
vt 4.393386 -6.380557
vt 4.519848E-08 -6.380557
vt 4.393386 -2.196693
vt 4.519848E-08 9.333883E-09
vt 2.196693 9.333883E-09
vt 0 2.196693
vt 2.196693 2.196693
vt 6.546426E-08 -2.196693
vt 2.196693 7.105427E-15
vt -2.196693 7.105427E-15

usemtl metal

f 19/50/11 18/49/11 17/48/11
f 18/49/11 19/50/11 20/51/11
f 21/54/12 17/53/12 18/52/12
f 17/53/12 21/54/12 22/55/12
f 17/53/12 22/55/12 23/56/12
f 21/59/13 24/58/13 22/57/13
f 24/58/13 21/59/13 25/60/13
f 25/63/14 18/62/14 20/61/14
f 18/62/14 25/63/14 21/64/14
f 19/67/15 25/66/15 20/65/15
f 25/66/15 19/67/15 24/68/15
f 24/68/15 19/67/15 26/69/15
f 22/72/16 26/71/16 23/70/16
f 26/71/16 22/72/16 24/73/16

usemtl stone

f 27/76/17 26/75/17 19/74/17
f 26/75/17 27/76/17 28/77/17
f 28/77/17 27/76/17 29/78/17
f 26/71/16 30/79/16 23/70/16
f 30/79/16 26/71/16 28/80/16
f 30/83/18 29/82/18 31/81/18
f 29/82/18 30/83/18 28/84/18
f 30/87/19 17/86/19 23/85/19
f 17/86/19 30/87/19 32/88/19
f 32/88/19 30/87/19 31/89/19
f 32/92/20 29/91/20 27/90/20
f 29/91/20 32/92/20 31/80/20
f 27/94/11 17/48/11 32/93/11
f 17/48/11 27/94/11 19/50/11

g body

v 0.13 0.483184 -0.09999999
v 0.13 0.483184 0.1
v -0.13 0.483184 -0.09999999
v -0.13 0.483184 0.1
v -0.13 0.2842019 -0.09999999
v 0.13 0.2842019 -0.09999999
v 0.13 0.2842019 0.1
v -0.13 0.2842019 0.1
v 0.13 0.223184 0.1
v 0.13 0.223184 -0.09999999
v -0.13 0.223184 0.1
v -0.13 0.223184 -0.09999999

vn 0 -1 0

vt -5.11811 -3.937008
vt -5.11811 3.937008
vt 5.11811 -3.937008
vt 5.11811 3.937008
vt 5.11811 2.402281
vt -5.11811 2.402281
vt 5.11811 10.23622
vt -5.11811 10.23622
vt 3.937008 10.23622
vt 3.937008 2.402281
vt -3.937008 10.23622
vt -3.937008 2.402281
vt 5.11811 0
vt -5.11811 0
vt 3.937008 0
vt -3.937008 0

usemtl stone

f 35/97/20 34/96/20 33/95/20
f 34/96/20 35/97/20 36/98/20
f 35/101/19 38/100/19 37/99/19
f 38/100/19 35/101/19 33/102/19
f 34/105/11 38/104/11 33/103/11
f 38/104/11 34/105/11 39/106/11
f 40/104/16 35/105/16 37/106/16
f 35/105/16 40/104/16 36/103/16
f 34/101/17 40/100/17 39/99/17
f 40/100/17 34/101/17 36/102/17

usemtl wood

f 43/96/21 42/97/21 41/98/21
f 42/97/21 43/96/21 44/95/21
f 39/99/17 43/108/17 41/107/17
f 43/108/17 39/99/17 40/100/17
f 37/99/19 42/108/19 44/107/19
f 42/108/19 37/99/19 38/100/19
f 39/106/11 42/109/11 38/104/11
f 42/109/11 39/106/11 41/110/11
f 43/109/16 37/106/16 44/110/16
f 37/106/16 43/109/16 40/104/16

g head

v 0.13 0.483184 0.13
v 0.13 0.483184 -0.13
v -0.13 0.483184 0.13
v -0.13 0.483184 -0.13
v 0.13 0.588184 0.02
v 0.13 0.543184 0.02
v 0.13 0.588184 0.065
v 0.13 0.543184 -0.02
v 0.13 0.568184 -0.02
v 0.13 0.568184 -0.13
v 0.13 0.678184 0.13
v 0.13 0.678184 0.065
v -0.13 0.568184 -0.13
v -0.13 0.543184 -0.02
v -0.13 0.543184 0.02
v -0.13 0.588184 0.02
v -0.13 0.588184 0.065
v -0.13 0.678184 0.065
v -0.13 0.678184 0.13
v -0.13 0.568184 -0.02
v 0.19 0.621934 -0.02
v 0.19 0.554434 -0.02
v 0.19 0.621934 0.02
v 0.19 0.554434 0.02
v 0.13 0.633184 -0.02
v 0.13 0.633184 0.02
v -0.13 0.633184 -0.02
v -0.13 0.633184 0.02
v -0.19 0.621934 -0.02
v -0.19 0.621934 0.02
v -0.19 0.554434 0.02
v -0.19 0.554434 -0.02
v -0.13 0.743184 0.13
v 0.13 0.743184 0.13
v -0.104 0.7931839 0.13
v 0.104 0.7931839 0.13
v 0.03483049 0.5140515 0.13
v 0.09248304 0.565843 0.13
v 0.03483049 0.5383261 0.13
v -0.03483049 0.5383261 0.13
v 0.09248304 0.6259786 0.13
v 0.03234744 0.6259786 0.13
v -0.03234744 0.6259786 0.13
v -0.09248304 0.6259786 0.13
v -0.03483049 0.5140515 0.13
v -0.09248304 0.565843 0.13
v 0.03234744 0.565843 0.13
v -0.03234744 0.565843 0.13
v 0.13 0.743184 -0.13
v 0.13 0.743184 0
v -0.13 0.743184 -0.13
v -0.13 0.743184 0
v 0.104 0.7931839 0.04999999
v -0.104 0.7931839 0.04999999

vn 0 -0.26 0
vn 0.26 0 0
vn 0 0 -0.26
vn -0.26 0 0
vn 0.04791502 -0.2555468 0
vn 0.04791502 0.2555468 0
vn 0 0 0.26
vn -0.04791502 0.2555468 0
vn -0.04791502 -0.2555468 0
vn 0 0.26 0
vn 0.2306764 0.1199517 0
vn -0.2306764 0.1199517 0
vn 0 0.1838478 -0.1838478

vt 19.68504 19.68504
vt 19.68504 -19.68504
vt -19.68504 19.68504
vt -19.68504 -19.68504
vt -3.028468 15.89946
vt -3.028468 9.085402
vt -9.84252 15.89946
vt -19.68504 -3.241007E-08
vt 3.028468 9.085402
vt 19.68504 -3.241007E-08
vt 3.028468 12.87099
vt 19.68504 12.87099
vt -19.68504 29.52756
vt -9.84252 29.52756
vt 19.68504 0
vt -19.68504 0
vt -19.68504 12.87099
vt -19.68504 3.241007E-08
vt 19.68504 3.241007E-08
vt 3.028468 15.89946
vt 9.84252 15.89946
vt 9.84252 29.52756
vt 19.68504 29.52756
vt -3.028468 12.87099
vt 3.028468 21.00999
vt 3.028468 10.78892
vt -3.028468 21.00999
vt -3.028468 10.78892
vt -19.68504 9.085402
vt -28.77044 10.78892
vt -28.77044 21.00999
vt -19.68504 22.71351
vt -3.028468 30.26594
vt 3.028468 30.26594
vt -3.028468 21.02221
vt 3.028468 21.02221
vt 3.028468 -24.40577
vt -3.028468 -24.40577
vt 3.028468 -15.16204
vt -3.028468 -15.16204
vt 19.68504 9.085402
vt 19.68504 15.89946
vt 28.77044 10.78892
vt 28.77044 21.00999
vt 19.68504 22.71351
vt -3.028468 -24.40577
vt 3.028468 -24.40577
vt -19.68504 15.89946
vt 19.68504 39.37008
vt -19.68504 39.37008
vt 15.74803 46.94125
vt -15.74803 46.94125
vt 5.274151 4.674063
vt 14.0041 12.51651
vt 5.274151 8.349802
vt -5.274151 8.349802
vt 14.0041 21.62245
vt 4.89816 21.62245
vt -4.89816 21.62245
vt -14.0041 21.62245
vt -5.274151 4.674063
vt -14.0041 12.51651
vt 4.89816 12.51651
vt -4.89816 12.51651
vt 8.63472E-09 39.37008
vt 3.028468 22.71351
vt -3.028468 22.71351
vt -15.74803 7.571169
vt -15.74803 19.68504
vt 15.74803 7.571169
vt 15.74803 19.68504
vt 8.634724E-09 39.37008
vt -2.49865E-16 25.84805
vt -19.68504 25.84805
vt -7.571169 34.38167
vt -19.68504 34.38167
vt 1.249325E-16 25.84805
vt 7.571169 34.38167
vt 19.68504 25.84805
vt 19.68504 34.38167
vt -19.68504 27.83885
vt -15.74803 38.5461
vt 19.68504 27.83885
vt 15.74803 38.5461

usemtl metal

f 47/113/22 46/112/22 45/111/22
f 46/112/22 47/113/22 48/114/22
f 51/117/23 50/116/23 49/115/23
f 45/118/23 50/116/23 51/117/23
f 45/118/23 52/119/23 50/116/23
f 46/120/23 52/119/23 45/118/23
f 46/120/23 53/121/23 52/119/23
f 53/121/23 46/120/23 54/122/23
f 45/118/23 51/117/23 55/123/23
f 55/123/23 51/117/23 56/124/23
f 57/122/24 46/126/24 48/125/24
f 46/126/24 57/122/24 54/127/24
f 47/129/25 57/127/25 48/128/25
f 57/127/25 47/129/25 58/116/25
f 58/116/25 47/129/25 59/119/25
f 59/119/25 47/129/25 60/130/25
f 60/130/25 47/129/25 61/131/25
f 61/131/25 47/129/25 62/132/25
f 62/132/25 47/129/25 63/133/25
f 64/134/25 57/127/25 58/116/25
f 67/137/23 66/136/23 65/135/23
f 66/136/23 67/137/23 68/138/23
f 53/127/24 66/140/24 52/139/24
f 66/140/24 53/127/24 65/141/24
f 65/141/24 53/127/24 69/142/24
f 50/145/26 66/144/26 68/143/26
f 66/144/26 50/145/26 52/146/26
f 69/149/27 67/148/27 65/147/27
f 67/148/27 69/149/27 70/150/27
f 68/153/28 49/152/28 50/151/28
f 49/152/28 68/153/28 67/154/28
f 49/152/28 67/154/28 70/155/28
f 73/156/29 72/149/29 71/150/29
f 72/149/29 73/156/29 74/157/29
f 60/158/28 75/140/28 59/139/28
f 75/140/28 60/158/28 74/141/28
f 74/141/28 60/158/28 72/142/28
f 76/153/24 64/122/24 58/151/24
f 64/122/24 76/153/24 73/154/24
f 64/122/24 73/154/24 71/155/24
f 75/136/25 73/137/25 76/138/25
f 73/137/25 75/136/25 74/135/25
f 75/144/30 58/145/30 59/146/30
f 58/145/30 75/144/30 76/143/30
f 77/159/24 55/123/24 63/133/24
f 55/123/24 77/159/24 78/160/24
f 78/160/24 77/159/24 79/161/24
f 78/160/24 79/161/24 80/162/24
f 45/125/28 81/163/28 47/126/28
f 81/163/28 45/125/28 82/164/28
f 82/164/28 45/125/28 55/133/28
f 81/163/28 82/164/28 83/165/28
f 83/165/28 82/164/28 84/166/28
f 82/164/28 55/133/28 85/167/28
f 85/167/28 55/133/28 86/168/28
f 86/168/28 55/133/28 87/169/28
f 87/169/28 55/133/28 88/170/28
f 89/171/28 47/126/28 81/163/28
f 90/172/28 47/126/28 89/171/28
f 90/172/28 89/171/28 84/166/28
f 47/126/28 90/172/28 63/123/28
f 63/123/28 90/172/28 88/170/28
f 63/123/28 88/170/28 55/133/28
f 90/172/28 84/166/28 91/173/28
f 91/173/28 84/166/28 82/164/28
f 90/172/28 91/173/28 92/174/28
f 86/168/28 92/174/28 91/173/28
f 92/174/28 86/168/28 87/169/28
f 47/126/24 81/163/24 45/125/24
f 82/164/24 45/125/24 81/163/24
f 55/133/24 45/125/24 82/164/24
f 83/165/24 82/164/24 81/163/24
f 84/166/24 82/164/24 83/165/24
f 85/167/24 55/133/24 82/164/24
f 86/168/24 55/133/24 85/167/24
f 87/169/24 55/133/24 86/168/24
f 88/170/24 55/133/24 87/169/24
f 81/163/24 47/126/24 89/171/24
f 89/171/24 47/126/24 90/172/24
f 84/166/24 89/171/24 90/172/24
f 63/123/24 90/172/24 47/126/24
f 88/170/24 90/172/24 63/123/24
f 55/133/24 88/170/24 63/123/24
f 91/173/24 84/166/24 90/172/24
f 82/164/24 84/166/24 91/173/24
f 92/174/24 91/173/24 90/172/24
f 91/173/24 92/174/24 86/168/24
f 87/169/24 86/168/24 92/174/24

usemtl woodDark

f 94/175/23 54/122/23 93/159/23
f 54/122/23 94/175/23 69/176/23
f 69/176/23 94/175/23 70/177/23
f 70/177/23 94/175/23 78/160/23
f 70/177/23 78/160/23 56/124/23
f 70/177/23 56/124/23 49/115/23
f 56/124/23 78/160/23 55/123/23
f 51/117/23 49/115/23 56/124/23
f 53/121/23 54/122/23 69/176/23
f 95/112/31 94/126/31 93/114/31
f 94/126/31 95/112/31 96/125/31
f 98/180/31 80/179/31 97/178/31
f 80/179/31 98/180/31 79/181/31
f 61/131/25 72/176/25 60/130/25
f 62/132/25 72/176/25 61/131/25
f 77/159/25 72/176/25 62/132/25
f 96/182/25 72/176/25 77/159/25
f 96/182/25 71/177/25 72/176/25
f 95/160/25 71/177/25 96/182/25
f 95/160/25 64/134/25 71/177/25
f 64/134/25 95/160/25 57/127/25
f 77/159/25 62/132/25 63/133/25
f 63/133/28 55/123/28 77/159/28
f 78/160/28 77/159/28 55/123/28
f 79/161/28 77/159/28 78/160/28
f 80/162/28 79/161/28 78/160/28
f 97/185/32 78/184/32 94/183/32
f 78/184/32 97/185/32 80/186/32
f 77/189/33 98/188/33 96/187/33
f 98/188/33 77/189/33 79/190/33
f 96/193/34 97/192/34 94/191/34
f 97/192/34 96/193/34 98/194/34
f 95/159/24 54/127/24 57/122/24
f 54/127/24 95/159/24 93/160/24

usemtl stone

f 83/165/28 89/171/28 81/163/28
f 89/171/28 83/165/28 84/166/28

usemtl light

f 87/169/28 90/172/28 92/174/28
f 90/172/28 87/169/28 88/170/28
f 85/167/28 91/173/28 82/164/28
f 91/173/28 85/167/28 86/168/28

g legLeft

v 0.13 0.223184 -0.055796
v 0.13 0.1288339 -0.05425091
v 0.13 0.223184 0.055796
v 0.13 0.06896766 0.055796
v 0.13 0.03448384 -0.07270583
v 0.13 0.1288339 0.065796
v 0.018408 0.03448384 -0.07270583
v 0.018408 0.1288339 -0.05425091
v 0.018408 0.1288339 0.065796
v 0.018408 0.223184 0.055796
v 0.018408 0.223184 -0.055796
v 0.018408 0.06896766 0.055796
v 0.13 0 0.1
v 0.018408 0 0.1
v 0.13 0.06896766 0.1
v 0.018408 0.06896766 0.1
v 0.018408 0 -0.07579599
v 0.13 0 -0.07579599

vn 0 0.1919627 -0.9814022
vn 0 0.1053979 0.9944301
vn 0 -0.1647563 0.9863344
vn 0 -0.01637389 -0.9998659
vn 0 0.08925451 -0.9960089

vt 2.196693 0
vt 2.135863 -3.71457
vt -2.196693 0
vt -2.196693 -6.07151
vt 2.862434 -7.429141
vt -2.590394 -3.71457
vt 4.393386 -7.840456
vt 0 -7.840456
vt 4.393386 -4.055493
vt 0 -4.055493
vt -1.075695E-15 -3.966903
vt -4.393386 -3.966903
vt -9.122059E-16 -0.2315268
vt -4.393386 -0.2315268
vt 0 -2.196693
vt 4.393386 2.196693
vt -8.506924E-16 -5.626619
vt -4.393386 -5.626619
vt -1.003157E-15 -3.237025
vt -4.393386 -3.237025
vt 4.393386 -3.6791
vt 1.117339E-29 -3.6791
vt 4.393386 0.0359684
vt 1.149161E-29 0.0359684
vt -2.862434 -7.429141
vt -2.135863 -3.71457
vt 2.196693 -6.07151
vt 2.590394 -3.71457
vt 1.492342E-16 -8.786772
vt -4.393386 -8.786772
vt 1.492342E-16 -6.07151
vt -4.393386 -6.07151
vt 4.393386 -9.018046
vt -4.614369E-17 -9.018046
vt 4.393386 -7.654975
vt -4.426243E-17 -7.654975
vt 2.984094 -8.786772
vt -3.937008 -8.786772
vt -3.937008 -6.07151
vt -2.984094 -8.786772
vt 3.937008 -8.786772
vt 3.937008 -6.07151
vt -2.82305E-32 2.196693
vt -2.82305E-32 3.937008
vt 4.393386 3.937008
vt 0 3.937008
vt 0 -2.984094
vt -4.393386 3.937008
vt -4.393386 -2.984094

usemtl wood

f 101/197/11 100/196/11 99/195/11
f 102/198/11 100/196/11 101/197/11
f 100/196/11 102/198/11 103/199/11
f 102/198/11 101/197/11 104/200/11
f 106/203/35 103/202/35 105/201/35
f 103/202/35 106/203/35 100/204/35
f 101/207/36 107/206/36 104/205/36
f 107/206/36 101/207/36 108/208/36
f 109/87/20 101/90/20 99/209/20
f 101/90/20 109/87/20 108/210/20
f 104/213/37 110/212/37 102/211/37
f 110/212/37 104/213/37 107/214/37
f 109/217/38 100/216/38 106/215/38
f 100/216/38 109/217/38 99/218/38
f 110/221/16 106/220/16 105/219/16
f 108/195/16 106/220/16 110/221/16
f 106/220/16 108/195/16 109/197/16
f 108/195/16 110/221/16 107/222/16

usemtl stone

f 113/225/17 112/224/17 111/223/17
f 112/224/17 113/225/17 114/226/17
f 105/229/39 116/228/39 115/227/39
f 116/228/39 105/229/39 103/230/39
f 103/199/11 111/232/11 116/231/11
f 111/232/11 103/199/11 102/198/11
f 111/232/11 102/198/11 113/233/11
f 112/235/16 105/219/16 115/234/16
f 105/219/16 112/235/16 110/221/16
f 110/221/16 112/235/16 114/236/16
f 110/210/20 113/238/20 102/237/20
f 113/238/20 110/210/20 114/239/20
f 112/242/21 116/241/21 111/240/21
f 116/241/21 112/242/21 115/243/21

g legRight

v -0.018408 0.06896766 0.05579599
v -0.13 0.06896766 0.05579599
v -0.018408 0.1288339 0.065796
v -0.13 0.1288339 0.065796
v -0.018408 0.223184 -0.055796
v -0.018408 0.223184 0.05579599
v -0.13 0.223184 -0.055796
v -0.13 0.223184 0.05579599
v -0.13 0.03448384 -0.07270583
v -0.018408 0.03448384 -0.07270583
v -0.13 0.1288339 -0.05425091
v -0.018408 0.1288339 -0.05425091
v -0.018408 1.490116E-08 0.1
v -0.13 1.490116E-08 0.1
v -0.018408 0.06896766 0.1
v -0.13 0.06896766 0.1
v -0.13 1.490116E-08 -0.07579599
v -0.018408 1.490116E-08 -0.07579599

vn 0 -0.1414268 0.8466694
vn 0 0.1647808 -0.8424357
vn 0 -0.01405535 -0.8582849
vn 0 0.09047356 0.8536188
vn 0 0.07661607 -0.854974
vn 0 -0.8584 0

vt 5.11811 -6.554776
vt -5.783444E-14 -6.554776
vt 5.11811 -3.770998
vt -5.801205E-14 -3.770998
vt -5.11811 2.559055
vt 5.684342E-14 -2.559055
vt 5.684342E-14 2.559055
vt 5.684342E-14 -9.133802
vt -5.11811 -9.133802
vt 5.684342E-14 -4.72448
vt -5.11811 -4.72448
vt -3.334616 -8.654637
vt -2.488191 -4.327319
vt 2.559055 -7.073054
vt 2.559055 1.776357E-15
vt -2.559055 1.776357E-15
vt 3.0177 -4.327319
vt 5.684342E-14 -4.285997
vt -5.11811 -4.285997
vt 5.684342E-14 0.04190169
vt -5.11811 0.04190169
vt 2.488191 -4.327319
vt -2.559055 -7.073054
vt 3.334616 -8.654637
vt -3.0177 -4.327319
vt 5.11811 -4.621275
vt -5.809656E-14 -4.621275
vt 5.11811 -0.269719
vt -5.79061E-14 -0.269719
vt 5.11811 -10.23622
vt -5.666957E-14 -10.23622
vt 5.11811 -7.073054
vt -5.666957E-14 -7.073054
vt 5.678966E-14 -10.50565
vt -5.11811 -10.50565
vt 5.679185E-14 -8.917725
vt -5.11811 -8.917725
vt 5.11811 4.586449
vt 5.11811 -3.476345
vt -5.684342E-14 4.586449
vt -5.684342E-14 -3.476345
vt -3.476345 -10.23622
vt 4.586449 -10.23622
vt 4.586449 -7.073054
vt 3.476345 -10.23622
vt -4.586449 -10.23622
vt -4.586449 -7.073054
vt -5.11811 4.586449
vt 5.684342E-14 4.586449

usemtl wood

f 119/246/40 118/245/40 117/244/40
f 118/245/40 119/246/40 120/247/40
f 123/249/7 122/248/7 121/44/7
f 122/248/7 123/249/7 124/250/7
f 127/253/41 126/252/41 125/251/41
f 126/252/41 127/253/41 128/254/41
f 118/257/1 127/256/1 125/255/1
f 124/258/1 127/256/1 118/257/1
f 127/256/1 124/258/1 123/259/1
f 124/258/1 118/257/1 120/260/1
f 123/263/42 128/262/42 127/261/42
f 128/262/42 123/263/42 121/264/42
f 122/259/6 128/265/6 121/258/6
f 117/266/6 128/265/6 122/259/6
f 128/265/6 117/266/6 126/267/6
f 117/266/6 122/259/6 119/268/6
f 122/271/43 120/270/43 119/269/43
f 120/270/43 122/271/43 124/272/43

usemtl stone

f 131/275/8 130/274/8 129/273/8
f 130/274/8 131/275/8 132/276/8
f 125/279/44 134/278/44 133/277/44
f 134/278/44 125/279/44 126/280/44
f 130/283/45 134/282/45 129/281/45
f 134/282/45 130/283/45 133/284/45
f 130/286/1 125/255/1 133/285/1
f 125/255/1 130/286/1 118/257/1
f 118/257/1 130/286/1 132/287/1
f 126/267/6 129/289/6 134/288/6
f 129/289/6 126/267/6 117/266/6
f 129/289/6 117/266/6 131/290/6
f 118/250/7 131/291/7 117/248/7
f 131/291/7 118/250/7 132/292/7

