# Created by Kenney (www.kenney.nl) 

mtllib bench.mtl 

g bench

v 0.2242257 3.695284E-17 0.1052336 
v 0.2242257 0.1227812 0.1089188 
v 0.2242257 0 0.1366436 
v 0.2242257 0.09214259 0.08442719 
v 0.2242257 0.3247761 0.1326829 
v 0.2242257 0.1227812 0.05366727 
v 0.2242257 0.09214259 -0.1010259 
v 0.2242257 0.1227812 -0.1247615 
v 0.2242257 3.695284E-17 -0.1248046 
v 0.2242257 0 -0.156447 
v 0.2242257 0.3247761 0.156447 
v -0.263609 3.695284E-17 0.1052336 
v -0.2242257 1.231761E-16 0.1052336 
v -0.263609 0.09214259 0.08442719 
v -0.2242257 0.09214259 0.08442719 
v 0.263609 1.231761E-16 -0.1248046 
v 0.263609 0.09214259 -0.1010259 
v 0.263609 1.231761E-16 0.1052336 
v 0.263609 0.09214259 0.08442719 
v 0.263609 0 0.1366436 
v 0.263609 0.1227812 0.1089188 
v -0.263609 0.1227812 0.05366727 
v -0.2242257 0.1227812 0.05366727 
v -0.263609 0.3247761 0.1326829 
v -0.2242257 0.3247761 0.1326829 
v 0.263609 0 -0.156447 
v 0.263609 0.1227812 -0.1247615 
v -0.2242257 0 0.1366436 
v -0.263609 0 0.1366436 
v -0.2242257 0.1227812 0.1089188 
v -0.263609 0.1227812 0.1089188 
v -0.2242257 0.09214259 -0.1010259 
v -0.263609 0.09214259 -0.1010259 
v -0.2242257 0 -0.156447 
v -0.2242257 1.231761E-16 -0.1248046 
v -0.2242257 0.1227812 -0.1247615 
v -0.2242257 0.3247761 0.156447 
v -0.263609 3.695284E-17 -0.1248046 
v 0.263609 0.1227812 0.05366727 
v -0.263609 0.3247761 0.156447 
v 0.263609 0.3247761 0.1326829 
v 0.263609 0.3247761 0.156447 
v -0.263609 0.1227812 -0.1247615 
v -0.263609 0 -0.156447 

vn -1 0 0 
vn 0 -0.2202609 -0.975441 
vn 0 -0.249878 0.9682773 
vn 0 0.2202609 0.975441 
vn 0 0.3642961 -0.9312832 
vn 0 0.249878 -0.9682773 
vn 0 -1 0 
vn 1 0 0 
vn 0 1 0 
vn 0 -0.2290393 0.9734171 

vt 4.143054 -6.087151E-14 
vt 4.288142 4.833906 
vt 5.379669 -6.232634E-14 
vt 3.323905 3.627661 
vt 5.223737 12.78646 
vt 2.112885 4.833906 
vt -3.977397 3.627661 
vt -4.911872 4.833906 
vt -4.913568 -6.087151E-14 
vt -6.159331 -6.232634E-14 
vt 6.159331 12.78646 
vt 10.37831 -0.9125528 
vt 8.827782 -0.9125528 
vt 10.37831 2.806443 
vt 8.827782 2.806443 
vt 8.827782 -1.227793 
vt 8.827782 2.518718 
vt 10.37831 -1.227793 
vt 10.37831 2.518718 
vt -8.827782 -0.9125528 
vt -10.37831 -0.9125528 
vt -8.827782 2.806443 
vt -10.37831 2.806443 
vt 10.37831 -1.184931 
vt 8.827782 -1.184931 
vt 10.37831 3.77068 
vt 8.827782 3.77068 
vt 10.37831 5.271451 
vt 8.827782 5.271451 
vt 10.37831 13.8108 
vt 8.827782 13.8108 
vt -8.827782 -1.539082 
vt -10.37831 -1.539082 
vt -8.827782 3.453192 
vt -10.37831 3.453192 
vt -8.827782 -1.184931 
vt -10.37831 -1.184931 
vt -8.827782 3.77068 
vt -10.37831 3.77068 
vt -8.827782 3.323905 
vt -8.827782 -3.977397 
vt -10.37831 3.323905 
vt -10.37831 -3.977397 
vt 6.159331 -8.02093E-15 
vt 4.913568 -3.171476E-15 
vt 4.911872 4.833906 
vt 3.977397 3.627661 
vt -2.112885 4.833906 
vt -3.323905 3.627661 
vt -5.223737 12.78646 
vt -4.288142 4.833906 
vt -4.143054 -3.171476E-15 
vt -6.159331 12.78646 
vt -5.379669 -8.02093E-15 
vt -10.37831 -1.227793 
vt -10.37831 2.518718 
vt -8.827782 -1.227793 
vt -8.827782 2.518718 
vt -10.37831 2.112885 
vt -8.827782 2.112885 
vt -10.37831 -4.911872 
vt -8.827782 -4.911872 
vt 8.827782 6.159331 
vt 10.37831 6.159332 
vt 8.827782 5.223737 
vt 10.37831 5.223737 
vt 6.159331 9.429738E-15 
vt 4.913568 1.427919E-14 
vt -4.143054 1.427919E-14 
vt -5.379669 9.429738E-15 
vt 10.37831 3.323905 
vt 10.37831 -3.977397 
vt 8.827782 3.323905 
vt 8.827782 -3.977397 
vt -10.37831 6.159331 
vt -8.827782 6.159331 
vt -10.37831 5.223737 
vt -8.827782 5.223737 
vt -8.827782 5.271451 
vt -10.37831 5.271451 
vt -8.827782 13.8108 
vt -10.37831 13.8108 
vt 8.827782 2.112885 
vt 10.37831 2.112885 
vt 8.827782 -4.911872 
vt 10.37831 -4.911872 
vt -8.827782 5.68756 
vt -10.37831 5.68756 
vt -8.827782 13.85729 
vt -10.37831 13.85729 
vt 10.37831 5.68756 
vt 8.827782 5.68756 
vt 10.37831 13.85729 
vt 8.827782 13.85729 
vt 10.37831 -1.539082 
vt 8.827782 -1.539082 
vt 10.37831 3.453192 
vt 8.827782 3.453192 
vt 4.143054 7.472828E-14 
vt 5.379669 7.327344E-14 
vt -4.913568 7.472828E-14 
vt -6.159331 7.327344E-14 
vt 10.37831 -4.913568 
vt 10.37831 -6.159332 
vt 8.827782 -4.913568 
vt 8.827782 -6.159331 
vt -8.827782 -4.913568 
vt -8.827782 -6.159331 
vt -10.37831 -4.913568 
vt -10.37831 -6.159331 
vt -8.827782 5.379669 
vt -8.827782 4.143054 
vt -10.37831 5.379669 
vt -10.37831 4.143054 
vt 10.37831 5.379669 
vt 10.37831 4.143054 
vt 8.827782 5.379669 
vt 8.827782 4.143054 

usemtl stone

f 2/2/1 1/1/1 3/3/1 
f 4/4/1 1/1/1 2/2/1 
f 4/4/1 2/2/1 5/5/1 
f 4/4/1 5/5/1 6/6/1 
f 7/7/1 4/4/1 6/6/1 
f 7/7/1 6/6/1 8/8/1 
f 9/9/1 7/7/1 8/8/1 
f 8/8/1 10/10/1 9/9/1 
f 2/2/1 11/11/1 5/5/1 
f 13/13/2 12/12/2 14/14/2 
f 14/14/2 15/15/2 13/13/2 
f 7/17/3 9/16/3 16/18/3 
f 16/18/3 17/19/3 7/17/3 
f 18/21/2 1/20/2 4/22/2 
f 4/22/2 19/23/2 18/21/2 
f 3/25/4 20/24/4 21/26/4 
f 21/26/4 2/27/4 3/25/4 
f 23/29/5 22/28/5 24/30/5 
f 24/30/5 25/31/5 23/29/5 
f 26/33/6 10/32/6 8/34/6 
f 8/34/6 27/35/6 26/33/6 
f 29/37/4 28/36/4 30/38/4 
f 30/38/4 31/39/4 29/37/4 
f 32/41/7 15/40/7 14/42/7 
f 14/42/7 33/43/7 32/41/7 
f 35/45/8 34/44/8 36/46/8 
f 36/46/8 32/47/8 35/45/8 
f 36/46/8 23/48/8 32/47/8 
f 23/48/8 15/49/8 32/47/8 
f 23/48/8 25/50/8 15/49/8 
f 25/50/8 30/51/8 15/49/8 
f 30/51/8 13/52/8 15/49/8 
f 25/50/8 37/53/8 30/51/8 
f 13/52/8 30/51/8 28/54/8 
f 33/56/3 38/55/3 35/57/3 
f 35/57/3 32/58/3 33/56/3 
f 6/60/9 39/59/9 27/61/9 
f 27/61/9 8/62/9 6/60/9 
f 40/64/9 37/63/9 25/65/9 
f 25/65/9 24/66/9 40/64/9 
f 16/68/8 26/67/8 27/46/8 
f 27/46/8 17/47/8 16/68/8 
f 27/46/8 39/48/8 17/47/8 
f 39/48/8 19/49/8 17/47/8 
f 39/48/8 41/50/8 19/49/8 
f 41/50/8 21/51/8 19/49/8 
f 21/51/8 18/69/8 19/49/8 
f 41/50/8 42/53/8 21/51/8 
f 18/69/8 21/51/8 20/70/8 
f 17/72/7 19/71/7 4/73/7 
f 4/73/7 7/74/7 17/72/7 
f 11/76/9 42/75/9 41/77/9 
f 41/77/9 5/78/9 11/76/9 
f 39/80/5 6/79/5 5/81/5 
f 5/81/5 41/82/5 39/80/5 
f 22/84/9 23/83/9 36/85/9 
f 36/85/9 43/86/9 22/84/9 
f 31/88/10 30/87/10 37/89/10 
f 37/89/10 40/90/10 31/88/10 
f 2/92/10 21/91/10 42/93/10 
f 42/93/10 11/94/10 2/92/10 
f 34/96/6 44/95/6 43/97/6 
f 43/97/6 36/98/6 34/96/6 
f 31/2/1 12/99/1 29/100/1 
f 14/4/1 12/99/1 31/2/1 
f 14/4/1 31/2/1 24/5/1 
f 14/4/1 24/5/1 22/6/1 
f 33/7/1 14/4/1 22/6/1 
f 33/7/1 22/6/1 43/8/1 
f 38/101/1 33/7/1 43/8/1 
f 43/8/1 44/102/1 38/101/1 
f 31/2/1 40/11/1 24/5/1 
f 26/104/7 16/103/7 9/105/7 
f 9/105/7 10/106/7 26/104/7 
f 34/108/7 35/107/7 38/109/7 
f 38/109/7 44/110/7 34/108/7 
f 13/112/7 28/111/7 29/113/7 
f 29/113/7 12/114/7 13/112/7 
f 18/116/7 20/115/7 3/117/7 
f 3/117/7 1/118/7 18/116/7 
g bench




usemtl stone

f 2/2/1 1/1/1 3/3/1 
f 4/4/1 1/1/1 2/2/1 
f 4/4/1 2/2/1 5/5/1 
f 4/4/1 5/5/1 6/6/1 
f 7/7/1 4/4/1 6/6/1 
f 7/7/1 6/6/1 8/8/1 
f 9/9/1 7/7/1 8/8/1 
f 8/8/1 10/10/1 9/9/1 
f 2/2/1 11/11/1 5/5/1 
f 13/13/2 12/12/2 14/14/2 
f 14/14/2 15/15/2 13/13/2 
f 7/17/3 9/16/3 16/18/3 
f 16/18/3 17/19/3 7/17/3 
f 18/21/2 1/20/2 4/22/2 
f 4/22/2 19/23/2 18/21/2 
f 3/25/4 20/24/4 21/26/4 
f 21/26/4 2/27/4 3/25/4 
f 23/29/5 22/28/5 24/30/5 
f 24/30/5 25/31/5 23/29/5 
f 26/33/6 10/32/6 8/34/6 
f 8/34/6 27/35/6 26/33/6 
f 29/37/4 28/36/4 30/38/4 
f 30/38/4 31/39/4 29/37/4 
f 32/41/7 15/40/7 14/42/7 
f 14/42/7 33/43/7 32/41/7 
f 35/45/8 34/44/8 36/46/8 
f 36/46/8 32/47/8 35/45/8 
f 36/46/8 23/48/8 32/47/8 
f 23/48/8 15/49/8 32/47/8 
f 23/48/8 25/50/8 15/49/8 
f 25/50/8 30/51/8 15/49/8 
f 30/51/8 13/52/8 15/49/8 
f 25/50/8 37/53/8 30/51/8 
f 13/52/8 30/51/8 28/54/8 
f 33/56/3 38/55/3 35/57/3 
f 35/57/3 32/58/3 33/56/3 
f 6/60/9 39/59/9 27/61/9 
f 27/61/9 8/62/9 6/60/9 
f 40/64/9 37/63/9 25/65/9 
f 25/65/9 24/66/9 40/64/9 
f 16/68/8 26/67/8 27/46/8 
f 27/46/8 17/47/8 16/68/8 
f 27/46/8 39/48/8 17/47/8 
f 39/48/8 19/49/8 17/47/8 
f 39/48/8 41/50/8 19/49/8 
f 41/50/8 21/51/8 19/49/8 
f 21/51/8 18/69/8 19/49/8 
f 41/50/8 42/53/8 21/51/8 
f 18/69/8 21/51/8 20/70/8 
f 17/72/7 19/71/7 4/73/7 
f 4/73/7 7/74/7 17/72/7 
f 11/76/9 42/75/9 41/77/9 
f 41/77/9 5/78/9 11/76/9 
f 39/80/5 6/79/5 5/81/5 
f 5/81/5 41/82/5 39/80/5 
f 22/84/9 23/83/9 36/85/9 
f 36/85/9 43/86/9 22/84/9 
f 31/88/10 30/87/10 37/89/10 
f 37/89/10 40/90/10 31/88/10 
f 2/92/10 21/91/10 42/93/10 
f 42/93/10 11/94/10 2/92/10 
f 34/96/6 44/95/6 43/97/6 
f 43/97/6 36/98/6 34/96/6 
f 31/2/1 12/99/1 29/100/1 
f 14/4/1 12/99/1 31/2/1 
f 14/4/1 31/2/1 24/5/1 
f 14/4/1 24/5/1 22/6/1 
f 33/7/1 14/4/1 22/6/1 
f 33/7/1 22/6/1 43/8/1 
f 38/101/1 33/7/1 43/8/1 
f 43/8/1 44/102/1 38/101/1 
f 31/2/1 40/11/1 24/5/1 
f 26/104/7 16/103/7 9/105/7 
f 9/105/7 10/106/7 26/104/7 
f 34/108/7 35/107/7 38/109/7 
f 38/109/7 44/110/7 34/108/7 
f 13/112/7 28/111/7 29/113/7 
f 29/113/7 12/114/7 13/112/7 
f 18/116/7 20/115/7 3/117/7 
f 3/117/7 1/118/7 18/116/7 
g Group

v 0.3029923 0.1911438 0.05502183 
v 0.3029923 0.2509053 0.07839912 
v -0.3029923 0.1911438 0.05502184 
v -0.3029923 0.2509053 0.07839913 
v -0.3029923 0.1825308 0.07703992 
v -0.3029923 0.2422923 0.1004172 
v 0.3029923 0.2502605 0.1035342 
v -0.3029923 0.2502605 0.1035342 
v 0.3029923 0.310022 0.1269115 
v -0.3029923 0.310022 0.1269115 
v 0.3029923 0.318635 0.1048934 
v -0.3029923 0.318635 0.1048934 
v 0.3029923 0.2588735 0.08151609 
v 0.3029923 0.1825308 0.07703991 
v 0.3029923 0.2422923 0.1004172 
v -0.3029923 0.2588735 0.0815161 

vn -1.387727E-08 0.3642961 -0.9312832 
vn -1 0 1.490123E-08 
vn 1.387727E-08 -0.3642961 0.9312832 
vn 5.428461E-09 0.9312832 0.3642961 
vn 1 0 -1.490123E-08 
vn -5.428461E-09 -0.9312832 -0.3642961 

vt 4.584292E-14 0.5342721 
vt -2.011664E-13 6.913025 
vt 60.23622 0.5342721 
vt 60.23622 6.913025 
vt -0.7220586 0.8561469 
vt 1.601696 6.796572 
vt 1.466588 -2.101285E-12 
vt 3.790342 5.940425 
vt 1.256912E-13 7.763525 
vt -60.23622 7.763525 
vt 4.195739E-13 14.14228 
vt -60.23622 14.14228 
vt 3.719211E-14 0.984332 
vt -2.980642E-14 -1.365808 
vt -60.23622 0.984332 
vt -60.23622 -1.365808 
vt -1.91153 7.588629 
vt -4.100176 6.732482 
vt -4.235285 13.52905 
vt -6.423931 12.67291 
vt -3.350282E-15 0.984332 
vt 60.23622 0.984332 
vt 4.615522E-13 -1.365808 
vt 60.23622 -1.365808 
vt 0.7220586 0.8561469 
vt -1.466588 -2.211248E-26 
vt -1.601696 6.796572 
vt -3.790342 5.940425 
vt -1.016639E-13 0.984332 
vt 1.983792E-13 -1.365808 
vt 7.749227E-14 0.984332 
vt -2.225537E-13 -1.365808 
vt -3.589076E-13 0.5342721 
vt -60.23622 0.5342721 
vt 7.716401E-14 6.913025 
vt -60.23622 6.913025 
vt -2.527923E-13 7.763525 
vt -3.335663E-13 14.14228 
vt 60.23622 7.763525 
vt 60.23622 14.14228 
vt 1.91153 7.588629 
vt 4.235285 13.52905 
vt 4.100176 6.732482 
vt 6.423931 12.67291 

usemtl woodDark

f 46/120/11 45/119/11 47/121/11 
f 47/121/11 48/122/11 46/120/11 
f 48/124/12 47/123/12 49/125/12 
f 49/125/12 50/126/12 48/124/12 
f 52/128/13 51/127/13 53/129/13 
f 53/129/13 54/130/13 52/128/13 
f 53/132/14 55/131/14 56/133/14 
f 56/133/14 54/134/14 53/132/14 
f 51/136/15 57/135/15 55/137/15 
f 55/137/15 53/138/15 51/136/15 
f 47/140/16 45/139/16 58/141/16 
f 58/141/16 49/142/16 47/140/16 
f 58/144/15 45/143/15 46/145/15 
f 46/145/15 59/146/15 58/144/15 
f 60/140/16 57/147/16 51/148/16 
f 51/148/16 52/142/16 60/140/16 
f 59/150/14 46/149/14 48/133/14 
f 48/133/14 50/134/14 59/150/14 
f 49/152/13 58/151/13 59/153/13 
f 59/153/13 50/154/13 49/152/13 
f 55/156/11 57/155/11 60/157/11 
f 60/157/11 56/158/11 55/156/11 
f 56/160/12 60/159/12 52/161/12 
f 52/161/12 54/162/12 56/160/12 
g Group

v 0.3029923 0.1227812 -0.02503275 
v -0.3029923 0.1227812 -0.02503274 
v 0.3029923 0.1227812 0.05366728 
v -0.3029923 0.1227812 0.0536673 
v -0.3029923 0.1227812 -0.1247615 
v 0.3029923 0.1227812 -0.1247615 
v -0.3029923 0.1465453 -0.1247615 
v 0.3029923 0.1465453 -0.1247615 
v 0.3029923 0.1465453 0.06296324 
v -0.3029923 0.1465453 0.06296325 
v 0.3029923 0.1465453 -0.03676555 
v 0.3029923 0.1227812 -0.03676555 
v -0.3029923 0.1465453 -0.02503274 
v 0.3029923 0.1465453 -0.02503275 
v -0.3029923 0.1227812 -0.03676555 
v -0.3029923 0.1465453 -0.03676555 

vn -1.490123E-08 0 -1 
vn 1.353656E-08 -0.4180612 0.9084188 
vn 1.490123E-08 0 1 

vt 0 11.66266 
vt -60.23622 11.66266 
vt -1.136868E-13 20.86614 
vt -60.23622 20.86614 
vt 60.23622 0 
vt 0 0 
vt 60.23622 2.362205 
vt 0 2.362205 
vt -1.136868E-13 8.723326 
vt -60.23622 8.723326 
vt 1.136868E-13 11.32367 
vt -60.23622 11.32367 
vt -10.29058 2.362205 
vt -10.29058 -2.018281E-28 
vt 11.66266 5.413705E-13 
vt 11.66266 2.362205 
vt 20.86614 -7.944498E-13 
vt 21.95325 2.362205 
vt -11.66266 2.362205 
vt -11.66266 1.266982E-27 
vt -21.95325 2.362205 
vt -20.86614 -3.559184E-27 
vt -7.883952E-13 5.045866E-21 
vt -8.452386E-13 2.362205 
vt 60.23622 1.33582E-12 
vt -8.755263E-14 21.95325 
vt 60.23622 21.95325 
vt -3.070921E-14 11.66266 
vt 60.23622 11.66266 
vt 0 10.29058 
vt -60.23622 10.29058 
vt -60.23622 6.82121E-13 
vt 6.956428E-13 4.006768E-21 
vt -60.23622 1.33582E-12 
vt 7.382754E-13 2.362205 
vt -60.23622 2.362205 
vt -1.649835E-14 10.29058 
vt 60.23622 10.29058 
vt 2.613421E-14 1.529773E-13 
vt 60.23622 8.350984E-13 
vt 9.251999E-13 -7.136492E-13 
vt 9.251999E-13 2.362205 
vt 10.29058 6.221712E-13 
vt 10.29058 2.362205 

usemtl woodDark

f 62/164/7 61/163/7 63/165/7 
f 63/165/7 64/166/7 62/164/7 
f 66/168/17 65/167/17 67/169/17 
f 67/169/17 68/170/17 66/168/17 
f 64/172/18 63/171/18 69/173/18 
f 69/173/18 70/174/18 64/172/18 
f 66/168/15 68/170/15 71/175/15 
f 71/175/15 72/176/15 66/168/15 
f 73/178/12 62/177/12 64/179/12 
f 64/179/12 70/180/12 73/178/12 
f 61/182/15 74/181/15 69/183/15 
f 69/183/15 63/184/15 61/182/15 
f 74/186/17 61/185/17 62/187/17 
f 62/187/17 73/169/17 74/186/17 
f 70/189/9 69/188/9 74/190/9 
f 74/190/9 73/191/9 70/189/9 
f 66/168/7 72/192/7 75/193/7 
f 75/193/7 65/194/7 66/168/7 
f 75/196/19 72/195/19 71/197/19 
f 71/197/19 76/198/19 75/196/19 
f 76/200/9 71/199/9 68/201/9 
f 68/201/9 67/202/9 76/200/9 
f 67/204/12 65/203/12 75/205/12 
f 75/205/12 76/206/12 67/204/12 
