# Created by Kenney (www.kenney.nl)

mtllib fountainSquareDetail.mtl

g fountainSquareDetail

v 0.9625 0.14 -1
v 0.97 0.112 -0.97
v 1 0.14 -0.9625
v 0.9625 0.28 -1
v 1 0.28 -0.9625
v 0.925 0.28 0.925
v 0.7 0.28 -0.7
v 0.925 0.28 -0.925
v -0.925 0.28 -0.925
v -0.7 0.28 -0.7
v -0.7 0.28 0.7
v 0.7 0.28 0.7
v -0.925 0.28 0.925
v -0.97 0.112 -0.97
v -0.9625 0.14 -1
v -1 0.14 -0.9625
v -1 0.28 -0.9625
v -1 0.14 0.9625
v -1 0.28 0.9625
v -0.97 0.056 -0.97
v 0.97 0.056 -0.97
v 0.7 0 -0.7
v -0.7 0 -0.7
v 0.7 0.14 -0.7
v -0.7 0.14 -0.7
v -0.97 0.056 0.97
v -0.97 0.112 0.97
v -0.9625 0.28 -1
v -0.7 0.14 0.7
v -0.7 0 0.7
v -0.9625 0.14 1
v -0.9625 0.28 1
v 0.7 0 0.7
v 0.7 0.14 0.7
v 1 0.14 0.9625
v 0.97 0.112 0.97
v 0.9625 0.14 1
v 0.97 0.056 0.97
v 0.9625 0.28 1
v 1 0.28 0.9625
v 1 0 1
v -1 0 1
v -1 0 -1
v 1 0 -1
v 0.25 0 -0.25
v 0.25 0 0.25
v -0.25 0 -0.25
v -0.25 0 0.25
v 0.25 0.14 -0.25
v 0.25 0.14 0.25
v 0.25 0.28 -0.25
v 0.25 0.28 0.25
v -0.25 0.14 -0.25
v -0.25 0.28 -0.25
v -0.25 0.14 0.25
v -0.25 0.28 0.25
v -0.275 0.38 -0.275
v 0.275 0.38 -0.275
v 0.275 0.38 0.275
v -0.275 0.38 0.275
v 0.1740251 0.48 0.1740251
v 0.1740251 0.48 -0.1740251
v 0.275 0.48 -0.275
v -0.275 0.48 -0.275
v -0.1740251 0.48 -0.1740251
v -0.275 0.48 0.275
v 0.275 0.48 0.275
v -0.1740251 0.48 0.1740251
v -0.1740251 0.38 -0.1740251
v -0.1740251 0.38 0.1740251
v -0.1740251 0.28 -0.1740251
v -0.1740251 0.28 0.1740251
v 0.1740251 0.28 0.1740251
v 0.1740251 0.38 0.1740251
v 0.1740251 0.28 -0.1740251
v 0.1740251 0.38 -0.1740251
v -1 0.056 -1
v -1 0.056 1
v 1 0.056 -1
v 1 0.056 1

vn 0.614791 -0.4940285 -0.614791
vn 0.7071068 0 -0.7071068
vn 0 1 0
vn -0.614791 -0.4940285 -0.614791
vn -1 0 0
vn 0 0 -1
vn 0 0 1
vn -0.7071068 0 -0.7071068
vn 0 -0.7310552 -0.6823182
vn 1 0 0
vn -0.7071068 0 0.7071068
vn -0.614791 -0.4940285 0.614791
vn 0.6823182 -0.7310552 0
vn -0.6823182 -0.7310552 0
vn 0 -0.7310552 0.6823182
vn 0.7071068 0 0.7071068
vn 0 -1 0
vn 0.614791 -0.4940285 0.614791
vn 0.9914113 -0.1307809 0
vn 0 -0.1307809 -0.9914113
vn -0.9914113 -0.1307809 0
vn 0 -0.1307809 0.9914113
vn 0 -0.1121652 -0.9936895
vn 0.9936895 -0.1121652 0
vn -0.9936895 -0.1121652 0
vn 0 -0.1121652 0.9936895

vt 1.043957 31.78284
vt -3.513634E-12 30.51495
vt -1.043957 31.78284
vt 1.043957 5.511811
vt -1.043957 5.511811
vt 1.043957 11.02362
vt -1.043957 11.02362
vt -36.41732 36.41732
vt -27.55906 -27.55906
vt -36.41732 -36.41732
vt 36.41732 -36.41732
vt 27.55906 -27.55906
vt 27.55906 27.55906
vt -27.55906 27.55906
vt 36.41732 36.41732
vt -6.227907E-12 30.51495
vt -37.8937 5.511811
vt -37.8937 11.02362
vt 37.8937 5.511811
vt 37.8937 11.02362
vt 38.18898 2.204724
vt -38.18898 2.204724
vt 38.18898 4.409449
vt -38.18898 4.409449
vt 27.55906 2.842171E-13
vt -27.55906 2.842171E-13
vt 27.55906 5.511811
vt -27.55906 5.511811
vt 27.55906 11.02362
vt -27.55906 11.02362
vt -38.18898 30.9269
vt -37.8937 32.54251
vt 38.18898 30.9269
vt 37.8937 32.54251
vt 27.55906 3.573642E-25
vt -27.55906 3.573642E-25
vt -1.467271E-12 30.51495
vt -27.55906 1.421085E-13
vt 27.55906 1.421085E-13
vt 39.37008 39.37008
vt -39.37008 39.37008
vt -39.37008 -39.37008
vt 39.37008 -39.37008
vt 4.341416E-12 30.51495
vt -9.84252 -9.84252
vt -9.84252 9.84252
vt 9.84252 -9.84252
vt 9.84252 9.84252
vt 9.84252 5.511811
vt -9.84252 5.511811
vt 9.84252 11.02362
vt -9.84252 11.02362
vt 9.84252 2.842171E-12
vt -9.84252 2.842171E-12
vt -9.84252 3.045183E-12
vt 9.84252 3.045183E-12
vt -9.84252 -2.842171E-12
vt 9.84252 -2.842171E-12
vt -9.84252 -3.045183E-12
vt 9.84252 -3.045183E-12
vt 9.84252 13.08165
vt -9.84252 13.08165
vt 10.82677 17.13982
vt -10.82677 17.13982
vt -6.851382 6.851382
vt -6.851382 -6.851382
vt -10.82677 -10.82677
vt 10.82677 -10.82677
vt 6.851382 -6.851382
vt 10.82677 10.82677
vt -10.82677 10.82677
vt 6.851382 6.851382
vt 10.82677 18.89764
vt 10.82677 14.96063
vt -10.82677 18.89764
vt -10.82677 14.96063
vt 6.851382 18.89764
vt 6.851382 14.96063
vt -6.851382 18.89764
vt -6.851382 14.96063
vt 6.851382 11.02362
vt -6.851382 11.02362
vt -39.37008 0
vt -39.37008 2.204724
vt 39.37008 0
vt 39.37008 2.204724
vt 39.37008 1.635679E-27
vt -39.37008 1.635679E-27
vt -38.18898 -38.18898
vt 38.18898 -38.18898
vt 38.18898 38.18898
vt -38.18898 38.18898
vt -39.37008 -37.8937
vt -39.37008 37.8937
vt -37.8937 -39.37008
vt -37.8937 39.37008
vt 37.8937 -39.37008
vt 37.8937 39.37008
vt 39.37008 -37.8937
vt 39.37008 37.8937

usemtl stone

f 3/3/1 2/2/1 1/1/1
f 4/6/2 3/5/2 1/4/2
f 3/5/2 4/6/2 5/7/2
f 8/10/3 7/9/3 6/8/3
f 7/9/3 8/10/3 9/11/3
f 7/9/3 9/11/3 10/12/3
f 10/12/3 9/11/3 11/13/3
f 12/14/3 6/8/3 7/9/3
f 6/8/3 12/14/3 13/15/3
f 13/15/3 12/14/3 11/13/3
f 13/15/3 11/13/3 9/11/3
f 16/1/4 15/3/4 14/16/4
f 18/19/5 17/18/5 16/17/5
f 17/18/5 18/19/5 19/20/5
f 14/23/6 21/22/6 20/21/6
f 21/22/6 14/23/6 2/24/6
f 24/27/7 23/26/7 22/25/7
f 23/26/7 24/27/7 25/28/7
f 7/29/7 25/28/7 24/27/7
f 25/28/7 7/29/7 10/30/7
f 26/21/5 14/24/5 20/22/5
f 14/24/5 26/21/5 27/23/5
f 28/20/6 1/17/6 15/19/6
f 1/17/6 28/20/6 4/18/6
f 16/4/8 28/7/8 15/5/8
f 28/7/8 16/4/8 17/6/8
f 14/33/9 1/32/9 2/31/9
f 1/32/9 14/33/9 15/34/9
f 10/29/10 29/28/10 25/27/10
f 29/28/10 10/29/10 11/30/10
f 29/28/10 23/35/10 25/27/10
f 23/35/10 29/28/10 30/36/10
f 31/4/11 19/7/11 18/5/11
f 19/7/11 31/4/11 32/6/11
f 31/1/12 18/3/12 27/37/12
f 33/39/5 24/28/5 22/38/5
f 24/28/5 33/39/5 34/27/5
f 12/29/5 24/28/5 34/27/5
f 24/28/5 12/29/5 7/30/5
f 35/32/13 2/33/13 3/34/13
f 2/33/13 35/32/13 36/31/13
f 29/27/6 33/26/6 30/25/6
f 33/26/6 29/27/6 34/28/6
f 11/29/6 34/28/6 29/27/6
f 34/28/6 11/29/6 12/30/6
f 27/33/14 16/32/14 14/31/14
f 16/32/14 27/33/14 18/34/14
f 37/34/15 27/31/15 36/33/15
f 27/31/15 37/34/15 31/32/15
f 36/24/10 21/21/10 2/23/10
f 21/21/10 36/24/10 38/22/10
f 39/20/7 31/17/7 37/19/7
f 31/17/7 39/20/7 32/18/7
f 36/23/7 26/22/7 38/21/7
f 26/22/7 36/23/7 27/24/7
f 40/18/10 3/19/10 5/20/10
f 3/19/10 40/18/10 35/17/10
f 40/6/16 37/5/16 35/4/16
f 37/5/16 40/6/16 39/7/16
f 41/40/17 33/13/17 22/12/17
f 33/13/17 41/40/17 42/41/17
f 33/13/17 42/41/17 30/14/17
f 30/14/17 42/41/17 43/42/17
f 44/43/17 22/12/17 43/42/17
f 22/12/17 44/43/17 41/40/17
f 43/42/17 22/12/17 23/9/17
f 43/42/17 23/9/17 30/14/17
f 37/3/18 36/44/18 35/1/18
f 22/9/3 45/45/3 33/14/3
f 45/45/3 22/9/3 23/12/3
f 33/14/3 45/45/3 46/46/3
f 45/45/3 23/12/3 47/47/3
f 46/46/3 30/13/3 33/14/3
f 30/13/3 47/47/3 23/12/3
f 30/13/3 46/46/3 48/48/3
f 30/13/3 48/48/3 47/47/3
f 51/51/19 50/50/10 49/49/10
f 50/50/10 51/51/19 52/52/19
f 50/50/10 45/53/10 49/49/10
f 45/53/10 50/50/10 46/54/10
f 54/51/20 49/50/6 53/49/6
f 49/50/6 54/51/20 51/52/20
f 45/55/6 53/49/6 49/50/6
f 53/49/6 45/55/6 47/56/6
f 47/57/5 55/49/5 53/50/5
f 55/49/5 47/57/5 48/58/5
f 55/49/5 54/52/21 53/50/5
f 54/52/21 55/49/5 56/51/21
f 52/51/22 55/50/7 50/49/7
f 55/50/7 52/51/22 56/52/22
f 48/59/7 50/49/7 55/50/7
f 50/49/7 48/59/7 46/60/7
f 57/63/23 51/62/20 54/61/20
f 51/62/20 57/63/23 58/64/23
f 59/64/24 51/61/19 58/63/24
f 51/61/19 59/64/24 52/62/19
f 54/62/21 60/63/25 57/64/25
f 60/63/25 54/62/21 56/61/21
f 59/63/26 56/62/22 52/61/22
f 56/62/22 59/63/26 60/64/26
f 63/67/3 62/66/3 61/65/3
f 62/66/3 63/67/3 64/68/3
f 62/66/3 64/68/3 65/69/3
f 65/69/3 64/68/3 66/70/3
f 67/71/3 61/65/3 66/70/3
f 61/65/3 67/71/3 63/67/3
f 66/70/3 61/65/3 68/72/3
f 66/70/3 68/72/3 65/69/3
f 67/75/10 58/74/24 63/73/10
f 58/74/24 67/75/10 59/76/24
f 64/73/6 58/76/23 57/74/23
f 58/76/23 64/73/6 63/75/6
f 60/74/25 64/75/5 57/76/25
f 64/75/5 60/74/25 66/73/5
f 67/73/7 60/76/26 59/74/26
f 60/76/26 67/73/7 66/75/7
f 68/79/10 69/78/10 65/77/10
f 69/78/10 68/79/10 70/80/10
f 70/80/10 71/81/10 69/78/10
f 71/81/10 70/80/10 72/82/10
f 70/78/6 73/82/6 72/81/6
f 73/82/6 70/78/6 74/80/6
f 68/77/6 74/80/6 70/78/6
f 74/80/6 68/77/6 61/79/6
f 73/81/5 76/80/5 75/82/5
f 76/80/5 73/81/5 74/78/5
f 74/78/5 62/79/5 76/80/5
f 62/79/5 74/78/5 61/77/5
f 62/77/7 69/80/7 76/78/7
f 69/80/7 62/77/7 65/79/7
f 71/82/7 76/78/7 69/80/7
f 76/78/7 71/82/7 75/81/7
f 75/66/3 72/72/3 73/65/3
f 72/72/3 75/66/3 71/69/3

usemtl stoneDark

f 42/85/5 77/84/5 43/83/5
f 77/84/5 42/85/5 78/86/5
f 77/86/6 44/88/6 43/87/6
f 44/88/6 77/86/6 79/84/6
f 79/42/3 21/89/3 80/41/3
f 21/89/3 79/42/3 77/43/3
f 21/89/3 77/43/3 20/90/3
f 20/90/3 77/43/3 26/91/3
f 38/92/3 80/41/3 21/89/3
f 80/41/3 38/92/3 78/40/3
f 78/40/3 38/92/3 26/91/3
f 78/40/3 26/91/3 77/43/3
f 4/95/3 40/94/3 5/93/3
f 40/94/3 4/95/3 39/96/3
f 39/96/3 4/95/3 8/10/3
f 8/10/3 4/95/3 28/97/3
f 8/10/3 28/97/3 9/11/3
f 9/11/3 28/97/3 13/15/3
f 6/8/3 39/96/3 8/10/3
f 39/96/3 6/8/3 32/98/3
f 32/98/3 6/8/3 13/15/3
f 32/98/3 13/15/3 28/97/3
f 32/98/3 28/97/3 17/99/3
f 32/98/3 17/99/3 19/100/3
f 80/84/10 44/85/10 79/86/10
f 44/85/10 80/84/10 41/83/10
f 80/86/7 42/83/7 41/85/7
f 42/83/7 80/86/7 78/84/7

usemtl water

f 76/66/3 70/72/3 74/65/3
f 70/72/3 76/66/3 69/69/3
f 74/65/17 70/72/17 76/66/17
f 69/69/17 76/66/17 70/72/17
f 24/9/3 49/45/3 34/14/3
f 49/45/3 24/9/3 25/12/3
f 34/14/3 49/45/3 50/46/3
f 49/45/3 25/12/3 53/47/3
f 50/46/3 29/13/3 34/14/3
f 29/13/3 53/47/3 25/12/3
f 29/13/3 50/46/3 55/48/3
f 29/13/3 55/48/3 53/47/3
f 34/14/17 49/45/17 24/9/17
f 25/12/17 24/9/17 49/45/17
f 50/46/17 49/45/17 34/14/17
f 53/47/17 25/12/17 49/45/17
f 34/14/17 29/13/17 50/46/17
f 25/12/17 53/47/17 29/13/17
f 55/48/17 50/46/17 29/13/17
f 53/47/17 55/48/17 29/13/17

