# Created by Kenney (www.kenney.nl)

mtllib rockWide.mtl

g rockWide

v -0.439219 3.613091E-16 -0.5768782
v -0.3136649 3.613091E-16 -0.5768782
v -0.3748367 0.4072408 -0.4778041
v -0.2976652 0.4072408 -0.4778041
v -0.1796614 0.4072408 -0.2025732
v -0.2652129 0.2002343 -0.09005556
v -0.2652129 0.4072408 -0.1404164
v -0.0289792 0.6477 -0.1930085
v -0.1073572 0.6477 -0.2499534
v -0.0289792 1.02 -0.2382054
v -0.2506705 1.02 -0.3992736
v -0.3288872 0.4072408 -0.3817128
v -0.1610714 0.4072408 -0.2597875
v 0.2601317 0.4918261 -0.3841369
v 0.181996 0.6477 -0.346291
v 0.1927121 1.02 -0.3992736
v -0.4425881 0.4072408 -0.269287
v -0.3163568 3.613091E-16 -0.07850049
v -0.5467607 3.613091E-16 -0.2458988
v 0.4314691 1.806545E-16 0.1041904
v 0.5467607 0 0.4590216
v 0.2867848 0.32385 0.1306795
v 0.3814072 0.32385 0.4218974
v 0.1856318 0.32385 0.5641366
v 0.09795097 0.32385 0.2678753
v -0.1016636 0.32385 0.480039
v -0.08779508 0.32385 0.1329229
v -0.1816886 0.32385 0.4218974
v 0.1885013 3.613091E-16 -0.7837145
v 0.2795318 3.613091E-16 -0.5035515
v 0.1080335 1.02 -0.6598873
v -0.2324794 1.806545E-16 0.1064338
v -0.3470421 0 0.4590216
v 0.09985931 0 0.7837145
v 0.09985931 0.109603 0.7304916
v -0.03600979 1.02 -0.6598873
v -0.2061586 1.02 -0.5362669
v -0.2464597 3.613091E-16 -0.7837145
v -0.2062259 0.51 -0.7218009
v 0.3741513 3.613091E-16 -0.5035515
v 0.5448524 3.613091E-16 0.02181263
v -0.3489505 3.613091E-16 0.02181263
v 0.3482031 0.6477 -0.1116299
v 0.2975656 0.6477 0.04421648
v 0.2719571 0.6477 -0.346291
v 0.09795097 0.6477 0.189245
v -0.1016636 0.6477 0.04421648
v -0.1523012 0.6477 -0.1116299
v -0.2805434 0.2679549 0.006454275
v 0.5168715 0.109603 0.01553052

vn 0 0.2363867 -0.9716591
vn 0.576721 0.193114 0.7937883
vn -0.5849708 0.09774375 0.8051431
vn 0.5849708 0.09774375 0.8051431
vn 0 1 0
vn -0.576721 0.193114 0.7937883
vn 0.8672327 0.4104959 -0.281781
vn 0.9450901 0.1118372 -0.3070784
vn -0.8672327 0.4104959 -0.281781
vn 0.5470822 0.3656516 0.752994
vn 0 0.1205144 -0.9927117
vn 0 -1 0
vn -0.9450901 0.1118372 -0.3070784
vn -0.9277537 0.2200083 -0.3014455
vn -0.5767636 0.1927448 0.793847
vn 0 0.2359435 -0.9717667
vn -0.9278428 0.2195926 -0.3014744
vn -0.5638591 0.2824081 -0.7760854
vn -0.8777108 0.3850884 0.2851855
vn -0.5470822 0.3656516 0.752994
vn -0.2132455 0.651019 0.728492
vn 0.9278428 0.2195926 -0.3014744
vn 0.5767636 0.1927448 0.793847
vn 0.8916292 0.3479466 0.2897079

vt 17.29209 -5.368753
vt 12.34901 -5.368753
vt 14.75735 11.132
vt 11.7191 11.132
vt -1.034632 17.78019
vt -6.363322 9.473975
vt -5.197914 17.78019
vt -5.389458 25.91323
vt -9.20365 25.91323
vt -6.435367 40.64124
vt -17.22377 40.64124
vt -19.30868 16.40078
vt -11.14208 16.40078
vt 17.17484 19.87803
vt 13.81034 26.04433
vt 15.37773 40.77233
vt 3.543421 26.04433
vt 4.58933 40.77233
vt 11.7191 -18.81118
vt 12.94831 -15.02806
vt 14.75735 -18.81118
vt 17.42473 -10.60185
vt 10.44145 -5.528205
vt 7.073285 -7.975321
vt 6.341393 -10.22785
vt -11.89289 -0.930913
vt -23.10529 -0.930913
vt -10.5313 7.103566
vt -20.32851 15.40978
vt -11.69671 15.40978
vt -9.150483 -6.111459
vt -23.83913 -6.111459
vt -8.382084 7.870914
vt -20.43739 7.870914
vt -15.01603 16.61013
vt -7.308338 22.2101
vt -11.29074 5.144861
vt -3.856337 10.54627
vt 4.002505 18.89917
vt 3.456499 5.233183
vt 7.153095 16.61013
vt 27.05144 -1.85569
vt 15.45378 -1.85569
vt 23.39393 38.55531
vt 12.60553 38.55531
vt 11.21854 17.62978
vt 6.81357 -3.04173
vt 6.04517 10.94064
vt 21.40935 -3.04173
vt 18.0076 10.94064
vt 6.792623 -9.972415
vt -14.95543 -9.972415
vt 2.385034 3.726188
vt -13.72379 -5.336295
vt -7.142201 3.726188
vt -7.587089 -15.71943
vt 1.140914 -9.378167
vt -4.253289 -25.97981
vt 1.417708 -25.97981
vt 9.868917 -15.71943
vt 8.116482 -21.11287
vt 9.703139 -3.718461
vt -7.421312 -3.718461
vt 8.119128 16.5077
vt -4.253289 36.73385
vt 1.417708 36.73385
vt 3.931469 30.8549
vt -9.152734 4.190308
vt -13.66308 18.07172
vt -9.703139 -30.8549
vt 7.421312 -30.8549
vt 11.00519 -19.82486
vt 14.73036 -19.82486
vt 16.98697 4.101985
vt 21.45088 0.8587651
vt 21.52601 18.07172
vt -12.45499 -3.090571
vt -13.73821 0.8587651
vt -12.34901 -22.71174
vt -17.29209 -22.71174
vt -21.52601 -9.681055
vt -26.34632 -2.098393
vt -24.51756 18.10711
vt -17.78409 -2.098393
vt -17.5714 38.3126
vt -14.2691 14.03593
vt -11.9004 38.3126
vt -10.29129 14.03593
vt -16.2566 -5.16229
vt -13.33023 11.27352
vt -2.555326 -5.16229
vt -4.698423 11.27352
vt -13.70879 -4.394879
vt -11.71518 1.740806
vt -10.70697 -13.6335
vt -3.856337 7.45059
vt -7.165198 -13.6335
vt 1.140914 -7.59876
vt 4.002505 1.740806
vt 4.226661 -9.840686
vt 5.99611 -4.394879
vt 9.318785 11.3033
vt 0.2796214 11.3033
vt 7.499189 24.29694
vt -2.214875 24.29694
vt -8.786244 9.060653
vt -10.60967 -1.690348
vt -4.941716 -1.690348
vt -11.00519 -4.677547
vt -14.73036 -4.677547
vt -10.24141 15.24825
vt -10.70697 21.56332
vt -7.165198 21.56332
vt -7.76767 13.62335
vt -8.052938 23.3271
vt -5.399215 13.62335
vt -2.326879 23.3271
vt -0.1453799 5.26959
vt 3.654766 8.002461
vt 0.9094967 -2.810881
vt 5.062074 -2.810881
vt -5.843462 32.35183
vt -10.13479 11.42109
vt -14.1236 32.35183
vt -3.171428 5.66046
vt -6.032679 21.8604
vt 0.4187632 21.8604
vt 21.31668 -8.282476
vt -0.4313728 -8.282476
vt 20.08504 -3.646356
vt 3.976217 5.416127
vt 7.870559 5.416127
vt 13.25357 -2.862214
vt 11.85264 -13.97452
vt 1.468091 -2.862214
vt 14.30263 -4.421634
vt -7.445422 -4.421634
vt 9.657595 21.71635
vt -0.05646904 21.71635
vt -6.869783 0.001402208
vt 11.33166 -2.564136
vt 6.110327 10.42951
vt 16.84936 -2.564136
vt 16.10351 1.8334
vt 8.454559 23.42315
vt -3.0791 10.42951
vt -1.259504 23.42315
vt 8.416026 19.84269
vt 5.706759 -2.754212
vt 1.964584 19.84269

usemtl stone

f 3/3/1 2/2/1 1/1/1
f 2/2/1 3/3/1 4/4/1
f 7/7/2 6/6/2 5/5/2
f 10/10/3 9/9/3 8/8/3
f 11/11/3 9/9/3 10/10/3
f 12/12/3 9/9/3 11/11/3
f 9/9/3 12/12/3 13/13/3
f 16/16/4 15/15/4 14/14/4
f 15/15/4 16/16/4 8/17/4
f 8/17/4 16/16/4 10/18/4
f 3/21/5 12/20/5 4/19/5
f 17/22/5 12/20/5 3/21/5
f 7/23/5 12/20/5 17/22/5
f 5/24/5 12/20/5 7/23/5
f 12/20/5 5/24/5 13/25/5
f 6/28/6 19/27/6 18/26/6
f 19/27/6 6/28/6 17/29/6
f 17/29/6 6/28/6 7/30/6
f 22/33/7 21/32/7 20/31/7
f 21/32/7 22/33/7 23/34/7
f 22/37/5 24/36/5 23/35/5
f 24/36/5 22/37/5 25/38/5
f 24/36/5 25/38/5 26/39/5
f 26/39/5 25/38/5 27/40/5
f 26/39/5 27/40/5 28/41/5
f 31/44/8 30/43/8 29/42/8
f 30/43/8 31/44/8 16/45/8
f 30/43/8 16/45/8 14/46/8
f 33/49/9 27/48/9 32/47/9
f 27/48/9 33/49/9 28/50/9
f 23/53/10 34/52/10 21/51/10
f 34/52/10 23/53/10 35/54/10
f 35/54/10 23/53/10 24/55/10
f 31/58/5 10/57/5 16/56/5
f 10/57/5 31/58/5 36/59/5
f 10/57/5 36/59/5 11/60/5
f 11/60/5 36/59/5 37/61/5
f 39/64/11 29/63/11 38/62/11
f 29/63/11 39/64/11 31/65/11
f 31/65/11 39/64/11 36/66/11
f 33/69/12 32/68/12 34/67/12
f 38/70/12 34/67/12 32/68/12
f 29/71/12 34/67/12 38/70/12
f 30/72/12 34/67/12 29/71/12
f 40/73/12 34/67/12 30/72/12
f 20/74/12 34/67/12 40/73/12
f 40/73/12 41/75/12 20/74/12
f 34/67/12 20/74/12 21/76/12
f 38/70/12 32/68/12 18/77/12
f 18/77/12 32/68/12 42/78/12
f 38/70/12 18/77/12 2/79/12
f 18/77/12 1/80/12 2/79/12
f 1/80/12 18/77/12 19/81/12
f 2/84/13 39/83/13 38/82/13
f 39/83/13 2/84/13 37/85/13
f 37/85/13 2/84/13 4/86/13
f 37/85/13 4/86/13 11/87/13
f 11/87/13 4/86/13 12/88/13
f 19/91/14 3/90/14 1/89/14
f 3/90/14 19/91/14 17/92/14
f 45/95/5 44/94/5 43/93/5
f 44/94/5 45/95/5 46/96/5
f 46/96/5 45/95/5 15/97/5
f 46/96/5 15/97/5 8/98/5
f 46/96/5 8/98/5 47/99/5
f 47/99/5 8/98/5 9/100/5
f 47/99/5 9/100/5 48/101/5
f 46/104/15 27/103/15 25/102/15
f 47/105/15 27/103/15 46/104/15
f 49/106/15 27/103/15 47/105/15
f 42/107/15 27/103/15 49/106/15
f 27/103/15 42/107/15 32/108/15
f 14/111/16 40/110/16 30/109/16
f 40/110/16 14/111/16 45/112/16
f 45/112/16 14/111/16 15/113/16
f 5/116/17 9/115/17 13/114/17
f 9/115/17 5/116/17 48/117/17
f 48/117/17 5/116/17 6/118/17
f 48/117/17 6/118/17 49/119/17
f 49/119/17 6/118/17 18/120/17
f 49/119/17 18/120/17 42/121/17
f 36/124/18 39/123/18 37/122/18
f 47/127/19 48/126/19 49/125/19
f 35/130/20 33/129/20 34/128/20
f 33/129/20 35/130/20 28/131/20
f 28/131/20 35/130/20 26/132/20
f 26/135/21 35/134/21 24/133/21
f 45/138/22 41/137/22 40/136/22
f 41/137/22 45/138/22 43/139/22
f 41/137/22 43/139/22 50/140/22
f 41/143/23 22/142/23 20/141/23
f 22/142/23 41/143/23 50/144/23
f 22/142/23 50/144/23 44/145/23
f 22/142/23 44/145/23 25/146/23
f 25/146/23 44/145/23 46/147/23
f 44/150/24 50/149/24 43/148/24

